<?xml version="1.0" encoding="utf-8" standalone="no"?>
<!DOCTYPE svg PUBLIC "-//W3C//DTD SVG 1.1//EN"
  "http://www.w3.org/Graphics/SVG/1.1/DTD/svg11.dtd">
<svg xmlns:xlink="http://www.w3.org/1999/xlink" width="720pt" height="360pt" viewBox="0 0 720 360" xmlns="http://www.w3.org/2000/svg" version="1.1">
 <metadata>
  <rdf:RDF xmlns:dc="http://purl.org/dc/elements/1.1/" xmlns:cc="http://creativecommons.org/ns#" xmlns:rdf="http://www.w3.org/1999/02/22-rdf-syntax-ns#">
   <cc:Work>
    <dc:type rdf:resource="http://purl.org/dc/dcmitype/StillImage"/>
    <dc:date>2025-07-31T20:43:52.807270</dc:date>
    <dc:format>image/svg+xml</dc:format>
    <dc:creator>
     <cc:Agent>
      <dc:title>Matplotlib v3.10.3, https://matplotlib.org/</dc:title>
     </cc:Agent>
    </dc:creator>
   </cc:Work>
  </rdf:RDF>
 </metadata>
 <defs>
  <style type="text/css">*{stroke-linejoin: round; stroke-linecap: butt}</style>
 </defs>
 <g id="figure_1">
  <g id="patch_1">
   <path d="M 0 360 
L 720 360 
L 720 0 
L 0 0 
z
" style="fill: #ffffff"/>
  </g>
  <g id="axes_1">
   <g id="patch_2">
    <path d="M 47.72 143.44 
L 354.6 143.44 
L 354.6 26.88 
L 47.72 26.88 
z
" style="fill: #ffffff"/>
   </g>
   <g id="patch_3">
    <path d="M 61.669091 143.44 
L 72.399161 143.44 
L 72.399161 42.148169 
L 61.669091 42.148169 
z
" clip-path="url(#p748d3ed196)" style="fill: #1f77b4"/>
   </g>
   <g id="patch_4">
    <path d="M 104.589371 143.44 
L 115.319441 143.44 
L 115.319441 39.702533 
L 104.589371 39.702533 
z
" clip-path="url(#p748d3ed196)" style="fill: #1f77b4"/>
   </g>
   <g id="patch_5">
    <path d="M 147.50965 143.44 
L 158.23972 143.44 
L 158.23972 37.434929 
L 147.50965 37.434929 
z
" clip-path="url(#p748d3ed196)" style="fill: #1f77b4"/>
   </g>
   <g id="patch_6">
    <path d="M 190.42993 143.44 
L 201.16 143.44 
L 201.16 33.827502 
L 190.42993 33.827502 
z
" clip-path="url(#p748d3ed196)" style="fill: #1f77b4"/>
   </g>
   <g id="patch_7">
    <path d="M 233.35021 143.44 
L 244.08028 143.44 
L 244.08028 32.430476 
L 233.35021 32.430476 
z
" clip-path="url(#p748d3ed196)" style="fill: #1f77b4"/>
   </g>
   <g id="patch_8">
    <path d="M 276.27049 143.44 
L 287.000559 143.44 
L 287.000559 32.430476 
L 276.27049 32.430476 
z
" clip-path="url(#p748d3ed196)" style="fill: #1f77b4"/>
   </g>
   <g id="patch_9">
    <path d="M 319.190769 143.44 
L 329.920839 143.44 
L 329.920839 32.430476 
L 319.190769 32.430476 
z
" clip-path="url(#p748d3ed196)" style="fill: #1f77b4"/>
   </g>
   <g id="patch_10">
    <path d="M 72.399161 143.44 
L 83.129231 143.44 
L 83.129231 43.019971 
L 72.399161 43.019971 
z
" clip-path="url(#p748d3ed196)" style="fill: #ff7f0e"/>
   </g>
   <g id="patch_11">
    <path d="M 115.319441 143.44 
L 126.04951 143.44 
L 126.04951 42.20323 
L 115.319441 42.20323 
z
" clip-path="url(#p748d3ed196)" style="fill: #ff7f0e"/>
   </g>
   <g id="patch_12">
    <path d="M 158.23972 143.44 
L 168.96979 143.44 
L 168.96979 41.100476 
L 158.23972 41.100476 
z
" clip-path="url(#p748d3ed196)" style="fill: #ff7f0e"/>
   </g>
   <g id="patch_13">
    <path d="M 201.16 143.44 
L 211.89007 143.44 
L 211.89007 37.085902 
L 201.16 37.085902 
z
" clip-path="url(#p748d3ed196)" style="fill: #ff7f0e"/>
   </g>
   <g id="patch_14">
    <path d="M 244.08028 143.44 
L 254.81035 143.44 
L 254.81035 35.281423 
L 244.08028 35.281423 
z
" clip-path="url(#p748d3ed196)" style="fill: #ff7f0e"/>
   </g>
   <g id="patch_15">
    <path d="M 287.000559 143.44 
L 297.730629 143.44 
L 297.730629 34.525555 
L 287.000559 34.525555 
z
" clip-path="url(#p748d3ed196)" style="fill: #ff7f0e"/>
   </g>
   <g id="patch_16">
    <path d="M 329.920839 143.44 
L 340.650909 143.44 
L 340.650909 32.95417 
L 329.920839 32.95417 
z
" clip-path="url(#p748d3ed196)" style="fill: #ff7f0e"/>
   </g>
   <g id="matplotlib.axis_1">
    <g id="xtick_1">
     <g id="line2d_1">
      <defs>
       <path id="md93ae35eb3" d="M 0 0 
L 0 3.5 
" style="stroke: #000000; stroke-width: 0.8"/>
      </defs>
      <g>
       <use xlink:href="#md93ae35eb3" x="77.764196" y="143.44" style="stroke: #000000; stroke-width: 0.8"/>
      </g>
     </g>
     <g id="text_1">
      <!-- 2 -->
      <g transform="translate(74.582946 158.038438) scale(0.1 -0.1)">
       <defs>
        <path id="DejaVuSans-32" d="M 1228 531 
L 3431 531 
L 3431 0 
L 469 0 
L 469 531 
Q 828 903 1448 1529 
Q 2069 2156 2228 2338 
Q 2531 2678 2651 2914 
Q 2772 3150 2772 3378 
Q 2772 3750 2511 3984 
Q 2250 4219 1831 4219 
Q 1534 4219 1204 4116 
Q 875 4013 500 3803 
L 500 4441 
Q 881 4594 1212 4672 
Q 1544 4750 1819 4750 
Q 2544 4750 2975 4387 
Q 3406 4025 3406 3419 
Q 3406 3131 3298 2873 
Q 3191 2616 2906 2266 
Q 2828 2175 2409 1742 
Q 1991 1309 1228 531 
z
" transform="scale(0.015625)"/>
       </defs>
       <use xlink:href="#DejaVuSans-32"/>
      </g>
     </g>
    </g>
    <g id="xtick_2">
     <g id="line2d_2">
      <g>
       <use xlink:href="#md93ae35eb3" x="120.684476" y="143.44" style="stroke: #000000; stroke-width: 0.8"/>
      </g>
     </g>
     <g id="text_2">
      <!-- 3 -->
      <g transform="translate(117.503226 158.038438) scale(0.1 -0.1)">
       <defs>
        <path id="DejaVuSans-33" d="M 2597 2516 
Q 3050 2419 3304 2112 
Q 3559 1806 3559 1356 
Q 3559 666 3084 287 
Q 2609 -91 1734 -91 
Q 1441 -91 1130 -33 
Q 819 25 488 141 
L 488 750 
Q 750 597 1062 519 
Q 1375 441 1716 441 
Q 2309 441 2620 675 
Q 2931 909 2931 1356 
Q 2931 1769 2642 2001 
Q 2353 2234 1838 2234 
L 1294 2234 
L 1294 2753 
L 1863 2753 
Q 2328 2753 2575 2939 
Q 2822 3125 2822 3475 
Q 2822 3834 2567 4026 
Q 2313 4219 1838 4219 
Q 1578 4219 1281 4162 
Q 984 4106 628 3988 
L 628 4550 
Q 988 4650 1302 4700 
Q 1616 4750 1894 4750 
Q 2613 4750 3031 4423 
Q 3450 4097 3450 3541 
Q 3450 3153 3228 2886 
Q 3006 2619 2597 2516 
z
" transform="scale(0.015625)"/>
       </defs>
       <use xlink:href="#DejaVuSans-33"/>
      </g>
     </g>
    </g>
    <g id="xtick_3">
     <g id="line2d_3">
      <g>
       <use xlink:href="#md93ae35eb3" x="163.604755" y="143.44" style="stroke: #000000; stroke-width: 0.8"/>
      </g>
     </g>
     <g id="text_3">
      <!-- 4 -->
      <g transform="translate(160.423505 158.038438) scale(0.1 -0.1)">
       <defs>
        <path id="DejaVuSans-34" d="M 2419 4116 
L 825 1625 
L 2419 1625 
L 2419 4116 
z
M 2253 4666 
L 3047 4666 
L 3047 1625 
L 3713 1625 
L 3713 1100 
L 3047 1100 
L 3047 0 
L 2419 0 
L 2419 1100 
L 313 1100 
L 313 1709 
L 2253 4666 
z
" transform="scale(0.015625)"/>
       </defs>
       <use xlink:href="#DejaVuSans-34"/>
      </g>
     </g>
    </g>
    <g id="xtick_4">
     <g id="line2d_4">
      <g>
       <use xlink:href="#md93ae35eb3" x="206.525035" y="143.44" style="stroke: #000000; stroke-width: 0.8"/>
      </g>
     </g>
     <g id="text_4">
      <!-- 5 -->
      <g transform="translate(203.343785 158.038438) scale(0.1 -0.1)">
       <defs>
        <path id="DejaVuSans-35" d="M 691 4666 
L 3169 4666 
L 3169 4134 
L 1269 4134 
L 1269 2991 
Q 1406 3038 1543 3061 
Q 1681 3084 1819 3084 
Q 2600 3084 3056 2656 
Q 3513 2228 3513 1497 
Q 3513 744 3044 326 
Q 2575 -91 1722 -91 
Q 1428 -91 1123 -41 
Q 819 9 494 109 
L 494 744 
Q 775 591 1075 516 
Q 1375 441 1709 441 
Q 2250 441 2565 725 
Q 2881 1009 2881 1497 
Q 2881 1984 2565 2268 
Q 2250 2553 1709 2553 
Q 1456 2553 1204 2497 
Q 953 2441 691 2322 
L 691 4666 
z
" transform="scale(0.015625)"/>
       </defs>
       <use xlink:href="#DejaVuSans-35"/>
      </g>
     </g>
    </g>
    <g id="xtick_5">
     <g id="line2d_5">
      <g>
       <use xlink:href="#md93ae35eb3" x="249.445315" y="143.44" style="stroke: #000000; stroke-width: 0.8"/>
      </g>
     </g>
     <g id="text_5">
      <!-- 6 -->
      <g transform="translate(246.264065 158.038438) scale(0.1 -0.1)">
       <defs>
        <path id="DejaVuSans-36" d="M 2113 2584 
Q 1688 2584 1439 2293 
Q 1191 2003 1191 1497 
Q 1191 994 1439 701 
Q 1688 409 2113 409 
Q 2538 409 2786 701 
Q 3034 994 3034 1497 
Q 3034 2003 2786 2293 
Q 2538 2584 2113 2584 
z
M 3366 4563 
L 3366 3988 
Q 3128 4100 2886 4159 
Q 2644 4219 2406 4219 
Q 1781 4219 1451 3797 
Q 1122 3375 1075 2522 
Q 1259 2794 1537 2939 
Q 1816 3084 2150 3084 
Q 2853 3084 3261 2657 
Q 3669 2231 3669 1497 
Q 3669 778 3244 343 
Q 2819 -91 2113 -91 
Q 1303 -91 875 529 
Q 447 1150 447 2328 
Q 447 3434 972 4092 
Q 1497 4750 2381 4750 
Q 2619 4750 2861 4703 
Q 3103 4656 3366 4563 
z
" transform="scale(0.015625)"/>
       </defs>
       <use xlink:href="#DejaVuSans-36"/>
      </g>
     </g>
    </g>
    <g id="xtick_6">
     <g id="line2d_6">
      <g>
       <use xlink:href="#md93ae35eb3" x="292.365594" y="143.44" style="stroke: #000000; stroke-width: 0.8"/>
      </g>
     </g>
     <g id="text_6">
      <!-- 7 -->
      <g transform="translate(289.184344 158.038438) scale(0.1 -0.1)">
       <defs>
        <path id="DejaVuSans-37" d="M 525 4666 
L 3525 4666 
L 3525 4397 
L 1831 0 
L 1172 0 
L 2766 4134 
L 525 4134 
L 525 4666 
z
" transform="scale(0.015625)"/>
       </defs>
       <use xlink:href="#DejaVuSans-37"/>
      </g>
     </g>
    </g>
    <g id="xtick_7">
     <g id="line2d_7">
      <g>
       <use xlink:href="#md93ae35eb3" x="335.285874" y="143.44" style="stroke: #000000; stroke-width: 0.8"/>
      </g>
     </g>
     <g id="text_7">
      <!-- 8 -->
      <g transform="translate(332.104624 158.038438) scale(0.1 -0.1)">
       <defs>
        <path id="DejaVuSans-38" d="M 2034 2216 
Q 1584 2216 1326 1975 
Q 1069 1734 1069 1313 
Q 1069 891 1326 650 
Q 1584 409 2034 409 
Q 2484 409 2743 651 
Q 3003 894 3003 1313 
Q 3003 1734 2745 1975 
Q 2488 2216 2034 2216 
z
M 1403 2484 
Q 997 2584 770 2862 
Q 544 3141 544 3541 
Q 544 4100 942 4425 
Q 1341 4750 2034 4750 
Q 2731 4750 3128 4425 
Q 3525 4100 3525 3541 
Q 3525 3141 3298 2862 
Q 3072 2584 2669 2484 
Q 3125 2378 3379 2068 
Q 3634 1759 3634 1313 
Q 3634 634 3220 271 
Q 2806 -91 2034 -91 
Q 1263 -91 848 271 
Q 434 634 434 1313 
Q 434 1759 690 2068 
Q 947 2378 1403 2484 
z
M 1172 3481 
Q 1172 3119 1398 2916 
Q 1625 2713 2034 2713 
Q 2441 2713 2670 2916 
Q 2900 3119 2900 3481 
Q 2900 3844 2670 4047 
Q 2441 4250 2034 4250 
Q 1625 4250 1398 4047 
Q 1172 3844 1172 3481 
z
" transform="scale(0.015625)"/>
       </defs>
       <use xlink:href="#DejaVuSans-38"/>
      </g>
     </g>
    </g>
    <g id="text_8">
     <!-- depth -->
     <g transform="translate(186.606094 171.716563) scale(0.1 -0.1)">
      <defs>
       <path id="DejaVuSans-64" d="M 2906 2969 
L 2906 4863 
L 3481 4863 
L 3481 0 
L 2906 0 
L 2906 525 
Q 2725 213 2448 61 
Q 2172 -91 1784 -91 
Q 1150 -91 751 415 
Q 353 922 353 1747 
Q 353 2572 751 3078 
Q 1150 3584 1784 3584 
Q 2172 3584 2448 3432 
Q 2725 3281 2906 2969 
z
M 947 1747 
Q 947 1113 1208 752 
Q 1469 391 1925 391 
Q 2381 391 2643 752 
Q 2906 1113 2906 1747 
Q 2906 2381 2643 2742 
Q 2381 3103 1925 3103 
Q 1469 3103 1208 2742 
Q 947 2381 947 1747 
z
" transform="scale(0.015625)"/>
       <path id="DejaVuSans-65" d="M 3597 1894 
L 3597 1613 
L 953 1613 
Q 991 1019 1311 708 
Q 1631 397 2203 397 
Q 2534 397 2845 478 
Q 3156 559 3463 722 
L 3463 178 
Q 3153 47 2828 -22 
Q 2503 -91 2169 -91 
Q 1331 -91 842 396 
Q 353 884 353 1716 
Q 353 2575 817 3079 
Q 1281 3584 2069 3584 
Q 2775 3584 3186 3129 
Q 3597 2675 3597 1894 
z
M 3022 2063 
Q 3016 2534 2758 2815 
Q 2500 3097 2075 3097 
Q 1594 3097 1305 2825 
Q 1016 2553 972 2059 
L 3022 2063 
z
" transform="scale(0.015625)"/>
       <path id="DejaVuSans-70" d="M 1159 525 
L 1159 -1331 
L 581 -1331 
L 581 3500 
L 1159 3500 
L 1159 2969 
Q 1341 3281 1617 3432 
Q 1894 3584 2278 3584 
Q 2916 3584 3314 3078 
Q 3713 2572 3713 1747 
Q 3713 922 3314 415 
Q 2916 -91 2278 -91 
Q 1894 -91 1617 61 
Q 1341 213 1159 525 
z
M 3116 1747 
Q 3116 2381 2855 2742 
Q 2594 3103 2138 3103 
Q 1681 3103 1420 2742 
Q 1159 2381 1159 1747 
Q 1159 1113 1420 752 
Q 1681 391 2138 391 
Q 2594 391 2855 752 
Q 3116 1113 3116 1747 
z
" transform="scale(0.015625)"/>
       <path id="DejaVuSans-74" d="M 1172 4494 
L 1172 3500 
L 2356 3500 
L 2356 3053 
L 1172 3053 
L 1172 1153 
Q 1172 725 1289 603 
Q 1406 481 1766 481 
L 2356 481 
L 2356 0 
L 1766 0 
Q 1100 0 847 248 
Q 594 497 594 1153 
L 594 3053 
L 172 3053 
L 172 3500 
L 594 3500 
L 594 4494 
L 1172 4494 
z
" transform="scale(0.015625)"/>
       <path id="DejaVuSans-68" d="M 3513 2113 
L 3513 0 
L 2938 0 
L 2938 2094 
Q 2938 2591 2744 2837 
Q 2550 3084 2163 3084 
Q 1697 3084 1428 2787 
Q 1159 2491 1159 1978 
L 1159 0 
L 581 0 
L 581 4863 
L 1159 4863 
L 1159 2956 
Q 1366 3272 1645 3428 
Q 1925 3584 2291 3584 
Q 2894 3584 3203 3211 
Q 3513 2838 3513 2113 
z
" transform="scale(0.015625)"/>
      </defs>
      <use xlink:href="#DejaVuSans-64"/>
      <use xlink:href="#DejaVuSans-65" transform="translate(63.476562 0)"/>
      <use xlink:href="#DejaVuSans-70" transform="translate(125 0)"/>
      <use xlink:href="#DejaVuSans-74" transform="translate(188.476562 0)"/>
      <use xlink:href="#DejaVuSans-68" transform="translate(227.685547 0)"/>
     </g>
    </g>
   </g>
   <g id="matplotlib.axis_2">
    <g id="ytick_1">
     <g id="line2d_8">
      <defs>
       <path id="md539298444" d="M 0 0 
L -3.5 0 
" style="stroke: #000000; stroke-width: 0.8"/>
      </defs>
      <g>
       <use xlink:href="#md539298444" x="47.72" y="143.44" style="stroke: #000000; stroke-width: 0.8"/>
      </g>
     </g>
     <g id="text_9">
      <!-- 0.00 -->
      <g transform="translate(18.454375 147.239219) scale(0.1 -0.1)">
       <defs>
        <path id="DejaVuSans-30" d="M 2034 4250 
Q 1547 4250 1301 3770 
Q 1056 3291 1056 2328 
Q 1056 1369 1301 889 
Q 1547 409 2034 409 
Q 2525 409 2770 889 
Q 3016 1369 3016 2328 
Q 3016 3291 2770 3770 
Q 2525 4250 2034 4250 
z
M 2034 4750 
Q 2819 4750 3233 4129 
Q 3647 3509 3647 2328 
Q 3647 1150 3233 529 
Q 2819 -91 2034 -91 
Q 1250 -91 836 529 
Q 422 1150 422 2328 
Q 422 3509 836 4129 
Q 1250 4750 2034 4750 
z
" transform="scale(0.015625)"/>
        <path id="DejaVuSans-2e" d="M 684 794 
L 1344 794 
L 1344 0 
L 684 0 
L 684 794 
z
" transform="scale(0.015625)"/>
       </defs>
       <use xlink:href="#DejaVuSans-30"/>
       <use xlink:href="#DejaVuSans-2e" transform="translate(63.623047 0)"/>
       <use xlink:href="#DejaVuSans-30" transform="translate(95.410156 0)"/>
       <use xlink:href="#DejaVuSans-30" transform="translate(159.033203 0)"/>
      </g>
     </g>
    </g>
    <g id="ytick_2">
     <g id="line2d_9">
      <g>
       <use xlink:href="#md539298444" x="47.72" y="115.687619" style="stroke: #000000; stroke-width: 0.8"/>
      </g>
     </g>
     <g id="text_10">
      <!-- 0.25 -->
      <g transform="translate(18.454375 119.486838) scale(0.1 -0.1)">
       <use xlink:href="#DejaVuSans-30"/>
       <use xlink:href="#DejaVuSans-2e" transform="translate(63.623047 0)"/>
       <use xlink:href="#DejaVuSans-32" transform="translate(95.410156 0)"/>
       <use xlink:href="#DejaVuSans-35" transform="translate(159.033203 0)"/>
      </g>
     </g>
    </g>
    <g id="ytick_3">
     <g id="line2d_10">
      <g>
       <use xlink:href="#md539298444" x="47.72" y="87.935238" style="stroke: #000000; stroke-width: 0.8"/>
      </g>
     </g>
     <g id="text_11">
      <!-- 0.50 -->
      <g transform="translate(18.454375 91.734457) scale(0.1 -0.1)">
       <use xlink:href="#DejaVuSans-30"/>
       <use xlink:href="#DejaVuSans-2e" transform="translate(63.623047 0)"/>
       <use xlink:href="#DejaVuSans-35" transform="translate(95.410156 0)"/>
       <use xlink:href="#DejaVuSans-30" transform="translate(159.033203 0)"/>
      </g>
     </g>
    </g>
    <g id="ytick_4">
     <g id="line2d_11">
      <g>
       <use xlink:href="#md539298444" x="47.72" y="60.182857" style="stroke: #000000; stroke-width: 0.8"/>
      </g>
     </g>
     <g id="text_12">
      <!-- 0.75 -->
      <g transform="translate(18.454375 63.982076) scale(0.1 -0.1)">
       <use xlink:href="#DejaVuSans-30"/>
       <use xlink:href="#DejaVuSans-2e" transform="translate(63.623047 0)"/>
       <use xlink:href="#DejaVuSans-37" transform="translate(95.410156 0)"/>
       <use xlink:href="#DejaVuSans-35" transform="translate(159.033203 0)"/>
      </g>
     </g>
    </g>
    <g id="ytick_5">
     <g id="line2d_12">
      <g>
       <use xlink:href="#md539298444" x="47.72" y="32.430476" style="stroke: #000000; stroke-width: 0.8"/>
      </g>
     </g>
     <g id="text_13">
      <!-- 1.00 -->
      <g transform="translate(18.454375 36.229695) scale(0.1 -0.1)">
       <defs>
        <path id="DejaVuSans-31" d="M 794 531 
L 1825 531 
L 1825 4091 
L 703 3866 
L 703 4441 
L 1819 4666 
L 2450 4666 
L 2450 531 
L 3481 531 
L 3481 0 
L 794 0 
L 794 531 
z
" transform="scale(0.015625)"/>
       </defs>
       <use xlink:href="#DejaVuSans-31"/>
       <use xlink:href="#DejaVuSans-2e" transform="translate(63.623047 0)"/>
       <use xlink:href="#DejaVuSans-30" transform="translate(95.410156 0)"/>
       <use xlink:href="#DejaVuSans-30" transform="translate(159.033203 0)"/>
      </g>
     </g>
    </g>
    <g id="text_14">
     <!-- sens -->
     <g transform="translate(12.374688 96.614688) rotate(-90) scale(0.1 -0.1)">
      <defs>
       <path id="DejaVuSans-73" d="M 2834 3397 
L 2834 2853 
Q 2591 2978 2328 3040 
Q 2066 3103 1784 3103 
Q 1356 3103 1142 2972 
Q 928 2841 928 2578 
Q 928 2378 1081 2264 
Q 1234 2150 1697 2047 
L 1894 2003 
Q 2506 1872 2764 1633 
Q 3022 1394 3022 966 
Q 3022 478 2636 193 
Q 2250 -91 1575 -91 
Q 1294 -91 989 -36 
Q 684 19 347 128 
L 347 722 
Q 666 556 975 473 
Q 1284 391 1588 391 
Q 1994 391 2212 530 
Q 2431 669 2431 922 
Q 2431 1156 2273 1281 
Q 2116 1406 1581 1522 
L 1381 1569 
Q 847 1681 609 1914 
Q 372 2147 372 2553 
Q 372 3047 722 3315 
Q 1072 3584 1716 3584 
Q 2034 3584 2315 3537 
Q 2597 3491 2834 3397 
z
" transform="scale(0.015625)"/>
       <path id="DejaVuSans-6e" d="M 3513 2113 
L 3513 0 
L 2938 0 
L 2938 2094 
Q 2938 2591 2744 2837 
Q 2550 3084 2163 3084 
Q 1697 3084 1428 2787 
Q 1159 2491 1159 1978 
L 1159 0 
L 581 0 
L 581 3500 
L 1159 3500 
L 1159 2956 
Q 1366 3272 1645 3428 
Q 1925 3584 2291 3584 
Q 2894 3584 3203 3211 
Q 3513 2838 3513 2113 
z
" transform="scale(0.015625)"/>
      </defs>
      <use xlink:href="#DejaVuSans-73"/>
      <use xlink:href="#DejaVuSans-65" transform="translate(52.099609 0)"/>
      <use xlink:href="#DejaVuSans-6e" transform="translate(113.623047 0)"/>
      <use xlink:href="#DejaVuSans-73" transform="translate(177.001953 0)"/>
     </g>
    </g>
   </g>
   <g id="patch_17">
    <path d="M 47.72 143.44 
L 47.72 26.88 
" style="fill: none; stroke: #000000; stroke-width: 0.8; stroke-linejoin: miter; stroke-linecap: square"/>
   </g>
   <g id="patch_18">
    <path d="M 354.6 143.44 
L 354.6 26.88 
" style="fill: none; stroke: #000000; stroke-width: 0.8; stroke-linejoin: miter; stroke-linecap: square"/>
   </g>
   <g id="patch_19">
    <path d="M 47.72 143.44 
L 354.6 143.44 
" style="fill: none; stroke: #000000; stroke-width: 0.8; stroke-linejoin: miter; stroke-linecap: square"/>
   </g>
   <g id="patch_20">
    <path d="M 47.72 26.88 
L 354.6 26.88 
" style="fill: none; stroke: #000000; stroke-width: 0.8; stroke-linejoin: miter; stroke-linecap: square"/>
   </g>
   <g id="text_15">
    <!-- M; in-sample sensitivity; dataset breast+cancer+wisconsin+diagnostic -->
    <g transform="translate(-12.626563 20.88) scale(0.12 -0.12)">
     <defs>
      <path id="DejaVuSans-4d" d="M 628 4666 
L 1569 4666 
L 2759 1491 
L 3956 4666 
L 4897 4666 
L 4897 0 
L 4281 0 
L 4281 4097 
L 3078 897 
L 2444 897 
L 1241 4097 
L 1241 0 
L 628 0 
L 628 4666 
z
" transform="scale(0.015625)"/>
      <path id="DejaVuSans-3b" d="M 750 3309 
L 1409 3309 
L 1409 2516 
L 750 2516 
L 750 3309 
z
M 750 794 
L 1409 794 
L 1409 256 
L 897 -744 
L 494 -744 
L 750 256 
L 750 794 
z
" transform="scale(0.015625)"/>
      <path id="DejaVuSans-20" transform="scale(0.015625)"/>
      <path id="DejaVuSans-69" d="M 603 3500 
L 1178 3500 
L 1178 0 
L 603 0 
L 603 3500 
z
M 603 4863 
L 1178 4863 
L 1178 4134 
L 603 4134 
L 603 4863 
z
" transform="scale(0.015625)"/>
      <path id="DejaVuSans-2d" d="M 313 2009 
L 1997 2009 
L 1997 1497 
L 313 1497 
L 313 2009 
z
" transform="scale(0.015625)"/>
      <path id="DejaVuSans-61" d="M 2194 1759 
Q 1497 1759 1228 1600 
Q 959 1441 959 1056 
Q 959 750 1161 570 
Q 1363 391 1709 391 
Q 2188 391 2477 730 
Q 2766 1069 2766 1631 
L 2766 1759 
L 2194 1759 
z
M 3341 1997 
L 3341 0 
L 2766 0 
L 2766 531 
Q 2569 213 2275 61 
Q 1981 -91 1556 -91 
Q 1019 -91 701 211 
Q 384 513 384 1019 
Q 384 1609 779 1909 
Q 1175 2209 1959 2209 
L 2766 2209 
L 2766 2266 
Q 2766 2663 2505 2880 
Q 2244 3097 1772 3097 
Q 1472 3097 1187 3025 
Q 903 2953 641 2809 
L 641 3341 
Q 956 3463 1253 3523 
Q 1550 3584 1831 3584 
Q 2591 3584 2966 3190 
Q 3341 2797 3341 1997 
z
" transform="scale(0.015625)"/>
      <path id="DejaVuSans-6d" d="M 3328 2828 
Q 3544 3216 3844 3400 
Q 4144 3584 4550 3584 
Q 5097 3584 5394 3201 
Q 5691 2819 5691 2113 
L 5691 0 
L 5113 0 
L 5113 2094 
Q 5113 2597 4934 2840 
Q 4756 3084 4391 3084 
Q 3944 3084 3684 2787 
Q 3425 2491 3425 1978 
L 3425 0 
L 2847 0 
L 2847 2094 
Q 2847 2600 2669 2842 
Q 2491 3084 2119 3084 
Q 1678 3084 1418 2786 
Q 1159 2488 1159 1978 
L 1159 0 
L 581 0 
L 581 3500 
L 1159 3500 
L 1159 2956 
Q 1356 3278 1631 3431 
Q 1906 3584 2284 3584 
Q 2666 3584 2933 3390 
Q 3200 3197 3328 2828 
z
" transform="scale(0.015625)"/>
      <path id="DejaVuSans-6c" d="M 603 4863 
L 1178 4863 
L 1178 0 
L 603 0 
L 603 4863 
z
" transform="scale(0.015625)"/>
      <path id="DejaVuSans-76" d="M 191 3500 
L 800 3500 
L 1894 563 
L 2988 3500 
L 3597 3500 
L 2284 0 
L 1503 0 
L 191 3500 
z
" transform="scale(0.015625)"/>
      <path id="DejaVuSans-79" d="M 2059 -325 
Q 1816 -950 1584 -1140 
Q 1353 -1331 966 -1331 
L 506 -1331 
L 506 -850 
L 844 -850 
Q 1081 -850 1212 -737 
Q 1344 -625 1503 -206 
L 1606 56 
L 191 3500 
L 800 3500 
L 1894 763 
L 2988 3500 
L 3597 3500 
L 2059 -325 
z
" transform="scale(0.015625)"/>
      <path id="DejaVuSans-62" d="M 3116 1747 
Q 3116 2381 2855 2742 
Q 2594 3103 2138 3103 
Q 1681 3103 1420 2742 
Q 1159 2381 1159 1747 
Q 1159 1113 1420 752 
Q 1681 391 2138 391 
Q 2594 391 2855 752 
Q 3116 1113 3116 1747 
z
M 1159 2969 
Q 1341 3281 1617 3432 
Q 1894 3584 2278 3584 
Q 2916 3584 3314 3078 
Q 3713 2572 3713 1747 
Q 3713 922 3314 415 
Q 2916 -91 2278 -91 
Q 1894 -91 1617 61 
Q 1341 213 1159 525 
L 1159 0 
L 581 0 
L 581 4863 
L 1159 4863 
L 1159 2969 
z
" transform="scale(0.015625)"/>
      <path id="DejaVuSans-72" d="M 2631 2963 
Q 2534 3019 2420 3045 
Q 2306 3072 2169 3072 
Q 1681 3072 1420 2755 
Q 1159 2438 1159 1844 
L 1159 0 
L 581 0 
L 581 3500 
L 1159 3500 
L 1159 2956 
Q 1341 3275 1631 3429 
Q 1922 3584 2338 3584 
Q 2397 3584 2469 3576 
Q 2541 3569 2628 3553 
L 2631 2963 
z
" transform="scale(0.015625)"/>
      <path id="DejaVuSans-2b" d="M 2944 4013 
L 2944 2272 
L 4684 2272 
L 4684 1741 
L 2944 1741 
L 2944 0 
L 2419 0 
L 2419 1741 
L 678 1741 
L 678 2272 
L 2419 2272 
L 2419 4013 
L 2944 4013 
z
" transform="scale(0.015625)"/>
      <path id="DejaVuSans-63" d="M 3122 3366 
L 3122 2828 
Q 2878 2963 2633 3030 
Q 2388 3097 2138 3097 
Q 1578 3097 1268 2742 
Q 959 2388 959 1747 
Q 959 1106 1268 751 
Q 1578 397 2138 397 
Q 2388 397 2633 464 
Q 2878 531 3122 666 
L 3122 134 
Q 2881 22 2623 -34 
Q 2366 -91 2075 -91 
Q 1284 -91 818 406 
Q 353 903 353 1747 
Q 353 2603 823 3093 
Q 1294 3584 2113 3584 
Q 2378 3584 2631 3529 
Q 2884 3475 3122 3366 
z
" transform="scale(0.015625)"/>
      <path id="DejaVuSans-77" d="M 269 3500 
L 844 3500 
L 1563 769 
L 2278 3500 
L 2956 3500 
L 3675 769 
L 4391 3500 
L 4966 3500 
L 4050 0 
L 3372 0 
L 2619 2869 
L 1863 0 
L 1184 0 
L 269 3500 
z
" transform="scale(0.015625)"/>
      <path id="DejaVuSans-6f" d="M 1959 3097 
Q 1497 3097 1228 2736 
Q 959 2375 959 1747 
Q 959 1119 1226 758 
Q 1494 397 1959 397 
Q 2419 397 2687 759 
Q 2956 1122 2956 1747 
Q 2956 2369 2687 2733 
Q 2419 3097 1959 3097 
z
M 1959 3584 
Q 2709 3584 3137 3096 
Q 3566 2609 3566 1747 
Q 3566 888 3137 398 
Q 2709 -91 1959 -91 
Q 1206 -91 779 398 
Q 353 888 353 1747 
Q 353 2609 779 3096 
Q 1206 3584 1959 3584 
z
" transform="scale(0.015625)"/>
      <path id="DejaVuSans-67" d="M 2906 1791 
Q 2906 2416 2648 2759 
Q 2391 3103 1925 3103 
Q 1463 3103 1205 2759 
Q 947 2416 947 1791 
Q 947 1169 1205 825 
Q 1463 481 1925 481 
Q 2391 481 2648 825 
Q 2906 1169 2906 1791 
z
M 3481 434 
Q 3481 -459 3084 -895 
Q 2688 -1331 1869 -1331 
Q 1566 -1331 1297 -1286 
Q 1028 -1241 775 -1147 
L 775 -588 
Q 1028 -725 1275 -790 
Q 1522 -856 1778 -856 
Q 2344 -856 2625 -561 
Q 2906 -266 2906 331 
L 2906 616 
Q 2728 306 2450 153 
Q 2172 0 1784 0 
Q 1141 0 747 490 
Q 353 981 353 1791 
Q 353 2603 747 3093 
Q 1141 3584 1784 3584 
Q 2172 3584 2450 3431 
Q 2728 3278 2906 2969 
L 2906 3500 
L 3481 3500 
L 3481 434 
z
" transform="scale(0.015625)"/>
     </defs>
     <use xlink:href="#DejaVuSans-4d"/>
     <use xlink:href="#DejaVuSans-3b" transform="translate(86.279297 0)"/>
     <use xlink:href="#DejaVuSans-20" transform="translate(119.970703 0)"/>
     <use xlink:href="#DejaVuSans-69" transform="translate(151.757812 0)"/>
     <use xlink:href="#DejaVuSans-6e" transform="translate(179.541016 0)"/>
     <use xlink:href="#DejaVuSans-2d" transform="translate(242.919922 0)"/>
     <use xlink:href="#DejaVuSans-73" transform="translate(279.003906 0)"/>
     <use xlink:href="#DejaVuSans-61" transform="translate(331.103516 0)"/>
     <use xlink:href="#DejaVuSans-6d" transform="translate(392.382812 0)"/>
     <use xlink:href="#DejaVuSans-70" transform="translate(489.794922 0)"/>
     <use xlink:href="#DejaVuSans-6c" transform="translate(553.271484 0)"/>
     <use xlink:href="#DejaVuSans-65" transform="translate(581.054688 0)"/>
     <use xlink:href="#DejaVuSans-20" transform="translate(642.578125 0)"/>
     <use xlink:href="#DejaVuSans-73" transform="translate(674.365234 0)"/>
     <use xlink:href="#DejaVuSans-65" transform="translate(726.464844 0)"/>
     <use xlink:href="#DejaVuSans-6e" transform="translate(787.988281 0)"/>
     <use xlink:href="#DejaVuSans-73" transform="translate(851.367188 0)"/>
     <use xlink:href="#DejaVuSans-69" transform="translate(903.466797 0)"/>
     <use xlink:href="#DejaVuSans-74" transform="translate(931.25 0)"/>
     <use xlink:href="#DejaVuSans-69" transform="translate(970.458984 0)"/>
     <use xlink:href="#DejaVuSans-76" transform="translate(998.242188 0)"/>
     <use xlink:href="#DejaVuSans-69" transform="translate(1057.421875 0)"/>
     <use xlink:href="#DejaVuSans-74" transform="translate(1085.205078 0)"/>
     <use xlink:href="#DejaVuSans-79" transform="translate(1124.414062 0)"/>
     <use xlink:href="#DejaVuSans-3b" transform="translate(1183.59375 0)"/>
     <use xlink:href="#DejaVuSans-20" transform="translate(1217.285156 0)"/>
     <use xlink:href="#DejaVuSans-64" transform="translate(1249.072266 0)"/>
     <use xlink:href="#DejaVuSans-61" transform="translate(1312.548828 0)"/>
     <use xlink:href="#DejaVuSans-74" transform="translate(1373.828125 0)"/>
     <use xlink:href="#DejaVuSans-61" transform="translate(1413.037109 0)"/>
     <use xlink:href="#DejaVuSans-73" transform="translate(1474.316406 0)"/>
     <use xlink:href="#DejaVuSans-65" transform="translate(1526.416016 0)"/>
     <use xlink:href="#DejaVuSans-74" transform="translate(1587.939453 0)"/>
     <use xlink:href="#DejaVuSans-20" transform="translate(1627.148438 0)"/>
     <use xlink:href="#DejaVuSans-62" transform="translate(1658.935547 0)"/>
     <use xlink:href="#DejaVuSans-72" transform="translate(1722.412109 0)"/>
     <use xlink:href="#DejaVuSans-65" transform="translate(1761.275391 0)"/>
     <use xlink:href="#DejaVuSans-61" transform="translate(1822.798828 0)"/>
     <use xlink:href="#DejaVuSans-73" transform="translate(1884.078125 0)"/>
     <use xlink:href="#DejaVuSans-74" transform="translate(1936.177734 0)"/>
     <use xlink:href="#DejaVuSans-2b" transform="translate(1975.386719 0)"/>
     <use xlink:href="#DejaVuSans-63" transform="translate(2059.175781 0)"/>
     <use xlink:href="#DejaVuSans-61" transform="translate(2114.15625 0)"/>
     <use xlink:href="#DejaVuSans-6e" transform="translate(2175.435547 0)"/>
     <use xlink:href="#DejaVuSans-63" transform="translate(2238.814453 0)"/>
     <use xlink:href="#DejaVuSans-65" transform="translate(2293.794922 0)"/>
     <use xlink:href="#DejaVuSans-72" transform="translate(2355.318359 0)"/>
     <use xlink:href="#DejaVuSans-2b" transform="translate(2396.431641 0)"/>
     <use xlink:href="#DejaVuSans-77" transform="translate(2480.220703 0)"/>
     <use xlink:href="#DejaVuSans-69" transform="translate(2562.007812 0)"/>
     <use xlink:href="#DejaVuSans-73" transform="translate(2589.791016 0)"/>
     <use xlink:href="#DejaVuSans-63" transform="translate(2641.890625 0)"/>
     <use xlink:href="#DejaVuSans-6f" transform="translate(2696.871094 0)"/>
     <use xlink:href="#DejaVuSans-6e" transform="translate(2758.052734 0)"/>
     <use xlink:href="#DejaVuSans-73" transform="translate(2821.431641 0)"/>
     <use xlink:href="#DejaVuSans-69" transform="translate(2873.53125 0)"/>
     <use xlink:href="#DejaVuSans-6e" transform="translate(2901.314453 0)"/>
     <use xlink:href="#DejaVuSans-2b" transform="translate(2964.693359 0)"/>
     <use xlink:href="#DejaVuSans-64" transform="translate(3048.482422 0)"/>
     <use xlink:href="#DejaVuSans-69" transform="translate(3111.958984 0)"/>
     <use xlink:href="#DejaVuSans-61" transform="translate(3139.742188 0)"/>
     <use xlink:href="#DejaVuSans-67" transform="translate(3201.021484 0)"/>
     <use xlink:href="#DejaVuSans-6e" transform="translate(3264.498047 0)"/>
     <use xlink:href="#DejaVuSans-6f" transform="translate(3327.876953 0)"/>
     <use xlink:href="#DejaVuSans-73" transform="translate(3389.058594 0)"/>
     <use xlink:href="#DejaVuSans-74" transform="translate(3441.158203 0)"/>
     <use xlink:href="#DejaVuSans-69" transform="translate(3480.367188 0)"/>
     <use xlink:href="#DejaVuSans-63" transform="translate(3508.150391 0)"/>
    </g>
   </g>
   <g id="legend_1">
    <g id="patch_21">
     <path d="M 54.72 138.44 
L 123.243437 138.44 
Q 125.243437 138.44 125.243437 136.44 
L 125.243437 108.08375 
Q 125.243437 106.08375 123.243437 106.08375 
L 54.72 106.08375 
Q 52.72 106.08375 52.72 108.08375 
L 52.72 136.44 
Q 52.72 138.44 54.72 138.44 
z
" style="fill: #ffffff; opacity: 0.8; stroke: #cccccc; stroke-linejoin: miter"/>
    </g>
    <g id="patch_22">
     <path d="M 56.72 117.682188 
L 76.72 117.682188 
L 76.72 110.682188 
L 56.72 110.682188 
z
" style="fill: #1f77b4"/>
    </g>
    <g id="text_16">
     <!-- rollOCT -->
     <g transform="translate(84.72 117.682188) scale(0.1 -0.1)">
      <defs>
       <path id="DejaVuSans-4f" d="M 2522 4238 
Q 1834 4238 1429 3725 
Q 1025 3213 1025 2328 
Q 1025 1447 1429 934 
Q 1834 422 2522 422 
Q 3209 422 3611 934 
Q 4013 1447 4013 2328 
Q 4013 3213 3611 3725 
Q 3209 4238 2522 4238 
z
M 2522 4750 
Q 3503 4750 4090 4092 
Q 4678 3434 4678 2328 
Q 4678 1225 4090 567 
Q 3503 -91 2522 -91 
Q 1538 -91 948 565 
Q 359 1222 359 2328 
Q 359 3434 948 4092 
Q 1538 4750 2522 4750 
z
" transform="scale(0.015625)"/>
       <path id="DejaVuSans-43" d="M 4122 4306 
L 4122 3641 
Q 3803 3938 3442 4084 
Q 3081 4231 2675 4231 
Q 1875 4231 1450 3742 
Q 1025 3253 1025 2328 
Q 1025 1406 1450 917 
Q 1875 428 2675 428 
Q 3081 428 3442 575 
Q 3803 722 4122 1019 
L 4122 359 
Q 3791 134 3420 21 
Q 3050 -91 2638 -91 
Q 1578 -91 968 557 
Q 359 1206 359 2328 
Q 359 3453 968 4101 
Q 1578 4750 2638 4750 
Q 3056 4750 3426 4639 
Q 3797 4528 4122 4306 
z
" transform="scale(0.015625)"/>
       <path id="DejaVuSans-54" d="M -19 4666 
L 3928 4666 
L 3928 4134 
L 2272 4134 
L 2272 0 
L 1638 0 
L 1638 4134 
L -19 4134 
L -19 4666 
z
" transform="scale(0.015625)"/>
      </defs>
      <use xlink:href="#DejaVuSans-72"/>
      <use xlink:href="#DejaVuSans-6f" transform="translate(38.863281 0)"/>
      <use xlink:href="#DejaVuSans-6c" transform="translate(100.044922 0)"/>
      <use xlink:href="#DejaVuSans-6c" transform="translate(127.828125 0)"/>
      <use xlink:href="#DejaVuSans-4f" transform="translate(155.611328 0)"/>
      <use xlink:href="#DejaVuSans-43" transform="translate(234.322266 0)"/>
      <use xlink:href="#DejaVuSans-54" transform="translate(304.146484 0)"/>
     </g>
    </g>
    <g id="patch_23">
     <path d="M 56.72 132.360313 
L 76.72 132.360313 
L 76.72 125.360313 
L 56.72 125.360313 
z
" style="fill: #ff7f0e"/>
    </g>
    <g id="text_17">
     <!-- CART -->
     <g transform="translate(84.72 132.360313) scale(0.1 -0.1)">
      <defs>
       <path id="DejaVuSans-41" d="M 2188 4044 
L 1331 1722 
L 3047 1722 
L 2188 4044 
z
M 1831 4666 
L 2547 4666 
L 4325 0 
L 3669 0 
L 3244 1197 
L 1141 1197 
L 716 0 
L 50 0 
L 1831 4666 
z
" transform="scale(0.015625)"/>
       <path id="DejaVuSans-52" d="M 2841 2188 
Q 3044 2119 3236 1894 
Q 3428 1669 3622 1275 
L 4263 0 
L 3584 0 
L 2988 1197 
Q 2756 1666 2539 1819 
Q 2322 1972 1947 1972 
L 1259 1972 
L 1259 0 
L 628 0 
L 628 4666 
L 2053 4666 
Q 2853 4666 3247 4331 
Q 3641 3997 3641 3322 
Q 3641 2881 3436 2590 
Q 3231 2300 2841 2188 
z
M 1259 4147 
L 1259 2491 
L 2053 2491 
Q 2509 2491 2742 2702 
Q 2975 2913 2975 3322 
Q 2975 3731 2742 3939 
Q 2509 4147 2053 4147 
L 1259 4147 
z
" transform="scale(0.015625)"/>
      </defs>
      <use xlink:href="#DejaVuSans-43"/>
      <use xlink:href="#DejaVuSans-41" transform="translate(69.824219 0)"/>
      <use xlink:href="#DejaVuSans-52" transform="translate(138.232422 0)"/>
      <use xlink:href="#DejaVuSans-54" transform="translate(200.464844 0)"/>
     </g>
    </g>
   </g>
  </g>
  <g id="axes_2">
   <g id="patch_24">
    <path d="M 402.32 143.44 
L 709.2 143.44 
L 709.2 26.88 
L 402.32 26.88 
z
" style="fill: #ffffff"/>
   </g>
   <g id="patch_25">
    <path d="M 416.269091 143.44 
L 426.999161 143.44 
L 426.999161 37.786024 
L 416.269091 37.786024 
z
" clip-path="url(#p7d2da61fe9)" style="fill: #1f77b4"/>
   </g>
   <g id="patch_26">
    <path d="M 459.189371 143.44 
L 469.919441 143.44 
L 469.919441 35.816223 
L 459.189371 35.816223 
z
" clip-path="url(#p7d2da61fe9)" style="fill: #1f77b4"/>
   </g>
   <g id="patch_27">
    <path d="M 502.10965 143.44 
L 512.83972 143.44 
L 512.83972 34.019871 
L 502.10965 34.019871 
z
" clip-path="url(#p7d2da61fe9)" style="fill: #1f77b4"/>
   </g>
   <g id="patch_28">
    <path d="M 545.02993 143.44 
L 555.76 143.44 
L 555.76 33.121587 
L 545.02993 33.121587 
z
" clip-path="url(#p7d2da61fe9)" style="fill: #1f77b4"/>
   </g>
   <g id="patch_29">
    <path d="M 587.95021 143.44 
L 598.68028 143.44 
L 598.68028 32.499641 
L 587.95021 32.499641 
z
" clip-path="url(#p7d2da61fe9)" style="fill: #1f77b4"/>
   </g>
   <g id="patch_30">
    <path d="M 630.87049 143.44 
L 641.600559 143.44 
L 641.600559 32.430476 
L 630.87049 32.430476 
z
" clip-path="url(#p7d2da61fe9)" style="fill: #1f77b4"/>
   </g>
   <g id="patch_31">
    <path d="M 673.790769 143.44 
L 684.520839 143.44 
L 684.520839 32.430476 
L 673.790769 32.430476 
z
" clip-path="url(#p7d2da61fe9)" style="fill: #1f77b4"/>
   </g>
   <g id="patch_32">
    <path d="M 426.999161 143.44 
L 437.729231 143.44 
L 437.729231 42.829685 
L 426.999161 42.829685 
z
" clip-path="url(#p7d2da61fe9)" style="fill: #ff7f0e"/>
   </g>
   <g id="patch_33">
    <path d="M 469.919441 143.44 
L 480.64951 143.44 
L 480.64951 37.923494 
L 469.919441 37.923494 
z
" clip-path="url(#p7d2da61fe9)" style="fill: #ff7f0e"/>
   </g>
   <g id="patch_34">
    <path d="M 512.83972 143.44 
L 523.56979 143.44 
L 523.56979 35.746736 
L 512.83972 35.746736 
z
" clip-path="url(#p7d2da61fe9)" style="fill: #ff7f0e"/>
   </g>
   <g id="patch_35">
    <path d="M 555.76 143.44 
L 566.49007 143.44 
L 566.49007 35.470936 
L 555.76 35.470936 
z
" clip-path="url(#p7d2da61fe9)" style="fill: #ff7f0e"/>
   </g>
   <g id="patch_36">
    <path d="M 598.68028 143.44 
L 609.41035 143.44 
L 609.41035 34.123081 
L 598.68028 34.123081 
z
" clip-path="url(#p7d2da61fe9)" style="fill: #ff7f0e"/>
   </g>
   <g id="patch_37">
    <path d="M 641.600559 143.44 
L 652.330629 143.44 
L 652.330629 32.810453 
L 641.600559 32.810453 
z
" clip-path="url(#p7d2da61fe9)" style="fill: #ff7f0e"/>
   </g>
   <g id="patch_38">
    <path d="M 684.520839 143.44 
L 695.250909 143.44 
L 695.250909 32.568698 
L 684.520839 32.568698 
z
" clip-path="url(#p7d2da61fe9)" style="fill: #ff7f0e"/>
   </g>
   <g id="matplotlib.axis_3">
    <g id="xtick_8">
     <g id="line2d_13">
      <g>
       <use xlink:href="#md93ae35eb3" x="432.364196" y="143.44" style="stroke: #000000; stroke-width: 0.8"/>
      </g>
     </g>
     <g id="text_18">
      <!-- 2 -->
      <g transform="translate(429.182946 158.038438) scale(0.1 -0.1)">
       <use xlink:href="#DejaVuSans-32"/>
      </g>
     </g>
    </g>
    <g id="xtick_9">
     <g id="line2d_14">
      <g>
       <use xlink:href="#md93ae35eb3" x="475.284476" y="143.44" style="stroke: #000000; stroke-width: 0.8"/>
      </g>
     </g>
     <g id="text_19">
      <!-- 3 -->
      <g transform="translate(472.103226 158.038438) scale(0.1 -0.1)">
       <use xlink:href="#DejaVuSans-33"/>
      </g>
     </g>
    </g>
    <g id="xtick_10">
     <g id="line2d_15">
      <g>
       <use xlink:href="#md93ae35eb3" x="518.204755" y="143.44" style="stroke: #000000; stroke-width: 0.8"/>
      </g>
     </g>
     <g id="text_20">
      <!-- 4 -->
      <g transform="translate(515.023505 158.038438) scale(0.1 -0.1)">
       <use xlink:href="#DejaVuSans-34"/>
      </g>
     </g>
    </g>
    <g id="xtick_11">
     <g id="line2d_16">
      <g>
       <use xlink:href="#md93ae35eb3" x="561.125035" y="143.44" style="stroke: #000000; stroke-width: 0.8"/>
      </g>
     </g>
     <g id="text_21">
      <!-- 5 -->
      <g transform="translate(557.943785 158.038438) scale(0.1 -0.1)">
       <use xlink:href="#DejaVuSans-35"/>
      </g>
     </g>
    </g>
    <g id="xtick_12">
     <g id="line2d_17">
      <g>
       <use xlink:href="#md93ae35eb3" x="604.045315" y="143.44" style="stroke: #000000; stroke-width: 0.8"/>
      </g>
     </g>
     <g id="text_22">
      <!-- 6 -->
      <g transform="translate(600.864065 158.038438) scale(0.1 -0.1)">
       <use xlink:href="#DejaVuSans-36"/>
      </g>
     </g>
    </g>
    <g id="xtick_13">
     <g id="line2d_18">
      <g>
       <use xlink:href="#md93ae35eb3" x="646.965594" y="143.44" style="stroke: #000000; stroke-width: 0.8"/>
      </g>
     </g>
     <g id="text_23">
      <!-- 7 -->
      <g transform="translate(643.784344 158.038438) scale(0.1 -0.1)">
       <use xlink:href="#DejaVuSans-37"/>
      </g>
     </g>
    </g>
    <g id="xtick_14">
     <g id="line2d_19">
      <g>
       <use xlink:href="#md93ae35eb3" x="689.885874" y="143.44" style="stroke: #000000; stroke-width: 0.8"/>
      </g>
     </g>
     <g id="text_24">
      <!-- 8 -->
      <g transform="translate(686.704624 158.038438) scale(0.1 -0.1)">
       <use xlink:href="#DejaVuSans-38"/>
      </g>
     </g>
    </g>
    <g id="text_25">
     <!-- depth -->
     <g transform="translate(541.206094 171.716563) scale(0.1 -0.1)">
      <use xlink:href="#DejaVuSans-64"/>
      <use xlink:href="#DejaVuSans-65" transform="translate(63.476562 0)"/>
      <use xlink:href="#DejaVuSans-70" transform="translate(125 0)"/>
      <use xlink:href="#DejaVuSans-74" transform="translate(188.476562 0)"/>
      <use xlink:href="#DejaVuSans-68" transform="translate(227.685547 0)"/>
     </g>
    </g>
   </g>
   <g id="matplotlib.axis_4">
    <g id="ytick_6">
     <g id="line2d_20">
      <g>
       <use xlink:href="#md539298444" x="402.32" y="143.44" style="stroke: #000000; stroke-width: 0.8"/>
      </g>
     </g>
     <g id="text_26">
      <!-- 0.00 -->
      <g transform="translate(373.054375 147.239219) scale(0.1 -0.1)">
       <use xlink:href="#DejaVuSans-30"/>
       <use xlink:href="#DejaVuSans-2e" transform="translate(63.623047 0)"/>
       <use xlink:href="#DejaVuSans-30" transform="translate(95.410156 0)"/>
       <use xlink:href="#DejaVuSans-30" transform="translate(159.033203 0)"/>
      </g>
     </g>
    </g>
    <g id="ytick_7">
     <g id="line2d_21">
      <g>
       <use xlink:href="#md539298444" x="402.32" y="115.687619" style="stroke: #000000; stroke-width: 0.8"/>
      </g>
     </g>
     <g id="text_27">
      <!-- 0.25 -->
      <g transform="translate(373.054375 119.486838) scale(0.1 -0.1)">
       <use xlink:href="#DejaVuSans-30"/>
       <use xlink:href="#DejaVuSans-2e" transform="translate(63.623047 0)"/>
       <use xlink:href="#DejaVuSans-32" transform="translate(95.410156 0)"/>
       <use xlink:href="#DejaVuSans-35" transform="translate(159.033203 0)"/>
      </g>
     </g>
    </g>
    <g id="ytick_8">
     <g id="line2d_22">
      <g>
       <use xlink:href="#md539298444" x="402.32" y="87.935238" style="stroke: #000000; stroke-width: 0.8"/>
      </g>
     </g>
     <g id="text_28">
      <!-- 0.50 -->
      <g transform="translate(373.054375 91.734457) scale(0.1 -0.1)">
       <use xlink:href="#DejaVuSans-30"/>
       <use xlink:href="#DejaVuSans-2e" transform="translate(63.623047 0)"/>
       <use xlink:href="#DejaVuSans-35" transform="translate(95.410156 0)"/>
       <use xlink:href="#DejaVuSans-30" transform="translate(159.033203 0)"/>
      </g>
     </g>
    </g>
    <g id="ytick_9">
     <g id="line2d_23">
      <g>
       <use xlink:href="#md539298444" x="402.32" y="60.182857" style="stroke: #000000; stroke-width: 0.8"/>
      </g>
     </g>
     <g id="text_29">
      <!-- 0.75 -->
      <g transform="translate(373.054375 63.982076) scale(0.1 -0.1)">
       <use xlink:href="#DejaVuSans-30"/>
       <use xlink:href="#DejaVuSans-2e" transform="translate(63.623047 0)"/>
       <use xlink:href="#DejaVuSans-37" transform="translate(95.410156 0)"/>
       <use xlink:href="#DejaVuSans-35" transform="translate(159.033203 0)"/>
      </g>
     </g>
    </g>
    <g id="ytick_10">
     <g id="line2d_24">
      <g>
       <use xlink:href="#md539298444" x="402.32" y="32.430476" style="stroke: #000000; stroke-width: 0.8"/>
      </g>
     </g>
     <g id="text_30">
      <!-- 1.00 -->
      <g transform="translate(373.054375 36.229695) scale(0.1 -0.1)">
       <use xlink:href="#DejaVuSans-31"/>
       <use xlink:href="#DejaVuSans-2e" transform="translate(63.623047 0)"/>
       <use xlink:href="#DejaVuSans-30" transform="translate(95.410156 0)"/>
       <use xlink:href="#DejaVuSans-30" transform="translate(159.033203 0)"/>
      </g>
     </g>
    </g>
    <g id="text_31">
     <!-- spec -->
     <g transform="translate(366.974688 96.764688) rotate(-90) scale(0.1 -0.1)">
      <use xlink:href="#DejaVuSans-73"/>
      <use xlink:href="#DejaVuSans-70" transform="translate(52.099609 0)"/>
      <use xlink:href="#DejaVuSans-65" transform="translate(115.576172 0)"/>
      <use xlink:href="#DejaVuSans-63" transform="translate(177.099609 0)"/>
     </g>
    </g>
   </g>
   <g id="patch_39">
    <path d="M 402.32 143.44 
L 402.32 26.88 
" style="fill: none; stroke: #000000; stroke-width: 0.8; stroke-linejoin: miter; stroke-linecap: square"/>
   </g>
   <g id="patch_40">
    <path d="M 709.2 143.44 
L 709.2 26.88 
" style="fill: none; stroke: #000000; stroke-width: 0.8; stroke-linejoin: miter; stroke-linecap: square"/>
   </g>
   <g id="patch_41">
    <path d="M 402.32 143.44 
L 709.2 143.44 
" style="fill: none; stroke: #000000; stroke-width: 0.8; stroke-linejoin: miter; stroke-linecap: square"/>
   </g>
   <g id="patch_42">
    <path d="M 402.32 26.88 
L 709.2 26.88 
" style="fill: none; stroke: #000000; stroke-width: 0.8; stroke-linejoin: miter; stroke-linecap: square"/>
   </g>
   <g id="text_32">
    <!-- M; in-sample specificity; dataset breast+cancer+wisconsin+diagnostic -->
    <g transform="translate(342.285625 20.88) scale(0.12 -0.12)">
     <defs>
      <path id="DejaVuSans-66" d="M 2375 4863 
L 2375 4384 
L 1825 4384 
Q 1516 4384 1395 4259 
Q 1275 4134 1275 3809 
L 1275 3500 
L 2222 3500 
L 2222 3053 
L 1275 3053 
L 1275 0 
L 697 0 
L 697 3053 
L 147 3053 
L 147 3500 
L 697 3500 
L 697 3744 
Q 697 4328 969 4595 
Q 1241 4863 1831 4863 
L 2375 4863 
z
" transform="scale(0.015625)"/>
     </defs>
     <use xlink:href="#DejaVuSans-4d"/>
     <use xlink:href="#DejaVuSans-3b" transform="translate(86.279297 0)"/>
     <use xlink:href="#DejaVuSans-20" transform="translate(119.970703 0)"/>
     <use xlink:href="#DejaVuSans-69" transform="translate(151.757812 0)"/>
     <use xlink:href="#DejaVuSans-6e" transform="translate(179.541016 0)"/>
     <use xlink:href="#DejaVuSans-2d" transform="translate(242.919922 0)"/>
     <use xlink:href="#DejaVuSans-73" transform="translate(279.003906 0)"/>
     <use xlink:href="#DejaVuSans-61" transform="translate(331.103516 0)"/>
     <use xlink:href="#DejaVuSans-6d" transform="translate(392.382812 0)"/>
     <use xlink:href="#DejaVuSans-70" transform="translate(489.794922 0)"/>
     <use xlink:href="#DejaVuSans-6c" transform="translate(553.271484 0)"/>
     <use xlink:href="#DejaVuSans-65" transform="translate(581.054688 0)"/>
     <use xlink:href="#DejaVuSans-20" transform="translate(642.578125 0)"/>
     <use xlink:href="#DejaVuSans-73" transform="translate(674.365234 0)"/>
     <use xlink:href="#DejaVuSans-70" transform="translate(726.464844 0)"/>
     <use xlink:href="#DejaVuSans-65" transform="translate(789.941406 0)"/>
     <use xlink:href="#DejaVuSans-63" transform="translate(851.464844 0)"/>
     <use xlink:href="#DejaVuSans-69" transform="translate(906.445312 0)"/>
     <use xlink:href="#DejaVuSans-66" transform="translate(934.228516 0)"/>
     <use xlink:href="#DejaVuSans-69" transform="translate(969.433594 0)"/>
     <use xlink:href="#DejaVuSans-63" transform="translate(997.216797 0)"/>
     <use xlink:href="#DejaVuSans-69" transform="translate(1052.197266 0)"/>
     <use xlink:href="#DejaVuSans-74" transform="translate(1079.980469 0)"/>
     <use xlink:href="#DejaVuSans-79" transform="translate(1119.189453 0)"/>
     <use xlink:href="#DejaVuSans-3b" transform="translate(1178.369141 0)"/>
     <use xlink:href="#DejaVuSans-20" transform="translate(1212.060547 0)"/>
     <use xlink:href="#DejaVuSans-64" transform="translate(1243.847656 0)"/>
     <use xlink:href="#DejaVuSans-61" transform="translate(1307.324219 0)"/>
     <use xlink:href="#DejaVuSans-74" transform="translate(1368.603516 0)"/>
     <use xlink:href="#DejaVuSans-61" transform="translate(1407.8125 0)"/>
     <use xlink:href="#DejaVuSans-73" transform="translate(1469.091797 0)"/>
     <use xlink:href="#DejaVuSans-65" transform="translate(1521.191406 0)"/>
     <use xlink:href="#DejaVuSans-74" transform="translate(1582.714844 0)"/>
     <use xlink:href="#DejaVuSans-20" transform="translate(1621.923828 0)"/>
     <use xlink:href="#DejaVuSans-62" transform="translate(1653.710938 0)"/>
     <use xlink:href="#DejaVuSans-72" transform="translate(1717.1875 0)"/>
     <use xlink:href="#DejaVuSans-65" transform="translate(1756.050781 0)"/>
     <use xlink:href="#DejaVuSans-61" transform="translate(1817.574219 0)"/>
     <use xlink:href="#DejaVuSans-73" transform="translate(1878.853516 0)"/>
     <use xlink:href="#DejaVuSans-74" transform="translate(1930.953125 0)"/>
     <use xlink:href="#DejaVuSans-2b" transform="translate(1970.162109 0)"/>
     <use xlink:href="#DejaVuSans-63" transform="translate(2053.951172 0)"/>
     <use xlink:href="#DejaVuSans-61" transform="translate(2108.931641 0)"/>
     <use xlink:href="#DejaVuSans-6e" transform="translate(2170.210938 0)"/>
     <use xlink:href="#DejaVuSans-63" transform="translate(2233.589844 0)"/>
     <use xlink:href="#DejaVuSans-65" transform="translate(2288.570312 0)"/>
     <use xlink:href="#DejaVuSans-72" transform="translate(2350.09375 0)"/>
     <use xlink:href="#DejaVuSans-2b" transform="translate(2391.207031 0)"/>
     <use xlink:href="#DejaVuSans-77" transform="translate(2474.996094 0)"/>
     <use xlink:href="#DejaVuSans-69" transform="translate(2556.783203 0)"/>
     <use xlink:href="#DejaVuSans-73" transform="translate(2584.566406 0)"/>
     <use xlink:href="#DejaVuSans-63" transform="translate(2636.666016 0)"/>
     <use xlink:href="#DejaVuSans-6f" transform="translate(2691.646484 0)"/>
     <use xlink:href="#DejaVuSans-6e" transform="translate(2752.828125 0)"/>
     <use xlink:href="#DejaVuSans-73" transform="translate(2816.207031 0)"/>
     <use xlink:href="#DejaVuSans-69" transform="translate(2868.306641 0)"/>
     <use xlink:href="#DejaVuSans-6e" transform="translate(2896.089844 0)"/>
     <use xlink:href="#DejaVuSans-2b" transform="translate(2959.46875 0)"/>
     <use xlink:href="#DejaVuSans-64" transform="translate(3043.257812 0)"/>
     <use xlink:href="#DejaVuSans-69" transform="translate(3106.734375 0)"/>
     <use xlink:href="#DejaVuSans-61" transform="translate(3134.517578 0)"/>
     <use xlink:href="#DejaVuSans-67" transform="translate(3195.796875 0)"/>
     <use xlink:href="#DejaVuSans-6e" transform="translate(3259.273438 0)"/>
     <use xlink:href="#DejaVuSans-6f" transform="translate(3322.652344 0)"/>
     <use xlink:href="#DejaVuSans-73" transform="translate(3383.833984 0)"/>
     <use xlink:href="#DejaVuSans-74" transform="translate(3435.933594 0)"/>
     <use xlink:href="#DejaVuSans-69" transform="translate(3475.142578 0)"/>
     <use xlink:href="#DejaVuSans-63" transform="translate(3502.925781 0)"/>
    </g>
   </g>
   <g id="legend_2">
    <g id="patch_43">
     <path d="M 409.32 138.44 
L 477.843438 138.44 
Q 479.843438 138.44 479.843438 136.44 
L 479.843438 108.08375 
Q 479.843438 106.08375 477.843438 106.08375 
L 409.32 106.08375 
Q 407.32 106.08375 407.32 108.08375 
L 407.32 136.44 
Q 407.32 138.44 409.32 138.44 
z
" style="fill: #ffffff; opacity: 0.8; stroke: #cccccc; stroke-linejoin: miter"/>
    </g>
    <g id="patch_44">
     <path d="M 411.32 117.682188 
L 431.32 117.682188 
L 431.32 110.682188 
L 411.32 110.682188 
z
" style="fill: #1f77b4"/>
    </g>
    <g id="text_33">
     <!-- rollOCT -->
     <g transform="translate(439.32 117.682188) scale(0.1 -0.1)">
      <use xlink:href="#DejaVuSans-72"/>
      <use xlink:href="#DejaVuSans-6f" transform="translate(38.863281 0)"/>
      <use xlink:href="#DejaVuSans-6c" transform="translate(100.044922 0)"/>
      <use xlink:href="#DejaVuSans-6c" transform="translate(127.828125 0)"/>
      <use xlink:href="#DejaVuSans-4f" transform="translate(155.611328 0)"/>
      <use xlink:href="#DejaVuSans-43" transform="translate(234.322266 0)"/>
      <use xlink:href="#DejaVuSans-54" transform="translate(304.146484 0)"/>
     </g>
    </g>
    <g id="patch_45">
     <path d="M 411.32 132.360313 
L 431.32 132.360313 
L 431.32 125.360313 
L 411.32 125.360313 
z
" style="fill: #ff7f0e"/>
    </g>
    <g id="text_34">
     <!-- CART -->
     <g transform="translate(439.32 132.360313) scale(0.1 -0.1)">
      <use xlink:href="#DejaVuSans-43"/>
      <use xlink:href="#DejaVuSans-41" transform="translate(69.824219 0)"/>
      <use xlink:href="#DejaVuSans-52" transform="translate(138.232422 0)"/>
      <use xlink:href="#DejaVuSans-54" transform="translate(200.464844 0)"/>
     </g>
    </g>
   </g>
  </g>
  <g id="axes_3">
   <g id="patch_46">
    <path d="M 47.72 318.04 
L 354.6 318.04 
L 354.6 201.48 
L 47.72 201.48 
z
" style="fill: #ffffff"/>
   </g>
   <g id="patch_47">
    <path d="M 61.669091 318.04 
L 72.399161 318.04 
L 72.399161 216.094941 
L 61.669091 216.094941 
z
" clip-path="url(#pcb952bfdc5)" style="fill: #1f77b4"/>
   </g>
   <g id="patch_48">
    <path d="M 104.589371 318.04 
L 115.319441 318.04 
L 115.319441 212.790185 
L 104.589371 212.790185 
z
" clip-path="url(#pcb952bfdc5)" style="fill: #1f77b4"/>
   </g>
   <g id="patch_49">
    <path d="M 147.50965 318.04 
L 158.23972 318.04 
L 158.23972 209.738187 
L 147.50965 209.738187 
z
" clip-path="url(#pcb952bfdc5)" style="fill: #1f77b4"/>
   </g>
   <g id="patch_50">
    <path d="M 190.42993 318.04 
L 201.16 318.04 
L 201.16 208.189878 
L 190.42993 208.189878 
z
" clip-path="url(#pcb952bfdc5)" style="fill: #1f77b4"/>
   </g>
   <g id="patch_51">
    <path d="M 233.35021 318.04 
L 244.08028 318.04 
L 244.08028 207.146111 
L 233.35021 207.146111 
z
" clip-path="url(#pcb952bfdc5)" style="fill: #1f77b4"/>
   </g>
   <g id="patch_52">
    <path d="M 276.27049 318.04 
L 287.000559 318.04 
L 287.000559 207.030476 
L 276.27049 207.030476 
z
" clip-path="url(#pcb952bfdc5)" style="fill: #1f77b4"/>
   </g>
   <g id="patch_53">
    <path d="M 319.190769 318.04 
L 329.920839 318.04 
L 329.920839 207.030476 
L 319.190769 207.030476 
z
" clip-path="url(#pcb952bfdc5)" style="fill: #1f77b4"/>
   </g>
   <g id="patch_54">
    <path d="M 72.399161 318.04 
L 83.129231 318.04 
L 83.129231 223.506878 
L 72.399161 223.506878 
z
" clip-path="url(#pcb952bfdc5)" style="fill: #ff7f0e"/>
   </g>
   <g id="patch_55">
    <path d="M 115.319441 318.04 
L 126.04951 318.04 
L 126.04951 216.332686 
L 115.319441 216.332686 
z
" clip-path="url(#pcb952bfdc5)" style="fill: #ff7f0e"/>
   </g>
   <g id="patch_56">
    <path d="M 158.23972 318.04 
L 168.96979 318.04 
L 168.96979 212.694746 
L 158.23972 212.694746 
z
" clip-path="url(#pcb952bfdc5)" style="fill: #ff7f0e"/>
   </g>
   <g id="patch_57">
    <path d="M 201.16 318.04 
L 211.89007 318.04 
L 211.89007 212.075932 
L 201.16 212.075932 
z
" clip-path="url(#pcb952bfdc5)" style="fill: #ff7f0e"/>
   </g>
   <g id="patch_58">
    <path d="M 244.08028 318.04 
L 254.81035 318.04 
L 254.81035 209.862055 
L 244.08028 209.862055 
z
" clip-path="url(#pcb952bfdc5)" style="fill: #ff7f0e"/>
   </g>
   <g id="patch_59">
    <path d="M 287.000559 318.04 
L 297.730629 318.04 
L 297.730629 207.675364 
L 287.000559 207.675364 
z
" clip-path="url(#pcb952bfdc5)" style="fill: #ff7f0e"/>
   </g>
   <g id="patch_60">
    <path d="M 329.920839 318.04 
L 340.650909 318.04 
L 340.650909 207.263269 
L 329.920839 207.263269 
z
" clip-path="url(#pcb952bfdc5)" style="fill: #ff7f0e"/>
   </g>
   <g id="matplotlib.axis_5">
    <g id="xtick_15">
     <g id="line2d_25">
      <g>
       <use xlink:href="#md93ae35eb3" x="77.764196" y="318.04" style="stroke: #000000; stroke-width: 0.8"/>
      </g>
     </g>
     <g id="text_35">
      <!-- 2 -->
      <g transform="translate(74.582946 332.638438) scale(0.1 -0.1)">
       <use xlink:href="#DejaVuSans-32"/>
      </g>
     </g>
    </g>
    <g id="xtick_16">
     <g id="line2d_26">
      <g>
       <use xlink:href="#md93ae35eb3" x="120.684476" y="318.04" style="stroke: #000000; stroke-width: 0.8"/>
      </g>
     </g>
     <g id="text_36">
      <!-- 3 -->
      <g transform="translate(117.503226 332.638438) scale(0.1 -0.1)">
       <use xlink:href="#DejaVuSans-33"/>
      </g>
     </g>
    </g>
    <g id="xtick_17">
     <g id="line2d_27">
      <g>
       <use xlink:href="#md93ae35eb3" x="163.604755" y="318.04" style="stroke: #000000; stroke-width: 0.8"/>
      </g>
     </g>
     <g id="text_37">
      <!-- 4 -->
      <g transform="translate(160.423505 332.638438) scale(0.1 -0.1)">
       <use xlink:href="#DejaVuSans-34"/>
      </g>
     </g>
    </g>
    <g id="xtick_18">
     <g id="line2d_28">
      <g>
       <use xlink:href="#md93ae35eb3" x="206.525035" y="318.04" style="stroke: #000000; stroke-width: 0.8"/>
      </g>
     </g>
     <g id="text_38">
      <!-- 5 -->
      <g transform="translate(203.343785 332.638438) scale(0.1 -0.1)">
       <use xlink:href="#DejaVuSans-35"/>
      </g>
     </g>
    </g>
    <g id="xtick_19">
     <g id="line2d_29">
      <g>
       <use xlink:href="#md93ae35eb3" x="249.445315" y="318.04" style="stroke: #000000; stroke-width: 0.8"/>
      </g>
     </g>
     <g id="text_39">
      <!-- 6 -->
      <g transform="translate(246.264065 332.638438) scale(0.1 -0.1)">
       <use xlink:href="#DejaVuSans-36"/>
      </g>
     </g>
    </g>
    <g id="xtick_20">
     <g id="line2d_30">
      <g>
       <use xlink:href="#md93ae35eb3" x="292.365594" y="318.04" style="stroke: #000000; stroke-width: 0.8"/>
      </g>
     </g>
     <g id="text_40">
      <!-- 7 -->
      <g transform="translate(289.184344 332.638438) scale(0.1 -0.1)">
       <use xlink:href="#DejaVuSans-37"/>
      </g>
     </g>
    </g>
    <g id="xtick_21">
     <g id="line2d_31">
      <g>
       <use xlink:href="#md93ae35eb3" x="335.285874" y="318.04" style="stroke: #000000; stroke-width: 0.8"/>
      </g>
     </g>
     <g id="text_41">
      <!-- 8 -->
      <g transform="translate(332.104624 332.638438) scale(0.1 -0.1)">
       <use xlink:href="#DejaVuSans-38"/>
      </g>
     </g>
    </g>
    <g id="text_42">
     <!-- depth -->
     <g transform="translate(186.606094 346.316563) scale(0.1 -0.1)">
      <use xlink:href="#DejaVuSans-64"/>
      <use xlink:href="#DejaVuSans-65" transform="translate(63.476562 0)"/>
      <use xlink:href="#DejaVuSans-70" transform="translate(125 0)"/>
      <use xlink:href="#DejaVuSans-74" transform="translate(188.476562 0)"/>
      <use xlink:href="#DejaVuSans-68" transform="translate(227.685547 0)"/>
     </g>
    </g>
   </g>
   <g id="matplotlib.axis_6">
    <g id="ytick_11">
     <g id="line2d_32">
      <g>
       <use xlink:href="#md539298444" x="47.72" y="318.04" style="stroke: #000000; stroke-width: 0.8"/>
      </g>
     </g>
     <g id="text_43">
      <!-- 0.00 -->
      <g transform="translate(18.454375 321.839219) scale(0.1 -0.1)">
       <use xlink:href="#DejaVuSans-30"/>
       <use xlink:href="#DejaVuSans-2e" transform="translate(63.623047 0)"/>
       <use xlink:href="#DejaVuSans-30" transform="translate(95.410156 0)"/>
       <use xlink:href="#DejaVuSans-30" transform="translate(159.033203 0)"/>
      </g>
     </g>
    </g>
    <g id="ytick_12">
     <g id="line2d_33">
      <g>
       <use xlink:href="#md539298444" x="47.72" y="290.287619" style="stroke: #000000; stroke-width: 0.8"/>
      </g>
     </g>
     <g id="text_44">
      <!-- 0.25 -->
      <g transform="translate(18.454375 294.086838) scale(0.1 -0.1)">
       <use xlink:href="#DejaVuSans-30"/>
       <use xlink:href="#DejaVuSans-2e" transform="translate(63.623047 0)"/>
       <use xlink:href="#DejaVuSans-32" transform="translate(95.410156 0)"/>
       <use xlink:href="#DejaVuSans-35" transform="translate(159.033203 0)"/>
      </g>
     </g>
    </g>
    <g id="ytick_13">
     <g id="line2d_34">
      <g>
       <use xlink:href="#md539298444" x="47.72" y="262.535238" style="stroke: #000000; stroke-width: 0.8"/>
      </g>
     </g>
     <g id="text_45">
      <!-- 0.50 -->
      <g transform="translate(18.454375 266.334457) scale(0.1 -0.1)">
       <use xlink:href="#DejaVuSans-30"/>
       <use xlink:href="#DejaVuSans-2e" transform="translate(63.623047 0)"/>
       <use xlink:href="#DejaVuSans-35" transform="translate(95.410156 0)"/>
       <use xlink:href="#DejaVuSans-30" transform="translate(159.033203 0)"/>
      </g>
     </g>
    </g>
    <g id="ytick_14">
     <g id="line2d_35">
      <g>
       <use xlink:href="#md539298444" x="47.72" y="234.782857" style="stroke: #000000; stroke-width: 0.8"/>
      </g>
     </g>
     <g id="text_46">
      <!-- 0.75 -->
      <g transform="translate(18.454375 238.582076) scale(0.1 -0.1)">
       <use xlink:href="#DejaVuSans-30"/>
       <use xlink:href="#DejaVuSans-2e" transform="translate(63.623047 0)"/>
       <use xlink:href="#DejaVuSans-37" transform="translate(95.410156 0)"/>
       <use xlink:href="#DejaVuSans-35" transform="translate(159.033203 0)"/>
      </g>
     </g>
    </g>
    <g id="ytick_15">
     <g id="line2d_36">
      <g>
       <use xlink:href="#md539298444" x="47.72" y="207.030476" style="stroke: #000000; stroke-width: 0.8"/>
      </g>
     </g>
     <g id="text_47">
      <!-- 1.00 -->
      <g transform="translate(18.454375 210.829695) scale(0.1 -0.1)">
       <use xlink:href="#DejaVuSans-31"/>
       <use xlink:href="#DejaVuSans-2e" transform="translate(63.623047 0)"/>
       <use xlink:href="#DejaVuSans-30" transform="translate(95.410156 0)"/>
       <use xlink:href="#DejaVuSans-30" transform="translate(159.033203 0)"/>
      </g>
     </g>
    </g>
    <g id="text_48">
     <!-- prec -->
     <g transform="translate(12.374688 270.702969) rotate(-90) scale(0.1 -0.1)">
      <use xlink:href="#DejaVuSans-70"/>
      <use xlink:href="#DejaVuSans-72" transform="translate(63.476562 0)"/>
      <use xlink:href="#DejaVuSans-65" transform="translate(102.339844 0)"/>
      <use xlink:href="#DejaVuSans-63" transform="translate(163.863281 0)"/>
     </g>
    </g>
   </g>
   <g id="patch_61">
    <path d="M 47.72 318.04 
L 47.72 201.48 
" style="fill: none; stroke: #000000; stroke-width: 0.8; stroke-linejoin: miter; stroke-linecap: square"/>
   </g>
   <g id="patch_62">
    <path d="M 354.6 318.04 
L 354.6 201.48 
" style="fill: none; stroke: #000000; stroke-width: 0.8; stroke-linejoin: miter; stroke-linecap: square"/>
   </g>
   <g id="patch_63">
    <path d="M 47.72 318.04 
L 354.6 318.04 
" style="fill: none; stroke: #000000; stroke-width: 0.8; stroke-linejoin: miter; stroke-linecap: square"/>
   </g>
   <g id="patch_64">
    <path d="M 47.72 201.48 
L 354.6 201.48 
" style="fill: none; stroke: #000000; stroke-width: 0.8; stroke-linejoin: miter; stroke-linecap: square"/>
   </g>
   <g id="text_49">
    <!-- M; in-sample precision; dataset breast+cancer+wisconsin+diagnostic -->
    <g transform="translate(-9.138125 195.48) scale(0.12 -0.12)">
     <use xlink:href="#DejaVuSans-4d"/>
     <use xlink:href="#DejaVuSans-3b" transform="translate(86.279297 0)"/>
     <use xlink:href="#DejaVuSans-20" transform="translate(119.970703 0)"/>
     <use xlink:href="#DejaVuSans-69" transform="translate(151.757812 0)"/>
     <use xlink:href="#DejaVuSans-6e" transform="translate(179.541016 0)"/>
     <use xlink:href="#DejaVuSans-2d" transform="translate(242.919922 0)"/>
     <use xlink:href="#DejaVuSans-73" transform="translate(279.003906 0)"/>
     <use xlink:href="#DejaVuSans-61" transform="translate(331.103516 0)"/>
     <use xlink:href="#DejaVuSans-6d" transform="translate(392.382812 0)"/>
     <use xlink:href="#DejaVuSans-70" transform="translate(489.794922 0)"/>
     <use xlink:href="#DejaVuSans-6c" transform="translate(553.271484 0)"/>
     <use xlink:href="#DejaVuSans-65" transform="translate(581.054688 0)"/>
     <use xlink:href="#DejaVuSans-20" transform="translate(642.578125 0)"/>
     <use xlink:href="#DejaVuSans-70" transform="translate(674.365234 0)"/>
     <use xlink:href="#DejaVuSans-72" transform="translate(737.841797 0)"/>
     <use xlink:href="#DejaVuSans-65" transform="translate(776.705078 0)"/>
     <use xlink:href="#DejaVuSans-63" transform="translate(838.228516 0)"/>
     <use xlink:href="#DejaVuSans-69" transform="translate(893.208984 0)"/>
     <use xlink:href="#DejaVuSans-73" transform="translate(920.992188 0)"/>
     <use xlink:href="#DejaVuSans-69" transform="translate(973.091797 0)"/>
     <use xlink:href="#DejaVuSans-6f" transform="translate(1000.875 0)"/>
     <use xlink:href="#DejaVuSans-6e" transform="translate(1062.056641 0)"/>
     <use xlink:href="#DejaVuSans-3b" transform="translate(1125.435547 0)"/>
     <use xlink:href="#DejaVuSans-20" transform="translate(1159.126953 0)"/>
     <use xlink:href="#DejaVuSans-64" transform="translate(1190.914062 0)"/>
     <use xlink:href="#DejaVuSans-61" transform="translate(1254.390625 0)"/>
     <use xlink:href="#DejaVuSans-74" transform="translate(1315.669922 0)"/>
     <use xlink:href="#DejaVuSans-61" transform="translate(1354.878906 0)"/>
     <use xlink:href="#DejaVuSans-73" transform="translate(1416.158203 0)"/>
     <use xlink:href="#DejaVuSans-65" transform="translate(1468.257812 0)"/>
     <use xlink:href="#DejaVuSans-74" transform="translate(1529.78125 0)"/>
     <use xlink:href="#DejaVuSans-20" transform="translate(1568.990234 0)"/>
     <use xlink:href="#DejaVuSans-62" transform="translate(1600.777344 0)"/>
     <use xlink:href="#DejaVuSans-72" transform="translate(1664.253906 0)"/>
     <use xlink:href="#DejaVuSans-65" transform="translate(1703.117188 0)"/>
     <use xlink:href="#DejaVuSans-61" transform="translate(1764.640625 0)"/>
     <use xlink:href="#DejaVuSans-73" transform="translate(1825.919922 0)"/>
     <use xlink:href="#DejaVuSans-74" transform="translate(1878.019531 0)"/>
     <use xlink:href="#DejaVuSans-2b" transform="translate(1917.228516 0)"/>
     <use xlink:href="#DejaVuSans-63" transform="translate(2001.017578 0)"/>
     <use xlink:href="#DejaVuSans-61" transform="translate(2055.998047 0)"/>
     <use xlink:href="#DejaVuSans-6e" transform="translate(2117.277344 0)"/>
     <use xlink:href="#DejaVuSans-63" transform="translate(2180.65625 0)"/>
     <use xlink:href="#DejaVuSans-65" transform="translate(2235.636719 0)"/>
     <use xlink:href="#DejaVuSans-72" transform="translate(2297.160156 0)"/>
     <use xlink:href="#DejaVuSans-2b" transform="translate(2338.273438 0)"/>
     <use xlink:href="#DejaVuSans-77" transform="translate(2422.0625 0)"/>
     <use xlink:href="#DejaVuSans-69" transform="translate(2503.849609 0)"/>
     <use xlink:href="#DejaVuSans-73" transform="translate(2531.632812 0)"/>
     <use xlink:href="#DejaVuSans-63" transform="translate(2583.732422 0)"/>
     <use xlink:href="#DejaVuSans-6f" transform="translate(2638.712891 0)"/>
     <use xlink:href="#DejaVuSans-6e" transform="translate(2699.894531 0)"/>
     <use xlink:href="#DejaVuSans-73" transform="translate(2763.273438 0)"/>
     <use xlink:href="#DejaVuSans-69" transform="translate(2815.373047 0)"/>
     <use xlink:href="#DejaVuSans-6e" transform="translate(2843.15625 0)"/>
     <use xlink:href="#DejaVuSans-2b" transform="translate(2906.535156 0)"/>
     <use xlink:href="#DejaVuSans-64" transform="translate(2990.324219 0)"/>
     <use xlink:href="#DejaVuSans-69" transform="translate(3053.800781 0)"/>
     <use xlink:href="#DejaVuSans-61" transform="translate(3081.583984 0)"/>
     <use xlink:href="#DejaVuSans-67" transform="translate(3142.863281 0)"/>
     <use xlink:href="#DejaVuSans-6e" transform="translate(3206.339844 0)"/>
     <use xlink:href="#DejaVuSans-6f" transform="translate(3269.71875 0)"/>
     <use xlink:href="#DejaVuSans-73" transform="translate(3330.900391 0)"/>
     <use xlink:href="#DejaVuSans-74" transform="translate(3383 0)"/>
     <use xlink:href="#DejaVuSans-69" transform="translate(3422.208984 0)"/>
     <use xlink:href="#DejaVuSans-63" transform="translate(3449.992188 0)"/>
    </g>
   </g>
   <g id="legend_3">
    <g id="patch_65">
     <path d="M 54.72 313.04 
L 123.243437 313.04 
Q 125.243437 313.04 125.243437 311.04 
L 125.243437 282.68375 
Q 125.243437 280.68375 123.243437 280.68375 
L 54.72 280.68375 
Q 52.72 280.68375 52.72 282.68375 
L 52.72 311.04 
Q 52.72 313.04 54.72 313.04 
z
" style="fill: #ffffff; opacity: 0.8; stroke: #cccccc; stroke-linejoin: miter"/>
    </g>
    <g id="patch_66">
     <path d="M 56.72 292.282188 
L 76.72 292.282188 
L 76.72 285.282188 
L 56.72 285.282188 
z
" style="fill: #1f77b4"/>
    </g>
    <g id="text_50">
     <!-- rollOCT -->
     <g transform="translate(84.72 292.282188) scale(0.1 -0.1)">
      <use xlink:href="#DejaVuSans-72"/>
      <use xlink:href="#DejaVuSans-6f" transform="translate(38.863281 0)"/>
      <use xlink:href="#DejaVuSans-6c" transform="translate(100.044922 0)"/>
      <use xlink:href="#DejaVuSans-6c" transform="translate(127.828125 0)"/>
      <use xlink:href="#DejaVuSans-4f" transform="translate(155.611328 0)"/>
      <use xlink:href="#DejaVuSans-43" transform="translate(234.322266 0)"/>
      <use xlink:href="#DejaVuSans-54" transform="translate(304.146484 0)"/>
     </g>
    </g>
    <g id="patch_67">
     <path d="M 56.72 306.960313 
L 76.72 306.960313 
L 76.72 299.960313 
L 56.72 299.960313 
z
" style="fill: #ff7f0e"/>
    </g>
    <g id="text_51">
     <!-- CART -->
     <g transform="translate(84.72 306.960313) scale(0.1 -0.1)">
      <use xlink:href="#DejaVuSans-43"/>
      <use xlink:href="#DejaVuSans-41" transform="translate(69.824219 0)"/>
      <use xlink:href="#DejaVuSans-52" transform="translate(138.232422 0)"/>
      <use xlink:href="#DejaVuSans-54" transform="translate(200.464844 0)"/>
     </g>
    </g>
   </g>
  </g>
  <g id="axes_4">
   <g id="patch_68">
    <path d="M 402.32 318.04 
L 709.2 318.04 
L 709.2 201.48 
L 402.32 201.48 
z
" style="fill: #ffffff"/>
   </g>
   <g id="patch_69">
    <path d="M 416.269091 318.04 
L 426.999161 318.04 
L 426.999161 216.422605 
L 416.269091 216.422605 
z
" clip-path="url(#p8ccada0b43)" style="fill: #1f77b4"/>
   </g>
   <g id="patch_70">
    <path d="M 459.189371 318.04 
L 469.919441 318.04 
L 469.919441 213.551831 
L 459.189371 213.551831 
z
" clip-path="url(#p8ccada0b43)" style="fill: #1f77b4"/>
   </g>
   <g id="patch_71">
    <path d="M 502.10965 318.04 
L 512.83972 318.04 
L 512.83972 210.898865 
L 502.10965 210.898865 
z
" clip-path="url(#p8ccada0b43)" style="fill: #1f77b4"/>
   </g>
   <g id="patch_72">
    <path d="M 545.02993 318.04 
L 555.76 318.04 
L 555.76 208.308818 
L 545.02993 208.308818 
z
" clip-path="url(#p8ccada0b43)" style="fill: #1f77b4"/>
   </g>
   <g id="patch_73">
    <path d="M 587.95021 318.04 
L 598.68028 318.04 
L 598.68028 207.088324 
L 587.95021 207.088324 
z
" clip-path="url(#p8ccada0b43)" style="fill: #1f77b4"/>
   </g>
   <g id="patch_74">
    <path d="M 630.87049 318.04 
L 641.600559 318.04 
L 641.600559 207.030476 
L 630.87049 207.030476 
z
" clip-path="url(#p8ccada0b43)" style="fill: #1f77b4"/>
   </g>
   <g id="patch_75">
    <path d="M 673.790769 318.04 
L 684.520839 318.04 
L 684.520839 207.030476 
L 673.790769 207.030476 
z
" clip-path="url(#p8ccada0b43)" style="fill: #1f77b4"/>
   </g>
   <g id="patch_76">
    <path d="M 426.999161 318.04 
L 437.729231 318.04 
L 437.729231 220.652307 
L 426.999161 220.652307 
z
" clip-path="url(#p8ccada0b43)" style="fill: #ff7f0e"/>
   </g>
   <g id="patch_77">
    <path d="M 469.919441 318.04 
L 480.64951 318.04 
L 480.64951 216.568503 
L 469.919441 216.568503 
z
" clip-path="url(#p8ccada0b43)" style="fill: #ff7f0e"/>
   </g>
   <g id="patch_78">
    <path d="M 512.83972 318.04 
L 523.56979 318.04 
L 523.56979 214.219361 
L 512.83972 214.219361 
z
" clip-path="url(#p8ccada0b43)" style="fill: #ff7f0e"/>
   </g>
   <g id="patch_79">
    <path d="M 555.76 318.04 
L 566.49007 318.04 
L 566.49007 211.881275 
L 555.76 211.881275 
z
" clip-path="url(#p8ccada0b43)" style="fill: #ff7f0e"/>
   </g>
   <g id="patch_80">
    <path d="M 598.68028 318.04 
L 609.41035 318.04 
L 609.41035 209.87174 
L 598.68028 209.87174 
z
" clip-path="url(#p8ccada0b43)" style="fill: #ff7f0e"/>
   </g>
   <g id="patch_81">
    <path d="M 641.600559 318.04 
L 652.330629 318.04 
L 652.330629 208.405255 
L 641.600559 208.405255 
z
" clip-path="url(#p8ccada0b43)" style="fill: #ff7f0e"/>
   </g>
   <g id="patch_82">
    <path d="M 684.520839 318.04 
L 695.250909 318.04 
L 695.250909 207.408911 
L 684.520839 207.408911 
z
" clip-path="url(#p8ccada0b43)" style="fill: #ff7f0e"/>
   </g>
   <g id="matplotlib.axis_7">
    <g id="xtick_22">
     <g id="line2d_37">
      <g>
       <use xlink:href="#md93ae35eb3" x="432.364196" y="318.04" style="stroke: #000000; stroke-width: 0.8"/>
      </g>
     </g>
     <g id="text_52">
      <!-- 2 -->
      <g transform="translate(429.182946 332.638438) scale(0.1 -0.1)">
       <use xlink:href="#DejaVuSans-32"/>
      </g>
     </g>
    </g>
    <g id="xtick_23">
     <g id="line2d_38">
      <g>
       <use xlink:href="#md93ae35eb3" x="475.284476" y="318.04" style="stroke: #000000; stroke-width: 0.8"/>
      </g>
     </g>
     <g id="text_53">
      <!-- 3 -->
      <g transform="translate(472.103226 332.638438) scale(0.1 -0.1)">
       <use xlink:href="#DejaVuSans-33"/>
      </g>
     </g>
    </g>
    <g id="xtick_24">
     <g id="line2d_39">
      <g>
       <use xlink:href="#md93ae35eb3" x="518.204755" y="318.04" style="stroke: #000000; stroke-width: 0.8"/>
      </g>
     </g>
     <g id="text_54">
      <!-- 4 -->
      <g transform="translate(515.023505 332.638438) scale(0.1 -0.1)">
       <use xlink:href="#DejaVuSans-34"/>
      </g>
     </g>
    </g>
    <g id="xtick_25">
     <g id="line2d_40">
      <g>
       <use xlink:href="#md93ae35eb3" x="561.125035" y="318.04" style="stroke: #000000; stroke-width: 0.8"/>
      </g>
     </g>
     <g id="text_55">
      <!-- 5 -->
      <g transform="translate(557.943785 332.638438) scale(0.1 -0.1)">
       <use xlink:href="#DejaVuSans-35"/>
      </g>
     </g>
    </g>
    <g id="xtick_26">
     <g id="line2d_41">
      <g>
       <use xlink:href="#md93ae35eb3" x="604.045315" y="318.04" style="stroke: #000000; stroke-width: 0.8"/>
      </g>
     </g>
     <g id="text_56">
      <!-- 6 -->
      <g transform="translate(600.864065 332.638438) scale(0.1 -0.1)">
       <use xlink:href="#DejaVuSans-36"/>
      </g>
     </g>
    </g>
    <g id="xtick_27">
     <g id="line2d_42">
      <g>
       <use xlink:href="#md93ae35eb3" x="646.965594" y="318.04" style="stroke: #000000; stroke-width: 0.8"/>
      </g>
     </g>
     <g id="text_57">
      <!-- 7 -->
      <g transform="translate(643.784344 332.638438) scale(0.1 -0.1)">
       <use xlink:href="#DejaVuSans-37"/>
      </g>
     </g>
    </g>
    <g id="xtick_28">
     <g id="line2d_43">
      <g>
       <use xlink:href="#md93ae35eb3" x="689.885874" y="318.04" style="stroke: #000000; stroke-width: 0.8"/>
      </g>
     </g>
     <g id="text_58">
      <!-- 8 -->
      <g transform="translate(686.704624 332.638438) scale(0.1 -0.1)">
       <use xlink:href="#DejaVuSans-38"/>
      </g>
     </g>
    </g>
    <g id="text_59">
     <!-- depth -->
     <g transform="translate(541.206094 346.316563) scale(0.1 -0.1)">
      <use xlink:href="#DejaVuSans-64"/>
      <use xlink:href="#DejaVuSans-65" transform="translate(63.476562 0)"/>
      <use xlink:href="#DejaVuSans-70" transform="translate(125 0)"/>
      <use xlink:href="#DejaVuSans-74" transform="translate(188.476562 0)"/>
      <use xlink:href="#DejaVuSans-68" transform="translate(227.685547 0)"/>
     </g>
    </g>
   </g>
   <g id="matplotlib.axis_8">
    <g id="ytick_16">
     <g id="line2d_44">
      <g>
       <use xlink:href="#md539298444" x="402.32" y="318.04" style="stroke: #000000; stroke-width: 0.8"/>
      </g>
     </g>
     <g id="text_60">
      <!-- 0.00 -->
      <g transform="translate(373.054375 321.839219) scale(0.1 -0.1)">
       <use xlink:href="#DejaVuSans-30"/>
       <use xlink:href="#DejaVuSans-2e" transform="translate(63.623047 0)"/>
       <use xlink:href="#DejaVuSans-30" transform="translate(95.410156 0)"/>
       <use xlink:href="#DejaVuSans-30" transform="translate(159.033203 0)"/>
      </g>
     </g>
    </g>
    <g id="ytick_17">
     <g id="line2d_45">
      <g>
       <use xlink:href="#md539298444" x="402.32" y="290.287619" style="stroke: #000000; stroke-width: 0.8"/>
      </g>
     </g>
     <g id="text_61">
      <!-- 0.25 -->
      <g transform="translate(373.054375 294.086838) scale(0.1 -0.1)">
       <use xlink:href="#DejaVuSans-30"/>
       <use xlink:href="#DejaVuSans-2e" transform="translate(63.623047 0)"/>
       <use xlink:href="#DejaVuSans-32" transform="translate(95.410156 0)"/>
       <use xlink:href="#DejaVuSans-35" transform="translate(159.033203 0)"/>
      </g>
     </g>
    </g>
    <g id="ytick_18">
     <g id="line2d_46">
      <g>
       <use xlink:href="#md539298444" x="402.32" y="262.535238" style="stroke: #000000; stroke-width: 0.8"/>
      </g>
     </g>
     <g id="text_62">
      <!-- 0.50 -->
      <g transform="translate(373.054375 266.334457) scale(0.1 -0.1)">
       <use xlink:href="#DejaVuSans-30"/>
       <use xlink:href="#DejaVuSans-2e" transform="translate(63.623047 0)"/>
       <use xlink:href="#DejaVuSans-35" transform="translate(95.410156 0)"/>
       <use xlink:href="#DejaVuSans-30" transform="translate(159.033203 0)"/>
      </g>
     </g>
    </g>
    <g id="ytick_19">
     <g id="line2d_47">
      <g>
       <use xlink:href="#md539298444" x="402.32" y="234.782857" style="stroke: #000000; stroke-width: 0.8"/>
      </g>
     </g>
     <g id="text_63">
      <!-- 0.75 -->
      <g transform="translate(373.054375 238.582076) scale(0.1 -0.1)">
       <use xlink:href="#DejaVuSans-30"/>
       <use xlink:href="#DejaVuSans-2e" transform="translate(63.623047 0)"/>
       <use xlink:href="#DejaVuSans-37" transform="translate(95.410156 0)"/>
       <use xlink:href="#DejaVuSans-35" transform="translate(159.033203 0)"/>
      </g>
     </g>
    </g>
    <g id="ytick_20">
     <g id="line2d_48">
      <g>
       <use xlink:href="#md539298444" x="402.32" y="207.030476" style="stroke: #000000; stroke-width: 0.8"/>
      </g>
     </g>
     <g id="text_64">
      <!-- 1.00 -->
      <g transform="translate(373.054375 210.829695) scale(0.1 -0.1)">
       <use xlink:href="#DejaVuSans-31"/>
       <use xlink:href="#DejaVuSans-2e" transform="translate(63.623047 0)"/>
       <use xlink:href="#DejaVuSans-30" transform="translate(95.410156 0)"/>
       <use xlink:href="#DejaVuSans-30" transform="translate(159.033203 0)"/>
      </g>
     </g>
    </g>
    <g id="text_65">
     <!-- f1 -->
     <g transform="translate(366.974688 264.701406) rotate(-90) scale(0.1 -0.1)">
      <use xlink:href="#DejaVuSans-66"/>
      <use xlink:href="#DejaVuSans-31" transform="translate(35.205078 0)"/>
     </g>
    </g>
   </g>
   <g id="patch_83">
    <path d="M 402.32 318.04 
L 402.32 201.48 
" style="fill: none; stroke: #000000; stroke-width: 0.8; stroke-linejoin: miter; stroke-linecap: square"/>
   </g>
   <g id="patch_84">
    <path d="M 709.2 318.04 
L 709.2 201.48 
" style="fill: none; stroke: #000000; stroke-width: 0.8; stroke-linejoin: miter; stroke-linecap: square"/>
   </g>
   <g id="patch_85">
    <path d="M 402.32 318.04 
L 709.2 318.04 
" style="fill: none; stroke: #000000; stroke-width: 0.8; stroke-linejoin: miter; stroke-linecap: square"/>
   </g>
   <g id="patch_86">
    <path d="M 402.32 201.48 
L 709.2 201.48 
" style="fill: none; stroke: #000000; stroke-width: 0.8; stroke-linejoin: miter; stroke-linecap: square"/>
   </g>
   <g id="text_66">
    <!-- M; in-sample f1; dataset breast+cancer+wisconsin+diagnostic -->
    <g transform="translate(366.596875 195.48) scale(0.12 -0.12)">
     <use xlink:href="#DejaVuSans-4d"/>
     <use xlink:href="#DejaVuSans-3b" transform="translate(86.279297 0)"/>
     <use xlink:href="#DejaVuSans-20" transform="translate(119.970703 0)"/>
     <use xlink:href="#DejaVuSans-69" transform="translate(151.757812 0)"/>
     <use xlink:href="#DejaVuSans-6e" transform="translate(179.541016 0)"/>
     <use xlink:href="#DejaVuSans-2d" transform="translate(242.919922 0)"/>
     <use xlink:href="#DejaVuSans-73" transform="translate(279.003906 0)"/>
     <use xlink:href="#DejaVuSans-61" transform="translate(331.103516 0)"/>
     <use xlink:href="#DejaVuSans-6d" transform="translate(392.382812 0)"/>
     <use xlink:href="#DejaVuSans-70" transform="translate(489.794922 0)"/>
     <use xlink:href="#DejaVuSans-6c" transform="translate(553.271484 0)"/>
     <use xlink:href="#DejaVuSans-65" transform="translate(581.054688 0)"/>
     <use xlink:href="#DejaVuSans-20" transform="translate(642.578125 0)"/>
     <use xlink:href="#DejaVuSans-66" transform="translate(674.365234 0)"/>
     <use xlink:href="#DejaVuSans-31" transform="translate(709.570312 0)"/>
     <use xlink:href="#DejaVuSans-3b" transform="translate(773.193359 0)"/>
     <use xlink:href="#DejaVuSans-20" transform="translate(806.884766 0)"/>
     <use xlink:href="#DejaVuSans-64" transform="translate(838.671875 0)"/>
     <use xlink:href="#DejaVuSans-61" transform="translate(902.148438 0)"/>
     <use xlink:href="#DejaVuSans-74" transform="translate(963.427734 0)"/>
     <use xlink:href="#DejaVuSans-61" transform="translate(1002.636719 0)"/>
     <use xlink:href="#DejaVuSans-73" transform="translate(1063.916016 0)"/>
     <use xlink:href="#DejaVuSans-65" transform="translate(1116.015625 0)"/>
     <use xlink:href="#DejaVuSans-74" transform="translate(1177.539062 0)"/>
     <use xlink:href="#DejaVuSans-20" transform="translate(1216.748047 0)"/>
     <use xlink:href="#DejaVuSans-62" transform="translate(1248.535156 0)"/>
     <use xlink:href="#DejaVuSans-72" transform="translate(1312.011719 0)"/>
     <use xlink:href="#DejaVuSans-65" transform="translate(1350.875 0)"/>
     <use xlink:href="#DejaVuSans-61" transform="translate(1412.398438 0)"/>
     <use xlink:href="#DejaVuSans-73" transform="translate(1473.677734 0)"/>
     <use xlink:href="#DejaVuSans-74" transform="translate(1525.777344 0)"/>
     <use xlink:href="#DejaVuSans-2b" transform="translate(1564.986328 0)"/>
     <use xlink:href="#DejaVuSans-63" transform="translate(1648.775391 0)"/>
     <use xlink:href="#DejaVuSans-61" transform="translate(1703.755859 0)"/>
     <use xlink:href="#DejaVuSans-6e" transform="translate(1765.035156 0)"/>
     <use xlink:href="#DejaVuSans-63" transform="translate(1828.414062 0)"/>
     <use xlink:href="#DejaVuSans-65" transform="translate(1883.394531 0)"/>
     <use xlink:href="#DejaVuSans-72" transform="translate(1944.917969 0)"/>
     <use xlink:href="#DejaVuSans-2b" transform="translate(1986.03125 0)"/>
     <use xlink:href="#DejaVuSans-77" transform="translate(2069.820312 0)"/>
     <use xlink:href="#DejaVuSans-69" transform="translate(2151.607422 0)"/>
     <use xlink:href="#DejaVuSans-73" transform="translate(2179.390625 0)"/>
     <use xlink:href="#DejaVuSans-63" transform="translate(2231.490234 0)"/>
     <use xlink:href="#DejaVuSans-6f" transform="translate(2286.470703 0)"/>
     <use xlink:href="#DejaVuSans-6e" transform="translate(2347.652344 0)"/>
     <use xlink:href="#DejaVuSans-73" transform="translate(2411.03125 0)"/>
     <use xlink:href="#DejaVuSans-69" transform="translate(2463.130859 0)"/>
     <use xlink:href="#DejaVuSans-6e" transform="translate(2490.914062 0)"/>
     <use xlink:href="#DejaVuSans-2b" transform="translate(2554.292969 0)"/>
     <use xlink:href="#DejaVuSans-64" transform="translate(2638.082031 0)"/>
     <use xlink:href="#DejaVuSans-69" transform="translate(2701.558594 0)"/>
     <use xlink:href="#DejaVuSans-61" transform="translate(2729.341797 0)"/>
     <use xlink:href="#DejaVuSans-67" transform="translate(2790.621094 0)"/>
     <use xlink:href="#DejaVuSans-6e" transform="translate(2854.097656 0)"/>
     <use xlink:href="#DejaVuSans-6f" transform="translate(2917.476562 0)"/>
     <use xlink:href="#DejaVuSans-73" transform="translate(2978.658203 0)"/>
     <use xlink:href="#DejaVuSans-74" transform="translate(3030.757812 0)"/>
     <use xlink:href="#DejaVuSans-69" transform="translate(3069.966797 0)"/>
     <use xlink:href="#DejaVuSans-63" transform="translate(3097.75 0)"/>
    </g>
   </g>
   <g id="legend_4">
    <g id="patch_87">
     <path d="M 409.32 313.04 
L 477.843438 313.04 
Q 479.843438 313.04 479.843438 311.04 
L 479.843438 282.68375 
Q 479.843438 280.68375 477.843438 280.68375 
L 409.32 280.68375 
Q 407.32 280.68375 407.32 282.68375 
L 407.32 311.04 
Q 407.32 313.04 409.32 313.04 
z
" style="fill: #ffffff; opacity: 0.8; stroke: #cccccc; stroke-linejoin: miter"/>
    </g>
    <g id="patch_88">
     <path d="M 411.32 292.282188 
L 431.32 292.282188 
L 431.32 285.282188 
L 411.32 285.282188 
z
" style="fill: #1f77b4"/>
    </g>
    <g id="text_67">
     <!-- rollOCT -->
     <g transform="translate(439.32 292.282188) scale(0.1 -0.1)">
      <use xlink:href="#DejaVuSans-72"/>
      <use xlink:href="#DejaVuSans-6f" transform="translate(38.863281 0)"/>
      <use xlink:href="#DejaVuSans-6c" transform="translate(100.044922 0)"/>
      <use xlink:href="#DejaVuSans-6c" transform="translate(127.828125 0)"/>
      <use xlink:href="#DejaVuSans-4f" transform="translate(155.611328 0)"/>
      <use xlink:href="#DejaVuSans-43" transform="translate(234.322266 0)"/>
      <use xlink:href="#DejaVuSans-54" transform="translate(304.146484 0)"/>
     </g>
    </g>
    <g id="patch_89">
     <path d="M 411.32 306.960313 
L 431.32 306.960313 
L 431.32 299.960313 
L 411.32 299.960313 
z
" style="fill: #ff7f0e"/>
    </g>
    <g id="text_68">
     <!-- CART -->
     <g transform="translate(439.32 306.960313) scale(0.1 -0.1)">
      <use xlink:href="#DejaVuSans-43"/>
      <use xlink:href="#DejaVuSans-41" transform="translate(69.824219 0)"/>
      <use xlink:href="#DejaVuSans-52" transform="translate(138.232422 0)"/>
      <use xlink:href="#DejaVuSans-54" transform="translate(200.464844 0)"/>
     </g>
    </g>
   </g>
  </g>
 </g>
 <defs>
  <clipPath id="p748d3ed196">
   <rect x="47.72" y="26.88" width="306.88" height="116.56"/>
  </clipPath>
  <clipPath id="p7d2da61fe9">
   <rect x="402.32" y="26.88" width="306.88" height="116.56"/>
  </clipPath>
  <clipPath id="pcb952bfdc5">
   <rect x="47.72" y="201.48" width="306.88" height="116.56"/>
  </clipPath>
  <clipPath id="p8ccada0b43">
   <rect x="402.32" y="201.48" width="306.88" height="116.56"/>
  </clipPath>
 </defs>
</svg>
