<?xml version="1.0" encoding="utf-8" standalone="no"?>
<!DOCTYPE svg PUBLIC "-//W3C//DTD SVG 1.1//EN"
  "http://www.w3.org/Graphics/SVG/1.1/DTD/svg11.dtd">
<svg xmlns:xlink="http://www.w3.org/1999/xlink" width="896.917906pt" height="401.392125pt" viewBox="0 0 896.917906 401.392125" xmlns="http://www.w3.org/2000/svg" version="1.1">
 <metadata>
  <rdf:RDF xmlns:dc="http://purl.org/dc/elements/1.1/" xmlns:cc="http://creativecommons.org/ns#" xmlns:rdf="http://www.w3.org/1999/02/22-rdf-syntax-ns#">
   <cc:Work>
    <dc:type rdf:resource="http://purl.org/dc/dcmitype/StillImage"/>
    <dc:date>2025-10-29T18:31:10.446299</dc:date>
    <dc:format>image/svg+xml</dc:format>
    <dc:creator>
     <cc:Agent>
      <dc:title>Matplotlib v3.10.3, https://matplotlib.org/</dc:title>
     </cc:Agent>
    </dc:creator>
   </cc:Work>
  </rdf:RDF>
 </metadata>
 <defs>
  <style type="text/css">*{stroke-linejoin: round; stroke-linecap: butt}</style>
 </defs>
 <g id="figure_1">
  <g id="patch_1">
   <path d="M -0 401.392125 
L 896.917906 401.392125 
L 896.917906 0 
L -0 0 
z
" style="fill: #ffffff"/>
  </g>
  <g id="axes_1">
   <g id="patch_2">
    <path d="M 52.717906 355.869937 
L 889.717906 355.869937 
L 889.717906 23.229938 
L 52.717906 23.229938 
z
" style="fill: #ffffff"/>
   </g>
   <g id="matplotlib.axis_1">
    <g id="xtick_1">
     <g id="line2d_1">
      <defs>
       <path id="me1ea3691ff" d="M 0 0 
L 0 6 
" style="stroke: #262626; stroke-width: 1.25"/>
      </defs>
      <g>
       <use xlink:href="#me1ea3691ff" x="84.910214" y="355.869937" style="fill: #262626; stroke: #262626; stroke-width: 1.25"/>
      </g>
     </g>
     <g id="text_1">
      <!-- adult -->
      <g style="fill: #262626" transform="translate(69.475151 374.564047) scale(0.121 -0.121)">
       <defs>
        <path id="DejaVuSans-61" d="M 2194 1759 
Q 1497 1759 1228 1600 
Q 959 1441 959 1056 
Q 959 750 1161 570 
Q 1363 391 1709 391 
Q 2188 391 2477 730 
Q 2766 1069 2766 1631 
L 2766 1759 
L 2194 1759 
z
M 3341 1997 
L 3341 0 
L 2766 0 
L 2766 531 
Q 2569 213 2275 61 
Q 1981 -91 1556 -91 
Q 1019 -91 701 211 
Q 384 513 384 1019 
Q 384 1609 779 1909 
Q 1175 2209 1959 2209 
L 2766 2209 
L 2766 2266 
Q 2766 2663 2505 2880 
Q 2244 3097 1772 3097 
Q 1472 3097 1187 3025 
Q 903 2953 641 2809 
L 641 3341 
Q 956 3463 1253 3523 
Q 1550 3584 1831 3584 
Q 2591 3584 2966 3190 
Q 3341 2797 3341 1997 
z
" transform="scale(0.015625)"/>
        <path id="DejaVuSans-64" d="M 2906 2969 
L 2906 4863 
L 3481 4863 
L 3481 0 
L 2906 0 
L 2906 525 
Q 2725 213 2448 61 
Q 2172 -91 1784 -91 
Q 1150 -91 751 415 
Q 353 922 353 1747 
Q 353 2572 751 3078 
Q 1150 3584 1784 3584 
Q 2172 3584 2448 3432 
Q 2725 3281 2906 2969 
z
M 947 1747 
Q 947 1113 1208 752 
Q 1469 391 1925 391 
Q 2381 391 2643 752 
Q 2906 1113 2906 1747 
Q 2906 2381 2643 2742 
Q 2381 3103 1925 3103 
Q 1469 3103 1208 2742 
Q 947 2381 947 1747 
z
" transform="scale(0.015625)"/>
        <path id="DejaVuSans-75" d="M 544 1381 
L 544 3500 
L 1119 3500 
L 1119 1403 
Q 1119 906 1312 657 
Q 1506 409 1894 409 
Q 2359 409 2629 706 
Q 2900 1003 2900 1516 
L 2900 3500 
L 3475 3500 
L 3475 0 
L 2900 0 
L 2900 538 
Q 2691 219 2414 64 
Q 2138 -91 1772 -91 
Q 1169 -91 856 284 
Q 544 659 544 1381 
z
M 1991 3584 
L 1991 3584 
z
" transform="scale(0.015625)"/>
        <path id="DejaVuSans-6c" d="M 603 4863 
L 1178 4863 
L 1178 0 
L 603 0 
L 603 4863 
z
" transform="scale(0.015625)"/>
        <path id="DejaVuSans-74" d="M 1172 4494 
L 1172 3500 
L 2356 3500 
L 2356 3053 
L 1172 3053 
L 1172 1153 
Q 1172 725 1289 603 
Q 1406 481 1766 481 
L 2356 481 
L 2356 0 
L 1766 0 
Q 1100 0 847 248 
Q 594 497 594 1153 
L 594 3053 
L 172 3053 
L 172 3500 
L 594 3500 
L 594 4494 
L 1172 4494 
z
" transform="scale(0.015625)"/>
       </defs>
       <use xlink:href="#DejaVuSans-61"/>
       <use xlink:href="#DejaVuSans-64" transform="translate(61.279297 0)"/>
       <use xlink:href="#DejaVuSans-75" transform="translate(124.755859 0)"/>
       <use xlink:href="#DejaVuSans-6c" transform="translate(188.134766 0)"/>
       <use xlink:href="#DejaVuSans-74" transform="translate(215.917969 0)"/>
      </g>
     </g>
    </g>
    <g id="xtick_2">
     <g id="line2d_2">
      <g>
       <use xlink:href="#me1ea3691ff" x="149.294829" y="355.869937" style="fill: #262626; stroke: #262626; stroke-width: 1.25"/>
      </g>
     </g>
     <g id="text_2">
      <!-- bcwd -->
      <g style="fill: #262626" transform="translate(133.3389 374.564047) scale(0.121 -0.121)">
       <defs>
        <path id="DejaVuSans-62" d="M 3116 1747 
Q 3116 2381 2855 2742 
Q 2594 3103 2138 3103 
Q 1681 3103 1420 2742 
Q 1159 2381 1159 1747 
Q 1159 1113 1420 752 
Q 1681 391 2138 391 
Q 2594 391 2855 752 
Q 3116 1113 3116 1747 
z
M 1159 2969 
Q 1341 3281 1617 3432 
Q 1894 3584 2278 3584 
Q 2916 3584 3314 3078 
Q 3713 2572 3713 1747 
Q 3713 922 3314 415 
Q 2916 -91 2278 -91 
Q 1894 -91 1617 61 
Q 1341 213 1159 525 
L 1159 0 
L 581 0 
L 581 4863 
L 1159 4863 
L 1159 2969 
z
" transform="scale(0.015625)"/>
        <path id="DejaVuSans-63" d="M 3122 3366 
L 3122 2828 
Q 2878 2963 2633 3030 
Q 2388 3097 2138 3097 
Q 1578 3097 1268 2742 
Q 959 2388 959 1747 
Q 959 1106 1268 751 
Q 1578 397 2138 397 
Q 2388 397 2633 464 
Q 2878 531 3122 666 
L 3122 134 
Q 2881 22 2623 -34 
Q 2366 -91 2075 -91 
Q 1284 -91 818 406 
Q 353 903 353 1747 
Q 353 2603 823 3093 
Q 1294 3584 2113 3584 
Q 2378 3584 2631 3529 
Q 2884 3475 3122 3366 
z
" transform="scale(0.015625)"/>
        <path id="DejaVuSans-77" d="M 269 3500 
L 844 3500 
L 1563 769 
L 2278 3500 
L 2956 3500 
L 3675 769 
L 4391 3500 
L 4966 3500 
L 4050 0 
L 3372 0 
L 2619 2869 
L 1863 0 
L 1184 0 
L 269 3500 
z
" transform="scale(0.015625)"/>
       </defs>
       <use xlink:href="#DejaVuSans-62"/>
       <use xlink:href="#DejaVuSans-63" transform="translate(63.476562 0)"/>
       <use xlink:href="#DejaVuSans-77" transform="translate(118.457031 0)"/>
       <use xlink:href="#DejaVuSans-64" transform="translate(200.244141 0)"/>
      </g>
     </g>
    </g>
    <g id="xtick_3">
     <g id="line2d_3">
      <g>
       <use xlink:href="#me1ea3691ff" x="213.679445" y="355.869937" style="fill: #262626; stroke: #262626; stroke-width: 1.25"/>
      </g>
     </g>
     <g id="text_3">
      <!-- car_eval -->
      <g style="fill: #262626" transform="translate(188.441492 374.564047) scale(0.121 -0.121)">
       <defs>
        <path id="DejaVuSans-72" d="M 2631 2963 
Q 2534 3019 2420 3045 
Q 2306 3072 2169 3072 
Q 1681 3072 1420 2755 
Q 1159 2438 1159 1844 
L 1159 0 
L 581 0 
L 581 3500 
L 1159 3500 
L 1159 2956 
Q 1341 3275 1631 3429 
Q 1922 3584 2338 3584 
Q 2397 3584 2469 3576 
Q 2541 3569 2628 3553 
L 2631 2963 
z
" transform="scale(0.015625)"/>
        <path id="DejaVuSans-5f" d="M 3263 -1063 
L 3263 -1509 
L -63 -1509 
L -63 -1063 
L 3263 -1063 
z
" transform="scale(0.015625)"/>
        <path id="DejaVuSans-65" d="M 3597 1894 
L 3597 1613 
L 953 1613 
Q 991 1019 1311 708 
Q 1631 397 2203 397 
Q 2534 397 2845 478 
Q 3156 559 3463 722 
L 3463 178 
Q 3153 47 2828 -22 
Q 2503 -91 2169 -91 
Q 1331 -91 842 396 
Q 353 884 353 1716 
Q 353 2575 817 3079 
Q 1281 3584 2069 3584 
Q 2775 3584 3186 3129 
Q 3597 2675 3597 1894 
z
M 3022 2063 
Q 3016 2534 2758 2815 
Q 2500 3097 2075 3097 
Q 1594 3097 1305 2825 
Q 1016 2553 972 2059 
L 3022 2063 
z
" transform="scale(0.015625)"/>
        <path id="DejaVuSans-76" d="M 191 3500 
L 800 3500 
L 1894 563 
L 2988 3500 
L 3597 3500 
L 2284 0 
L 1503 0 
L 191 3500 
z
" transform="scale(0.015625)"/>
       </defs>
       <use xlink:href="#DejaVuSans-63"/>
       <use xlink:href="#DejaVuSans-61" transform="translate(54.980469 0)"/>
       <use xlink:href="#DejaVuSans-72" transform="translate(116.259766 0)"/>
       <use xlink:href="#DejaVuSans-5f" transform="translate(157.373047 0)"/>
       <use xlink:href="#DejaVuSans-65" transform="translate(207.373047 0)"/>
       <use xlink:href="#DejaVuSans-76" transform="translate(268.896484 0)"/>
       <use xlink:href="#DejaVuSans-61" transform="translate(328.076172 0)"/>
       <use xlink:href="#DejaVuSans-6c" transform="translate(389.355469 0)"/>
      </g>
     </g>
    </g>
    <g id="xtick_4">
     <g id="line2d_4">
      <g>
       <use xlink:href="#me1ea3691ff" x="278.06406" y="355.869937" style="fill: #262626; stroke: #262626; stroke-width: 1.25"/>
      </g>
     </g>
     <g id="text_4">
      <!-- mushroom -->
      <g style="fill: #262626" transform="translate(245.703177 374.564047) scale(0.121 -0.121)">
       <defs>
        <path id="DejaVuSans-6d" d="M 3328 2828 
Q 3544 3216 3844 3400 
Q 4144 3584 4550 3584 
Q 5097 3584 5394 3201 
Q 5691 2819 5691 2113 
L 5691 0 
L 5113 0 
L 5113 2094 
Q 5113 2597 4934 2840 
Q 4756 3084 4391 3084 
Q 3944 3084 3684 2787 
Q 3425 2491 3425 1978 
L 3425 0 
L 2847 0 
L 2847 2094 
Q 2847 2600 2669 2842 
Q 2491 3084 2119 3084 
Q 1678 3084 1418 2786 
Q 1159 2488 1159 1978 
L 1159 0 
L 581 0 
L 581 3500 
L 1159 3500 
L 1159 2956 
Q 1356 3278 1631 3431 
Q 1906 3584 2284 3584 
Q 2666 3584 2933 3390 
Q 3200 3197 3328 2828 
z
" transform="scale(0.015625)"/>
        <path id="DejaVuSans-73" d="M 2834 3397 
L 2834 2853 
Q 2591 2978 2328 3040 
Q 2066 3103 1784 3103 
Q 1356 3103 1142 2972 
Q 928 2841 928 2578 
Q 928 2378 1081 2264 
Q 1234 2150 1697 2047 
L 1894 2003 
Q 2506 1872 2764 1633 
Q 3022 1394 3022 966 
Q 3022 478 2636 193 
Q 2250 -91 1575 -91 
Q 1294 -91 989 -36 
Q 684 19 347 128 
L 347 722 
Q 666 556 975 473 
Q 1284 391 1588 391 
Q 1994 391 2212 530 
Q 2431 669 2431 922 
Q 2431 1156 2273 1281 
Q 2116 1406 1581 1522 
L 1381 1569 
Q 847 1681 609 1914 
Q 372 2147 372 2553 
Q 372 3047 722 3315 
Q 1072 3584 1716 3584 
Q 2034 3584 2315 3537 
Q 2597 3491 2834 3397 
z
" transform="scale(0.015625)"/>
        <path id="DejaVuSans-68" d="M 3513 2113 
L 3513 0 
L 2938 0 
L 2938 2094 
Q 2938 2591 2744 2837 
Q 2550 3084 2163 3084 
Q 1697 3084 1428 2787 
Q 1159 2491 1159 1978 
L 1159 0 
L 581 0 
L 581 4863 
L 1159 4863 
L 1159 2956 
Q 1366 3272 1645 3428 
Q 1925 3584 2291 3584 
Q 2894 3584 3203 3211 
Q 3513 2838 3513 2113 
z
" transform="scale(0.015625)"/>
        <path id="DejaVuSans-6f" d="M 1959 3097 
Q 1497 3097 1228 2736 
Q 959 2375 959 1747 
Q 959 1119 1226 758 
Q 1494 397 1959 397 
Q 2419 397 2687 759 
Q 2956 1122 2956 1747 
Q 2956 2369 2687 2733 
Q 2419 3097 1959 3097 
z
M 1959 3584 
Q 2709 3584 3137 3096 
Q 3566 2609 3566 1747 
Q 3566 888 3137 398 
Q 2709 -91 1959 -91 
Q 1206 -91 779 398 
Q 353 888 353 1747 
Q 353 2609 779 3096 
Q 1206 3584 1959 3584 
z
" transform="scale(0.015625)"/>
       </defs>
       <use xlink:href="#DejaVuSans-6d"/>
       <use xlink:href="#DejaVuSans-75" transform="translate(97.412109 0)"/>
       <use xlink:href="#DejaVuSans-73" transform="translate(160.791016 0)"/>
       <use xlink:href="#DejaVuSans-68" transform="translate(212.890625 0)"/>
       <use xlink:href="#DejaVuSans-72" transform="translate(276.269531 0)"/>
       <use xlink:href="#DejaVuSans-6f" transform="translate(315.132812 0)"/>
       <use xlink:href="#DejaVuSans-6f" transform="translate(376.314453 0)"/>
       <use xlink:href="#DejaVuSans-6d" transform="translate(437.496094 0)"/>
      </g>
     </g>
    </g>
    <g id="xtick_5">
     <g id="line2d_5">
      <g>
       <use xlink:href="#me1ea3691ff" x="342.448675" y="355.869937" style="fill: #262626; stroke: #262626; stroke-width: 1.25"/>
      </g>
     </g>
     <g id="text_5">
      <!-- nursery -->
      <g style="fill: #262626" transform="translate(319.35091 374.564047) scale(0.121 -0.121)">
       <defs>
        <path id="DejaVuSans-6e" d="M 3513 2113 
L 3513 0 
L 2938 0 
L 2938 2094 
Q 2938 2591 2744 2837 
Q 2550 3084 2163 3084 
Q 1697 3084 1428 2787 
Q 1159 2491 1159 1978 
L 1159 0 
L 581 0 
L 581 3500 
L 1159 3500 
L 1159 2956 
Q 1366 3272 1645 3428 
Q 1925 3584 2291 3584 
Q 2894 3584 3203 3211 
Q 3513 2838 3513 2113 
z
" transform="scale(0.015625)"/>
        <path id="DejaVuSans-79" d="M 2059 -325 
Q 1816 -950 1584 -1140 
Q 1353 -1331 966 -1331 
L 506 -1331 
L 506 -850 
L 844 -850 
Q 1081 -850 1212 -737 
Q 1344 -625 1503 -206 
L 1606 56 
L 191 3500 
L 800 3500 
L 1894 763 
L 2988 3500 
L 3597 3500 
L 2059 -325 
z
" transform="scale(0.015625)"/>
       </defs>
       <use xlink:href="#DejaVuSans-6e"/>
       <use xlink:href="#DejaVuSans-75" transform="translate(63.378906 0)"/>
       <use xlink:href="#DejaVuSans-72" transform="translate(126.757812 0)"/>
       <use xlink:href="#DejaVuSans-73" transform="translate(167.871094 0)"/>
       <use xlink:href="#DejaVuSans-65" transform="translate(219.970703 0)"/>
       <use xlink:href="#DejaVuSans-72" transform="translate(281.494141 0)"/>
       <use xlink:href="#DejaVuSans-79" transform="translate(322.607422 0)"/>
      </g>
     </g>
    </g>
    <g id="xtick_6">
     <g id="line2d_6">
      <g>
       <use xlink:href="#me1ea3691ff" x="406.833291" y="355.869937" style="fill: #262626; stroke: #262626; stroke-width: 1.25"/>
      </g>
     </g>
     <g id="text_6">
      <!-- seismic -->
      <g style="fill: #262626" transform="translate(384.226142 374.564047) scale(0.121 -0.121)">
       <defs>
        <path id="DejaVuSans-69" d="M 603 3500 
L 1178 3500 
L 1178 0 
L 603 0 
L 603 3500 
z
M 603 4863 
L 1178 4863 
L 1178 4134 
L 603 4134 
L 603 4863 
z
" transform="scale(0.015625)"/>
       </defs>
       <use xlink:href="#DejaVuSans-73"/>
       <use xlink:href="#DejaVuSans-65" transform="translate(52.099609 0)"/>
       <use xlink:href="#DejaVuSans-69" transform="translate(113.623047 0)"/>
       <use xlink:href="#DejaVuSans-73" transform="translate(141.40625 0)"/>
       <use xlink:href="#DejaVuSans-6d" transform="translate(193.505859 0)"/>
       <use xlink:href="#DejaVuSans-69" transform="translate(290.917969 0)"/>
       <use xlink:href="#DejaVuSans-63" transform="translate(318.701172 0)"/>
      </g>
     </g>
    </g>
    <g id="xtick_7">
     <g id="line2d_7">
      <g>
       <use xlink:href="#me1ea3691ff" x="471.217906" y="355.869937" style="fill: #262626; stroke: #262626; stroke-width: 1.25"/>
      </g>
     </g>
     <g id="text_7">
      <!-- spambase -->
      <g style="fill: #262626" transform="translate(440.202203 374.564047) scale(0.121 -0.121)">
       <defs>
        <path id="DejaVuSans-70" d="M 1159 525 
L 1159 -1331 
L 581 -1331 
L 581 3500 
L 1159 3500 
L 1159 2969 
Q 1341 3281 1617 3432 
Q 1894 3584 2278 3584 
Q 2916 3584 3314 3078 
Q 3713 2572 3713 1747 
Q 3713 922 3314 415 
Q 2916 -91 2278 -91 
Q 1894 -91 1617 61 
Q 1341 213 1159 525 
z
M 3116 1747 
Q 3116 2381 2855 2742 
Q 2594 3103 2138 3103 
Q 1681 3103 1420 2742 
Q 1159 2381 1159 1747 
Q 1159 1113 1420 752 
Q 1681 391 2138 391 
Q 2594 391 2855 752 
Q 3116 1113 3116 1747 
z
" transform="scale(0.015625)"/>
       </defs>
       <use xlink:href="#DejaVuSans-73"/>
       <use xlink:href="#DejaVuSans-70" transform="translate(52.099609 0)"/>
       <use xlink:href="#DejaVuSans-61" transform="translate(115.576172 0)"/>
       <use xlink:href="#DejaVuSans-6d" transform="translate(176.855469 0)"/>
       <use xlink:href="#DejaVuSans-62" transform="translate(274.267578 0)"/>
       <use xlink:href="#DejaVuSans-61" transform="translate(337.744141 0)"/>
       <use xlink:href="#DejaVuSans-73" transform="translate(399.023438 0)"/>
       <use xlink:href="#DejaVuSans-65" transform="translate(451.123047 0)"/>
      </g>
     </g>
    </g>
    <g id="xtick_8">
     <g id="line2d_8">
      <g>
       <use xlink:href="#me1ea3691ff" x="535.602522" y="355.869937" style="fill: #262626; stroke: #262626; stroke-width: 1.25"/>
      </g>
     </g>
     <g id="text_8">
      <!-- wine -->
      <g style="fill: #262626" transform="translate(521.417162 374.564047) scale(0.121 -0.121)">
       <use xlink:href="#DejaVuSans-77"/>
       <use xlink:href="#DejaVuSans-69" transform="translate(81.787109 0)"/>
       <use xlink:href="#DejaVuSans-6e" transform="translate(109.570312 0)"/>
       <use xlink:href="#DejaVuSans-65" transform="translate(172.949219 0)"/>
      </g>
     </g>
    </g>
    <g id="xtick_9">
     <g id="line2d_9">
      <g>
       <use xlink:href="#me1ea3691ff" x="599.987137" y="355.869937" style="fill: #262626; stroke: #262626; stroke-width: 1.25"/>
      </g>
     </g>
     <g id="text_9">
      <!-- banknote -->
      <g style="fill: #262626" transform="translate(571.47084 374.564047) scale(0.121 -0.121)">
       <defs>
        <path id="DejaVuSans-6b" d="M 581 4863 
L 1159 4863 
L 1159 1991 
L 2875 3500 
L 3609 3500 
L 1753 1863 
L 3688 0 
L 2938 0 
L 1159 1709 
L 1159 0 
L 581 0 
L 581 4863 
z
" transform="scale(0.015625)"/>
       </defs>
       <use xlink:href="#DejaVuSans-62"/>
       <use xlink:href="#DejaVuSans-61" transform="translate(63.476562 0)"/>
       <use xlink:href="#DejaVuSans-6e" transform="translate(124.755859 0)"/>
       <use xlink:href="#DejaVuSans-6b" transform="translate(188.134766 0)"/>
       <use xlink:href="#DejaVuSans-6e" transform="translate(246.044922 0)"/>
       <use xlink:href="#DejaVuSans-6f" transform="translate(309.423828 0)"/>
       <use xlink:href="#DejaVuSans-74" transform="translate(370.605469 0)"/>
       <use xlink:href="#DejaVuSans-65" transform="translate(409.814453 0)"/>
      </g>
     </g>
    </g>
    <g id="xtick_10">
     <g id="line2d_10">
      <g>
       <use xlink:href="#me1ea3691ff" x="664.371752" y="355.869937" style="fill: #262626; stroke: #262626; stroke-width: 1.25"/>
      </g>
     </g>
     <g id="text_10">
      <!-- chess -->
      <g style="fill: #262626" transform="translate(647.185026 374.564047) scale(0.121 -0.121)">
       <use xlink:href="#DejaVuSans-63"/>
       <use xlink:href="#DejaVuSans-68" transform="translate(54.980469 0)"/>
       <use xlink:href="#DejaVuSans-65" transform="translate(118.359375 0)"/>
       <use xlink:href="#DejaVuSans-73" transform="translate(179.882812 0)"/>
       <use xlink:href="#DejaVuSans-73" transform="translate(231.982422 0)"/>
      </g>
     </g>
    </g>
    <g id="xtick_11">
     <g id="line2d_11">
      <g>
       <use xlink:href="#me1ea3691ff" x="728.756368" y="355.869937" style="fill: #262626; stroke: #262626; stroke-width: 1.25"/>
      </g>
     </g>
     <g id="text_11">
      <!-- monk1 -->
      <g style="fill: #262626" transform="translate(707.974618 374.564047) scale(0.121 -0.121)">
       <defs>
        <path id="DejaVuSans-31" d="M 794 531 
L 1825 531 
L 1825 4091 
L 703 3866 
L 703 4441 
L 1819 4666 
L 2450 4666 
L 2450 531 
L 3481 531 
L 3481 0 
L 794 0 
L 794 531 
z
" transform="scale(0.015625)"/>
       </defs>
       <use xlink:href="#DejaVuSans-6d"/>
       <use xlink:href="#DejaVuSans-6f" transform="translate(97.412109 0)"/>
       <use xlink:href="#DejaVuSans-6e" transform="translate(158.59375 0)"/>
       <use xlink:href="#DejaVuSans-6b" transform="translate(221.972656 0)"/>
       <use xlink:href="#DejaVuSans-31" transform="translate(279.882812 0)"/>
      </g>
     </g>
    </g>
    <g id="xtick_12">
     <g id="line2d_12">
      <g>
       <use xlink:href="#me1ea3691ff" x="793.140983" y="355.869937" style="fill: #262626; stroke: #262626; stroke-width: 1.25"/>
      </g>
     </g>
     <g id="text_12">
      <!-- monk2 -->
      <g style="fill: #262626" transform="translate(772.359233 374.564047) scale(0.121 -0.121)">
       <defs>
        <path id="DejaVuSans-32" d="M 1228 531 
L 3431 531 
L 3431 0 
L 469 0 
L 469 531 
Q 828 903 1448 1529 
Q 2069 2156 2228 2338 
Q 2531 2678 2651 2914 
Q 2772 3150 2772 3378 
Q 2772 3750 2511 3984 
Q 2250 4219 1831 4219 
Q 1534 4219 1204 4116 
Q 875 4013 500 3803 
L 500 4441 
Q 881 4594 1212 4672 
Q 1544 4750 1819 4750 
Q 2544 4750 2975 4387 
Q 3406 4025 3406 3419 
Q 3406 3131 3298 2873 
Q 3191 2616 2906 2266 
Q 2828 2175 2409 1742 
Q 1991 1309 1228 531 
z
" transform="scale(0.015625)"/>
       </defs>
       <use xlink:href="#DejaVuSans-6d"/>
       <use xlink:href="#DejaVuSans-6f" transform="translate(97.412109 0)"/>
       <use xlink:href="#DejaVuSans-6e" transform="translate(158.59375 0)"/>
       <use xlink:href="#DejaVuSans-6b" transform="translate(221.972656 0)"/>
       <use xlink:href="#DejaVuSans-32" transform="translate(279.882812 0)"/>
      </g>
     </g>
    </g>
    <g id="xtick_13">
     <g id="line2d_13">
      <g>
       <use xlink:href="#me1ea3691ff" x="857.525599" y="355.869937" style="fill: #262626; stroke: #262626; stroke-width: 1.25"/>
      </g>
     </g>
     <g id="text_13">
      <!-- monk3 -->
      <g style="fill: #262626" transform="translate(836.743849 374.564047) scale(0.121 -0.121)">
       <defs>
        <path id="DejaVuSans-33" d="M 2597 2516 
Q 3050 2419 3304 2112 
Q 3559 1806 3559 1356 
Q 3559 666 3084 287 
Q 2609 -91 1734 -91 
Q 1441 -91 1130 -33 
Q 819 25 488 141 
L 488 750 
Q 750 597 1062 519 
Q 1375 441 1716 441 
Q 2309 441 2620 675 
Q 2931 909 2931 1356 
Q 2931 1769 2642 2001 
Q 2353 2234 1838 2234 
L 1294 2234 
L 1294 2753 
L 1863 2753 
Q 2328 2753 2575 2939 
Q 2822 3125 2822 3475 
Q 2822 3834 2567 4026 
Q 2313 4219 1838 4219 
Q 1578 4219 1281 4162 
Q 984 4106 628 3988 
L 628 4550 
Q 988 4650 1302 4700 
Q 1616 4750 1894 4750 
Q 2613 4750 3031 4423 
Q 3450 4097 3450 3541 
Q 3450 3153 3228 2886 
Q 3006 2619 2597 2516 
z
" transform="scale(0.015625)"/>
       </defs>
       <use xlink:href="#DejaVuSans-6d"/>
       <use xlink:href="#DejaVuSans-6f" transform="translate(97.412109 0)"/>
       <use xlink:href="#DejaVuSans-6e" transform="translate(158.59375 0)"/>
       <use xlink:href="#DejaVuSans-6b" transform="translate(221.972656 0)"/>
       <use xlink:href="#DejaVuSans-33" transform="translate(279.882812 0)"/>
      </g>
     </g>
    </g>
    <g id="text_14">
     <!-- Dataset -->
     <g style="fill: #262626" transform="translate(445.372719 391.446938) scale(0.132 -0.132)">
      <defs>
       <path id="DejaVuSans-44" d="M 1259 4147 
L 1259 519 
L 2022 519 
Q 2988 519 3436 956 
Q 3884 1394 3884 2338 
Q 3884 3275 3436 3711 
Q 2988 4147 2022 4147 
L 1259 4147 
z
M 628 4666 
L 1925 4666 
Q 3281 4666 3915 4102 
Q 4550 3538 4550 2338 
Q 4550 1131 3912 565 
Q 3275 0 1925 0 
L 628 0 
L 628 4666 
z
" transform="scale(0.015625)"/>
      </defs>
      <use xlink:href="#DejaVuSans-44"/>
      <use xlink:href="#DejaVuSans-61" transform="translate(77.001953 0)"/>
      <use xlink:href="#DejaVuSans-74" transform="translate(138.28125 0)"/>
      <use xlink:href="#DejaVuSans-61" transform="translate(177.490234 0)"/>
      <use xlink:href="#DejaVuSans-73" transform="translate(238.769531 0)"/>
      <use xlink:href="#DejaVuSans-65" transform="translate(290.869141 0)"/>
      <use xlink:href="#DejaVuSans-74" transform="translate(352.392578 0)"/>
     </g>
    </g>
   </g>
   <g id="matplotlib.axis_2">
    <g id="ytick_1">
     <g id="line2d_14">
      <defs>
       <path id="m20ef0bed13" d="M 0 0 
L -6 0 
" style="stroke: #262626; stroke-width: 1.25"/>
      </defs>
      <g>
       <use xlink:href="#m20ef0bed13" x="52.717906" y="327.90706" style="fill: #262626; stroke: #262626; stroke-width: 1.25"/>
      </g>
     </g>
     <g id="text_15">
      <!-- 0.0 -->
      <g style="fill: #262626" transform="translate(23.975125 332.504114) scale(0.121 -0.121)">
       <defs>
        <path id="DejaVuSans-30" d="M 2034 4250 
Q 1547 4250 1301 3770 
Q 1056 3291 1056 2328 
Q 1056 1369 1301 889 
Q 1547 409 2034 409 
Q 2525 409 2770 889 
Q 3016 1369 3016 2328 
Q 3016 3291 2770 3770 
Q 2525 4250 2034 4250 
z
M 2034 4750 
Q 2819 4750 3233 4129 
Q 3647 3509 3647 2328 
Q 3647 1150 3233 529 
Q 2819 -91 2034 -91 
Q 1250 -91 836 529 
Q 422 1150 422 2328 
Q 422 3509 836 4129 
Q 1250 4750 2034 4750 
z
" transform="scale(0.015625)"/>
        <path id="DejaVuSans-2e" d="M 684 794 
L 1344 794 
L 1344 0 
L 684 0 
L 684 794 
z
" transform="scale(0.015625)"/>
       </defs>
       <use xlink:href="#DejaVuSans-30"/>
       <use xlink:href="#DejaVuSans-2e" transform="translate(63.623047 0)"/>
       <use xlink:href="#DejaVuSans-30" transform="translate(95.410156 0)"/>
      </g>
     </g>
    </g>
    <g id="ytick_2">
     <g id="line2d_15">
      <g>
       <use xlink:href="#m20ef0bed13" x="52.717906" y="269.995635" style="fill: #262626; stroke: #262626; stroke-width: 1.25"/>
      </g>
     </g>
     <g id="text_16">
      <!-- 0.2 -->
      <g style="fill: #262626" transform="translate(23.975125 274.59269) scale(0.121 -0.121)">
       <use xlink:href="#DejaVuSans-30"/>
       <use xlink:href="#DejaVuSans-2e" transform="translate(63.623047 0)"/>
       <use xlink:href="#DejaVuSans-32" transform="translate(95.410156 0)"/>
      </g>
     </g>
    </g>
    <g id="ytick_3">
     <g id="line2d_16">
      <g>
       <use xlink:href="#m20ef0bed13" x="52.717906" y="212.084211" style="fill: #262626; stroke: #262626; stroke-width: 1.25"/>
      </g>
     </g>
     <g id="text_17">
      <!-- 0.4 -->
      <g style="fill: #262626" transform="translate(23.975125 216.681266) scale(0.121 -0.121)">
       <defs>
        <path id="DejaVuSans-34" d="M 2419 4116 
L 825 1625 
L 2419 1625 
L 2419 4116 
z
M 2253 4666 
L 3047 4666 
L 3047 1625 
L 3713 1625 
L 3713 1100 
L 3047 1100 
L 3047 0 
L 2419 0 
L 2419 1100 
L 313 1100 
L 313 1709 
L 2253 4666 
z
" transform="scale(0.015625)"/>
       </defs>
       <use xlink:href="#DejaVuSans-30"/>
       <use xlink:href="#DejaVuSans-2e" transform="translate(63.623047 0)"/>
       <use xlink:href="#DejaVuSans-34" transform="translate(95.410156 0)"/>
      </g>
     </g>
    </g>
    <g id="ytick_4">
     <g id="line2d_17">
      <g>
       <use xlink:href="#m20ef0bed13" x="52.717906" y="154.172786" style="fill: #262626; stroke: #262626; stroke-width: 1.25"/>
      </g>
     </g>
     <g id="text_18">
      <!-- 0.6 -->
      <g style="fill: #262626" transform="translate(23.975125 158.769841) scale(0.121 -0.121)">
       <defs>
        <path id="DejaVuSans-36" d="M 2113 2584 
Q 1688 2584 1439 2293 
Q 1191 2003 1191 1497 
Q 1191 994 1439 701 
Q 1688 409 2113 409 
Q 2538 409 2786 701 
Q 3034 994 3034 1497 
Q 3034 2003 2786 2293 
Q 2538 2584 2113 2584 
z
M 3366 4563 
L 3366 3988 
Q 3128 4100 2886 4159 
Q 2644 4219 2406 4219 
Q 1781 4219 1451 3797 
Q 1122 3375 1075 2522 
Q 1259 2794 1537 2939 
Q 1816 3084 2150 3084 
Q 2853 3084 3261 2657 
Q 3669 2231 3669 1497 
Q 3669 778 3244 343 
Q 2819 -91 2113 -91 
Q 1303 -91 875 529 
Q 447 1150 447 2328 
Q 447 3434 972 4092 
Q 1497 4750 2381 4750 
Q 2619 4750 2861 4703 
Q 3103 4656 3366 4563 
z
" transform="scale(0.015625)"/>
       </defs>
       <use xlink:href="#DejaVuSans-30"/>
       <use xlink:href="#DejaVuSans-2e" transform="translate(63.623047 0)"/>
       <use xlink:href="#DejaVuSans-36" transform="translate(95.410156 0)"/>
      </g>
     </g>
    </g>
    <g id="ytick_5">
     <g id="line2d_18">
      <g>
       <use xlink:href="#m20ef0bed13" x="52.717906" y="96.261362" style="fill: #262626; stroke: #262626; stroke-width: 1.25"/>
      </g>
     </g>
     <g id="text_19">
      <!-- 0.8 -->
      <g style="fill: #262626" transform="translate(23.975125 100.858417) scale(0.121 -0.121)">
       <defs>
        <path id="DejaVuSans-38" d="M 2034 2216 
Q 1584 2216 1326 1975 
Q 1069 1734 1069 1313 
Q 1069 891 1326 650 
Q 1584 409 2034 409 
Q 2484 409 2743 651 
Q 3003 894 3003 1313 
Q 3003 1734 2745 1975 
Q 2488 2216 2034 2216 
z
M 1403 2484 
Q 997 2584 770 2862 
Q 544 3141 544 3541 
Q 544 4100 942 4425 
Q 1341 4750 2034 4750 
Q 2731 4750 3128 4425 
Q 3525 4100 3525 3541 
Q 3525 3141 3298 2862 
Q 3072 2584 2669 2484 
Q 3125 2378 3379 2068 
Q 3634 1759 3634 1313 
Q 3634 634 3220 271 
Q 2806 -91 2034 -91 
Q 1263 -91 848 271 
Q 434 634 434 1313 
Q 434 1759 690 2068 
Q 947 2378 1403 2484 
z
M 1172 3481 
Q 1172 3119 1398 2916 
Q 1625 2713 2034 2713 
Q 2441 2713 2670 2916 
Q 2900 3119 2900 3481 
Q 2900 3844 2670 4047 
Q 2441 4250 2034 4250 
Q 1625 4250 1398 4047 
Q 1172 3844 1172 3481 
z
" transform="scale(0.015625)"/>
       </defs>
       <use xlink:href="#DejaVuSans-30"/>
       <use xlink:href="#DejaVuSans-2e" transform="translate(63.623047 0)"/>
       <use xlink:href="#DejaVuSans-38" transform="translate(95.410156 0)"/>
      </g>
     </g>
    </g>
    <g id="ytick_6">
     <g id="line2d_19">
      <g>
       <use xlink:href="#m20ef0bed13" x="52.717906" y="38.349938" style="fill: #262626; stroke: #262626; stroke-width: 1.25"/>
      </g>
     </g>
     <g id="text_20">
      <!-- 1.0 -->
      <g style="fill: #262626" transform="translate(23.975125 42.946992) scale(0.121 -0.121)">
       <use xlink:href="#DejaVuSans-31"/>
       <use xlink:href="#DejaVuSans-2e" transform="translate(63.623047 0)"/>
       <use xlink:href="#DejaVuSans-30" transform="translate(95.410156 0)"/>
      </g>
     </g>
    </g>
    <g id="text_21">
     <!-- mcc -->
     <g style="fill: #262626" transform="translate(17.229938 203.236688) rotate(-90) scale(0.132 -0.132)">
      <use xlink:href="#DejaVuSans-6d"/>
      <use xlink:href="#DejaVuSans-63" transform="translate(97.412109 0)"/>
      <use xlink:href="#DejaVuSans-63" transform="translate(152.392578 0)"/>
     </g>
    </g>
   </g>
   <g id="patch_3">
    <path d="M 84.910214 327.90706 
L 84.910214 327.90706 
L 84.910214 327.90706 
L 84.910214 327.90706 
z
" clip-path="url(#pe132632506)" style="fill: #176d9c; stroke: #363636; stroke-linejoin: miter"/>
   </g>
   <g id="patch_4">
    <path d="M 84.910214 327.90706 
L 84.910214 327.90706 
L 84.910214 327.90706 
L 84.910214 327.90706 
z
" clip-path="url(#pe132632506)" style="fill: #c38820; stroke: #363636; stroke-linejoin: miter"/>
   </g>
   <g id="patch_5">
    <path d="M 59.156368 180.585495 
L 84.910214 180.585495 
L 84.910214 173.131239 
L 59.156368 173.131239 
L 59.156368 180.585495 
z
" clip-path="url(#pe132632506)" style="fill: #176d9c; stroke: #363636; stroke-linejoin: miter"/>
   </g>
   <g id="line2d_20">
    <path d="M 72.033291 180.585495 
L 72.033291 189.155177 
" clip-path="url(#pe132632506)" style="fill: none; stroke: #363636"/>
   </g>
   <g id="line2d_21">
    <path d="M 72.033291 173.131239 
L 72.033291 169.605904 
" clip-path="url(#pe132632506)" style="fill: none; stroke: #363636"/>
   </g>
   <g id="line2d_22">
    <path d="M 65.594829 189.155177 
L 78.471752 189.155177 
" clip-path="url(#pe132632506)" style="fill: none; stroke: #363636; stroke-linecap: round"/>
   </g>
   <g id="line2d_23">
    <path d="M 65.594829 169.605904 
L 78.471752 169.605904 
" clip-path="url(#pe132632506)" style="fill: none; stroke: #363636; stroke-linecap: round"/>
   </g>
   <g id="line2d_24"/>
   <g id="patch_6">
    <path d="M 123.540983 106.242082 
L 149.294829 106.242082 
L 149.294829 62.681811 
L 123.540983 62.681811 
L 123.540983 106.242082 
z
" clip-path="url(#pe132632506)" style="fill: #176d9c; stroke: #363636; stroke-linejoin: miter"/>
   </g>
   <g id="line2d_25">
    <path d="M 136.417906 106.242082 
L 136.417906 120.146762 
" clip-path="url(#pe132632506)" style="fill: none; stroke: #363636"/>
   </g>
   <g id="line2d_26">
    <path d="M 136.417906 62.681811 
L 136.417906 48.964148 
" clip-path="url(#pe132632506)" style="fill: none; stroke: #363636"/>
   </g>
   <g id="line2d_27">
    <path d="M 129.979445 120.146762 
L 142.856368 120.146762 
" clip-path="url(#pe132632506)" style="fill: none; stroke: #363636; stroke-linecap: round"/>
   </g>
   <g id="line2d_28">
    <path d="M 129.979445 48.964148 
L 142.856368 48.964148 
" clip-path="url(#pe132632506)" style="fill: none; stroke: #363636; stroke-linecap: round"/>
   </g>
   <g id="line2d_29"/>
   <g id="patch_7">
    <path d="M 187.925599 79.970746 
L 213.679445 79.970746 
L 213.679445 71.844695 
L 187.925599 71.844695 
L 187.925599 79.970746 
z
" clip-path="url(#pe132632506)" style="fill: #176d9c; stroke: #363636; stroke-linejoin: miter"/>
   </g>
   <g id="line2d_30">
    <path d="M 200.802522 79.970746 
L 200.802522 80.486265 
" clip-path="url(#pe132632506)" style="fill: none; stroke: #363636"/>
   </g>
   <g id="line2d_31">
    <path d="M 200.802522 71.844695 
L 200.802522 67.878181 
" clip-path="url(#pe132632506)" style="fill: none; stroke: #363636"/>
   </g>
   <g id="line2d_32">
    <path d="M 194.36406 80.486265 
L 207.240983 80.486265 
" clip-path="url(#pe132632506)" style="fill: none; stroke: #363636; stroke-linecap: round"/>
   </g>
   <g id="line2d_33">
    <path d="M 194.36406 67.878181 
L 207.240983 67.878181 
" clip-path="url(#pe132632506)" style="fill: none; stroke: #363636; stroke-linecap: round"/>
   </g>
   <g id="line2d_34">
    <defs>
     <path id="m67aa227f61" d="M 0 3 
C 0.795609 3 1.55874 2.683901 2.12132 2.12132 
C 2.683901 1.55874 3 0.795609 3 0 
C 3 -0.795609 2.683901 -1.55874 2.12132 -2.12132 
C 1.55874 -2.683901 0.795609 -3 0 -3 
C -0.795609 -3 -1.55874 -2.683901 -2.12132 -2.12132 
C -2.683901 -1.55874 -3 -0.795609 -3 0 
C -3 0.795609 -2.683901 1.55874 -2.12132 2.12132 
C -1.55874 2.683901 -0.795609 3 0 3 
z
" style="stroke: #363636"/>
    </defs>
    <g clip-path="url(#pe132632506)">
     <use xlink:href="#m67aa227f61" x="200.802522" y="94.658801" style="fill-opacity: 0; stroke: #363636"/>
     <use xlink:href="#m67aa227f61" x="200.802522" y="94.583623" style="fill-opacity: 0; stroke: #363636"/>
    </g>
   </g>
   <g id="patch_8">
    <path d="M 252.310214 38.349938 
L 278.06406 38.349938 
L 278.06406 38.349938 
L 252.310214 38.349938 
L 252.310214 38.349938 
z
" clip-path="url(#pe132632506)" style="fill: #176d9c; stroke: #363636; stroke-linejoin: miter"/>
   </g>
   <g id="line2d_35">
    <path d="M 265.187137 38.349938 
L 265.187137 38.349938 
" clip-path="url(#pe132632506)" style="fill: none; stroke: #363636"/>
   </g>
   <g id="line2d_36">
    <path d="M 265.187137 38.349938 
L 265.187137 38.349938 
" clip-path="url(#pe132632506)" style="fill: none; stroke: #363636"/>
   </g>
   <g id="line2d_37">
    <path d="M 258.748675 38.349938 
L 271.625599 38.349938 
" clip-path="url(#pe132632506)" style="fill: none; stroke: #363636; stroke-linecap: round"/>
   </g>
   <g id="line2d_38">
    <path d="M 258.748675 38.349938 
L 271.625599 38.349938 
" clip-path="url(#pe132632506)" style="fill: none; stroke: #363636; stroke-linecap: round"/>
   </g>
   <g id="line2d_39"/>
   <g id="patch_9">
    <path d="M 316.694829 64.960793 
L 342.448675 64.960793 
L 342.448675 62.656541 
L 316.694829 62.656541 
L 316.694829 64.960793 
z
" clip-path="url(#pe132632506)" style="fill: #176d9c; stroke: #363636; stroke-linejoin: miter"/>
   </g>
   <g id="line2d_40">
    <path d="M 329.571752 64.960793 
L 329.571752 66.851766 
" clip-path="url(#pe132632506)" style="fill: none; stroke: #363636"/>
   </g>
   <g id="line2d_41">
    <path d="M 329.571752 62.656541 
L 329.571752 60.0598 
" clip-path="url(#pe132632506)" style="fill: none; stroke: #363636"/>
   </g>
   <g id="line2d_42">
    <path d="M 323.133291 66.851766 
L 336.010214 66.851766 
" clip-path="url(#pe132632506)" style="fill: none; stroke: #363636; stroke-linecap: round"/>
   </g>
   <g id="line2d_43">
    <path d="M 323.133291 60.0598 
L 336.010214 60.0598 
" clip-path="url(#pe132632506)" style="fill: none; stroke: #363636; stroke-linecap: round"/>
   </g>
   <g id="line2d_44"/>
   <g id="patch_10">
    <path d="M 381.079445 334.772545 
L 406.833291 334.772545 
L 406.833291 297.305778 
L 381.079445 297.305778 
L 381.079445 334.772545 
z
" clip-path="url(#pe132632506)" style="fill: #176d9c; stroke: #363636; stroke-linejoin: miter"/>
   </g>
   <g id="line2d_45">
    <path d="M 393.956368 334.772545 
L 393.956368 340.749937 
" clip-path="url(#pe132632506)" style="fill: none; stroke: #363636"/>
   </g>
   <g id="line2d_46">
    <path d="M 393.956368 297.305778 
L 393.956368 268.519506 
" clip-path="url(#pe132632506)" style="fill: none; stroke: #363636"/>
   </g>
   <g id="line2d_47">
    <path d="M 387.517906 340.749937 
L 400.394829 340.749937 
" clip-path="url(#pe132632506)" style="fill: none; stroke: #363636; stroke-linecap: round"/>
   </g>
   <g id="line2d_48">
    <path d="M 387.517906 268.519506 
L 400.394829 268.519506 
" clip-path="url(#pe132632506)" style="fill: none; stroke: #363636; stroke-linecap: round"/>
   </g>
   <g id="line2d_49"/>
   <g id="patch_11">
    <path d="M 445.46406 119.065522 
L 471.217906 119.065522 
L 471.217906 107.733193 
L 445.46406 107.733193 
L 445.46406 119.065522 
z
" clip-path="url(#pe132632506)" style="fill: #176d9c; stroke: #363636; stroke-linejoin: miter"/>
   </g>
   <g id="line2d_50">
    <path d="M 458.340983 119.065522 
L 458.340983 128.734933 
" clip-path="url(#pe132632506)" style="fill: none; stroke: #363636"/>
   </g>
   <g id="line2d_51">
    <path d="M 458.340983 107.733193 
L 458.340983 105.894348 
" clip-path="url(#pe132632506)" style="fill: none; stroke: #363636"/>
   </g>
   <g id="line2d_52">
    <path d="M 451.902522 128.734933 
L 464.779445 128.734933 
" clip-path="url(#pe132632506)" style="fill: none; stroke: #363636; stroke-linecap: round"/>
   </g>
   <g id="line2d_53">
    <path d="M 451.902522 105.894348 
L 464.779445 105.894348 
" clip-path="url(#pe132632506)" style="fill: none; stroke: #363636; stroke-linecap: round"/>
   </g>
   <g id="line2d_54">
    <g clip-path="url(#pe132632506)">
     <use xlink:href="#m67aa227f61" x="458.340983" y="89.910991" style="fill-opacity: 0; stroke: #363636"/>
    </g>
   </g>
   <g id="patch_12">
    <path d="M 509.848675 86.831216 
L 535.602522 86.831216 
L 535.602522 38.349938 
L 509.848675 38.349938 
L 509.848675 86.831216 
z
" clip-path="url(#pe132632506)" style="fill: #176d9c; stroke: #363636; stroke-linejoin: miter"/>
   </g>
   <g id="line2d_55">
    <path d="M 522.725599 86.831216 
L 522.725599 111.060376 
" clip-path="url(#pe132632506)" style="fill: none; stroke: #363636"/>
   </g>
   <g id="line2d_56">
    <path d="M 522.725599 38.349938 
L 522.725599 38.349938 
" clip-path="url(#pe132632506)" style="fill: none; stroke: #363636"/>
   </g>
   <g id="line2d_57">
    <path d="M 516.287137 111.060376 
L 529.16406 111.060376 
" clip-path="url(#pe132632506)" style="fill: none; stroke: #363636; stroke-linecap: round"/>
   </g>
   <g id="line2d_58">
    <path d="M 516.287137 38.349938 
L 529.16406 38.349938 
" clip-path="url(#pe132632506)" style="fill: none; stroke: #363636; stroke-linecap: round"/>
   </g>
   <g id="line2d_59"/>
   <g id="patch_13">
    <path d="M 574.233291 53.955675 
L 599.987137 53.955675 
L 599.987137 47.811074 
L 574.233291 47.811074 
L 574.233291 53.955675 
z
" clip-path="url(#pe132632506)" style="fill: #176d9c; stroke: #363636; stroke-linejoin: miter"/>
   </g>
   <g id="line2d_60">
    <path d="M 587.110214 53.955675 
L 587.110214 59.625476 
" clip-path="url(#pe132632506)" style="fill: none; stroke: #363636"/>
   </g>
   <g id="line2d_61">
    <path d="M 587.110214 47.811074 
L 587.110214 42.604024 
" clip-path="url(#pe132632506)" style="fill: none; stroke: #363636"/>
   </g>
   <g id="line2d_62">
    <path d="M 580.671752 59.625476 
L 593.548675 59.625476 
" clip-path="url(#pe132632506)" style="fill: none; stroke: #363636; stroke-linecap: round"/>
   </g>
   <g id="line2d_63">
    <path d="M 580.671752 42.604024 
L 593.548675 42.604024 
" clip-path="url(#pe132632506)" style="fill: none; stroke: #363636; stroke-linecap: round"/>
   </g>
   <g id="line2d_64"/>
   <g id="patch_14">
    <path d="M 638.617906 48.760735 
L 664.371752 48.760735 
L 664.371752 45.590827 
L 638.617906 45.590827 
L 638.617906 48.760735 
z
" clip-path="url(#pe132632506)" style="fill: #176d9c; stroke: #363636; stroke-linejoin: miter"/>
   </g>
   <g id="line2d_65">
    <path d="M 651.494829 48.760735 
L 651.494829 50.923594 
" clip-path="url(#pe132632506)" style="fill: none; stroke: #363636"/>
   </g>
   <g id="line2d_66">
    <path d="M 651.494829 45.590827 
L 651.494829 43.74379 
" clip-path="url(#pe132632506)" style="fill: none; stroke: #363636"/>
   </g>
   <g id="line2d_67">
    <path d="M 645.056368 50.923594 
L 657.933291 50.923594 
" clip-path="url(#pe132632506)" style="fill: none; stroke: #363636; stroke-linecap: round"/>
   </g>
   <g id="line2d_68">
    <path d="M 645.056368 43.74379 
L 657.933291 43.74379 
" clip-path="url(#pe132632506)" style="fill: none; stroke: #363636; stroke-linecap: round"/>
   </g>
   <g id="line2d_69">
    <g clip-path="url(#pe132632506)">
     <use xlink:href="#m67aa227f61" x="651.494829" y="58.25975" style="fill-opacity: 0; stroke: #363636"/>
    </g>
   </g>
   <g id="patch_15">
    <path d="M 703.002522 111.57653 
L 728.756368 111.57653 
L 728.756368 70.677732 
L 703.002522 70.677732 
L 703.002522 111.57653 
z
" clip-path="url(#pe132632506)" style="fill: #176d9c; stroke: #363636; stroke-linejoin: miter"/>
   </g>
   <g id="line2d_70">
    <path d="M 715.879445 111.57653 
L 715.879445 122.612592 
" clip-path="url(#pe132632506)" style="fill: none; stroke: #363636"/>
   </g>
   <g id="line2d_71">
    <path d="M 715.879445 70.677732 
L 715.879445 38.349938 
" clip-path="url(#pe132632506)" style="fill: none; stroke: #363636"/>
   </g>
   <g id="line2d_72">
    <path d="M 709.440983 122.612592 
L 722.317906 122.612592 
" clip-path="url(#pe132632506)" style="fill: none; stroke: #363636; stroke-linecap: round"/>
   </g>
   <g id="line2d_73">
    <path d="M 709.440983 38.349938 
L 722.317906 38.349938 
" clip-path="url(#pe132632506)" style="fill: none; stroke: #363636; stroke-linecap: round"/>
   </g>
   <g id="line2d_74"/>
   <g id="patch_16">
    <path d="M 767.387137 38.349938 
L 793.140983 38.349938 
L 793.140983 38.349938 
L 767.387137 38.349938 
L 767.387137 38.349938 
z
" clip-path="url(#pe132632506)" style="fill: #176d9c; stroke: #363636; stroke-linejoin: miter"/>
   </g>
   <g id="line2d_75">
    <path d="M 780.26406 38.349938 
L 780.26406 38.349938 
" clip-path="url(#pe132632506)" style="fill: none; stroke: #363636"/>
   </g>
   <g id="line2d_76">
    <path d="M 780.26406 38.349938 
L 780.26406 38.349938 
" clip-path="url(#pe132632506)" style="fill: none; stroke: #363636"/>
   </g>
   <g id="line2d_77">
    <path d="M 773.825599 38.349938 
L 786.702522 38.349938 
" clip-path="url(#pe132632506)" style="fill: none; stroke: #363636; stroke-linecap: round"/>
   </g>
   <g id="line2d_78">
    <path d="M 773.825599 38.349938 
L 786.702522 38.349938 
" clip-path="url(#pe132632506)" style="fill: none; stroke: #363636; stroke-linecap: round"/>
   </g>
   <g id="line2d_79">
    <g clip-path="url(#pe132632506)">
     <use xlink:href="#m67aa227f61" x="780.26406" y="49.144707" style="fill-opacity: 0; stroke: #363636"/>
    </g>
   </g>
   <g id="patch_17">
    <path d="M 831.771752 48.745283 
L 857.525599 48.745283 
L 857.525599 48.519409 
L 831.771752 48.519409 
L 831.771752 48.745283 
z
" clip-path="url(#pe132632506)" style="fill: #176d9c; stroke: #363636; stroke-linejoin: miter"/>
   </g>
   <g id="line2d_80">
    <path d="M 844.648675 48.745283 
L 844.648675 48.745283 
" clip-path="url(#pe132632506)" style="fill: none; stroke: #363636"/>
   </g>
   <g id="line2d_81">
    <path d="M 844.648675 48.519409 
L 844.648675 48.513021 
" clip-path="url(#pe132632506)" style="fill: none; stroke: #363636"/>
   </g>
   <g id="line2d_82">
    <path d="M 838.210214 48.745283 
L 851.087137 48.745283 
" clip-path="url(#pe132632506)" style="fill: none; stroke: #363636; stroke-linecap: round"/>
   </g>
   <g id="line2d_83">
    <path d="M 838.210214 48.513021 
L 851.087137 48.513021 
" clip-path="url(#pe132632506)" style="fill: none; stroke: #363636; stroke-linecap: round"/>
   </g>
   <g id="line2d_84">
    <g clip-path="url(#pe132632506)">
     <use xlink:href="#m67aa227f61" x="844.648675" y="59.059004" style="fill-opacity: 0; stroke: #363636"/>
     <use xlink:href="#m67aa227f61" x="844.648675" y="58.676228" style="fill-opacity: 0; stroke: #363636"/>
     <use xlink:href="#m67aa227f61" x="844.648675" y="38.349938" style="fill-opacity: 0; stroke: #363636"/>
    </g>
   </g>
   <g id="patch_18">
    <path d="M 84.910214 182.883178 
L 110.66406 182.883178 
L 110.66406 173.586825 
L 84.910214 173.586825 
L 84.910214 182.883178 
z
" clip-path="url(#pe132632506)" style="fill: #c38820; stroke: #363636; stroke-linejoin: miter"/>
   </g>
   <g id="line2d_85">
    <path d="M 97.787137 182.883178 
L 97.787137 184.057302 
" clip-path="url(#pe132632506)" style="fill: none; stroke: #363636"/>
   </g>
   <g id="line2d_86">
    <path d="M 97.787137 173.586825 
L 97.787137 170.763654 
" clip-path="url(#pe132632506)" style="fill: none; stroke: #363636"/>
   </g>
   <g id="line2d_87">
    <path d="M 91.348675 184.057302 
L 104.225599 184.057302 
" clip-path="url(#pe132632506)" style="fill: none; stroke: #363636; stroke-linecap: round"/>
   </g>
   <g id="line2d_88">
    <path d="M 91.348675 170.763654 
L 104.225599 170.763654 
" clip-path="url(#pe132632506)" style="fill: none; stroke: #363636; stroke-linecap: round"/>
   </g>
   <g id="line2d_89"/>
   <g id="patch_19">
    <path d="M 149.294829 93.571581 
L 175.048675 93.571581 
L 175.048675 68.850745 
L 149.294829 68.850745 
L 149.294829 93.571581 
z
" clip-path="url(#pe132632506)" style="fill: #c38820; stroke: #363636; stroke-linejoin: miter"/>
   </g>
   <g id="line2d_90">
    <path d="M 162.171752 93.571581 
L 162.171752 103.845001 
" clip-path="url(#pe132632506)" style="fill: none; stroke: #363636"/>
   </g>
   <g id="line2d_91">
    <path d="M 162.171752 68.850745 
L 162.171752 59.784686 
" clip-path="url(#pe132632506)" style="fill: none; stroke: #363636"/>
   </g>
   <g id="line2d_92">
    <path d="M 155.733291 103.845001 
L 168.610214 103.845001 
" clip-path="url(#pe132632506)" style="fill: none; stroke: #363636; stroke-linecap: round"/>
   </g>
   <g id="line2d_93">
    <path d="M 155.733291 59.784686 
L 168.610214 59.784686 
" clip-path="url(#pe132632506)" style="fill: none; stroke: #363636; stroke-linecap: round"/>
   </g>
   <g id="line2d_94">
    <g clip-path="url(#pe132632506)">
     <use xlink:href="#m67aa227f61" x="162.171752" y="172.829084" style="fill-opacity: 0; stroke: #363636"/>
    </g>
   </g>
   <g id="patch_20">
    <path d="M 213.679445 75.980678 
L 239.433291 75.980678 
L 239.433291 60.566835 
L 213.679445 60.566835 
L 213.679445 75.980678 
z
" clip-path="url(#pe132632506)" style="fill: #c38820; stroke: #363636; stroke-linejoin: miter"/>
   </g>
   <g id="line2d_95">
    <path d="M 226.556368 75.980678 
L 226.556368 80.132563 
" clip-path="url(#pe132632506)" style="fill: none; stroke: #363636"/>
   </g>
   <g id="line2d_96">
    <path d="M 226.556368 60.566835 
L 226.556368 56.031977 
" clip-path="url(#pe132632506)" style="fill: none; stroke: #363636"/>
   </g>
   <g id="line2d_97">
    <path d="M 220.117906 80.132563 
L 232.994829 80.132563 
" clip-path="url(#pe132632506)" style="fill: none; stroke: #363636; stroke-linecap: round"/>
   </g>
   <g id="line2d_98">
    <path d="M 220.117906 56.031977 
L 232.994829 56.031977 
" clip-path="url(#pe132632506)" style="fill: none; stroke: #363636; stroke-linecap: round"/>
   </g>
   <g id="line2d_99"/>
   <g id="patch_21">
    <path d="M 278.06406 38.349938 
L 303.817906 38.349938 
L 303.817906 38.349938 
L 278.06406 38.349938 
L 278.06406 38.349938 
z
" clip-path="url(#pe132632506)" style="fill: #c38820; stroke: #363636; stroke-linejoin: miter"/>
   </g>
   <g id="line2d_100">
    <path d="M 290.940983 38.349938 
L 290.940983 38.349938 
" clip-path="url(#pe132632506)" style="fill: none; stroke: #363636"/>
   </g>
   <g id="line2d_101">
    <path d="M 290.940983 38.349938 
L 290.940983 38.349938 
" clip-path="url(#pe132632506)" style="fill: none; stroke: #363636"/>
   </g>
   <g id="line2d_102">
    <path d="M 284.502522 38.349938 
L 297.379445 38.349938 
" clip-path="url(#pe132632506)" style="fill: none; stroke: #363636; stroke-linecap: round"/>
   </g>
   <g id="line2d_103">
    <path d="M 284.502522 38.349938 
L 297.379445 38.349938 
" clip-path="url(#pe132632506)" style="fill: none; stroke: #363636; stroke-linecap: round"/>
   </g>
   <g id="line2d_104"/>
   <g id="patch_22">
    <path d="M 342.448675 64.863211 
L 368.202522 64.863211 
L 368.202522 60.264639 
L 342.448675 60.264639 
L 342.448675 64.863211 
z
" clip-path="url(#pe132632506)" style="fill: #c38820; stroke: #363636; stroke-linejoin: miter"/>
   </g>
   <g id="line2d_105">
    <path d="M 355.325599 64.863211 
L 355.325599 65.789087 
" clip-path="url(#pe132632506)" style="fill: none; stroke: #363636"/>
   </g>
   <g id="line2d_106">
    <path d="M 355.325599 60.264639 
L 355.325599 56.727567 
" clip-path="url(#pe132632506)" style="fill: none; stroke: #363636"/>
   </g>
   <g id="line2d_107">
    <path d="M 348.887137 65.789087 
L 361.76406 65.789087 
" clip-path="url(#pe132632506)" style="fill: none; stroke: #363636; stroke-linecap: round"/>
   </g>
   <g id="line2d_108">
    <path d="M 348.887137 56.727567 
L 361.76406 56.727567 
" clip-path="url(#pe132632506)" style="fill: none; stroke: #363636; stroke-linecap: round"/>
   </g>
   <g id="line2d_109"/>
   <g id="patch_23">
    <path d="M 406.833291 296.476542 
L 432.587137 296.476542 
L 432.587137 259.511785 
L 406.833291 259.511785 
L 406.833291 296.476542 
z
" clip-path="url(#pe132632506)" style="fill: #c38820; stroke: #363636; stroke-linejoin: miter"/>
   </g>
   <g id="line2d_110">
    <path d="M 419.710214 296.476542 
L 419.710214 312.905715 
" clip-path="url(#pe132632506)" style="fill: none; stroke: #363636"/>
   </g>
   <g id="line2d_111">
    <path d="M 419.710214 259.511785 
L 419.710214 249.560429 
" clip-path="url(#pe132632506)" style="fill: none; stroke: #363636"/>
   </g>
   <g id="line2d_112">
    <path d="M 413.271752 312.905715 
L 426.148675 312.905715 
" clip-path="url(#pe132632506)" style="fill: none; stroke: #363636; stroke-linecap: round"/>
   </g>
   <g id="line2d_113">
    <path d="M 413.271752 249.560429 
L 426.148675 249.560429 
" clip-path="url(#pe132632506)" style="fill: none; stroke: #363636; stroke-linecap: round"/>
   </g>
   <g id="line2d_114"/>
   <g id="patch_24">
    <path d="M 471.217906 120.426801 
L 496.971752 120.426801 
L 496.971752 107.189514 
L 471.217906 107.189514 
L 471.217906 120.426801 
z
" clip-path="url(#pe132632506)" style="fill: #c38820; stroke: #363636; stroke-linejoin: miter"/>
   </g>
   <g id="line2d_115">
    <path d="M 484.094829 120.426801 
L 484.094829 124.543324 
" clip-path="url(#pe132632506)" style="fill: none; stroke: #363636"/>
   </g>
   <g id="line2d_116">
    <path d="M 484.094829 107.189514 
L 484.094829 100.667901 
" clip-path="url(#pe132632506)" style="fill: none; stroke: #363636"/>
   </g>
   <g id="line2d_117">
    <path d="M 477.656368 124.543324 
L 490.533291 124.543324 
" clip-path="url(#pe132632506)" style="fill: none; stroke: #363636; stroke-linecap: round"/>
   </g>
   <g id="line2d_118">
    <path d="M 477.656368 100.667901 
L 490.533291 100.667901 
" clip-path="url(#pe132632506)" style="fill: none; stroke: #363636; stroke-linecap: round"/>
   </g>
   <g id="line2d_119"/>
   <g id="patch_25">
    <path d="M 535.602522 101.124824 
L 561.356368 101.124824 
L 561.356368 61.786804 
L 535.602522 61.786804 
L 535.602522 101.124824 
z
" clip-path="url(#pe132632506)" style="fill: #c38820; stroke: #363636; stroke-linejoin: miter"/>
   </g>
   <g id="line2d_120">
    <path d="M 548.479445 101.124824 
L 548.479445 134.417955 
" clip-path="url(#pe132632506)" style="fill: none; stroke: #363636"/>
   </g>
   <g id="line2d_121">
    <path d="M 548.479445 61.786804 
L 548.479445 38.349938 
" clip-path="url(#pe132632506)" style="fill: none; stroke: #363636"/>
   </g>
   <g id="line2d_122">
    <path d="M 542.040983 134.417955 
L 554.917906 134.417955 
" clip-path="url(#pe132632506)" style="fill: none; stroke: #363636; stroke-linecap: round"/>
   </g>
   <g id="line2d_123">
    <path d="M 542.040983 38.349938 
L 554.917906 38.349938 
" clip-path="url(#pe132632506)" style="fill: none; stroke: #363636; stroke-linecap: round"/>
   </g>
   <g id="line2d_124"/>
   <g id="patch_26">
    <path d="M 599.987137 53.955675 
L 625.740983 53.955675 
L 625.740983 47.811074 
L 599.987137 47.811074 
L 599.987137 53.955675 
z
" clip-path="url(#pe132632506)" style="fill: #c38820; stroke: #363636; stroke-linejoin: miter"/>
   </g>
   <g id="line2d_125">
    <path d="M 612.86406 53.955675 
L 612.86406 59.377217 
" clip-path="url(#pe132632506)" style="fill: none; stroke: #363636"/>
   </g>
   <g id="line2d_126">
    <path d="M 612.86406 47.811074 
L 612.86406 42.604024 
" clip-path="url(#pe132632506)" style="fill: none; stroke: #363636"/>
   </g>
   <g id="line2d_127">
    <path d="M 606.425599 59.377217 
L 619.302522 59.377217 
" clip-path="url(#pe132632506)" style="fill: none; stroke: #363636; stroke-linecap: round"/>
   </g>
   <g id="line2d_128">
    <path d="M 606.425599 42.604024 
L 619.302522 42.604024 
" clip-path="url(#pe132632506)" style="fill: none; stroke: #363636; stroke-linecap: round"/>
   </g>
   <g id="line2d_129"/>
   <g id="patch_27">
    <path d="M 664.371752 48.270988 
L 690.125599 48.270988 
L 690.125599 41.95588 
L 664.371752 41.95588 
L 664.371752 48.270988 
z
" clip-path="url(#pe132632506)" style="fill: #c38820; stroke: #363636; stroke-linejoin: miter"/>
   </g>
   <g id="line2d_130">
    <path d="M 677.248675 48.270988 
L 677.248675 52.892225 
" clip-path="url(#pe132632506)" style="fill: none; stroke: #363636"/>
   </g>
   <g id="line2d_131">
    <path d="M 677.248675 41.95588 
L 677.248675 38.349938 
" clip-path="url(#pe132632506)" style="fill: none; stroke: #363636"/>
   </g>
   <g id="line2d_132">
    <path d="M 670.810214 52.892225 
L 683.687137 52.892225 
" clip-path="url(#pe132632506)" style="fill: none; stroke: #363636; stroke-linecap: round"/>
   </g>
   <g id="line2d_133">
    <path d="M 670.810214 38.349938 
L 683.687137 38.349938 
" clip-path="url(#pe132632506)" style="fill: none; stroke: #363636; stroke-linecap: round"/>
   </g>
   <g id="line2d_134"/>
   <g id="patch_28">
    <path d="M 728.756368 38.349938 
L 754.510214 38.349938 
L 754.510214 38.349938 
L 728.756368 38.349938 
L 728.756368 38.349938 
z
" clip-path="url(#pe132632506)" style="fill: #c38820; stroke: #363636; stroke-linejoin: miter"/>
   </g>
   <g id="line2d_135">
    <path d="M 741.633291 38.349938 
L 741.633291 38.349938 
" clip-path="url(#pe132632506)" style="fill: none; stroke: #363636"/>
   </g>
   <g id="line2d_136">
    <path d="M 741.633291 38.349938 
L 741.633291 38.349938 
" clip-path="url(#pe132632506)" style="fill: none; stroke: #363636"/>
   </g>
   <g id="line2d_137">
    <path d="M 735.194829 38.349938 
L 748.071752 38.349938 
" clip-path="url(#pe132632506)" style="fill: none; stroke: #363636; stroke-linecap: round"/>
   </g>
   <g id="line2d_138">
    <path d="M 735.194829 38.349938 
L 748.071752 38.349938 
" clip-path="url(#pe132632506)" style="fill: none; stroke: #363636; stroke-linecap: round"/>
   </g>
   <g id="line2d_139"/>
   <g id="patch_29">
    <path d="M 793.140983 38.349938 
L 818.894829 38.349938 
L 818.894829 38.349938 
L 793.140983 38.349938 
L 793.140983 38.349938 
z
" clip-path="url(#pe132632506)" style="fill: #c38820; stroke: #363636; stroke-linejoin: miter"/>
   </g>
   <g id="line2d_140">
    <path d="M 806.017906 38.349938 
L 806.017906 38.349938 
" clip-path="url(#pe132632506)" style="fill: none; stroke: #363636"/>
   </g>
   <g id="line2d_141">
    <path d="M 806.017906 38.349938 
L 806.017906 38.349938 
" clip-path="url(#pe132632506)" style="fill: none; stroke: #363636"/>
   </g>
   <g id="line2d_142">
    <path d="M 799.579445 38.349938 
L 812.456368 38.349938 
" clip-path="url(#pe132632506)" style="fill: none; stroke: #363636; stroke-linecap: round"/>
   </g>
   <g id="line2d_143">
    <path d="M 799.579445 38.349938 
L 812.456368 38.349938 
" clip-path="url(#pe132632506)" style="fill: none; stroke: #363636; stroke-linecap: round"/>
   </g>
   <g id="line2d_144">
    <g clip-path="url(#pe132632506)">
     <use xlink:href="#m67aa227f61" x="806.017906" y="48.882835" style="fill-opacity: 0; stroke: #363636"/>
     <use xlink:href="#m67aa227f61" x="806.017906" y="48.657785" style="fill-opacity: 0; stroke: #363636"/>
    </g>
   </g>
   <g id="patch_30">
    <path d="M 857.525599 55.915725 
L 883.279445 55.915725 
L 883.279445 40.890708 
L 857.525599 40.890708 
L 857.525599 55.915725 
z
" clip-path="url(#pe132632506)" style="fill: #c38820; stroke: #363636; stroke-linejoin: miter"/>
   </g>
   <g id="line2d_145">
    <path d="M 870.402522 55.915725 
L 870.402522 69.798299 
" clip-path="url(#pe132632506)" style="fill: none; stroke: #363636"/>
   </g>
   <g id="line2d_146">
    <path d="M 870.402522 40.890708 
L 870.402522 38.349938 
" clip-path="url(#pe132632506)" style="fill: none; stroke: #363636"/>
   </g>
   <g id="line2d_147">
    <path d="M 863.96406 69.798299 
L 876.840983 69.798299 
" clip-path="url(#pe132632506)" style="fill: none; stroke: #363636; stroke-linecap: round"/>
   </g>
   <g id="line2d_148">
    <path d="M 863.96406 38.349938 
L 876.840983 38.349938 
" clip-path="url(#pe132632506)" style="fill: none; stroke: #363636; stroke-linecap: round"/>
   </g>
   <g id="line2d_149"/>
   <g id="line2d_150">
    <path d="M 59.156368 175.787566 
L 84.910214 175.787566 
" clip-path="url(#pe132632506)" style="fill: none; stroke: #363636"/>
   </g>
   <g id="line2d_151">
    <path d="M 123.540983 87.121038 
L 149.294829 87.121038 
" clip-path="url(#pe132632506)" style="fill: none; stroke: #363636"/>
   </g>
   <g id="line2d_152">
    <path d="M 187.925599 76.313775 
L 213.679445 76.313775 
" clip-path="url(#pe132632506)" style="fill: none; stroke: #363636"/>
   </g>
   <g id="line2d_153">
    <path d="M 252.310214 38.349938 
L 278.06406 38.349938 
" clip-path="url(#pe132632506)" style="fill: none; stroke: #363636"/>
   </g>
   <g id="line2d_154">
    <path d="M 316.694829 64.550337 
L 342.448675 64.550337 
" clip-path="url(#pe132632506)" style="fill: none; stroke: #363636"/>
   </g>
   <g id="line2d_155">
    <path d="M 381.079445 309.758174 
L 406.833291 309.758174 
" clip-path="url(#pe132632506)" style="fill: none; stroke: #363636"/>
   </g>
   <g id="line2d_156">
    <path d="M 445.46406 115.167869 
L 471.217906 115.167869 
" clip-path="url(#pe132632506)" style="fill: none; stroke: #363636"/>
   </g>
   <g id="line2d_157">
    <path d="M 509.848675 72.568265 
L 535.602522 72.568265 
" clip-path="url(#pe132632506)" style="fill: none; stroke: #363636"/>
   </g>
   <g id="line2d_158">
    <path d="M 574.233291 51.13429 
L 599.987137 51.13429 
" clip-path="url(#pe132632506)" style="fill: none; stroke: #363636"/>
   </g>
   <g id="line2d_159">
    <path d="M 638.617906 46.491727 
L 664.371752 46.491727 
" clip-path="url(#pe132632506)" style="fill: none; stroke: #363636"/>
   </g>
   <g id="line2d_160">
    <path d="M 703.002522 79.715241 
L 728.756368 79.715241 
" clip-path="url(#pe132632506)" style="fill: none; stroke: #363636"/>
   </g>
   <g id="line2d_161">
    <path d="M 767.387137 38.349938 
L 793.140983 38.349938 
" clip-path="url(#pe132632506)" style="fill: none; stroke: #363636"/>
   </g>
   <g id="line2d_162">
    <path d="M 831.771752 48.704716 
L 857.525599 48.704716 
" clip-path="url(#pe132632506)" style="fill: none; stroke: #363636"/>
   </g>
   <g id="line2d_163">
    <path d="M 84.910214 177.564479 
L 110.66406 177.564479 
" clip-path="url(#pe132632506)" style="fill: none; stroke: #363636"/>
   </g>
   <g id="line2d_164">
    <path d="M 149.294829 75.541602 
L 175.048675 75.541602 
" clip-path="url(#pe132632506)" style="fill: none; stroke: #363636"/>
   </g>
   <g id="line2d_165">
    <path d="M 213.679445 67.738864 
L 239.433291 67.738864 
" clip-path="url(#pe132632506)" style="fill: none; stroke: #363636"/>
   </g>
   <g id="line2d_166">
    <path d="M 278.06406 38.349938 
L 303.817906 38.349938 
" clip-path="url(#pe132632506)" style="fill: none; stroke: #363636"/>
   </g>
   <g id="line2d_167">
    <path d="M 342.448675 62.286799 
L 368.202522 62.286799 
" clip-path="url(#pe132632506)" style="fill: none; stroke: #363636"/>
   </g>
   <g id="line2d_168">
    <path d="M 406.833291 274.134698 
L 432.587137 274.134698 
" clip-path="url(#pe132632506)" style="fill: none; stroke: #363636"/>
   </g>
   <g id="line2d_169">
    <path d="M 471.217906 114.067079 
L 496.971752 114.067079 
" clip-path="url(#pe132632506)" style="fill: none; stroke: #363636"/>
   </g>
   <g id="line2d_170">
    <path d="M 535.602522 83.1168 
L 561.356368 83.1168 
" clip-path="url(#pe132632506)" style="fill: none; stroke: #363636"/>
   </g>
   <g id="line2d_171">
    <path d="M 599.987137 51.118504 
L 625.740983 51.118504 
" clip-path="url(#pe132632506)" style="fill: none; stroke: #363636"/>
   </g>
   <g id="line2d_172">
    <path d="M 664.371752 43.745125 
L 690.125599 43.745125 
" clip-path="url(#pe132632506)" style="fill: none; stroke: #363636"/>
   </g>
   <g id="line2d_173">
    <path d="M 728.756368 38.349938 
L 754.510214 38.349938 
" clip-path="url(#pe132632506)" style="fill: none; stroke: #363636"/>
   </g>
   <g id="line2d_174">
    <path d="M 793.140983 38.349938 
L 818.894829 38.349938 
" clip-path="url(#pe132632506)" style="fill: none; stroke: #363636"/>
   </g>
   <g id="line2d_175">
    <path d="M 857.525599 48.621644 
L 883.279445 48.621644 
" clip-path="url(#pe132632506)" style="fill: none; stroke: #363636"/>
   </g>
   <g id="patch_31">
    <path d="M 52.717906 355.869937 
L 52.717906 23.229938 
" style="fill: none; stroke: #262626; stroke-width: 1.25; stroke-linejoin: miter; stroke-linecap: square"/>
   </g>
   <g id="patch_32">
    <path d="M 889.717906 355.869937 
L 889.717906 23.229938 
" style="fill: none; stroke: #262626; stroke-width: 1.25; stroke-linejoin: miter; stroke-linecap: square"/>
   </g>
   <g id="patch_33">
    <path d="M 52.717906 355.869937 
L 889.717906 355.869937 
" style="fill: none; stroke: #262626; stroke-width: 1.25; stroke-linejoin: miter; stroke-linecap: square"/>
   </g>
   <g id="patch_34">
    <path d="M 52.717906 23.229938 
L 889.717906 23.229938 
" style="fill: none; stroke: #262626; stroke-width: 1.25; stroke-linejoin: miter; stroke-linecap: square"/>
   </g>
   <g id="text_22">
    <!-- Comparing predicitve performance of the methods using mcc on testing datasets -->
    <g style="fill: #262626" transform="translate(201.7595 17.229938) scale(0.132 -0.132)">
     <defs>
      <path id="DejaVuSans-43" d="M 4122 4306 
L 4122 3641 
Q 3803 3938 3442 4084 
Q 3081 4231 2675 4231 
Q 1875 4231 1450 3742 
Q 1025 3253 1025 2328 
Q 1025 1406 1450 917 
Q 1875 428 2675 428 
Q 3081 428 3442 575 
Q 3803 722 4122 1019 
L 4122 359 
Q 3791 134 3420 21 
Q 3050 -91 2638 -91 
Q 1578 -91 968 557 
Q 359 1206 359 2328 
Q 359 3453 968 4101 
Q 1578 4750 2638 4750 
Q 3056 4750 3426 4639 
Q 3797 4528 4122 4306 
z
" transform="scale(0.015625)"/>
      <path id="DejaVuSans-67" d="M 2906 1791 
Q 2906 2416 2648 2759 
Q 2391 3103 1925 3103 
Q 1463 3103 1205 2759 
Q 947 2416 947 1791 
Q 947 1169 1205 825 
Q 1463 481 1925 481 
Q 2391 481 2648 825 
Q 2906 1169 2906 1791 
z
M 3481 434 
Q 3481 -459 3084 -895 
Q 2688 -1331 1869 -1331 
Q 1566 -1331 1297 -1286 
Q 1028 -1241 775 -1147 
L 775 -588 
Q 1028 -725 1275 -790 
Q 1522 -856 1778 -856 
Q 2344 -856 2625 -561 
Q 2906 -266 2906 331 
L 2906 616 
Q 2728 306 2450 153 
Q 2172 0 1784 0 
Q 1141 0 747 490 
Q 353 981 353 1791 
Q 353 2603 747 3093 
Q 1141 3584 1784 3584 
Q 2172 3584 2450 3431 
Q 2728 3278 2906 2969 
L 2906 3500 
L 3481 3500 
L 3481 434 
z
" transform="scale(0.015625)"/>
      <path id="DejaVuSans-20" transform="scale(0.015625)"/>
      <path id="DejaVuSans-66" d="M 2375 4863 
L 2375 4384 
L 1825 4384 
Q 1516 4384 1395 4259 
Q 1275 4134 1275 3809 
L 1275 3500 
L 2222 3500 
L 2222 3053 
L 1275 3053 
L 1275 0 
L 697 0 
L 697 3053 
L 147 3053 
L 147 3500 
L 697 3500 
L 697 3744 
Q 697 4328 969 4595 
Q 1241 4863 1831 4863 
L 2375 4863 
z
" transform="scale(0.015625)"/>
     </defs>
     <use xlink:href="#DejaVuSans-43"/>
     <use xlink:href="#DejaVuSans-6f" transform="translate(69.824219 0)"/>
     <use xlink:href="#DejaVuSans-6d" transform="translate(131.005859 0)"/>
     <use xlink:href="#DejaVuSans-70" transform="translate(228.417969 0)"/>
     <use xlink:href="#DejaVuSans-61" transform="translate(291.894531 0)"/>
     <use xlink:href="#DejaVuSans-72" transform="translate(353.173828 0)"/>
     <use xlink:href="#DejaVuSans-69" transform="translate(394.287109 0)"/>
     <use xlink:href="#DejaVuSans-6e" transform="translate(422.070312 0)"/>
     <use xlink:href="#DejaVuSans-67" transform="translate(485.449219 0)"/>
     <use xlink:href="#DejaVuSans-20" transform="translate(548.925781 0)"/>
     <use xlink:href="#DejaVuSans-70" transform="translate(580.712891 0)"/>
     <use xlink:href="#DejaVuSans-72" transform="translate(644.189453 0)"/>
     <use xlink:href="#DejaVuSans-65" transform="translate(683.052734 0)"/>
     <use xlink:href="#DejaVuSans-64" transform="translate(744.576172 0)"/>
     <use xlink:href="#DejaVuSans-69" transform="translate(808.052734 0)"/>
     <use xlink:href="#DejaVuSans-63" transform="translate(835.835938 0)"/>
     <use xlink:href="#DejaVuSans-69" transform="translate(890.816406 0)"/>
     <use xlink:href="#DejaVuSans-74" transform="translate(918.599609 0)"/>
     <use xlink:href="#DejaVuSans-76" transform="translate(957.808594 0)"/>
     <use xlink:href="#DejaVuSans-65" transform="translate(1016.988281 0)"/>
     <use xlink:href="#DejaVuSans-20" transform="translate(1078.511719 0)"/>
     <use xlink:href="#DejaVuSans-70" transform="translate(1110.298828 0)"/>
     <use xlink:href="#DejaVuSans-65" transform="translate(1173.775391 0)"/>
     <use xlink:href="#DejaVuSans-72" transform="translate(1235.298828 0)"/>
     <use xlink:href="#DejaVuSans-66" transform="translate(1276.412109 0)"/>
     <use xlink:href="#DejaVuSans-6f" transform="translate(1311.617188 0)"/>
     <use xlink:href="#DejaVuSans-72" transform="translate(1372.798828 0)"/>
     <use xlink:href="#DejaVuSans-6d" transform="translate(1412.162109 0)"/>
     <use xlink:href="#DejaVuSans-61" transform="translate(1509.574219 0)"/>
     <use xlink:href="#DejaVuSans-6e" transform="translate(1570.853516 0)"/>
     <use xlink:href="#DejaVuSans-63" transform="translate(1634.232422 0)"/>
     <use xlink:href="#DejaVuSans-65" transform="translate(1689.212891 0)"/>
     <use xlink:href="#DejaVuSans-20" transform="translate(1750.736328 0)"/>
     <use xlink:href="#DejaVuSans-6f" transform="translate(1782.523438 0)"/>
     <use xlink:href="#DejaVuSans-66" transform="translate(1843.705078 0)"/>
     <use xlink:href="#DejaVuSans-20" transform="translate(1878.910156 0)"/>
     <use xlink:href="#DejaVuSans-74" transform="translate(1910.697266 0)"/>
     <use xlink:href="#DejaVuSans-68" transform="translate(1949.90625 0)"/>
     <use xlink:href="#DejaVuSans-65" transform="translate(2013.285156 0)"/>
     <use xlink:href="#DejaVuSans-20" transform="translate(2074.808594 0)"/>
     <use xlink:href="#DejaVuSans-6d" transform="translate(2106.595703 0)"/>
     <use xlink:href="#DejaVuSans-65" transform="translate(2204.007812 0)"/>
     <use xlink:href="#DejaVuSans-74" transform="translate(2265.53125 0)"/>
     <use xlink:href="#DejaVuSans-68" transform="translate(2304.740234 0)"/>
     <use xlink:href="#DejaVuSans-6f" transform="translate(2368.119141 0)"/>
     <use xlink:href="#DejaVuSans-64" transform="translate(2429.300781 0)"/>
     <use xlink:href="#DejaVuSans-73" transform="translate(2492.777344 0)"/>
     <use xlink:href="#DejaVuSans-20" transform="translate(2544.876953 0)"/>
     <use xlink:href="#DejaVuSans-75" transform="translate(2576.664062 0)"/>
     <use xlink:href="#DejaVuSans-73" transform="translate(2640.042969 0)"/>
     <use xlink:href="#DejaVuSans-69" transform="translate(2692.142578 0)"/>
     <use xlink:href="#DejaVuSans-6e" transform="translate(2719.925781 0)"/>
     <use xlink:href="#DejaVuSans-67" transform="translate(2783.304688 0)"/>
     <use xlink:href="#DejaVuSans-20" transform="translate(2846.78125 0)"/>
     <use xlink:href="#DejaVuSans-6d" transform="translate(2878.568359 0)"/>
     <use xlink:href="#DejaVuSans-63" transform="translate(2975.980469 0)"/>
     <use xlink:href="#DejaVuSans-63" transform="translate(3030.960938 0)"/>
     <use xlink:href="#DejaVuSans-20" transform="translate(3085.941406 0)"/>
     <use xlink:href="#DejaVuSans-6f" transform="translate(3117.728516 0)"/>
     <use xlink:href="#DejaVuSans-6e" transform="translate(3178.910156 0)"/>
     <use xlink:href="#DejaVuSans-20" transform="translate(3242.289062 0)"/>
     <use xlink:href="#DejaVuSans-74" transform="translate(3274.076172 0)"/>
     <use xlink:href="#DejaVuSans-65" transform="translate(3313.285156 0)"/>
     <use xlink:href="#DejaVuSans-73" transform="translate(3374.808594 0)"/>
     <use xlink:href="#DejaVuSans-74" transform="translate(3426.908203 0)"/>
     <use xlink:href="#DejaVuSans-69" transform="translate(3466.117188 0)"/>
     <use xlink:href="#DejaVuSans-6e" transform="translate(3493.900391 0)"/>
     <use xlink:href="#DejaVuSans-67" transform="translate(3557.279297 0)"/>
     <use xlink:href="#DejaVuSans-20" transform="translate(3620.755859 0)"/>
     <use xlink:href="#DejaVuSans-64" transform="translate(3652.542969 0)"/>
     <use xlink:href="#DejaVuSans-61" transform="translate(3716.019531 0)"/>
     <use xlink:href="#DejaVuSans-74" transform="translate(3777.298828 0)"/>
     <use xlink:href="#DejaVuSans-61" transform="translate(3816.507812 0)"/>
     <use xlink:href="#DejaVuSans-73" transform="translate(3877.787109 0)"/>
     <use xlink:href="#DejaVuSans-65" transform="translate(3929.886719 0)"/>
     <use xlink:href="#DejaVuSans-74" transform="translate(3991.410156 0)"/>
     <use xlink:href="#DejaVuSans-73" transform="translate(4030.619141 0)"/>
    </g>
   </g>
   <g id="legend_1">
    <g id="patch_35">
     <path d="M 747.057016 349.819938 
L 881.247906 349.819938 
Q 883.667906 349.819938 883.667906 347.399938 
L 883.667906 293.590688 
Q 883.667906 291.170687 881.247906 291.170687 
L 747.057016 291.170687 
Q 744.637016 291.170687 744.637016 293.590688 
L 744.637016 347.399938 
Q 744.637016 349.819938 747.057016 349.819938 
z
" style="fill: #ffffff; opacity: 0.8; stroke: #cccccc; stroke-linejoin: miter"/>
    </g>
    <g id="text_23">
     <!-- Method -->
     <g style="fill: #262626" transform="translate(789.398336 306.040625) scale(0.132 -0.132)">
      <defs>
       <path id="DejaVuSans-4d" d="M 628 4666 
L 1569 4666 
L 2759 1491 
L 3956 4666 
L 4897 4666 
L 4897 0 
L 4281 0 
L 4281 4097 
L 3078 897 
L 2444 897 
L 1241 4097 
L 1241 0 
L 628 0 
L 628 4666 
z
" transform="scale(0.015625)"/>
      </defs>
      <use xlink:href="#DejaVuSans-4d"/>
      <use xlink:href="#DejaVuSans-65" transform="translate(86.279297 0)"/>
      <use xlink:href="#DejaVuSans-74" transform="translate(147.802734 0)"/>
      <use xlink:href="#DejaVuSans-68" transform="translate(187.011719 0)"/>
      <use xlink:href="#DejaVuSans-6f" transform="translate(250.390625 0)"/>
      <use xlink:href="#DejaVuSans-64" transform="translate(311.572266 0)"/>
     </g>
    </g>
    <g id="patch_36">
     <path d="M 749.477016 324.029922 
L 773.677016 324.029922 
L 773.677016 315.559922 
L 749.477016 315.559922 
z
" style="fill: #176d9c; stroke: #363636; stroke-linejoin: miter"/>
    </g>
    <g id="text_24">
     <!-- sklearn_tree -->
     <g style="fill: #262626" transform="translate(783.357016 324.029922) scale(0.121 -0.121)">
      <use xlink:href="#DejaVuSans-73"/>
      <use xlink:href="#DejaVuSans-6b" transform="translate(52.099609 0)"/>
      <use xlink:href="#DejaVuSans-6c" transform="translate(110.009766 0)"/>
      <use xlink:href="#DejaVuSans-65" transform="translate(137.792969 0)"/>
      <use xlink:href="#DejaVuSans-61" transform="translate(199.316406 0)"/>
      <use xlink:href="#DejaVuSans-72" transform="translate(260.595703 0)"/>
      <use xlink:href="#DejaVuSans-6e" transform="translate(299.958984 0)"/>
      <use xlink:href="#DejaVuSans-5f" transform="translate(363.337891 0)"/>
      <use xlink:href="#DejaVuSans-74" transform="translate(413.337891 0)"/>
      <use xlink:href="#DejaVuSans-72" transform="translate(452.546875 0)"/>
      <use xlink:href="#DejaVuSans-65" transform="translate(491.410156 0)"/>
      <use xlink:href="#DejaVuSans-65" transform="translate(552.933594 0)"/>
     </g>
    </g>
    <g id="patch_37">
     <path d="M 749.477016 342.126984 
L 773.677016 342.126984 
L 773.677016 333.656984 
L 749.477016 333.656984 
z
" style="fill: #c38820; stroke: #363636; stroke-linejoin: miter"/>
    </g>
    <g id="text_25">
     <!-- original_rollOCT -->
     <g style="fill: #262626" transform="translate(783.357016 342.126984) scale(0.121 -0.121)">
      <defs>
       <path id="DejaVuSans-4f" d="M 2522 4238 
Q 1834 4238 1429 3725 
Q 1025 3213 1025 2328 
Q 1025 1447 1429 934 
Q 1834 422 2522 422 
Q 3209 422 3611 934 
Q 4013 1447 4013 2328 
Q 4013 3213 3611 3725 
Q 3209 4238 2522 4238 
z
M 2522 4750 
Q 3503 4750 4090 4092 
Q 4678 3434 4678 2328 
Q 4678 1225 4090 567 
Q 3503 -91 2522 -91 
Q 1538 -91 948 565 
Q 359 1222 359 2328 
Q 359 3434 948 4092 
Q 1538 4750 2522 4750 
z
" transform="scale(0.015625)"/>
       <path id="DejaVuSans-54" d="M -19 4666 
L 3928 4666 
L 3928 4134 
L 2272 4134 
L 2272 0 
L 1638 0 
L 1638 4134 
L -19 4134 
L -19 4666 
z
" transform="scale(0.015625)"/>
      </defs>
      <use xlink:href="#DejaVuSans-6f"/>
      <use xlink:href="#DejaVuSans-72" transform="translate(61.181641 0)"/>
      <use xlink:href="#DejaVuSans-69" transform="translate(102.294922 0)"/>
      <use xlink:href="#DejaVuSans-67" transform="translate(130.078125 0)"/>
      <use xlink:href="#DejaVuSans-69" transform="translate(193.554688 0)"/>
      <use xlink:href="#DejaVuSans-6e" transform="translate(221.337891 0)"/>
      <use xlink:href="#DejaVuSans-61" transform="translate(284.716797 0)"/>
      <use xlink:href="#DejaVuSans-6c" transform="translate(345.996094 0)"/>
      <use xlink:href="#DejaVuSans-5f" transform="translate(373.779297 0)"/>
      <use xlink:href="#DejaVuSans-72" transform="translate(423.779297 0)"/>
      <use xlink:href="#DejaVuSans-6f" transform="translate(462.642578 0)"/>
      <use xlink:href="#DejaVuSans-6c" transform="translate(523.824219 0)"/>
      <use xlink:href="#DejaVuSans-6c" transform="translate(551.607422 0)"/>
      <use xlink:href="#DejaVuSans-4f" transform="translate(579.390625 0)"/>
      <use xlink:href="#DejaVuSans-43" transform="translate(658.101562 0)"/>
      <use xlink:href="#DejaVuSans-54" transform="translate(727.925781 0)"/>
     </g>
    </g>
   </g>
  </g>
 </g>
 <defs>
  <clipPath id="pe132632506">
   <rect x="52.717906" y="23.229938" width="837" height="332.64"/>
  </clipPath>
 </defs>
</svg>
