<?xml version="1.0" encoding="utf-8" standalone="no"?>
<!DOCTYPE svg PUBLIC "-//W3C//DTD SVG 1.1//EN"
  "http://www.w3.org/Graphics/SVG/1.1/DTD/svg11.dtd">
<svg xmlns:xlink="http://www.w3.org/1999/xlink" width="1018.657328pt" height="401.055594pt" viewBox="0 0 1018.657328 401.055594" xmlns="http://www.w3.org/2000/svg" version="1.1">
 <metadata>
  <rdf:RDF xmlns:dc="http://purl.org/dc/elements/1.1/" xmlns:cc="http://creativecommons.org/ns#" xmlns:rdf="http://www.w3.org/1999/02/22-rdf-syntax-ns#">
   <cc:Work>
    <dc:type rdf:resource="http://purl.org/dc/dcmitype/StillImage"/>
    <dc:date>2025-10-29T23:13:24.404982</dc:date>
    <dc:format>image/svg+xml</dc:format>
    <dc:creator>
     <cc:Agent>
      <dc:title>Matplotlib v3.10.3, https://matplotlib.org/</dc:title>
     </cc:Agent>
    </dc:creator>
   </cc:Work>
  </rdf:RDF>
 </metadata>
 <defs>
  <style type="text/css">*{stroke-linejoin: round; stroke-linecap: butt}</style>
 </defs>
 <g id="figure_1">
  <g id="patch_1">
   <path d="M 0 401.055594 
L 1018.657328 401.055594 
L 1018.657328 0 
L 0 0 
z
" style="fill: #ffffff"/>
  </g>
  <g id="axes_1">
   <g id="patch_2">
    <path d="M 62.857328 355.869937 
L 1011.457328 355.869937 
L 1011.457328 23.229937 
L 62.857328 23.229937 
z
" style="fill: #ffffff"/>
   </g>
   <g id="matplotlib.axis_1">
    <g id="xtick_1">
     <g id="line2d_1">
      <defs>
       <path id="m73eadd5640" d="M 0 0 
L 0 6 
" style="stroke: #262626; stroke-width: 1.25"/>
      </defs>
      <g>
       <use xlink:href="#m73eadd5640" x="90.757328" y="355.869937" style="fill: #262626; stroke: #262626; stroke-width: 1.25"/>
      </g>
     </g>
     <g id="text_1">
      <!-- Austria1 -->
      <g style="fill: #262626" transform="translate(65.536391 374.564047) scale(0.121 -0.121)">
       <defs>
        <path id="DejaVuSans-41" d="M 2188 4044 
L 1331 1722 
L 3047 1722 
L 2188 4044 
z
M 1831 4666 
L 2547 4666 
L 4325 0 
L 3669 0 
L 3244 1197 
L 1141 1197 
L 716 0 
L 50 0 
L 1831 4666 
z
" transform="scale(0.015625)"/>
        <path id="DejaVuSans-75" d="M 544 1381 
L 544 3500 
L 1119 3500 
L 1119 1403 
Q 1119 906 1312 657 
Q 1506 409 1894 409 
Q 2359 409 2629 706 
Q 2900 1003 2900 1516 
L 2900 3500 
L 3475 3500 
L 3475 0 
L 2900 0 
L 2900 538 
Q 2691 219 2414 64 
Q 2138 -91 1772 -91 
Q 1169 -91 856 284 
Q 544 659 544 1381 
z
M 1991 3584 
L 1991 3584 
z
" transform="scale(0.015625)"/>
        <path id="DejaVuSans-73" d="M 2834 3397 
L 2834 2853 
Q 2591 2978 2328 3040 
Q 2066 3103 1784 3103 
Q 1356 3103 1142 2972 
Q 928 2841 928 2578 
Q 928 2378 1081 2264 
Q 1234 2150 1697 2047 
L 1894 2003 
Q 2506 1872 2764 1633 
Q 3022 1394 3022 966 
Q 3022 478 2636 193 
Q 2250 -91 1575 -91 
Q 1294 -91 989 -36 
Q 684 19 347 128 
L 347 722 
Q 666 556 975 473 
Q 1284 391 1588 391 
Q 1994 391 2212 530 
Q 2431 669 2431 922 
Q 2431 1156 2273 1281 
Q 2116 1406 1581 1522 
L 1381 1569 
Q 847 1681 609 1914 
Q 372 2147 372 2553 
Q 372 3047 722 3315 
Q 1072 3584 1716 3584 
Q 2034 3584 2315 3537 
Q 2597 3491 2834 3397 
z
" transform="scale(0.015625)"/>
        <path id="DejaVuSans-74" d="M 1172 4494 
L 1172 3500 
L 2356 3500 
L 2356 3053 
L 1172 3053 
L 1172 1153 
Q 1172 725 1289 603 
Q 1406 481 1766 481 
L 2356 481 
L 2356 0 
L 1766 0 
Q 1100 0 847 248 
Q 594 497 594 1153 
L 594 3053 
L 172 3053 
L 172 3500 
L 594 3500 
L 594 4494 
L 1172 4494 
z
" transform="scale(0.015625)"/>
        <path id="DejaVuSans-72" d="M 2631 2963 
Q 2534 3019 2420 3045 
Q 2306 3072 2169 3072 
Q 1681 3072 1420 2755 
Q 1159 2438 1159 1844 
L 1159 0 
L 581 0 
L 581 3500 
L 1159 3500 
L 1159 2956 
Q 1341 3275 1631 3429 
Q 1922 3584 2338 3584 
Q 2397 3584 2469 3576 
Q 2541 3569 2628 3553 
L 2631 2963 
z
" transform="scale(0.015625)"/>
        <path id="DejaVuSans-69" d="M 603 3500 
L 1178 3500 
L 1178 0 
L 603 0 
L 603 3500 
z
M 603 4863 
L 1178 4863 
L 1178 4134 
L 603 4134 
L 603 4863 
z
" transform="scale(0.015625)"/>
        <path id="DejaVuSans-61" d="M 2194 1759 
Q 1497 1759 1228 1600 
Q 959 1441 959 1056 
Q 959 750 1161 570 
Q 1363 391 1709 391 
Q 2188 391 2477 730 
Q 2766 1069 2766 1631 
L 2766 1759 
L 2194 1759 
z
M 3341 1997 
L 3341 0 
L 2766 0 
L 2766 531 
Q 2569 213 2275 61 
Q 1981 -91 1556 -91 
Q 1019 -91 701 211 
Q 384 513 384 1019 
Q 384 1609 779 1909 
Q 1175 2209 1959 2209 
L 2766 2209 
L 2766 2266 
Q 2766 2663 2505 2880 
Q 2244 3097 1772 3097 
Q 1472 3097 1187 3025 
Q 903 2953 641 2809 
L 641 3341 
Q 956 3463 1253 3523 
Q 1550 3584 1831 3584 
Q 2591 3584 2966 3190 
Q 3341 2797 3341 1997 
z
" transform="scale(0.015625)"/>
        <path id="DejaVuSans-31" d="M 794 531 
L 1825 531 
L 1825 4091 
L 703 3866 
L 703 4441 
L 1819 4666 
L 2450 4666 
L 2450 531 
L 3481 531 
L 3481 0 
L 794 0 
L 794 531 
z
" transform="scale(0.015625)"/>
       </defs>
       <use xlink:href="#DejaVuSans-41"/>
       <use xlink:href="#DejaVuSans-75" transform="translate(68.408203 0)"/>
       <use xlink:href="#DejaVuSans-73" transform="translate(131.787109 0)"/>
       <use xlink:href="#DejaVuSans-74" transform="translate(183.886719 0)"/>
       <use xlink:href="#DejaVuSans-72" transform="translate(223.095703 0)"/>
       <use xlink:href="#DejaVuSans-69" transform="translate(264.208984 0)"/>
       <use xlink:href="#DejaVuSans-61" transform="translate(291.992188 0)"/>
       <use xlink:href="#DejaVuSans-31" transform="translate(353.271484 0)"/>
      </g>
     </g>
    </g>
    <g id="xtick_2">
     <g id="line2d_2">
      <g>
       <use xlink:href="#m73eadd5640" x="146.557328" y="355.869937" style="fill: #262626; stroke: #262626; stroke-width: 1.25"/>
      </g>
     </g>
     <g id="text_2">
      <!-- Brazil1 -->
      <g style="fill: #262626" transform="translate(125.82568 374.564047) scale(0.121 -0.121)">
       <defs>
        <path id="DejaVuSans-42" d="M 1259 2228 
L 1259 519 
L 2272 519 
Q 2781 519 3026 730 
Q 3272 941 3272 1375 
Q 3272 1813 3026 2020 
Q 2781 2228 2272 2228 
L 1259 2228 
z
M 1259 4147 
L 1259 2741 
L 2194 2741 
Q 2656 2741 2882 2914 
Q 3109 3088 3109 3444 
Q 3109 3797 2882 3972 
Q 2656 4147 2194 4147 
L 1259 4147 
z
M 628 4666 
L 2241 4666 
Q 2963 4666 3353 4366 
Q 3744 4066 3744 3513 
Q 3744 3084 3544 2831 
Q 3344 2578 2956 2516 
Q 3422 2416 3680 2098 
Q 3938 1781 3938 1306 
Q 3938 681 3513 340 
Q 3088 0 2303 0 
L 628 0 
L 628 4666 
z
" transform="scale(0.015625)"/>
        <path id="DejaVuSans-7a" d="M 353 3500 
L 3084 3500 
L 3084 2975 
L 922 459 
L 3084 459 
L 3084 0 
L 275 0 
L 275 525 
L 2438 3041 
L 353 3041 
L 353 3500 
z
" transform="scale(0.015625)"/>
        <path id="DejaVuSans-6c" d="M 603 4863 
L 1178 4863 
L 1178 0 
L 603 0 
L 603 4863 
z
" transform="scale(0.015625)"/>
       </defs>
       <use xlink:href="#DejaVuSans-42"/>
       <use xlink:href="#DejaVuSans-72" transform="translate(68.603516 0)"/>
       <use xlink:href="#DejaVuSans-61" transform="translate(109.716797 0)"/>
       <use xlink:href="#DejaVuSans-7a" transform="translate(170.996094 0)"/>
       <use xlink:href="#DejaVuSans-69" transform="translate(223.486328 0)"/>
       <use xlink:href="#DejaVuSans-6c" transform="translate(251.269531 0)"/>
       <use xlink:href="#DejaVuSans-31" transform="translate(279.052734 0)"/>
      </g>
     </g>
    </g>
    <g id="xtick_3">
     <g id="line2d_3">
      <g>
       <use xlink:href="#m73eadd5640" x="202.357328" y="355.869937" style="fill: #262626; stroke: #262626; stroke-width: 1.25"/>
      </g>
     </g>
     <g id="text_3">
      <!-- Canada1 -->
      <g style="fill: #262626" transform="translate(175.485875 374.564047) scale(0.121 -0.121)">
       <defs>
        <path id="DejaVuSans-43" d="M 4122 4306 
L 4122 3641 
Q 3803 3938 3442 4084 
Q 3081 4231 2675 4231 
Q 1875 4231 1450 3742 
Q 1025 3253 1025 2328 
Q 1025 1406 1450 917 
Q 1875 428 2675 428 
Q 3081 428 3442 575 
Q 3803 722 4122 1019 
L 4122 359 
Q 3791 134 3420 21 
Q 3050 -91 2638 -91 
Q 1578 -91 968 557 
Q 359 1206 359 2328 
Q 359 3453 968 4101 
Q 1578 4750 2638 4750 
Q 3056 4750 3426 4639 
Q 3797 4528 4122 4306 
z
" transform="scale(0.015625)"/>
        <path id="DejaVuSans-6e" d="M 3513 2113 
L 3513 0 
L 2938 0 
L 2938 2094 
Q 2938 2591 2744 2837 
Q 2550 3084 2163 3084 
Q 1697 3084 1428 2787 
Q 1159 2491 1159 1978 
L 1159 0 
L 581 0 
L 581 3500 
L 1159 3500 
L 1159 2956 
Q 1366 3272 1645 3428 
Q 1925 3584 2291 3584 
Q 2894 3584 3203 3211 
Q 3513 2838 3513 2113 
z
" transform="scale(0.015625)"/>
        <path id="DejaVuSans-64" d="M 2906 2969 
L 2906 4863 
L 3481 4863 
L 3481 0 
L 2906 0 
L 2906 525 
Q 2725 213 2448 61 
Q 2172 -91 1784 -91 
Q 1150 -91 751 415 
Q 353 922 353 1747 
Q 353 2572 751 3078 
Q 1150 3584 1784 3584 
Q 2172 3584 2448 3432 
Q 2725 3281 2906 2969 
z
M 947 1747 
Q 947 1113 1208 752 
Q 1469 391 1925 391 
Q 2381 391 2643 752 
Q 2906 1113 2906 1747 
Q 2906 2381 2643 2742 
Q 2381 3103 1925 3103 
Q 1469 3103 1208 2742 
Q 947 2381 947 1747 
z
" transform="scale(0.015625)"/>
       </defs>
       <use xlink:href="#DejaVuSans-43"/>
       <use xlink:href="#DejaVuSans-61" transform="translate(69.824219 0)"/>
       <use xlink:href="#DejaVuSans-6e" transform="translate(131.103516 0)"/>
       <use xlink:href="#DejaVuSans-61" transform="translate(194.482422 0)"/>
       <use xlink:href="#DejaVuSans-64" transform="translate(255.761719 0)"/>
       <use xlink:href="#DejaVuSans-61" transform="translate(319.238281 0)"/>
       <use xlink:href="#DejaVuSans-31" transform="translate(380.517578 0)"/>
      </g>
     </g>
    </g>
    <g id="xtick_4">
     <g id="line2d_4">
      <g>
       <use xlink:href="#m73eadd5640" x="258.157328" y="355.869937" style="fill: #262626; stroke: #262626; stroke-width: 1.25"/>
      </g>
     </g>
     <g id="text_4">
      <!-- China1 -->
      <g style="fill: #262626" transform="translate(237.026758 374.564047) scale(0.121 -0.121)">
       <defs>
        <path id="DejaVuSans-68" d="M 3513 2113 
L 3513 0 
L 2938 0 
L 2938 2094 
Q 2938 2591 2744 2837 
Q 2550 3084 2163 3084 
Q 1697 3084 1428 2787 
Q 1159 2491 1159 1978 
L 1159 0 
L 581 0 
L 581 4863 
L 1159 4863 
L 1159 2956 
Q 1366 3272 1645 3428 
Q 1925 3584 2291 3584 
Q 2894 3584 3203 3211 
Q 3513 2838 3513 2113 
z
" transform="scale(0.015625)"/>
       </defs>
       <use xlink:href="#DejaVuSans-43"/>
       <use xlink:href="#DejaVuSans-68" transform="translate(69.824219 0)"/>
       <use xlink:href="#DejaVuSans-69" transform="translate(133.203125 0)"/>
       <use xlink:href="#DejaVuSans-6e" transform="translate(160.986328 0)"/>
       <use xlink:href="#DejaVuSans-61" transform="translate(224.365234 0)"/>
       <use xlink:href="#DejaVuSans-31" transform="translate(285.644531 0)"/>
      </g>
     </g>
    </g>
    <g id="xtick_5">
     <g id="line2d_5">
      <g>
       <use xlink:href="#m73eadd5640" x="313.957328" y="355.869937" style="fill: #262626; stroke: #262626; stroke-width: 1.25"/>
      </g>
     </g>
     <g id="text_5">
      <!-- China2 -->
      <g style="fill: #262626" transform="translate(292.826758 374.564047) scale(0.121 -0.121)">
       <defs>
        <path id="DejaVuSans-32" d="M 1228 531 
L 3431 531 
L 3431 0 
L 469 0 
L 469 531 
Q 828 903 1448 1529 
Q 2069 2156 2228 2338 
Q 2531 2678 2651 2914 
Q 2772 3150 2772 3378 
Q 2772 3750 2511 3984 
Q 2250 4219 1831 4219 
Q 1534 4219 1204 4116 
Q 875 4013 500 3803 
L 500 4441 
Q 881 4594 1212 4672 
Q 1544 4750 1819 4750 
Q 2544 4750 2975 4387 
Q 3406 4025 3406 3419 
Q 3406 3131 3298 2873 
Q 3191 2616 2906 2266 
Q 2828 2175 2409 1742 
Q 1991 1309 1228 531 
z
" transform="scale(0.015625)"/>
       </defs>
       <use xlink:href="#DejaVuSans-43"/>
       <use xlink:href="#DejaVuSans-68" transform="translate(69.824219 0)"/>
       <use xlink:href="#DejaVuSans-69" transform="translate(133.203125 0)"/>
       <use xlink:href="#DejaVuSans-6e" transform="translate(160.986328 0)"/>
       <use xlink:href="#DejaVuSans-61" transform="translate(224.365234 0)"/>
       <use xlink:href="#DejaVuSans-32" transform="translate(285.644531 0)"/>
      </g>
     </g>
    </g>
    <g id="xtick_6">
     <g id="line2d_6">
      <g>
       <use xlink:href="#m73eadd5640" x="369.757328" y="355.869937" style="fill: #262626; stroke: #262626; stroke-width: 1.25"/>
      </g>
     </g>
     <g id="text_6">
      <!-- China3 -->
      <g style="fill: #262626" transform="translate(348.626758 374.564047) scale(0.121 -0.121)">
       <defs>
        <path id="DejaVuSans-33" d="M 2597 2516 
Q 3050 2419 3304 2112 
Q 3559 1806 3559 1356 
Q 3559 666 3084 287 
Q 2609 -91 1734 -91 
Q 1441 -91 1130 -33 
Q 819 25 488 141 
L 488 750 
Q 750 597 1062 519 
Q 1375 441 1716 441 
Q 2309 441 2620 675 
Q 2931 909 2931 1356 
Q 2931 1769 2642 2001 
Q 2353 2234 1838 2234 
L 1294 2234 
L 1294 2753 
L 1863 2753 
Q 2328 2753 2575 2939 
Q 2822 3125 2822 3475 
Q 2822 3834 2567 4026 
Q 2313 4219 1838 4219 
Q 1578 4219 1281 4162 
Q 984 4106 628 3988 
L 628 4550 
Q 988 4650 1302 4700 
Q 1616 4750 1894 4750 
Q 2613 4750 3031 4423 
Q 3450 4097 3450 3541 
Q 3450 3153 3228 2886 
Q 3006 2619 2597 2516 
z
" transform="scale(0.015625)"/>
       </defs>
       <use xlink:href="#DejaVuSans-43"/>
       <use xlink:href="#DejaVuSans-68" transform="translate(69.824219 0)"/>
       <use xlink:href="#DejaVuSans-69" transform="translate(133.203125 0)"/>
       <use xlink:href="#DejaVuSans-6e" transform="translate(160.986328 0)"/>
       <use xlink:href="#DejaVuSans-61" transform="translate(224.365234 0)"/>
       <use xlink:href="#DejaVuSans-33" transform="translate(285.644531 0)"/>
      </g>
     </g>
    </g>
    <g id="xtick_7">
     <g id="line2d_7">
      <g>
       <use xlink:href="#m73eadd5640" x="425.557328" y="355.869937" style="fill: #262626; stroke: #262626; stroke-width: 1.25"/>
      </g>
     </g>
     <g id="text_7">
      <!-- China4 -->
      <g style="fill: #262626" transform="translate(404.426758 374.564047) scale(0.121 -0.121)">
       <defs>
        <path id="DejaVuSans-34" d="M 2419 4116 
L 825 1625 
L 2419 1625 
L 2419 4116 
z
M 2253 4666 
L 3047 4666 
L 3047 1625 
L 3713 1625 
L 3713 1100 
L 3047 1100 
L 3047 0 
L 2419 0 
L 2419 1100 
L 313 1100 
L 313 1709 
L 2253 4666 
z
" transform="scale(0.015625)"/>
       </defs>
       <use xlink:href="#DejaVuSans-43"/>
       <use xlink:href="#DejaVuSans-68" transform="translate(69.824219 0)"/>
       <use xlink:href="#DejaVuSans-69" transform="translate(133.203125 0)"/>
       <use xlink:href="#DejaVuSans-6e" transform="translate(160.986328 0)"/>
       <use xlink:href="#DejaVuSans-61" transform="translate(224.365234 0)"/>
       <use xlink:href="#DejaVuSans-34" transform="translate(285.644531 0)"/>
      </g>
     </g>
    </g>
    <g id="xtick_8">
     <g id="line2d_8">
      <g>
       <use xlink:href="#m73eadd5640" x="481.357328" y="355.869937" style="fill: #262626; stroke: #262626; stroke-width: 1.25"/>
      </g>
     </g>
     <g id="text_8">
      <!-- China5 -->
      <g style="fill: #262626" transform="translate(460.226758 374.564047) scale(0.121 -0.121)">
       <defs>
        <path id="DejaVuSans-35" d="M 691 4666 
L 3169 4666 
L 3169 4134 
L 1269 4134 
L 1269 2991 
Q 1406 3038 1543 3061 
Q 1681 3084 1819 3084 
Q 2600 3084 3056 2656 
Q 3513 2228 3513 1497 
Q 3513 744 3044 326 
Q 2575 -91 1722 -91 
Q 1428 -91 1123 -41 
Q 819 9 494 109 
L 494 744 
Q 775 591 1075 516 
Q 1375 441 1709 441 
Q 2250 441 2565 725 
Q 2881 1009 2881 1497 
Q 2881 1984 2565 2268 
Q 2250 2553 1709 2553 
Q 1456 2553 1204 2497 
Q 953 2441 691 2322 
L 691 4666 
z
" transform="scale(0.015625)"/>
       </defs>
       <use xlink:href="#DejaVuSans-43"/>
       <use xlink:href="#DejaVuSans-68" transform="translate(69.824219 0)"/>
       <use xlink:href="#DejaVuSans-69" transform="translate(133.203125 0)"/>
       <use xlink:href="#DejaVuSans-6e" transform="translate(160.986328 0)"/>
       <use xlink:href="#DejaVuSans-61" transform="translate(224.365234 0)"/>
       <use xlink:href="#DejaVuSans-35" transform="translate(285.644531 0)"/>
      </g>
     </g>
    </g>
    <g id="xtick_9">
     <g id="line2d_9">
      <g>
       <use xlink:href="#m73eadd5640" x="537.157328" y="355.869937" style="fill: #262626; stroke: #262626; stroke-width: 1.25"/>
      </g>
     </g>
     <g id="text_9">
      <!-- France1 -->
      <g style="fill: #262626" transform="translate(513.18893 374.564047) scale(0.121 -0.121)">
       <defs>
        <path id="DejaVuSans-46" d="M 628 4666 
L 3309 4666 
L 3309 4134 
L 1259 4134 
L 1259 2759 
L 3109 2759 
L 3109 2228 
L 1259 2228 
L 1259 0 
L 628 0 
L 628 4666 
z
" transform="scale(0.015625)"/>
        <path id="DejaVuSans-63" d="M 3122 3366 
L 3122 2828 
Q 2878 2963 2633 3030 
Q 2388 3097 2138 3097 
Q 1578 3097 1268 2742 
Q 959 2388 959 1747 
Q 959 1106 1268 751 
Q 1578 397 2138 397 
Q 2388 397 2633 464 
Q 2878 531 3122 666 
L 3122 134 
Q 2881 22 2623 -34 
Q 2366 -91 2075 -91 
Q 1284 -91 818 406 
Q 353 903 353 1747 
Q 353 2603 823 3093 
Q 1294 3584 2113 3584 
Q 2378 3584 2631 3529 
Q 2884 3475 3122 3366 
z
" transform="scale(0.015625)"/>
        <path id="DejaVuSans-65" d="M 3597 1894 
L 3597 1613 
L 953 1613 
Q 991 1019 1311 708 
Q 1631 397 2203 397 
Q 2534 397 2845 478 
Q 3156 559 3463 722 
L 3463 178 
Q 3153 47 2828 -22 
Q 2503 -91 2169 -91 
Q 1331 -91 842 396 
Q 353 884 353 1716 
Q 353 2575 817 3079 
Q 1281 3584 2069 3584 
Q 2775 3584 3186 3129 
Q 3597 2675 3597 1894 
z
M 3022 2063 
Q 3016 2534 2758 2815 
Q 2500 3097 2075 3097 
Q 1594 3097 1305 2825 
Q 1016 2553 972 2059 
L 3022 2063 
z
" transform="scale(0.015625)"/>
       </defs>
       <use xlink:href="#DejaVuSans-46"/>
       <use xlink:href="#DejaVuSans-72" transform="translate(50.269531 0)"/>
       <use xlink:href="#DejaVuSans-61" transform="translate(91.382812 0)"/>
       <use xlink:href="#DejaVuSans-6e" transform="translate(152.662109 0)"/>
       <use xlink:href="#DejaVuSans-63" transform="translate(216.041016 0)"/>
       <use xlink:href="#DejaVuSans-65" transform="translate(271.021484 0)"/>
       <use xlink:href="#DejaVuSans-31" transform="translate(332.544922 0)"/>
      </g>
     </g>
    </g>
    <g id="xtick_10">
     <g id="line2d_10">
      <g>
       <use xlink:href="#m73eadd5640" x="592.957328" y="355.869937" style="fill: #262626; stroke: #262626; stroke-width: 1.25"/>
      </g>
     </g>
     <g id="text_10">
      <!-- Ger1 -->
      <g style="fill: #262626" transform="translate(578.210453 374.564047) scale(0.121 -0.121)">
       <defs>
        <path id="DejaVuSans-47" d="M 3809 666 
L 3809 1919 
L 2778 1919 
L 2778 2438 
L 4434 2438 
L 4434 434 
Q 4069 175 3628 42 
Q 3188 -91 2688 -91 
Q 1594 -91 976 548 
Q 359 1188 359 2328 
Q 359 3472 976 4111 
Q 1594 4750 2688 4750 
Q 3144 4750 3555 4637 
Q 3966 4525 4313 4306 
L 4313 3634 
Q 3963 3931 3569 4081 
Q 3175 4231 2741 4231 
Q 1884 4231 1454 3753 
Q 1025 3275 1025 2328 
Q 1025 1384 1454 906 
Q 1884 428 2741 428 
Q 3075 428 3337 486 
Q 3600 544 3809 666 
z
" transform="scale(0.015625)"/>
       </defs>
       <use xlink:href="#DejaVuSans-47"/>
       <use xlink:href="#DejaVuSans-65" transform="translate(77.490234 0)"/>
       <use xlink:href="#DejaVuSans-72" transform="translate(139.013672 0)"/>
       <use xlink:href="#DejaVuSans-31" transform="translate(180.126953 0)"/>
      </g>
     </g>
    </g>
    <g id="xtick_11">
     <g id="line2d_11">
      <g>
       <use xlink:href="#m73eadd5640" x="648.757328" y="355.869937" style="fill: #262626; stroke: #262626; stroke-width: 1.25"/>
      </g>
     </g>
     <g id="text_11">
      <!-- Ger2 -->
      <g style="fill: #262626" transform="translate(634.010453 374.564047) scale(0.121 -0.121)">
       <use xlink:href="#DejaVuSans-47"/>
       <use xlink:href="#DejaVuSans-65" transform="translate(77.490234 0)"/>
       <use xlink:href="#DejaVuSans-72" transform="translate(139.013672 0)"/>
       <use xlink:href="#DejaVuSans-32" transform="translate(180.126953 0)"/>
      </g>
     </g>
    </g>
    <g id="xtick_12">
     <g id="line2d_12">
      <g>
       <use xlink:href="#m73eadd5640" x="704.557328" y="355.869937" style="fill: #262626; stroke: #262626; stroke-width: 1.25"/>
      </g>
     </g>
     <g id="text_12">
      <!-- India1 -->
      <g style="fill: #262626" transform="translate(685.859992 374.564047) scale(0.121 -0.121)">
       <defs>
        <path id="DejaVuSans-49" d="M 628 4666 
L 1259 4666 
L 1259 0 
L 628 0 
L 628 4666 
z
" transform="scale(0.015625)"/>
       </defs>
       <use xlink:href="#DejaVuSans-49"/>
       <use xlink:href="#DejaVuSans-6e" transform="translate(29.492188 0)"/>
       <use xlink:href="#DejaVuSans-64" transform="translate(92.871094 0)"/>
       <use xlink:href="#DejaVuSans-69" transform="translate(156.347656 0)"/>
       <use xlink:href="#DejaVuSans-61" transform="translate(184.130859 0)"/>
       <use xlink:href="#DejaVuSans-31" transform="translate(245.410156 0)"/>
      </g>
     </g>
    </g>
    <g id="xtick_13">
     <g id="line2d_13">
      <g>
       <use xlink:href="#m73eadd5640" x="760.357328" y="355.869937" style="fill: #262626; stroke: #262626; stroke-width: 1.25"/>
      </g>
     </g>
     <g id="text_13">
      <!-- India2 -->
      <g style="fill: #262626" transform="translate(741.659992 374.564047) scale(0.121 -0.121)">
       <use xlink:href="#DejaVuSans-49"/>
       <use xlink:href="#DejaVuSans-6e" transform="translate(29.492188 0)"/>
       <use xlink:href="#DejaVuSans-64" transform="translate(92.871094 0)"/>
       <use xlink:href="#DejaVuSans-69" transform="translate(156.347656 0)"/>
       <use xlink:href="#DejaVuSans-61" transform="translate(184.130859 0)"/>
       <use xlink:href="#DejaVuSans-32" transform="translate(245.410156 0)"/>
      </g>
     </g>
    </g>
    <g id="xtick_14">
     <g id="line2d_14">
      <g>
       <use xlink:href="#m73eadd5640" x="816.157328" y="355.869937" style="fill: #262626; stroke: #262626; stroke-width: 1.25"/>
      </g>
     </g>
     <g id="text_14">
      <!-- Italy1 -->
      <g style="fill: #262626" transform="translate(799.182352 374.564047) scale(0.121 -0.121)">
       <defs>
        <path id="DejaVuSans-79" d="M 2059 -325 
Q 1816 -950 1584 -1140 
Q 1353 -1331 966 -1331 
L 506 -1331 
L 506 -850 
L 844 -850 
Q 1081 -850 1212 -737 
Q 1344 -625 1503 -206 
L 1606 56 
L 191 3500 
L 800 3500 
L 1894 763 
L 2988 3500 
L 3597 3500 
L 2059 -325 
z
" transform="scale(0.015625)"/>
       </defs>
       <use xlink:href="#DejaVuSans-49"/>
       <use xlink:href="#DejaVuSans-74" transform="translate(29.492188 0)"/>
       <use xlink:href="#DejaVuSans-61" transform="translate(68.701172 0)"/>
       <use xlink:href="#DejaVuSans-6c" transform="translate(129.980469 0)"/>
       <use xlink:href="#DejaVuSans-79" transform="translate(157.763672 0)"/>
       <use xlink:href="#DejaVuSans-31" transform="translate(216.943359 0)"/>
      </g>
     </g>
    </g>
    <g id="xtick_15">
     <g id="line2d_15">
      <g>
       <use xlink:href="#m73eadd5640" x="871.957328" y="355.869937" style="fill: #262626; stroke: #262626; stroke-width: 1.25"/>
      </g>
     </g>
     <g id="text_15">
      <!-- Japan1 -->
      <g style="fill: #262626" transform="translate(851.233242 374.564047) scale(0.121 -0.121)">
       <defs>
        <path id="DejaVuSans-4a" d="M 628 4666 
L 1259 4666 
L 1259 325 
Q 1259 -519 939 -900 
Q 619 -1281 -91 -1281 
L -331 -1281 
L -331 -750 
L -134 -750 
Q 284 -750 456 -515 
Q 628 -281 628 325 
L 628 4666 
z
" transform="scale(0.015625)"/>
        <path id="DejaVuSans-70" d="M 1159 525 
L 1159 -1331 
L 581 -1331 
L 581 3500 
L 1159 3500 
L 1159 2969 
Q 1341 3281 1617 3432 
Q 1894 3584 2278 3584 
Q 2916 3584 3314 3078 
Q 3713 2572 3713 1747 
Q 3713 922 3314 415 
Q 2916 -91 2278 -91 
Q 1894 -91 1617 61 
Q 1341 213 1159 525 
z
M 3116 1747 
Q 3116 2381 2855 2742 
Q 2594 3103 2138 3103 
Q 1681 3103 1420 2742 
Q 1159 2381 1159 1747 
Q 1159 1113 1420 752 
Q 1681 391 2138 391 
Q 2594 391 2855 752 
Q 3116 1113 3116 1747 
z
" transform="scale(0.015625)"/>
       </defs>
       <use xlink:href="#DejaVuSans-4a"/>
       <use xlink:href="#DejaVuSans-61" transform="translate(29.492188 0)"/>
       <use xlink:href="#DejaVuSans-70" transform="translate(90.771484 0)"/>
       <use xlink:href="#DejaVuSans-61" transform="translate(154.248047 0)"/>
       <use xlink:href="#DejaVuSans-6e" transform="translate(215.527344 0)"/>
       <use xlink:href="#DejaVuSans-31" transform="translate(278.90625 0)"/>
      </g>
     </g>
    </g>
    <g id="xtick_16">
     <g id="line2d_16">
      <g>
       <use xlink:href="#m73eadd5640" x="927.757328" y="355.869937" style="fill: #262626; stroke: #262626; stroke-width: 1.25"/>
      </g>
     </g>
     <g id="text_16">
      <!-- USA1 -->
      <g style="fill: #262626" transform="translate(911.387352 374.564047) scale(0.121 -0.121)">
       <defs>
        <path id="DejaVuSans-55" d="M 556 4666 
L 1191 4666 
L 1191 1831 
Q 1191 1081 1462 751 
Q 1734 422 2344 422 
Q 2950 422 3222 751 
Q 3494 1081 3494 1831 
L 3494 4666 
L 4128 4666 
L 4128 1753 
Q 4128 841 3676 375 
Q 3225 -91 2344 -91 
Q 1459 -91 1007 375 
Q 556 841 556 1753 
L 556 4666 
z
" transform="scale(0.015625)"/>
        <path id="DejaVuSans-53" d="M 3425 4513 
L 3425 3897 
Q 3066 4069 2747 4153 
Q 2428 4238 2131 4238 
Q 1616 4238 1336 4038 
Q 1056 3838 1056 3469 
Q 1056 3159 1242 3001 
Q 1428 2844 1947 2747 
L 2328 2669 
Q 3034 2534 3370 2195 
Q 3706 1856 3706 1288 
Q 3706 609 3251 259 
Q 2797 -91 1919 -91 
Q 1588 -91 1214 -16 
Q 841 59 441 206 
L 441 856 
Q 825 641 1194 531 
Q 1563 422 1919 422 
Q 2459 422 2753 634 
Q 3047 847 3047 1241 
Q 3047 1584 2836 1778 
Q 2625 1972 2144 2069 
L 1759 2144 
Q 1053 2284 737 2584 
Q 422 2884 422 3419 
Q 422 4038 858 4394 
Q 1294 4750 2059 4750 
Q 2388 4750 2728 4690 
Q 3069 4631 3425 4513 
z
" transform="scale(0.015625)"/>
       </defs>
       <use xlink:href="#DejaVuSans-55"/>
       <use xlink:href="#DejaVuSans-53" transform="translate(73.193359 0)"/>
       <use xlink:href="#DejaVuSans-41" transform="translate(138.544922 0)"/>
       <use xlink:href="#DejaVuSans-31" transform="translate(206.953125 0)"/>
      </g>
     </g>
    </g>
    <g id="xtick_17">
     <g id="line2d_17">
      <g>
       <use xlink:href="#m73eadd5640" x="983.557328" y="355.869937" style="fill: #262626; stroke: #262626; stroke-width: 1.25"/>
      </g>
     </g>
     <g id="text_17">
      <!-- USA2 -->
      <g style="fill: #262626" transform="translate(967.187352 374.564047) scale(0.121 -0.121)">
       <use xlink:href="#DejaVuSans-55"/>
       <use xlink:href="#DejaVuSans-53" transform="translate(73.193359 0)"/>
       <use xlink:href="#DejaVuSans-41" transform="translate(138.544922 0)"/>
       <use xlink:href="#DejaVuSans-32" transform="translate(206.953125 0)"/>
      </g>
     </g>
    </g>
    <g id="text_18">
     <!-- Cohort -->
     <g style="fill: #262626" transform="translate(514.988547 391.110406) scale(0.132 -0.132)">
      <defs>
       <path id="DejaVuSans-6f" d="M 1959 3097 
Q 1497 3097 1228 2736 
Q 959 2375 959 1747 
Q 959 1119 1226 758 
Q 1494 397 1959 397 
Q 2419 397 2687 759 
Q 2956 1122 2956 1747 
Q 2956 2369 2687 2733 
Q 2419 3097 1959 3097 
z
M 1959 3584 
Q 2709 3584 3137 3096 
Q 3566 2609 3566 1747 
Q 3566 888 3137 398 
Q 2709 -91 1959 -91 
Q 1206 -91 779 398 
Q 353 888 353 1747 
Q 353 2609 779 3096 
Q 1206 3584 1959 3584 
z
" transform="scale(0.015625)"/>
      </defs>
      <use xlink:href="#DejaVuSans-43"/>
      <use xlink:href="#DejaVuSans-6f" transform="translate(69.824219 0)"/>
      <use xlink:href="#DejaVuSans-68" transform="translate(131.005859 0)"/>
      <use xlink:href="#DejaVuSans-6f" transform="translate(194.384766 0)"/>
      <use xlink:href="#DejaVuSans-72" transform="translate(255.566406 0)"/>
      <use xlink:href="#DejaVuSans-74" transform="translate(296.679688 0)"/>
     </g>
    </g>
   </g>
   <g id="matplotlib.axis_2">
    <g id="ytick_1">
     <g id="line2d_18">
      <defs>
       <path id="mae18c0911d" d="M 0 0 
L -6 0 
" style="stroke: #262626; stroke-width: 1.25"/>
      </defs>
      <g>
       <use xlink:href="#mae18c0911d" x="62.857328" y="342.564337" style="fill: #262626; stroke: #262626; stroke-width: 1.25"/>
      </g>
     </g>
     <g id="text_19">
      <!-- −0.2 -->
      <g style="fill: #262626" transform="translate(23.975125 347.161392) scale(0.121 -0.121)">
       <defs>
        <path id="DejaVuSans-2212" d="M 678 2272 
L 4684 2272 
L 4684 1741 
L 678 1741 
L 678 2272 
z
" transform="scale(0.015625)"/>
        <path id="DejaVuSans-30" d="M 2034 4250 
Q 1547 4250 1301 3770 
Q 1056 3291 1056 2328 
Q 1056 1369 1301 889 
Q 1547 409 2034 409 
Q 2525 409 2770 889 
Q 3016 1369 3016 2328 
Q 3016 3291 2770 3770 
Q 2525 4250 2034 4250 
z
M 2034 4750 
Q 2819 4750 3233 4129 
Q 3647 3509 3647 2328 
Q 3647 1150 3233 529 
Q 2819 -91 2034 -91 
Q 1250 -91 836 529 
Q 422 1150 422 2328 
Q 422 3509 836 4129 
Q 1250 4750 2034 4750 
z
" transform="scale(0.015625)"/>
        <path id="DejaVuSans-2e" d="M 684 794 
L 1344 794 
L 1344 0 
L 684 0 
L 684 794 
z
" transform="scale(0.015625)"/>
       </defs>
       <use xlink:href="#DejaVuSans-2212"/>
       <use xlink:href="#DejaVuSans-30" transform="translate(83.789062 0)"/>
       <use xlink:href="#DejaVuSans-2e" transform="translate(147.412109 0)"/>
       <use xlink:href="#DejaVuSans-32" transform="translate(179.199219 0)"/>
      </g>
     </g>
    </g>
    <g id="ytick_2">
     <g id="line2d_19">
      <g>
       <use xlink:href="#mae18c0911d" x="62.857328" y="289.341937" style="fill: #262626; stroke: #262626; stroke-width: 1.25"/>
      </g>
     </g>
     <g id="text_20">
      <!-- 0.0 -->
      <g style="fill: #262626" transform="translate(34.114547 293.938992) scale(0.121 -0.121)">
       <use xlink:href="#DejaVuSans-30"/>
       <use xlink:href="#DejaVuSans-2e" transform="translate(63.623047 0)"/>
       <use xlink:href="#DejaVuSans-30" transform="translate(95.410156 0)"/>
      </g>
     </g>
    </g>
    <g id="ytick_3">
     <g id="line2d_20">
      <g>
       <use xlink:href="#mae18c0911d" x="62.857328" y="236.119537" style="fill: #262626; stroke: #262626; stroke-width: 1.25"/>
      </g>
     </g>
     <g id="text_21">
      <!-- 0.2 -->
      <g style="fill: #262626" transform="translate(34.114547 240.716592) scale(0.121 -0.121)">
       <use xlink:href="#DejaVuSans-30"/>
       <use xlink:href="#DejaVuSans-2e" transform="translate(63.623047 0)"/>
       <use xlink:href="#DejaVuSans-32" transform="translate(95.410156 0)"/>
      </g>
     </g>
    </g>
    <g id="ytick_4">
     <g id="line2d_21">
      <g>
       <use xlink:href="#mae18c0911d" x="62.857328" y="182.897137" style="fill: #262626; stroke: #262626; stroke-width: 1.25"/>
      </g>
     </g>
     <g id="text_22">
      <!-- 0.4 -->
      <g style="fill: #262626" transform="translate(34.114547 187.494192) scale(0.121 -0.121)">
       <use xlink:href="#DejaVuSans-30"/>
       <use xlink:href="#DejaVuSans-2e" transform="translate(63.623047 0)"/>
       <use xlink:href="#DejaVuSans-34" transform="translate(95.410156 0)"/>
      </g>
     </g>
    </g>
    <g id="ytick_5">
     <g id="line2d_22">
      <g>
       <use xlink:href="#mae18c0911d" x="62.857328" y="129.674737" style="fill: #262626; stroke: #262626; stroke-width: 1.25"/>
      </g>
     </g>
     <g id="text_23">
      <!-- 0.6 -->
      <g style="fill: #262626" transform="translate(34.114547 134.271792) scale(0.121 -0.121)">
       <defs>
        <path id="DejaVuSans-36" d="M 2113 2584 
Q 1688 2584 1439 2293 
Q 1191 2003 1191 1497 
Q 1191 994 1439 701 
Q 1688 409 2113 409 
Q 2538 409 2786 701 
Q 3034 994 3034 1497 
Q 3034 2003 2786 2293 
Q 2538 2584 2113 2584 
z
M 3366 4563 
L 3366 3988 
Q 3128 4100 2886 4159 
Q 2644 4219 2406 4219 
Q 1781 4219 1451 3797 
Q 1122 3375 1075 2522 
Q 1259 2794 1537 2939 
Q 1816 3084 2150 3084 
Q 2853 3084 3261 2657 
Q 3669 2231 3669 1497 
Q 3669 778 3244 343 
Q 2819 -91 2113 -91 
Q 1303 -91 875 529 
Q 447 1150 447 2328 
Q 447 3434 972 4092 
Q 1497 4750 2381 4750 
Q 2619 4750 2861 4703 
Q 3103 4656 3366 4563 
z
" transform="scale(0.015625)"/>
       </defs>
       <use xlink:href="#DejaVuSans-30"/>
       <use xlink:href="#DejaVuSans-2e" transform="translate(63.623047 0)"/>
       <use xlink:href="#DejaVuSans-36" transform="translate(95.410156 0)"/>
      </g>
     </g>
    </g>
    <g id="ytick_6">
     <g id="line2d_23">
      <g>
       <use xlink:href="#mae18c0911d" x="62.857328" y="76.452337" style="fill: #262626; stroke: #262626; stroke-width: 1.25"/>
      </g>
     </g>
     <g id="text_24">
      <!-- 0.8 -->
      <g style="fill: #262626" transform="translate(34.114547 81.049392) scale(0.121 -0.121)">
       <defs>
        <path id="DejaVuSans-38" d="M 2034 2216 
Q 1584 2216 1326 1975 
Q 1069 1734 1069 1313 
Q 1069 891 1326 650 
Q 1584 409 2034 409 
Q 2484 409 2743 651 
Q 3003 894 3003 1313 
Q 3003 1734 2745 1975 
Q 2488 2216 2034 2216 
z
M 1403 2484 
Q 997 2584 770 2862 
Q 544 3141 544 3541 
Q 544 4100 942 4425 
Q 1341 4750 2034 4750 
Q 2731 4750 3128 4425 
Q 3525 4100 3525 3541 
Q 3525 3141 3298 2862 
Q 3072 2584 2669 2484 
Q 3125 2378 3379 2068 
Q 3634 1759 3634 1313 
Q 3634 634 3220 271 
Q 2806 -91 2034 -91 
Q 1263 -91 848 271 
Q 434 634 434 1313 
Q 434 1759 690 2068 
Q 947 2378 1403 2484 
z
M 1172 3481 
Q 1172 3119 1398 2916 
Q 1625 2713 2034 2713 
Q 2441 2713 2670 2916 
Q 2900 3119 2900 3481 
Q 2900 3844 2670 4047 
Q 2441 4250 2034 4250 
Q 1625 4250 1398 4047 
Q 1172 3844 1172 3481 
z
" transform="scale(0.015625)"/>
       </defs>
       <use xlink:href="#DejaVuSans-30"/>
       <use xlink:href="#DejaVuSans-2e" transform="translate(63.623047 0)"/>
       <use xlink:href="#DejaVuSans-38" transform="translate(95.410156 0)"/>
      </g>
     </g>
    </g>
    <g id="ytick_7">
     <g id="line2d_24">
      <g>
       <use xlink:href="#mae18c0911d" x="62.857328" y="23.229937" style="fill: #262626; stroke: #262626; stroke-width: 1.25"/>
      </g>
     </g>
     <g id="text_25">
      <!-- 1.0 -->
      <g style="fill: #262626" transform="translate(34.114547 27.826992) scale(0.121 -0.121)">
       <use xlink:href="#DejaVuSans-31"/>
       <use xlink:href="#DejaVuSans-2e" transform="translate(63.623047 0)"/>
       <use xlink:href="#DejaVuSans-30" transform="translate(95.410156 0)"/>
      </g>
     </g>
    </g>
    <g id="text_26">
     <!-- mcc -->
     <g style="fill: #262626" transform="translate(17.229938 203.236687) rotate(-90) scale(0.132 -0.132)">
      <defs>
       <path id="DejaVuSans-6d" d="M 3328 2828 
Q 3544 3216 3844 3400 
Q 4144 3584 4550 3584 
Q 5097 3584 5394 3201 
Q 5691 2819 5691 2113 
L 5691 0 
L 5113 0 
L 5113 2094 
Q 5113 2597 4934 2840 
Q 4756 3084 4391 3084 
Q 3944 3084 3684 2787 
Q 3425 2491 3425 1978 
L 3425 0 
L 2847 0 
L 2847 2094 
Q 2847 2600 2669 2842 
Q 2491 3084 2119 3084 
Q 1678 3084 1418 2786 
Q 1159 2488 1159 1978 
L 1159 0 
L 581 0 
L 581 3500 
L 1159 3500 
L 1159 2956 
Q 1356 3278 1631 3431 
Q 1906 3584 2284 3584 
Q 2666 3584 2933 3390 
Q 3200 3197 3328 2828 
z
" transform="scale(0.015625)"/>
      </defs>
      <use xlink:href="#DejaVuSans-6d"/>
      <use xlink:href="#DejaVuSans-63" transform="translate(97.412109 0)"/>
      <use xlink:href="#DejaVuSans-63" transform="translate(152.392578 0)"/>
     </g>
    </g>
   </g>
   <g id="patch_3">
    <path d="M 90.757328 289.341937 
L 90.757328 289.341937 
L 90.757328 289.341937 
L 90.757328 289.341937 
z
" clip-path="url(#p45d0fc81e2)" style="fill: #176d9c; stroke: #363636; stroke-linejoin: miter"/>
   </g>
   <g id="patch_4">
    <path d="M 90.757328 289.341937 
L 90.757328 289.341937 
L 90.757328 289.341937 
L 90.757328 289.341937 
z
" clip-path="url(#p45d0fc81e2)" style="fill: #c38820; stroke: #363636; stroke-linejoin: miter"/>
   </g>
   <g id="patch_5">
    <path d="M 74.017328 180.5934 
L 90.757328 180.5934 
L 90.757328 170.699502 
L 74.017328 170.699502 
L 74.017328 180.5934 
z
" clip-path="url(#p45d0fc81e2)" style="fill: #176d9c; stroke: #363636; stroke-linejoin: miter"/>
   </g>
   <g id="line2d_25">
    <path d="M 82.387328 180.5934 
L 82.387328 185.44032 
" clip-path="url(#p45d0fc81e2)" style="fill: none; stroke: #363636"/>
   </g>
   <g id="line2d_26">
    <path d="M 82.387328 170.699502 
L 82.387328 163.715627 
" clip-path="url(#p45d0fc81e2)" style="fill: none; stroke: #363636"/>
   </g>
   <g id="line2d_27">
    <path d="M 78.202328 185.44032 
L 86.572328 185.44032 
" clip-path="url(#p45d0fc81e2)" style="fill: none; stroke: #363636; stroke-linecap: round"/>
   </g>
   <g id="line2d_28">
    <path d="M 78.202328 163.715627 
L 86.572328 163.715627 
" clip-path="url(#p45d0fc81e2)" style="fill: none; stroke: #363636; stroke-linecap: round"/>
   </g>
   <g id="line2d_29"/>
   <g id="patch_6">
    <path d="M 129.817328 234.59264 
L 146.557328 234.59264 
L 146.557328 219.814926 
L 129.817328 219.814926 
L 129.817328 234.59264 
z
" clip-path="url(#p45d0fc81e2)" style="fill: #176d9c; stroke: #363636; stroke-linejoin: miter"/>
   </g>
   <g id="line2d_30">
    <path d="M 138.187328 234.59264 
L 138.187328 237.994892 
" clip-path="url(#p45d0fc81e2)" style="fill: none; stroke: #363636"/>
   </g>
   <g id="line2d_31">
    <path d="M 138.187328 219.814926 
L 138.187328 215.535748 
" clip-path="url(#p45d0fc81e2)" style="fill: none; stroke: #363636"/>
   </g>
   <g id="line2d_32">
    <path d="M 134.002328 237.994892 
L 142.372328 237.994892 
" clip-path="url(#p45d0fc81e2)" style="fill: none; stroke: #363636; stroke-linecap: round"/>
   </g>
   <g id="line2d_33">
    <path d="M 134.002328 215.535748 
L 142.372328 215.535748 
" clip-path="url(#p45d0fc81e2)" style="fill: none; stroke: #363636; stroke-linecap: round"/>
   </g>
   <g id="line2d_34"/>
   <g id="patch_7">
    <path d="M 185.617328 289.341937 
L 202.357328 289.341937 
L 202.357328 289.341937 
L 185.617328 289.341937 
L 185.617328 289.341937 
z
" clip-path="url(#p45d0fc81e2)" style="fill: #176d9c; stroke: #363636; stroke-linejoin: miter"/>
   </g>
   <g id="line2d_35">
    <path d="M 193.987328 289.341937 
L 193.987328 289.341937 
" clip-path="url(#p45d0fc81e2)" style="fill: none; stroke: #363636"/>
   </g>
   <g id="line2d_36">
    <path d="M 193.987328 289.341937 
L 193.987328 289.341937 
" clip-path="url(#p45d0fc81e2)" style="fill: none; stroke: #363636"/>
   </g>
   <g id="line2d_37">
    <path d="M 189.802328 289.341937 
L 198.172328 289.341937 
" clip-path="url(#p45d0fc81e2)" style="fill: none; stroke: #363636; stroke-linecap: round"/>
   </g>
   <g id="line2d_38">
    <path d="M 189.802328 289.341937 
L 198.172328 289.341937 
" clip-path="url(#p45d0fc81e2)" style="fill: none; stroke: #363636; stroke-linecap: round"/>
   </g>
   <g id="line2d_39"/>
   <g id="patch_8">
    <path d="M 241.417328 141.010871 
L 258.157328 141.010871 
L 258.157328 132.581686 
L 241.417328 132.581686 
L 241.417328 141.010871 
z
" clip-path="url(#p45d0fc81e2)" style="fill: #176d9c; stroke: #363636; stroke-linejoin: miter"/>
   </g>
   <g id="line2d_40">
    <path d="M 249.787328 141.010871 
L 249.787328 144.144028 
" clip-path="url(#p45d0fc81e2)" style="fill: none; stroke: #363636"/>
   </g>
   <g id="line2d_41">
    <path d="M 249.787328 132.581686 
L 249.787328 128.427958 
" clip-path="url(#p45d0fc81e2)" style="fill: none; stroke: #363636"/>
   </g>
   <g id="line2d_42">
    <path d="M 245.602328 144.144028 
L 253.972328 144.144028 
" clip-path="url(#p45d0fc81e2)" style="fill: none; stroke: #363636; stroke-linecap: round"/>
   </g>
   <g id="line2d_43">
    <path d="M 245.602328 128.427958 
L 253.972328 128.427958 
" clip-path="url(#p45d0fc81e2)" style="fill: none; stroke: #363636; stroke-linecap: round"/>
   </g>
   <g id="line2d_44"/>
   <g id="patch_9">
    <path d="M 297.217328 55.946274 
L 313.957328 55.946274 
L 313.957328 55.946274 
L 297.217328 55.946274 
L 297.217328 55.946274 
z
" clip-path="url(#p45d0fc81e2)" style="fill: #176d9c; stroke: #363636; stroke-linejoin: miter"/>
   </g>
   <g id="line2d_45">
    <path d="M 305.587328 55.946274 
L 305.587328 55.946274 
" clip-path="url(#p45d0fc81e2)" style="fill: none; stroke: #363636"/>
   </g>
   <g id="line2d_46">
    <path d="M 305.587328 55.946274 
L 305.587328 55.946274 
" clip-path="url(#p45d0fc81e2)" style="fill: none; stroke: #363636"/>
   </g>
   <g id="line2d_47">
    <path d="M 301.402328 55.946274 
L 309.772328 55.946274 
" clip-path="url(#p45d0fc81e2)" style="fill: none; stroke: #363636; stroke-linecap: round"/>
   </g>
   <g id="line2d_48">
    <path d="M 301.402328 55.946274 
L 309.772328 55.946274 
" clip-path="url(#p45d0fc81e2)" style="fill: none; stroke: #363636; stroke-linecap: round"/>
   </g>
   <g id="line2d_49"/>
   <g id="patch_10">
    <path d="M 353.017328 152.719993 
L 369.757328 152.719993 
L 369.757328 145.863299 
L 353.017328 145.863299 
L 353.017328 152.719993 
z
" clip-path="url(#p45d0fc81e2)" style="fill: #176d9c; stroke: #363636; stroke-linejoin: miter"/>
   </g>
   <g id="line2d_50">
    <path d="M 361.387328 152.719993 
L 361.387328 162.465231 
" clip-path="url(#p45d0fc81e2)" style="fill: none; stroke: #363636"/>
   </g>
   <g id="line2d_51">
    <path d="M 361.387328 145.863299 
L 361.387328 143.377857 
" clip-path="url(#p45d0fc81e2)" style="fill: none; stroke: #363636"/>
   </g>
   <g id="line2d_52">
    <path d="M 357.202328 162.465231 
L 365.572328 162.465231 
" clip-path="url(#p45d0fc81e2)" style="fill: none; stroke: #363636; stroke-linecap: round"/>
   </g>
   <g id="line2d_53">
    <path d="M 357.202328 143.377857 
L 365.572328 143.377857 
" clip-path="url(#p45d0fc81e2)" style="fill: none; stroke: #363636; stroke-linecap: round"/>
   </g>
   <g id="line2d_54">
    <defs>
     <path id="me9134aafc6" d="M 0 3 
C 0.795609 3 1.55874 2.683901 2.12132 2.12132 
C 2.683901 1.55874 3 0.795609 3 0 
C 3 -0.795609 2.683901 -1.55874 2.12132 -2.12132 
C 1.55874 -2.683901 0.795609 -3 0 -3 
C -0.795609 -3 -1.55874 -2.683901 -2.12132 -2.12132 
C -2.683901 -1.55874 -3 -0.795609 -3 0 
C -3 0.795609 -2.683901 1.55874 -2.12132 2.12132 
C -1.55874 2.683901 -0.795609 3 0 3 
z
" style="stroke: #363636"/>
    </defs>
    <g clip-path="url(#p45d0fc81e2)">
     <use xlink:href="#me9134aafc6" x="361.387328" y="163.409337" style="fill-opacity: 0; stroke: #363636"/>
    </g>
   </g>
   <g id="patch_11">
    <path d="M 408.817328 152.971191 
L 425.557328 152.971191 
L 425.557328 148.814632 
L 408.817328 148.814632 
L 408.817328 152.971191 
z
" clip-path="url(#p45d0fc81e2)" style="fill: #176d9c; stroke: #363636; stroke-linejoin: miter"/>
   </g>
   <g id="line2d_55">
    <path d="M 417.187328 152.971191 
L 417.187328 157.227546 
" clip-path="url(#p45d0fc81e2)" style="fill: none; stroke: #363636"/>
   </g>
   <g id="line2d_56">
    <path d="M 417.187328 148.814632 
L 417.187328 145.38099 
" clip-path="url(#p45d0fc81e2)" style="fill: none; stroke: #363636"/>
   </g>
   <g id="line2d_57">
    <path d="M 413.002328 157.227546 
L 421.372328 157.227546 
" clip-path="url(#p45d0fc81e2)" style="fill: none; stroke: #363636; stroke-linecap: round"/>
   </g>
   <g id="line2d_58">
    <path d="M 413.002328 145.38099 
L 421.372328 145.38099 
" clip-path="url(#p45d0fc81e2)" style="fill: none; stroke: #363636; stroke-linecap: round"/>
   </g>
   <g id="line2d_59"/>
   <g id="patch_12">
    <path d="M 464.617328 143.339228 
L 481.357328 143.339228 
L 481.357328 135.401941 
L 464.617328 135.401941 
L 464.617328 143.339228 
z
" clip-path="url(#p45d0fc81e2)" style="fill: #176d9c; stroke: #363636; stroke-linejoin: miter"/>
   </g>
   <g id="line2d_60">
    <path d="M 472.987328 143.339228 
L 472.987328 147.886615 
" clip-path="url(#p45d0fc81e2)" style="fill: none; stroke: #363636"/>
   </g>
   <g id="line2d_61">
    <path d="M 472.987328 135.401941 
L 472.987328 131.782135 
" clip-path="url(#p45d0fc81e2)" style="fill: none; stroke: #363636"/>
   </g>
   <g id="line2d_62">
    <path d="M 468.802328 147.886615 
L 477.172328 147.886615 
" clip-path="url(#p45d0fc81e2)" style="fill: none; stroke: #363636; stroke-linecap: round"/>
   </g>
   <g id="line2d_63">
    <path d="M 468.802328 131.782135 
L 477.172328 131.782135 
" clip-path="url(#p45d0fc81e2)" style="fill: none; stroke: #363636; stroke-linecap: round"/>
   </g>
   <g id="line2d_64"/>
   <g id="patch_13">
    <path d="M 520.417328 176.056804 
L 537.157328 176.056804 
L 537.157328 170.41023 
L 520.417328 170.41023 
L 520.417328 176.056804 
z
" clip-path="url(#p45d0fc81e2)" style="fill: #176d9c; stroke: #363636; stroke-linejoin: miter"/>
   </g>
   <g id="line2d_65">
    <path d="M 528.787328 176.056804 
L 528.787328 180.410494 
" clip-path="url(#p45d0fc81e2)" style="fill: none; stroke: #363636"/>
   </g>
   <g id="line2d_66">
    <path d="M 528.787328 170.41023 
L 528.787328 170.41023 
" clip-path="url(#p45d0fc81e2)" style="fill: none; stroke: #363636"/>
   </g>
   <g id="line2d_67">
    <path d="M 524.602328 180.410494 
L 532.972328 180.410494 
" clip-path="url(#p45d0fc81e2)" style="fill: none; stroke: #363636; stroke-linecap: round"/>
   </g>
   <g id="line2d_68">
    <path d="M 524.602328 170.41023 
L 532.972328 170.41023 
" clip-path="url(#p45d0fc81e2)" style="fill: none; stroke: #363636; stroke-linecap: round"/>
   </g>
   <g id="line2d_69">
    <g clip-path="url(#p45d0fc81e2)">
     <use xlink:href="#me9134aafc6" x="528.787328" y="185.652681" style="fill-opacity: 0; stroke: #363636"/>
     <use xlink:href="#me9134aafc6" x="528.787328" y="160.409967" style="fill-opacity: 0; stroke: #363636"/>
     <use xlink:href="#me9134aafc6" x="528.787328" y="159.471558" style="fill-opacity: 0; stroke: #363636"/>
    </g>
   </g>
   <g id="patch_14">
    <path d="M 576.217328 128.929031 
L 592.957328 128.929031 
L 592.957328 113.846465 
L 576.217328 113.846465 
L 576.217328 128.929031 
z
" clip-path="url(#p45d0fc81e2)" style="fill: #176d9c; stroke: #363636; stroke-linejoin: miter"/>
   </g>
   <g id="line2d_70">
    <path d="M 584.587328 128.929031 
L 584.587328 130.764629 
" clip-path="url(#p45d0fc81e2)" style="fill: none; stroke: #363636"/>
   </g>
   <g id="line2d_71">
    <path d="M 584.587328 113.846465 
L 584.587328 111.468665 
" clip-path="url(#p45d0fc81e2)" style="fill: none; stroke: #363636"/>
   </g>
   <g id="line2d_72">
    <path d="M 580.402328 130.764629 
L 588.772328 130.764629 
" clip-path="url(#p45d0fc81e2)" style="fill: none; stroke: #363636; stroke-linecap: round"/>
   </g>
   <g id="line2d_73">
    <path d="M 580.402328 111.468665 
L 588.772328 111.468665 
" clip-path="url(#p45d0fc81e2)" style="fill: none; stroke: #363636; stroke-linecap: round"/>
   </g>
   <g id="line2d_74"/>
   <g id="patch_15">
    <path d="M 632.017328 234.178403 
L 648.757328 234.178403 
L 648.757328 227.396007 
L 632.017328 227.396007 
L 632.017328 234.178403 
z
" clip-path="url(#p45d0fc81e2)" style="fill: #176d9c; stroke: #363636; stroke-linejoin: miter"/>
   </g>
   <g id="line2d_75">
    <path d="M 640.387328 234.178403 
L 640.387328 239.051497 
" clip-path="url(#p45d0fc81e2)" style="fill: none; stroke: #363636"/>
   </g>
   <g id="line2d_76">
    <path d="M 640.387328 227.396007 
L 640.387328 219.550004 
" clip-path="url(#p45d0fc81e2)" style="fill: none; stroke: #363636"/>
   </g>
   <g id="line2d_77">
    <path d="M 636.202328 239.051497 
L 644.572328 239.051497 
" clip-path="url(#p45d0fc81e2)" style="fill: none; stroke: #363636; stroke-linecap: round"/>
   </g>
   <g id="line2d_78">
    <path d="M 636.202328 219.550004 
L 644.572328 219.550004 
" clip-path="url(#p45d0fc81e2)" style="fill: none; stroke: #363636; stroke-linecap: round"/>
   </g>
   <g id="line2d_79"/>
   <g id="patch_16">
    <path d="M 687.817328 289.341937 
L 704.557328 289.341937 
L 704.557328 289.341937 
L 687.817328 289.341937 
L 687.817328 289.341937 
z
" clip-path="url(#p45d0fc81e2)" style="fill: #176d9c; stroke: #363636; stroke-linejoin: miter"/>
   </g>
   <g id="line2d_80">
    <path d="M 696.187328 289.341937 
L 696.187328 289.341937 
" clip-path="url(#p45d0fc81e2)" style="fill: none; stroke: #363636"/>
   </g>
   <g id="line2d_81">
    <path d="M 696.187328 289.341937 
L 696.187328 289.341937 
" clip-path="url(#p45d0fc81e2)" style="fill: none; stroke: #363636"/>
   </g>
   <g id="line2d_82">
    <path d="M 692.002328 289.341937 
L 700.372328 289.341937 
" clip-path="url(#p45d0fc81e2)" style="fill: none; stroke: #363636; stroke-linecap: round"/>
   </g>
   <g id="line2d_83">
    <path d="M 692.002328 289.341937 
L 700.372328 289.341937 
" clip-path="url(#p45d0fc81e2)" style="fill: none; stroke: #363636; stroke-linecap: round"/>
   </g>
   <g id="line2d_84"/>
   <g id="patch_17">
    <path d="M 743.617328 289.341937 
L 760.357328 289.341937 
L 760.357328 289.341937 
L 743.617328 289.341937 
L 743.617328 289.341937 
z
" clip-path="url(#p45d0fc81e2)" style="fill: #176d9c; stroke: #363636; stroke-linejoin: miter"/>
   </g>
   <g id="line2d_85">
    <path d="M 751.987328 289.341937 
L 751.987328 289.341937 
" clip-path="url(#p45d0fc81e2)" style="fill: none; stroke: #363636"/>
   </g>
   <g id="line2d_86">
    <path d="M 751.987328 289.341937 
L 751.987328 289.341937 
" clip-path="url(#p45d0fc81e2)" style="fill: none; stroke: #363636"/>
   </g>
   <g id="line2d_87">
    <path d="M 747.802328 289.341937 
L 756.172328 289.341937 
" clip-path="url(#p45d0fc81e2)" style="fill: none; stroke: #363636; stroke-linecap: round"/>
   </g>
   <g id="line2d_88">
    <path d="M 747.802328 289.341937 
L 756.172328 289.341937 
" clip-path="url(#p45d0fc81e2)" style="fill: none; stroke: #363636; stroke-linecap: round"/>
   </g>
   <g id="line2d_89"/>
   <g id="patch_18">
    <path d="M 799.417328 214.769986 
L 816.157328 214.769986 
L 816.157328 201.423676 
L 799.417328 201.423676 
L 799.417328 214.769986 
z
" clip-path="url(#p45d0fc81e2)" style="fill: #176d9c; stroke: #363636; stroke-linejoin: miter"/>
   </g>
   <g id="line2d_90">
    <path d="M 807.787328 214.769986 
L 807.787328 222.615287 
" clip-path="url(#p45d0fc81e2)" style="fill: none; stroke: #363636"/>
   </g>
   <g id="line2d_91">
    <path d="M 807.787328 201.423676 
L 807.787328 196.394691 
" clip-path="url(#p45d0fc81e2)" style="fill: none; stroke: #363636"/>
   </g>
   <g id="line2d_92">
    <path d="M 803.602328 222.615287 
L 811.972328 222.615287 
" clip-path="url(#p45d0fc81e2)" style="fill: none; stroke: #363636; stroke-linecap: round"/>
   </g>
   <g id="line2d_93">
    <path d="M 803.602328 196.394691 
L 811.972328 196.394691 
" clip-path="url(#p45d0fc81e2)" style="fill: none; stroke: #363636; stroke-linecap: round"/>
   </g>
   <g id="line2d_94"/>
   <g id="patch_19">
    <path d="M 855.217328 235.223232 
L 871.957328 235.223232 
L 871.957328 230.52467 
L 855.217328 230.52467 
L 855.217328 235.223232 
z
" clip-path="url(#p45d0fc81e2)" style="fill: #176d9c; stroke: #363636; stroke-linejoin: miter"/>
   </g>
   <g id="line2d_95">
    <path d="M 863.587328 235.223232 
L 863.587328 237.869564 
" clip-path="url(#p45d0fc81e2)" style="fill: none; stroke: #363636"/>
   </g>
   <g id="line2d_96">
    <path d="M 863.587328 230.52467 
L 863.587328 230.174639 
" clip-path="url(#p45d0fc81e2)" style="fill: none; stroke: #363636"/>
   </g>
   <g id="line2d_97">
    <path d="M 859.402328 237.869564 
L 867.772328 237.869564 
" clip-path="url(#p45d0fc81e2)" style="fill: none; stroke: #363636; stroke-linecap: round"/>
   </g>
   <g id="line2d_98">
    <path d="M 859.402328 230.174639 
L 867.772328 230.174639 
" clip-path="url(#p45d0fc81e2)" style="fill: none; stroke: #363636; stroke-linecap: round"/>
   </g>
   <g id="line2d_99"/>
   <g id="patch_20">
    <path d="M 911.017328 219.470858 
L 927.757328 219.470858 
L 927.757328 202.914496 
L 911.017328 202.914496 
L 911.017328 219.470858 
z
" clip-path="url(#p45d0fc81e2)" style="fill: #176d9c; stroke: #363636; stroke-linejoin: miter"/>
   </g>
   <g id="line2d_100">
    <path d="M 919.387328 219.470858 
L 919.387328 226.413188 
" clip-path="url(#p45d0fc81e2)" style="fill: none; stroke: #363636"/>
   </g>
   <g id="line2d_101">
    <path d="M 919.387328 202.914496 
L 919.387328 197.489549 
" clip-path="url(#p45d0fc81e2)" style="fill: none; stroke: #363636"/>
   </g>
   <g id="line2d_102">
    <path d="M 915.202328 226.413188 
L 923.572328 226.413188 
" clip-path="url(#p45d0fc81e2)" style="fill: none; stroke: #363636; stroke-linecap: round"/>
   </g>
   <g id="line2d_103">
    <path d="M 915.202328 197.489549 
L 923.572328 197.489549 
" clip-path="url(#p45d0fc81e2)" style="fill: none; stroke: #363636; stroke-linecap: round"/>
   </g>
   <g id="line2d_104"/>
   <g id="patch_21">
    <path d="M 966.817328 261.44582 
L 983.557328 261.44582 
L 983.557328 261.44582 
L 966.817328 261.44582 
L 966.817328 261.44582 
z
" clip-path="url(#p45d0fc81e2)" style="fill: #176d9c; stroke: #363636; stroke-linejoin: miter"/>
   </g>
   <g id="line2d_105">
    <path d="M 975.187328 261.44582 
L 975.187328 261.44582 
" clip-path="url(#p45d0fc81e2)" style="fill: none; stroke: #363636"/>
   </g>
   <g id="line2d_106">
    <path d="M 975.187328 261.44582 
L 975.187328 261.44582 
" clip-path="url(#p45d0fc81e2)" style="fill: none; stroke: #363636"/>
   </g>
   <g id="line2d_107">
    <path d="M 971.002328 261.44582 
L 979.372328 261.44582 
" clip-path="url(#p45d0fc81e2)" style="fill: none; stroke: #363636; stroke-linecap: round"/>
   </g>
   <g id="line2d_108">
    <path d="M 971.002328 261.44582 
L 979.372328 261.44582 
" clip-path="url(#p45d0fc81e2)" style="fill: none; stroke: #363636; stroke-linecap: round"/>
   </g>
   <g id="line2d_109">
    <g clip-path="url(#p45d0fc81e2)">
     <use xlink:href="#me9134aafc6" x="975.187328" y="292.131549" style="fill-opacity: 0; stroke: #363636"/>
     <use xlink:href="#me9134aafc6" x="975.187328" y="292.131549" style="fill-opacity: 0; stroke: #363636"/>
     <use xlink:href="#me9134aafc6" x="975.187328" y="216.812032" style="fill-opacity: 0; stroke: #363636"/>
     <use xlink:href="#me9134aafc6" x="975.187328" y="216.812032" style="fill-opacity: 0; stroke: #363636"/>
    </g>
   </g>
   <g id="patch_22">
    <path d="M 90.757328 210.538912 
L 107.497328 210.538912 
L 107.497328 201.64001 
L 90.757328 201.64001 
L 90.757328 210.538912 
z
" clip-path="url(#p45d0fc81e2)" style="fill: #c38820; stroke: #363636; stroke-linejoin: miter"/>
   </g>
   <g id="line2d_110">
    <path d="M 99.127328 210.538912 
L 99.127328 210.538912 
" clip-path="url(#p45d0fc81e2)" style="fill: none; stroke: #363636"/>
   </g>
   <g id="line2d_111">
    <path d="M 99.127328 201.64001 
L 99.127328 201.64001 
" clip-path="url(#p45d0fc81e2)" style="fill: none; stroke: #363636"/>
   </g>
   <g id="line2d_112">
    <path d="M 94.942328 210.538912 
L 103.312328 210.538912 
" clip-path="url(#p45d0fc81e2)" style="fill: none; stroke: #363636; stroke-linecap: round"/>
   </g>
   <g id="line2d_113">
    <path d="M 94.942328 201.64001 
L 103.312328 201.64001 
" clip-path="url(#p45d0fc81e2)" style="fill: none; stroke: #363636; stroke-linecap: round"/>
   </g>
   <g id="line2d_114">
    <g clip-path="url(#p45d0fc81e2)">
     <use xlink:href="#me9134aafc6" x="99.127328" y="177.923922" style="fill-opacity: 0; stroke: #363636"/>
     <use xlink:href="#me9134aafc6" x="99.127328" y="177.923922" style="fill-opacity: 0; stroke: #363636"/>
    </g>
   </g>
   <g id="patch_23">
    <path d="M 146.557328 238.850736 
L 163.297328 238.850736 
L 163.297328 223.919743 
L 146.557328 223.919743 
L 146.557328 238.850736 
z
" clip-path="url(#p45d0fc81e2)" style="fill: #c38820; stroke: #363636; stroke-linejoin: miter"/>
   </g>
   <g id="line2d_115">
    <path d="M 154.927328 238.850736 
L 154.927328 245.593394 
" clip-path="url(#p45d0fc81e2)" style="fill: none; stroke: #363636"/>
   </g>
   <g id="line2d_116">
    <path d="M 154.927328 223.919743 
L 154.927328 222.020335 
" clip-path="url(#p45d0fc81e2)" style="fill: none; stroke: #363636"/>
   </g>
   <g id="line2d_117">
    <path d="M 150.742328 245.593394 
L 159.112328 245.593394 
" clip-path="url(#p45d0fc81e2)" style="fill: none; stroke: #363636; stroke-linecap: round"/>
   </g>
   <g id="line2d_118">
    <path d="M 150.742328 222.020335 
L 159.112328 222.020335 
" clip-path="url(#p45d0fc81e2)" style="fill: none; stroke: #363636; stroke-linecap: round"/>
   </g>
   <g id="line2d_119"/>
   <g id="patch_24">
    <path d="M 202.357328 289.341937 
L 219.097328 289.341937 
L 219.097328 289.341937 
L 202.357328 289.341937 
L 202.357328 289.341937 
z
" clip-path="url(#p45d0fc81e2)" style="fill: #c38820; stroke: #363636; stroke-linejoin: miter"/>
   </g>
   <g id="line2d_120">
    <path d="M 210.727328 289.341937 
L 210.727328 289.341937 
" clip-path="url(#p45d0fc81e2)" style="fill: none; stroke: #363636"/>
   </g>
   <g id="line2d_121">
    <path d="M 210.727328 289.341937 
L 210.727328 289.341937 
" clip-path="url(#p45d0fc81e2)" style="fill: none; stroke: #363636"/>
   </g>
   <g id="line2d_122">
    <path d="M 206.542328 289.341937 
L 214.912328 289.341937 
" clip-path="url(#p45d0fc81e2)" style="fill: none; stroke: #363636; stroke-linecap: round"/>
   </g>
   <g id="line2d_123">
    <path d="M 206.542328 289.341937 
L 214.912328 289.341937 
" clip-path="url(#p45d0fc81e2)" style="fill: none; stroke: #363636; stroke-linecap: round"/>
   </g>
   <g id="line2d_124"/>
   <g id="patch_25">
    <path d="M 258.157328 165.814113 
L 274.897328 165.814113 
L 274.897328 159.423945 
L 258.157328 159.423945 
L 258.157328 165.814113 
z
" clip-path="url(#p45d0fc81e2)" style="fill: #c38820; stroke: #363636; stroke-linejoin: miter"/>
   </g>
   <g id="line2d_125">
    <path d="M 266.527328 165.814113 
L 266.527328 169.459882 
" clip-path="url(#p45d0fc81e2)" style="fill: none; stroke: #363636"/>
   </g>
   <g id="line2d_126">
    <path d="M 266.527328 159.423945 
L 266.527328 154.929237 
" clip-path="url(#p45d0fc81e2)" style="fill: none; stroke: #363636"/>
   </g>
   <g id="line2d_127">
    <path d="M 262.342328 169.459882 
L 270.712328 169.459882 
" clip-path="url(#p45d0fc81e2)" style="fill: none; stroke: #363636; stroke-linecap: round"/>
   </g>
   <g id="line2d_128">
    <path d="M 262.342328 154.929237 
L 270.712328 154.929237 
" clip-path="url(#p45d0fc81e2)" style="fill: none; stroke: #363636; stroke-linecap: round"/>
   </g>
   <g id="line2d_129"/>
   <g id="patch_26">
    <path d="M 313.957328 55.946274 
L 330.697328 55.946274 
L 330.697328 55.946274 
L 313.957328 55.946274 
L 313.957328 55.946274 
z
" clip-path="url(#p45d0fc81e2)" style="fill: #c38820; stroke: #363636; stroke-linejoin: miter"/>
   </g>
   <g id="line2d_130">
    <path d="M 322.327328 55.946274 
L 322.327328 55.946274 
" clip-path="url(#p45d0fc81e2)" style="fill: none; stroke: #363636"/>
   </g>
   <g id="line2d_131">
    <path d="M 322.327328 55.946274 
L 322.327328 55.946274 
" clip-path="url(#p45d0fc81e2)" style="fill: none; stroke: #363636"/>
   </g>
   <g id="line2d_132">
    <path d="M 318.142328 55.946274 
L 326.512328 55.946274 
" clip-path="url(#p45d0fc81e2)" style="fill: none; stroke: #363636; stroke-linecap: round"/>
   </g>
   <g id="line2d_133">
    <path d="M 318.142328 55.946274 
L 326.512328 55.946274 
" clip-path="url(#p45d0fc81e2)" style="fill: none; stroke: #363636; stroke-linecap: round"/>
   </g>
   <g id="line2d_134"/>
   <g id="patch_27">
    <path d="M 369.757328 173.739123 
L 386.497328 173.739123 
L 386.497328 167.940677 
L 369.757328 167.940677 
L 369.757328 173.739123 
z
" clip-path="url(#p45d0fc81e2)" style="fill: #c38820; stroke: #363636; stroke-linejoin: miter"/>
   </g>
   <g id="line2d_135">
    <path d="M 378.127328 173.739123 
L 378.127328 179.029459 
" clip-path="url(#p45d0fc81e2)" style="fill: none; stroke: #363636"/>
   </g>
   <g id="line2d_136">
    <path d="M 378.127328 167.940677 
L 378.127328 160.634028 
" clip-path="url(#p45d0fc81e2)" style="fill: none; stroke: #363636"/>
   </g>
   <g id="line2d_137">
    <path d="M 373.942328 179.029459 
L 382.312328 179.029459 
" clip-path="url(#p45d0fc81e2)" style="fill: none; stroke: #363636; stroke-linecap: round"/>
   </g>
   <g id="line2d_138">
    <path d="M 373.942328 160.634028 
L 382.312328 160.634028 
" clip-path="url(#p45d0fc81e2)" style="fill: none; stroke: #363636; stroke-linecap: round"/>
   </g>
   <g id="line2d_139">
    <g clip-path="url(#p45d0fc81e2)">
     <use xlink:href="#me9134aafc6" x="378.127328" y="188.107744" style="fill-opacity: 0; stroke: #363636"/>
    </g>
   </g>
   <g id="patch_28">
    <path d="M 425.557328 168.851058 
L 442.297328 168.851058 
L 442.297328 163.729231 
L 425.557328 163.729231 
L 425.557328 168.851058 
z
" clip-path="url(#p45d0fc81e2)" style="fill: #c38820; stroke: #363636; stroke-linejoin: miter"/>
   </g>
   <g id="line2d_140">
    <path d="M 433.927328 168.851058 
L 433.927328 170.880339 
" clip-path="url(#p45d0fc81e2)" style="fill: none; stroke: #363636"/>
   </g>
   <g id="line2d_141">
    <path d="M 433.927328 163.729231 
L 433.927328 162.039229 
" clip-path="url(#p45d0fc81e2)" style="fill: none; stroke: #363636"/>
   </g>
   <g id="line2d_142">
    <path d="M 429.742328 170.880339 
L 438.112328 170.880339 
" clip-path="url(#p45d0fc81e2)" style="fill: none; stroke: #363636; stroke-linecap: round"/>
   </g>
   <g id="line2d_143">
    <path d="M 429.742328 162.039229 
L 438.112328 162.039229 
" clip-path="url(#p45d0fc81e2)" style="fill: none; stroke: #363636; stroke-linecap: round"/>
   </g>
   <g id="line2d_144"/>
   <g id="patch_29">
    <path d="M 481.357328 126.971163 
L 498.097328 126.971163 
L 498.097328 120.047975 
L 481.357328 120.047975 
L 481.357328 126.971163 
z
" clip-path="url(#p45d0fc81e2)" style="fill: #c38820; stroke: #363636; stroke-linejoin: miter"/>
   </g>
   <g id="line2d_145">
    <path d="M 489.727328 126.971163 
L 489.727328 133.247453 
" clip-path="url(#p45d0fc81e2)" style="fill: none; stroke: #363636"/>
   </g>
   <g id="line2d_146">
    <path d="M 489.727328 120.047975 
L 489.727328 118.800383 
" clip-path="url(#p45d0fc81e2)" style="fill: none; stroke: #363636"/>
   </g>
   <g id="line2d_147">
    <path d="M 485.542328 133.247453 
L 493.912328 133.247453 
" clip-path="url(#p45d0fc81e2)" style="fill: none; stroke: #363636; stroke-linecap: round"/>
   </g>
   <g id="line2d_148">
    <path d="M 485.542328 118.800383 
L 493.912328 118.800383 
" clip-path="url(#p45d0fc81e2)" style="fill: none; stroke: #363636; stroke-linecap: round"/>
   </g>
   <g id="line2d_149"/>
   <g id="patch_30">
    <path d="M 537.157328 169.951301 
L 553.897328 169.951301 
L 553.897328 157.278877 
L 537.157328 157.278877 
L 537.157328 169.951301 
z
" clip-path="url(#p45d0fc81e2)" style="fill: #c38820; stroke: #363636; stroke-linejoin: miter"/>
   </g>
   <g id="line2d_150">
    <path d="M 545.527328 169.951301 
L 545.527328 183.988268 
" clip-path="url(#p45d0fc81e2)" style="fill: none; stroke: #363636"/>
   </g>
   <g id="line2d_151">
    <path d="M 545.527328 157.278877 
L 545.527328 143.453852 
" clip-path="url(#p45d0fc81e2)" style="fill: none; stroke: #363636"/>
   </g>
   <g id="line2d_152">
    <path d="M 541.342328 183.988268 
L 549.712328 183.988268 
" clip-path="url(#p45d0fc81e2)" style="fill: none; stroke: #363636; stroke-linecap: round"/>
   </g>
   <g id="line2d_153">
    <path d="M 541.342328 143.453852 
L 549.712328 143.453852 
" clip-path="url(#p45d0fc81e2)" style="fill: none; stroke: #363636; stroke-linecap: round"/>
   </g>
   <g id="line2d_154"/>
   <g id="patch_31">
    <path d="M 592.957328 171.426331 
L 609.697328 171.426331 
L 609.697328 151.445966 
L 592.957328 151.445966 
L 592.957328 171.426331 
z
" clip-path="url(#p45d0fc81e2)" style="fill: #c38820; stroke: #363636; stroke-linejoin: miter"/>
   </g>
   <g id="line2d_155">
    <path d="M 601.327328 171.426331 
L 601.327328 174.384268 
" clip-path="url(#p45d0fc81e2)" style="fill: none; stroke: #363636"/>
   </g>
   <g id="line2d_156">
    <path d="M 601.327328 151.445966 
L 601.327328 151.445966 
" clip-path="url(#p45d0fc81e2)" style="fill: none; stroke: #363636"/>
   </g>
   <g id="line2d_157">
    <path d="M 597.142328 174.384268 
L 605.512328 174.384268 
" clip-path="url(#p45d0fc81e2)" style="fill: none; stroke: #363636; stroke-linecap: round"/>
   </g>
   <g id="line2d_158">
    <path d="M 597.142328 151.445966 
L 605.512328 151.445966 
" clip-path="url(#p45d0fc81e2)" style="fill: none; stroke: #363636; stroke-linecap: round"/>
   </g>
   <g id="line2d_159"/>
   <g id="patch_32">
    <path d="M 648.757328 255.814977 
L 665.497328 255.814977 
L 665.497328 255.814977 
L 648.757328 255.814977 
L 648.757328 255.814977 
z
" clip-path="url(#p45d0fc81e2)" style="fill: #c38820; stroke: #363636; stroke-linejoin: miter"/>
   </g>
   <g id="line2d_160">
    <path d="M 657.127328 255.814977 
L 657.127328 255.814977 
" clip-path="url(#p45d0fc81e2)" style="fill: none; stroke: #363636"/>
   </g>
   <g id="line2d_161">
    <path d="M 657.127328 255.814977 
L 657.127328 255.814977 
" clip-path="url(#p45d0fc81e2)" style="fill: none; stroke: #363636"/>
   </g>
   <g id="line2d_162">
    <path d="M 652.942328 255.814977 
L 661.312328 255.814977 
" clip-path="url(#p45d0fc81e2)" style="fill: none; stroke: #363636; stroke-linecap: round"/>
   </g>
   <g id="line2d_163">
    <path d="M 652.942328 255.814977 
L 661.312328 255.814977 
" clip-path="url(#p45d0fc81e2)" style="fill: none; stroke: #363636; stroke-linecap: round"/>
   </g>
   <g id="line2d_164">
    <g clip-path="url(#p45d0fc81e2)">
     <use xlink:href="#me9134aafc6" x="657.127328" y="260.701793" style="fill-opacity: 0; stroke: #363636"/>
     <use xlink:href="#me9134aafc6" x="657.127328" y="260.701793" style="fill-opacity: 0; stroke: #363636"/>
     <use xlink:href="#me9134aafc6" x="657.127328" y="251.325937" style="fill-opacity: 0; stroke: #363636"/>
     <use xlink:href="#me9134aafc6" x="657.127328" y="251.325937" style="fill-opacity: 0; stroke: #363636"/>
    </g>
   </g>
   <g id="patch_33">
    <path d="M 704.557328 289.341937 
L 721.297328 289.341937 
L 721.297328 289.341937 
L 704.557328 289.341937 
L 704.557328 289.341937 
z
" clip-path="url(#p45d0fc81e2)" style="fill: #c38820; stroke: #363636; stroke-linejoin: miter"/>
   </g>
   <g id="line2d_165">
    <path d="M 712.927328 289.341937 
L 712.927328 289.341937 
" clip-path="url(#p45d0fc81e2)" style="fill: none; stroke: #363636"/>
   </g>
   <g id="line2d_166">
    <path d="M 712.927328 289.341937 
L 712.927328 289.341937 
" clip-path="url(#p45d0fc81e2)" style="fill: none; stroke: #363636"/>
   </g>
   <g id="line2d_167">
    <path d="M 708.742328 289.341937 
L 717.112328 289.341937 
" clip-path="url(#p45d0fc81e2)" style="fill: none; stroke: #363636; stroke-linecap: round"/>
   </g>
   <g id="line2d_168">
    <path d="M 708.742328 289.341937 
L 717.112328 289.341937 
" clip-path="url(#p45d0fc81e2)" style="fill: none; stroke: #363636; stroke-linecap: round"/>
   </g>
   <g id="line2d_169"/>
   <g id="patch_34">
    <path d="M 760.357328 289.341937 
L 777.097328 289.341937 
L 777.097328 289.341937 
L 760.357328 289.341937 
L 760.357328 289.341937 
z
" clip-path="url(#p45d0fc81e2)" style="fill: #c38820; stroke: #363636; stroke-linejoin: miter"/>
   </g>
   <g id="line2d_170">
    <path d="M 768.727328 289.341937 
L 768.727328 289.341937 
" clip-path="url(#p45d0fc81e2)" style="fill: none; stroke: #363636"/>
   </g>
   <g id="line2d_171">
    <path d="M 768.727328 289.341937 
L 768.727328 289.341937 
" clip-path="url(#p45d0fc81e2)" style="fill: none; stroke: #363636"/>
   </g>
   <g id="line2d_172">
    <path d="M 764.542328 289.341937 
L 772.912328 289.341937 
" clip-path="url(#p45d0fc81e2)" style="fill: none; stroke: #363636; stroke-linecap: round"/>
   </g>
   <g id="line2d_173">
    <path d="M 764.542328 289.341937 
L 772.912328 289.341937 
" clip-path="url(#p45d0fc81e2)" style="fill: none; stroke: #363636; stroke-linecap: round"/>
   </g>
   <g id="line2d_174"/>
   <g id="patch_35">
    <path d="M 816.157328 232.063577 
L 832.897328 232.063577 
L 832.897328 218.813954 
L 816.157328 218.813954 
L 816.157328 232.063577 
z
" clip-path="url(#p45d0fc81e2)" style="fill: #c38820; stroke: #363636; stroke-linejoin: miter"/>
   </g>
   <g id="line2d_175">
    <path d="M 824.527328 232.063577 
L 824.527328 238.387765 
" clip-path="url(#p45d0fc81e2)" style="fill: none; stroke: #363636"/>
   </g>
   <g id="line2d_176">
    <path d="M 824.527328 218.813954 
L 824.527328 212.992089 
" clip-path="url(#p45d0fc81e2)" style="fill: none; stroke: #363636"/>
   </g>
   <g id="line2d_177">
    <path d="M 820.342328 238.387765 
L 828.712328 238.387765 
" clip-path="url(#p45d0fc81e2)" style="fill: none; stroke: #363636; stroke-linecap: round"/>
   </g>
   <g id="line2d_178">
    <path d="M 820.342328 212.992089 
L 828.712328 212.992089 
" clip-path="url(#p45d0fc81e2)" style="fill: none; stroke: #363636; stroke-linecap: round"/>
   </g>
   <g id="line2d_179"/>
   <g id="patch_36">
    <path d="M 871.957328 240.480562 
L 888.697328 240.480562 
L 888.697328 231.229167 
L 871.957328 231.229167 
L 871.957328 240.480562 
z
" clip-path="url(#p45d0fc81e2)" style="fill: #c38820; stroke: #363636; stroke-linejoin: miter"/>
   </g>
   <g id="line2d_180">
    <path d="M 880.327328 240.480562 
L 880.327328 242.818068 
" clip-path="url(#p45d0fc81e2)" style="fill: none; stroke: #363636"/>
   </g>
   <g id="line2d_181">
    <path d="M 880.327328 231.229167 
L 880.327328 224.1977 
" clip-path="url(#p45d0fc81e2)" style="fill: none; stroke: #363636"/>
   </g>
   <g id="line2d_182">
    <path d="M 876.142328 242.818068 
L 884.512328 242.818068 
" clip-path="url(#p45d0fc81e2)" style="fill: none; stroke: #363636; stroke-linecap: round"/>
   </g>
   <g id="line2d_183">
    <path d="M 876.142328 224.1977 
L 884.512328 224.1977 
" clip-path="url(#p45d0fc81e2)" style="fill: none; stroke: #363636; stroke-linecap: round"/>
   </g>
   <g id="line2d_184"/>
   <g id="patch_37">
    <path d="M 927.757328 223.253415 
L 944.497328 223.253415 
L 944.497328 207.093005 
L 927.757328 207.093005 
L 927.757328 223.253415 
z
" clip-path="url(#p45d0fc81e2)" style="fill: #c38820; stroke: #363636; stroke-linejoin: miter"/>
   </g>
   <g id="line2d_185">
    <path d="M 936.127328 223.253415 
L 936.127328 229.688644 
" clip-path="url(#p45d0fc81e2)" style="fill: none; stroke: #363636"/>
   </g>
   <g id="line2d_186">
    <path d="M 936.127328 207.093005 
L 936.127328 200.987531 
" clip-path="url(#p45d0fc81e2)" style="fill: none; stroke: #363636"/>
   </g>
   <g id="line2d_187">
    <path d="M 931.942328 229.688644 
L 940.312328 229.688644 
" clip-path="url(#p45d0fc81e2)" style="fill: none; stroke: #363636; stroke-linecap: round"/>
   </g>
   <g id="line2d_188">
    <path d="M 931.942328 200.987531 
L 940.312328 200.987531 
" clip-path="url(#p45d0fc81e2)" style="fill: none; stroke: #363636; stroke-linecap: round"/>
   </g>
   <g id="line2d_189"/>
   <g id="patch_38">
    <path d="M 983.557328 289.341937 
L 1000.297328 289.341937 
L 1000.297328 289.341937 
L 983.557328 289.341937 
L 983.557328 289.341937 
z
" clip-path="url(#p45d0fc81e2)" style="fill: #c38820; stroke: #363636; stroke-linejoin: miter"/>
   </g>
   <g id="line2d_190">
    <path d="M 991.927328 289.341937 
L 991.927328 289.341937 
" clip-path="url(#p45d0fc81e2)" style="fill: none; stroke: #363636"/>
   </g>
   <g id="line2d_191">
    <path d="M 991.927328 289.341937 
L 991.927328 289.341937 
" clip-path="url(#p45d0fc81e2)" style="fill: none; stroke: #363636"/>
   </g>
   <g id="line2d_192">
    <path d="M 987.742328 289.341937 
L 996.112328 289.341937 
" clip-path="url(#p45d0fc81e2)" style="fill: none; stroke: #363636; stroke-linecap: round"/>
   </g>
   <g id="line2d_193">
    <path d="M 987.742328 289.341937 
L 996.112328 289.341937 
" clip-path="url(#p45d0fc81e2)" style="fill: none; stroke: #363636; stroke-linecap: round"/>
   </g>
   <g id="line2d_194">
    <g clip-path="url(#p45d0fc81e2)">
     <use xlink:href="#me9134aafc6" x="991.927328" y="343.500874" style="fill-opacity: 0; stroke: #363636"/>
     <use xlink:href="#me9134aafc6" x="991.927328" y="343.500874" style="fill-opacity: 0; stroke: #363636"/>
     <use xlink:href="#me9134aafc6" x="991.927328" y="239.051497" style="fill-opacity: 0; stroke: #363636"/>
    </g>
   </g>
   <g id="line2d_195">
    <path d="M 74.017328 171.996394 
L 90.757328 171.996394 
" clip-path="url(#p45d0fc81e2)" style="fill: none; stroke: #363636"/>
   </g>
   <g id="line2d_196">
    <path d="M 129.817328 232.606668 
L 146.557328 232.606668 
" clip-path="url(#p45d0fc81e2)" style="fill: none; stroke: #363636"/>
   </g>
   <g id="line2d_197">
    <path d="M 185.617328 289.341937 
L 202.357328 289.341937 
" clip-path="url(#p45d0fc81e2)" style="fill: none; stroke: #363636"/>
   </g>
   <g id="line2d_198">
    <path d="M 241.417328 139.289316 
L 258.157328 139.289316 
" clip-path="url(#p45d0fc81e2)" style="fill: none; stroke: #363636"/>
   </g>
   <g id="line2d_199">
    <path d="M 297.217328 55.946274 
L 313.957328 55.946274 
" clip-path="url(#p45d0fc81e2)" style="fill: none; stroke: #363636"/>
   </g>
   <g id="line2d_200">
    <path d="M 353.017328 149.938612 
L 369.757328 149.938612 
" clip-path="url(#p45d0fc81e2)" style="fill: none; stroke: #363636"/>
   </g>
   <g id="line2d_201">
    <path d="M 408.817328 151.446375 
L 425.557328 151.446375 
" clip-path="url(#p45d0fc81e2)" style="fill: none; stroke: #363636"/>
   </g>
   <g id="line2d_202">
    <path d="M 464.617328 139.864623 
L 481.357328 139.864623 
" clip-path="url(#p45d0fc81e2)" style="fill: none; stroke: #363636"/>
   </g>
   <g id="line2d_203">
    <path d="M 520.417328 173.364177 
L 537.157328 173.364177 
" clip-path="url(#p45d0fc81e2)" style="fill: none; stroke: #363636"/>
   </g>
   <g id="line2d_204">
    <path d="M 576.217328 120.979865 
L 592.957328 120.979865 
" clip-path="url(#p45d0fc81e2)" style="fill: none; stroke: #363636"/>
   </g>
   <g id="line2d_205">
    <path d="M 632.017328 227.396007 
L 648.757328 227.396007 
" clip-path="url(#p45d0fc81e2)" style="fill: none; stroke: #363636"/>
   </g>
   <g id="line2d_206">
    <path d="M 687.817328 289.341937 
L 704.557328 289.341937 
" clip-path="url(#p45d0fc81e2)" style="fill: none; stroke: #363636"/>
   </g>
   <g id="line2d_207">
    <path d="M 743.617328 289.341937 
L 760.357328 289.341937 
" clip-path="url(#p45d0fc81e2)" style="fill: none; stroke: #363636"/>
   </g>
   <g id="line2d_208">
    <path d="M 799.417328 206.52993 
L 816.157328 206.52993 
" clip-path="url(#p45d0fc81e2)" style="fill: none; stroke: #363636"/>
   </g>
   <g id="line2d_209">
    <path d="M 855.217328 232.091431 
L 871.957328 232.091431 
" clip-path="url(#p45d0fc81e2)" style="fill: none; stroke: #363636"/>
   </g>
   <g id="line2d_210">
    <path d="M 911.017328 210.97133 
L 927.757328 210.97133 
" clip-path="url(#p45d0fc81e2)" style="fill: none; stroke: #363636"/>
   </g>
   <g id="line2d_211">
    <path d="M 966.817328 261.44582 
L 983.557328 261.44582 
" clip-path="url(#p45d0fc81e2)" style="fill: none; stroke: #363636"/>
   </g>
   <g id="line2d_212">
    <path d="M 90.757328 201.64001 
L 107.497328 201.64001 
" clip-path="url(#p45d0fc81e2)" style="fill: none; stroke: #363636"/>
   </g>
   <g id="line2d_213">
    <path d="M 146.557328 230.421268 
L 163.297328 230.421268 
" clip-path="url(#p45d0fc81e2)" style="fill: none; stroke: #363636"/>
   </g>
   <g id="line2d_214">
    <path d="M 202.357328 289.341937 
L 219.097328 289.341937 
" clip-path="url(#p45d0fc81e2)" style="fill: none; stroke: #363636"/>
   </g>
   <g id="line2d_215">
    <path d="M 258.157328 162.179798 
L 274.897328 162.179798 
" clip-path="url(#p45d0fc81e2)" style="fill: none; stroke: #363636"/>
   </g>
   <g id="line2d_216">
    <path d="M 313.957328 55.946274 
L 330.697328 55.946274 
" clip-path="url(#p45d0fc81e2)" style="fill: none; stroke: #363636"/>
   </g>
   <g id="line2d_217">
    <path d="M 369.757328 171.98383 
L 386.497328 171.98383 
" clip-path="url(#p45d0fc81e2)" style="fill: none; stroke: #363636"/>
   </g>
   <g id="line2d_218">
    <path d="M 425.557328 164.565281 
L 442.297328 164.565281 
" clip-path="url(#p45d0fc81e2)" style="fill: none; stroke: #363636"/>
   </g>
   <g id="line2d_219">
    <path d="M 481.357328 122.543285 
L 498.097328 122.543285 
" clip-path="url(#p45d0fc81e2)" style="fill: none; stroke: #363636"/>
   </g>
   <g id="line2d_220">
    <path d="M 537.157328 166.818674 
L 553.897328 166.818674 
" clip-path="url(#p45d0fc81e2)" style="fill: none; stroke: #363636"/>
   </g>
   <g id="line2d_221">
    <path d="M 592.957328 162.552521 
L 609.697328 162.552521 
" clip-path="url(#p45d0fc81e2)" style="fill: none; stroke: #363636"/>
   </g>
   <g id="line2d_222">
    <path d="M 648.757328 255.814977 
L 665.497328 255.814977 
" clip-path="url(#p45d0fc81e2)" style="fill: none; stroke: #363636"/>
   </g>
   <g id="line2d_223">
    <path d="M 704.557328 289.341937 
L 721.297328 289.341937 
" clip-path="url(#p45d0fc81e2)" style="fill: none; stroke: #363636"/>
   </g>
   <g id="line2d_224">
    <path d="M 760.357328 289.341937 
L 777.097328 289.341937 
" clip-path="url(#p45d0fc81e2)" style="fill: none; stroke: #363636"/>
   </g>
   <g id="line2d_225">
    <path d="M 816.157328 224.930634 
L 832.897328 224.930634 
" clip-path="url(#p45d0fc81e2)" style="fill: none; stroke: #363636"/>
   </g>
   <g id="line2d_226">
    <path d="M 871.957328 236.669322 
L 888.697328 236.669322 
" clip-path="url(#p45d0fc81e2)" style="fill: none; stroke: #363636"/>
   </g>
   <g id="line2d_227">
    <path d="M 927.757328 218.101028 
L 944.497328 218.101028 
" clip-path="url(#p45d0fc81e2)" style="fill: none; stroke: #363636"/>
   </g>
   <g id="line2d_228">
    <path d="M 983.557328 289.341937 
L 1000.297328 289.341937 
" clip-path="url(#p45d0fc81e2)" style="fill: none; stroke: #363636"/>
   </g>
   <g id="patch_39">
    <path d="M 62.857328 355.869937 
L 62.857328 23.229937 
" style="fill: none; stroke: #262626; stroke-width: 1.25; stroke-linejoin: miter; stroke-linecap: square"/>
   </g>
   <g id="patch_40">
    <path d="M 1011.457328 355.869937 
L 1011.457328 23.229937 
" style="fill: none; stroke: #262626; stroke-width: 1.25; stroke-linejoin: miter; stroke-linecap: square"/>
   </g>
   <g id="patch_41">
    <path d="M 62.857328 355.869937 
L 1011.457328 355.869937 
" style="fill: none; stroke: #262626; stroke-width: 1.25; stroke-linejoin: miter; stroke-linecap: square"/>
   </g>
   <g id="patch_42">
    <path d="M 62.857328 23.229937 
L 1011.457328 23.229937 
" style="fill: none; stroke: #262626; stroke-width: 1.25; stroke-linejoin: miter; stroke-linecap: square"/>
   </g>
   <g id="text_27">
    <!-- Predicitve performance using logo cross-validation over the taxonomic profiles of all cohorts -->
    <g style="fill: #262626" transform="translate(232.528141 17.229937) scale(0.132 -0.132)">
     <defs>
      <path id="DejaVuSans-50" d="M 1259 4147 
L 1259 2394 
L 2053 2394 
Q 2494 2394 2734 2622 
Q 2975 2850 2975 3272 
Q 2975 3691 2734 3919 
Q 2494 4147 2053 4147 
L 1259 4147 
z
M 628 4666 
L 2053 4666 
Q 2838 4666 3239 4311 
Q 3641 3956 3641 3272 
Q 3641 2581 3239 2228 
Q 2838 1875 2053 1875 
L 1259 1875 
L 1259 0 
L 628 0 
L 628 4666 
z
" transform="scale(0.015625)"/>
      <path id="DejaVuSans-76" d="M 191 3500 
L 800 3500 
L 1894 563 
L 2988 3500 
L 3597 3500 
L 2284 0 
L 1503 0 
L 191 3500 
z
" transform="scale(0.015625)"/>
      <path id="DejaVuSans-20" transform="scale(0.015625)"/>
      <path id="DejaVuSans-66" d="M 2375 4863 
L 2375 4384 
L 1825 4384 
Q 1516 4384 1395 4259 
Q 1275 4134 1275 3809 
L 1275 3500 
L 2222 3500 
L 2222 3053 
L 1275 3053 
L 1275 0 
L 697 0 
L 697 3053 
L 147 3053 
L 147 3500 
L 697 3500 
L 697 3744 
Q 697 4328 969 4595 
Q 1241 4863 1831 4863 
L 2375 4863 
z
" transform="scale(0.015625)"/>
      <path id="DejaVuSans-67" d="M 2906 1791 
Q 2906 2416 2648 2759 
Q 2391 3103 1925 3103 
Q 1463 3103 1205 2759 
Q 947 2416 947 1791 
Q 947 1169 1205 825 
Q 1463 481 1925 481 
Q 2391 481 2648 825 
Q 2906 1169 2906 1791 
z
M 3481 434 
Q 3481 -459 3084 -895 
Q 2688 -1331 1869 -1331 
Q 1566 -1331 1297 -1286 
Q 1028 -1241 775 -1147 
L 775 -588 
Q 1028 -725 1275 -790 
Q 1522 -856 1778 -856 
Q 2344 -856 2625 -561 
Q 2906 -266 2906 331 
L 2906 616 
Q 2728 306 2450 153 
Q 2172 0 1784 0 
Q 1141 0 747 490 
Q 353 981 353 1791 
Q 353 2603 747 3093 
Q 1141 3584 1784 3584 
Q 2172 3584 2450 3431 
Q 2728 3278 2906 2969 
L 2906 3500 
L 3481 3500 
L 3481 434 
z
" transform="scale(0.015625)"/>
      <path id="DejaVuSans-2d" d="M 313 2009 
L 1997 2009 
L 1997 1497 
L 313 1497 
L 313 2009 
z
" transform="scale(0.015625)"/>
      <path id="DejaVuSans-78" d="M 3513 3500 
L 2247 1797 
L 3578 0 
L 2900 0 
L 1881 1375 
L 863 0 
L 184 0 
L 1544 1831 
L 300 3500 
L 978 3500 
L 1906 2253 
L 2834 3500 
L 3513 3500 
z
" transform="scale(0.015625)"/>
     </defs>
     <use xlink:href="#DejaVuSans-50"/>
     <use xlink:href="#DejaVuSans-72" transform="translate(58.552734 0)"/>
     <use xlink:href="#DejaVuSans-65" transform="translate(97.416016 0)"/>
     <use xlink:href="#DejaVuSans-64" transform="translate(158.939453 0)"/>
     <use xlink:href="#DejaVuSans-69" transform="translate(222.416016 0)"/>
     <use xlink:href="#DejaVuSans-63" transform="translate(250.199219 0)"/>
     <use xlink:href="#DejaVuSans-69" transform="translate(305.179688 0)"/>
     <use xlink:href="#DejaVuSans-74" transform="translate(332.962891 0)"/>
     <use xlink:href="#DejaVuSans-76" transform="translate(372.171875 0)"/>
     <use xlink:href="#DejaVuSans-65" transform="translate(431.351562 0)"/>
     <use xlink:href="#DejaVuSans-20" transform="translate(492.875 0)"/>
     <use xlink:href="#DejaVuSans-70" transform="translate(524.662109 0)"/>
     <use xlink:href="#DejaVuSans-65" transform="translate(588.138672 0)"/>
     <use xlink:href="#DejaVuSans-72" transform="translate(649.662109 0)"/>
     <use xlink:href="#DejaVuSans-66" transform="translate(690.775391 0)"/>
     <use xlink:href="#DejaVuSans-6f" transform="translate(725.980469 0)"/>
     <use xlink:href="#DejaVuSans-72" transform="translate(787.162109 0)"/>
     <use xlink:href="#DejaVuSans-6d" transform="translate(826.525391 0)"/>
     <use xlink:href="#DejaVuSans-61" transform="translate(923.9375 0)"/>
     <use xlink:href="#DejaVuSans-6e" transform="translate(985.216797 0)"/>
     <use xlink:href="#DejaVuSans-63" transform="translate(1048.595703 0)"/>
     <use xlink:href="#DejaVuSans-65" transform="translate(1103.576172 0)"/>
     <use xlink:href="#DejaVuSans-20" transform="translate(1165.099609 0)"/>
     <use xlink:href="#DejaVuSans-75" transform="translate(1196.886719 0)"/>
     <use xlink:href="#DejaVuSans-73" transform="translate(1260.265625 0)"/>
     <use xlink:href="#DejaVuSans-69" transform="translate(1312.365234 0)"/>
     <use xlink:href="#DejaVuSans-6e" transform="translate(1340.148438 0)"/>
     <use xlink:href="#DejaVuSans-67" transform="translate(1403.527344 0)"/>
     <use xlink:href="#DejaVuSans-20" transform="translate(1467.003906 0)"/>
     <use xlink:href="#DejaVuSans-6c" transform="translate(1498.791016 0)"/>
     <use xlink:href="#DejaVuSans-6f" transform="translate(1526.574219 0)"/>
     <use xlink:href="#DejaVuSans-67" transform="translate(1587.755859 0)"/>
     <use xlink:href="#DejaVuSans-6f" transform="translate(1651.232422 0)"/>
     <use xlink:href="#DejaVuSans-20" transform="translate(1712.414062 0)"/>
     <use xlink:href="#DejaVuSans-63" transform="translate(1744.201172 0)"/>
     <use xlink:href="#DejaVuSans-72" transform="translate(1799.181641 0)"/>
     <use xlink:href="#DejaVuSans-6f" transform="translate(1838.044922 0)"/>
     <use xlink:href="#DejaVuSans-73" transform="translate(1899.226562 0)"/>
     <use xlink:href="#DejaVuSans-73" transform="translate(1951.326172 0)"/>
     <use xlink:href="#DejaVuSans-2d" transform="translate(2003.425781 0)"/>
     <use xlink:href="#DejaVuSans-76" transform="translate(2036.884766 0)"/>
     <use xlink:href="#DejaVuSans-61" transform="translate(2096.064453 0)"/>
     <use xlink:href="#DejaVuSans-6c" transform="translate(2157.34375 0)"/>
     <use xlink:href="#DejaVuSans-69" transform="translate(2185.126953 0)"/>
     <use xlink:href="#DejaVuSans-64" transform="translate(2212.910156 0)"/>
     <use xlink:href="#DejaVuSans-61" transform="translate(2276.386719 0)"/>
     <use xlink:href="#DejaVuSans-74" transform="translate(2337.666016 0)"/>
     <use xlink:href="#DejaVuSans-69" transform="translate(2376.875 0)"/>
     <use xlink:href="#DejaVuSans-6f" transform="translate(2404.658203 0)"/>
     <use xlink:href="#DejaVuSans-6e" transform="translate(2465.839844 0)"/>
     <use xlink:href="#DejaVuSans-20" transform="translate(2529.21875 0)"/>
     <use xlink:href="#DejaVuSans-6f" transform="translate(2561.005859 0)"/>
     <use xlink:href="#DejaVuSans-76" transform="translate(2622.1875 0)"/>
     <use xlink:href="#DejaVuSans-65" transform="translate(2681.367188 0)"/>
     <use xlink:href="#DejaVuSans-72" transform="translate(2742.890625 0)"/>
     <use xlink:href="#DejaVuSans-20" transform="translate(2784.003906 0)"/>
     <use xlink:href="#DejaVuSans-74" transform="translate(2815.791016 0)"/>
     <use xlink:href="#DejaVuSans-68" transform="translate(2855 0)"/>
     <use xlink:href="#DejaVuSans-65" transform="translate(2918.378906 0)"/>
     <use xlink:href="#DejaVuSans-20" transform="translate(2979.902344 0)"/>
     <use xlink:href="#DejaVuSans-74" transform="translate(3011.689453 0)"/>
     <use xlink:href="#DejaVuSans-61" transform="translate(3050.898438 0)"/>
     <use xlink:href="#DejaVuSans-78" transform="translate(3112.177734 0)"/>
     <use xlink:href="#DejaVuSans-6f" transform="translate(3168.232422 0)"/>
     <use xlink:href="#DejaVuSans-6e" transform="translate(3229.414062 0)"/>
     <use xlink:href="#DejaVuSans-6f" transform="translate(3292.792969 0)"/>
     <use xlink:href="#DejaVuSans-6d" transform="translate(3353.974609 0)"/>
     <use xlink:href="#DejaVuSans-69" transform="translate(3451.386719 0)"/>
     <use xlink:href="#DejaVuSans-63" transform="translate(3479.169922 0)"/>
     <use xlink:href="#DejaVuSans-20" transform="translate(3534.150391 0)"/>
     <use xlink:href="#DejaVuSans-70" transform="translate(3565.9375 0)"/>
     <use xlink:href="#DejaVuSans-72" transform="translate(3629.414062 0)"/>
     <use xlink:href="#DejaVuSans-6f" transform="translate(3668.277344 0)"/>
     <use xlink:href="#DejaVuSans-66" transform="translate(3729.458984 0)"/>
     <use xlink:href="#DejaVuSans-69" transform="translate(3764.664062 0)"/>
     <use xlink:href="#DejaVuSans-6c" transform="translate(3792.447266 0)"/>
     <use xlink:href="#DejaVuSans-65" transform="translate(3820.230469 0)"/>
     <use xlink:href="#DejaVuSans-73" transform="translate(3881.753906 0)"/>
     <use xlink:href="#DejaVuSans-20" transform="translate(3933.853516 0)"/>
     <use xlink:href="#DejaVuSans-6f" transform="translate(3965.640625 0)"/>
     <use xlink:href="#DejaVuSans-66" transform="translate(4026.822266 0)"/>
     <use xlink:href="#DejaVuSans-20" transform="translate(4062.027344 0)"/>
     <use xlink:href="#DejaVuSans-61" transform="translate(4093.814453 0)"/>
     <use xlink:href="#DejaVuSans-6c" transform="translate(4155.09375 0)"/>
     <use xlink:href="#DejaVuSans-6c" transform="translate(4182.876953 0)"/>
     <use xlink:href="#DejaVuSans-20" transform="translate(4210.660156 0)"/>
     <use xlink:href="#DejaVuSans-63" transform="translate(4242.447266 0)"/>
     <use xlink:href="#DejaVuSans-6f" transform="translate(4297.427734 0)"/>
     <use xlink:href="#DejaVuSans-68" transform="translate(4358.609375 0)"/>
     <use xlink:href="#DejaVuSans-6f" transform="translate(4421.988281 0)"/>
     <use xlink:href="#DejaVuSans-72" transform="translate(4483.169922 0)"/>
     <use xlink:href="#DejaVuSans-74" transform="translate(4524.283203 0)"/>
     <use xlink:href="#DejaVuSans-73" transform="translate(4563.492188 0)"/>
    </g>
   </g>
   <g id="legend_1">
    <g id="patch_43">
     <path d="M 826.187422 87.929188 
L 1002.987328 87.929188 
Q 1005.407328 87.929188 1005.407328 85.509187 
L 1005.407328 31.699938 
Q 1005.407328 29.279938 1002.987328 29.279938 
L 826.187422 29.279938 
Q 823.767422 29.279938 823.767422 31.699938 
L 823.767422 85.509187 
Q 823.767422 87.929188 826.187422 87.929188 
z
" style="fill: #ffffff; opacity: 0.8; stroke: #cccccc; stroke-linejoin: miter"/>
    </g>
    <g id="text_28">
     <!-- Forest Type -->
     <g style="fill: #262626" transform="translate(877.085969 44.149875) scale(0.132 -0.132)">
      <defs>
       <path id="DejaVuSans-54" d="M -19 4666 
L 3928 4666 
L 3928 4134 
L 2272 4134 
L 2272 0 
L 1638 0 
L 1638 4134 
L -19 4134 
L -19 4666 
z
" transform="scale(0.015625)"/>
      </defs>
      <use xlink:href="#DejaVuSans-46"/>
      <use xlink:href="#DejaVuSans-6f" transform="translate(53.894531 0)"/>
      <use xlink:href="#DejaVuSans-72" transform="translate(115.076172 0)"/>
      <use xlink:href="#DejaVuSans-65" transform="translate(153.939453 0)"/>
      <use xlink:href="#DejaVuSans-73" transform="translate(215.462891 0)"/>
      <use xlink:href="#DejaVuSans-74" transform="translate(267.5625 0)"/>
      <use xlink:href="#DejaVuSans-20" transform="translate(306.771484 0)"/>
      <use xlink:href="#DejaVuSans-54" transform="translate(338.558594 0)"/>
      <use xlink:href="#DejaVuSans-79" transform="translate(384.017578 0)"/>
      <use xlink:href="#DejaVuSans-70" transform="translate(443.197266 0)"/>
      <use xlink:href="#DejaVuSans-65" transform="translate(506.673828 0)"/>
     </g>
    </g>
    <g id="patch_44">
     <path d="M 828.607422 62.139172 
L 852.807422 62.139172 
L 852.807422 53.669172 
L 828.607422 53.669172 
z
" style="fill: #176d9c; stroke: #363636; stroke-linejoin: miter"/>
    </g>
    <g id="text_29">
     <!-- sklearn_random_forest -->
     <g style="fill: #262626" transform="translate(862.487422 62.139172) scale(0.121 -0.121)">
      <defs>
       <path id="DejaVuSans-6b" d="M 581 4863 
L 1159 4863 
L 1159 1991 
L 2875 3500 
L 3609 3500 
L 1753 1863 
L 3688 0 
L 2938 0 
L 1159 1709 
L 1159 0 
L 581 0 
L 581 4863 
z
" transform="scale(0.015625)"/>
       <path id="DejaVuSans-5f" d="M 3263 -1063 
L 3263 -1509 
L -63 -1509 
L -63 -1063 
L 3263 -1063 
z
" transform="scale(0.015625)"/>
      </defs>
      <use xlink:href="#DejaVuSans-73"/>
      <use xlink:href="#DejaVuSans-6b" transform="translate(52.099609 0)"/>
      <use xlink:href="#DejaVuSans-6c" transform="translate(110.009766 0)"/>
      <use xlink:href="#DejaVuSans-65" transform="translate(137.792969 0)"/>
      <use xlink:href="#DejaVuSans-61" transform="translate(199.316406 0)"/>
      <use xlink:href="#DejaVuSans-72" transform="translate(260.595703 0)"/>
      <use xlink:href="#DejaVuSans-6e" transform="translate(299.958984 0)"/>
      <use xlink:href="#DejaVuSans-5f" transform="translate(363.337891 0)"/>
      <use xlink:href="#DejaVuSans-72" transform="translate(413.337891 0)"/>
      <use xlink:href="#DejaVuSans-61" transform="translate(454.451172 0)"/>
      <use xlink:href="#DejaVuSans-6e" transform="translate(515.730469 0)"/>
      <use xlink:href="#DejaVuSans-64" transform="translate(579.109375 0)"/>
      <use xlink:href="#DejaVuSans-6f" transform="translate(642.585938 0)"/>
      <use xlink:href="#DejaVuSans-6d" transform="translate(703.767578 0)"/>
      <use xlink:href="#DejaVuSans-5f" transform="translate(801.179688 0)"/>
      <use xlink:href="#DejaVuSans-66" transform="translate(851.179688 0)"/>
      <use xlink:href="#DejaVuSans-6f" transform="translate(886.384766 0)"/>
      <use xlink:href="#DejaVuSans-72" transform="translate(947.566406 0)"/>
      <use xlink:href="#DejaVuSans-65" transform="translate(986.429688 0)"/>
      <use xlink:href="#DejaVuSans-73" transform="translate(1047.953125 0)"/>
      <use xlink:href="#DejaVuSans-74" transform="translate(1100.052734 0)"/>
     </g>
    </g>
    <g id="patch_45">
     <path d="M 828.607422 80.236234 
L 852.807422 80.236234 
L 852.807422 71.766234 
L 828.607422 71.766234 
z
" style="fill: #c38820; stroke: #363636; stroke-linejoin: miter"/>
    </g>
    <g id="text_30">
     <!-- rollOCT_random_forest -->
     <g style="fill: #262626" transform="translate(862.487422 80.236234) scale(0.121 -0.121)">
      <defs>
       <path id="DejaVuSans-4f" d="M 2522 4238 
Q 1834 4238 1429 3725 
Q 1025 3213 1025 2328 
Q 1025 1447 1429 934 
Q 1834 422 2522 422 
Q 3209 422 3611 934 
Q 4013 1447 4013 2328 
Q 4013 3213 3611 3725 
Q 3209 4238 2522 4238 
z
M 2522 4750 
Q 3503 4750 4090 4092 
Q 4678 3434 4678 2328 
Q 4678 1225 4090 567 
Q 3503 -91 2522 -91 
Q 1538 -91 948 565 
Q 359 1222 359 2328 
Q 359 3434 948 4092 
Q 1538 4750 2522 4750 
z
" transform="scale(0.015625)"/>
      </defs>
      <use xlink:href="#DejaVuSans-72"/>
      <use xlink:href="#DejaVuSans-6f" transform="translate(38.863281 0)"/>
      <use xlink:href="#DejaVuSans-6c" transform="translate(100.044922 0)"/>
      <use xlink:href="#DejaVuSans-6c" transform="translate(127.828125 0)"/>
      <use xlink:href="#DejaVuSans-4f" transform="translate(155.611328 0)"/>
      <use xlink:href="#DejaVuSans-43" transform="translate(234.322266 0)"/>
      <use xlink:href="#DejaVuSans-54" transform="translate(304.146484 0)"/>
      <use xlink:href="#DejaVuSans-5f" transform="translate(365.230469 0)"/>
      <use xlink:href="#DejaVuSans-72" transform="translate(415.230469 0)"/>
      <use xlink:href="#DejaVuSans-61" transform="translate(456.34375 0)"/>
      <use xlink:href="#DejaVuSans-6e" transform="translate(517.623047 0)"/>
      <use xlink:href="#DejaVuSans-64" transform="translate(581.001953 0)"/>
      <use xlink:href="#DejaVuSans-6f" transform="translate(644.478516 0)"/>
      <use xlink:href="#DejaVuSans-6d" transform="translate(705.660156 0)"/>
      <use xlink:href="#DejaVuSans-5f" transform="translate(803.072266 0)"/>
      <use xlink:href="#DejaVuSans-66" transform="translate(853.072266 0)"/>
      <use xlink:href="#DejaVuSans-6f" transform="translate(888.277344 0)"/>
      <use xlink:href="#DejaVuSans-72" transform="translate(949.458984 0)"/>
      <use xlink:href="#DejaVuSans-65" transform="translate(988.322266 0)"/>
      <use xlink:href="#DejaVuSans-73" transform="translate(1049.845703 0)"/>
      <use xlink:href="#DejaVuSans-74" transform="translate(1101.945312 0)"/>
     </g>
    </g>
   </g>
  </g>
 </g>
 <defs>
  <clipPath id="p45d0fc81e2">
   <rect x="62.857328" y="23.229937" width="948.6" height="332.64"/>
  </clipPath>
 </defs>
</svg>
