<?xml version="1.0" encoding="utf-8" standalone="no"?>
<!DOCTYPE svg PUBLIC "-//W3C//DTD SVG 1.1//EN"
  "http://www.w3.org/Graphics/SVG/1.1/DTD/svg11.dtd">
<svg xmlns:xlink="http://www.w3.org/1999/xlink" width="1008.517906pt" height="475.441256pt" viewBox="0 0 1008.517906 475.441256" xmlns="http://www.w3.org/2000/svg" version="1.1">
 <metadata>
  <rdf:RDF xmlns:dc="http://purl.org/dc/elements/1.1/" xmlns:cc="http://creativecommons.org/ns#" xmlns:rdf="http://www.w3.org/1999/02/22-rdf-syntax-ns#">
   <cc:Work>
    <dc:type rdf:resource="http://purl.org/dc/dcmitype/StillImage"/>
    <dc:date>2025-10-30T13:23:56.398718</dc:date>
    <dc:format>image/svg+xml</dc:format>
    <dc:creator>
     <cc:Agent>
      <dc:title>Matplotlib v3.10.3, https://matplotlib.org/</dc:title>
     </cc:Agent>
    </dc:creator>
   </cc:Work>
  </rdf:RDF>
 </metadata>
 <defs>
  <style type="text/css">*{stroke-linejoin: round; stroke-linecap: butt}</style>
 </defs>
 <g id="figure_1">
  <g id="patch_1">
   <path d="M 0 475.441256 
L 1008.517906 475.441256 
L 1008.517906 0 
L 0 0 
z
" style="fill: #ffffff"/>
  </g>
  <g id="axes_1">
   <g id="patch_2">
    <path d="M 52.717906 430.2556 
L 1001.317906 430.2556 
L 1001.317906 97.6156 
L 52.717906 97.6156 
z
" style="fill: #ffffff"/>
   </g>
   <g id="matplotlib.axis_1">
    <g id="xtick_1">
     <g id="line2d_1">
      <defs>
       <path id="m879ad453c8" d="M 0 0 
L 0 6 
" style="stroke: #262626; stroke-width: 1.25"/>
      </defs>
      <g>
       <use xlink:href="#m879ad453c8" x="210.817906" y="430.2556" style="fill: #262626; stroke: #262626; stroke-width: 1.25"/>
      </g>
     </g>
     <g id="text_1">
      <!-- China1 -->
      <g style="fill: #262626" transform="translate(189.687336 448.949709) scale(0.121 -0.121)">
       <defs>
        <path id="DejaVuSans-43" d="M 4122 4306 
L 4122 3641 
Q 3803 3938 3442 4084 
Q 3081 4231 2675 4231 
Q 1875 4231 1450 3742 
Q 1025 3253 1025 2328 
Q 1025 1406 1450 917 
Q 1875 428 2675 428 
Q 3081 428 3442 575 
Q 3803 722 4122 1019 
L 4122 359 
Q 3791 134 3420 21 
Q 3050 -91 2638 -91 
Q 1578 -91 968 557 
Q 359 1206 359 2328 
Q 359 3453 968 4101 
Q 1578 4750 2638 4750 
Q 3056 4750 3426 4639 
Q 3797 4528 4122 4306 
z
" transform="scale(0.015625)"/>
        <path id="DejaVuSans-68" d="M 3513 2113 
L 3513 0 
L 2938 0 
L 2938 2094 
Q 2938 2591 2744 2837 
Q 2550 3084 2163 3084 
Q 1697 3084 1428 2787 
Q 1159 2491 1159 1978 
L 1159 0 
L 581 0 
L 581 4863 
L 1159 4863 
L 1159 2956 
Q 1366 3272 1645 3428 
Q 1925 3584 2291 3584 
Q 2894 3584 3203 3211 
Q 3513 2838 3513 2113 
z
" transform="scale(0.015625)"/>
        <path id="DejaVuSans-69" d="M 603 3500 
L 1178 3500 
L 1178 0 
L 603 0 
L 603 3500 
z
M 603 4863 
L 1178 4863 
L 1178 4134 
L 603 4134 
L 603 4863 
z
" transform="scale(0.015625)"/>
        <path id="DejaVuSans-6e" d="M 3513 2113 
L 3513 0 
L 2938 0 
L 2938 2094 
Q 2938 2591 2744 2837 
Q 2550 3084 2163 3084 
Q 1697 3084 1428 2787 
Q 1159 2491 1159 1978 
L 1159 0 
L 581 0 
L 581 3500 
L 1159 3500 
L 1159 2956 
Q 1366 3272 1645 3428 
Q 1925 3584 2291 3584 
Q 2894 3584 3203 3211 
Q 3513 2838 3513 2113 
z
" transform="scale(0.015625)"/>
        <path id="DejaVuSans-61" d="M 2194 1759 
Q 1497 1759 1228 1600 
Q 959 1441 959 1056 
Q 959 750 1161 570 
Q 1363 391 1709 391 
Q 2188 391 2477 730 
Q 2766 1069 2766 1631 
L 2766 1759 
L 2194 1759 
z
M 3341 1997 
L 3341 0 
L 2766 0 
L 2766 531 
Q 2569 213 2275 61 
Q 1981 -91 1556 -91 
Q 1019 -91 701 211 
Q 384 513 384 1019 
Q 384 1609 779 1909 
Q 1175 2209 1959 2209 
L 2766 2209 
L 2766 2266 
Q 2766 2663 2505 2880 
Q 2244 3097 1772 3097 
Q 1472 3097 1187 3025 
Q 903 2953 641 2809 
L 641 3341 
Q 956 3463 1253 3523 
Q 1550 3584 1831 3584 
Q 2591 3584 2966 3190 
Q 3341 2797 3341 1997 
z
" transform="scale(0.015625)"/>
        <path id="DejaVuSans-31" d="M 794 531 
L 1825 531 
L 1825 4091 
L 703 3866 
L 703 4441 
L 1819 4666 
L 2450 4666 
L 2450 531 
L 3481 531 
L 3481 0 
L 794 0 
L 794 531 
z
" transform="scale(0.015625)"/>
       </defs>
       <use xlink:href="#DejaVuSans-43"/>
       <use xlink:href="#DejaVuSans-68" transform="translate(69.824219 0)"/>
       <use xlink:href="#DejaVuSans-69" transform="translate(133.203125 0)"/>
       <use xlink:href="#DejaVuSans-6e" transform="translate(160.986328 0)"/>
       <use xlink:href="#DejaVuSans-61" transform="translate(224.365234 0)"/>
       <use xlink:href="#DejaVuSans-31" transform="translate(285.644531 0)"/>
      </g>
     </g>
    </g>
    <g id="xtick_2">
     <g id="line2d_2">
      <g>
       <use xlink:href="#m879ad453c8" x="527.017906" y="430.2556" style="fill: #262626; stroke: #262626; stroke-width: 1.25"/>
      </g>
     </g>
     <g id="text_2">
      <!-- China5 -->
      <g style="fill: #262626" transform="translate(505.887336 448.949709) scale(0.121 -0.121)">
       <defs>
        <path id="DejaVuSans-35" d="M 691 4666 
L 3169 4666 
L 3169 4134 
L 1269 4134 
L 1269 2991 
Q 1406 3038 1543 3061 
Q 1681 3084 1819 3084 
Q 2600 3084 3056 2656 
Q 3513 2228 3513 1497 
Q 3513 744 3044 326 
Q 2575 -91 1722 -91 
Q 1428 -91 1123 -41 
Q 819 9 494 109 
L 494 744 
Q 775 591 1075 516 
Q 1375 441 1709 441 
Q 2250 441 2565 725 
Q 2881 1009 2881 1497 
Q 2881 1984 2565 2268 
Q 2250 2553 1709 2553 
Q 1456 2553 1204 2497 
Q 953 2441 691 2322 
L 691 4666 
z
" transform="scale(0.015625)"/>
       </defs>
       <use xlink:href="#DejaVuSans-43"/>
       <use xlink:href="#DejaVuSans-68" transform="translate(69.824219 0)"/>
       <use xlink:href="#DejaVuSans-69" transform="translate(133.203125 0)"/>
       <use xlink:href="#DejaVuSans-6e" transform="translate(160.986328 0)"/>
       <use xlink:href="#DejaVuSans-61" transform="translate(224.365234 0)"/>
       <use xlink:href="#DejaVuSans-35" transform="translate(285.644531 0)"/>
      </g>
     </g>
    </g>
    <g id="xtick_3">
     <g id="line2d_3">
      <g>
       <use xlink:href="#m879ad453c8" x="843.217906" y="430.2556" style="fill: #262626; stroke: #262626; stroke-width: 1.25"/>
      </g>
     </g>
     <g id="text_3">
      <!-- Japan1 -->
      <g style="fill: #262626" transform="translate(822.49382 448.949709) scale(0.121 -0.121)">
       <defs>
        <path id="DejaVuSans-4a" d="M 628 4666 
L 1259 4666 
L 1259 325 
Q 1259 -519 939 -900 
Q 619 -1281 -91 -1281 
L -331 -1281 
L -331 -750 
L -134 -750 
Q 284 -750 456 -515 
Q 628 -281 628 325 
L 628 4666 
z
" transform="scale(0.015625)"/>
        <path id="DejaVuSans-70" d="M 1159 525 
L 1159 -1331 
L 581 -1331 
L 581 3500 
L 1159 3500 
L 1159 2969 
Q 1341 3281 1617 3432 
Q 1894 3584 2278 3584 
Q 2916 3584 3314 3078 
Q 3713 2572 3713 1747 
Q 3713 922 3314 415 
Q 2916 -91 2278 -91 
Q 1894 -91 1617 61 
Q 1341 213 1159 525 
z
M 3116 1747 
Q 3116 2381 2855 2742 
Q 2594 3103 2138 3103 
Q 1681 3103 1420 2742 
Q 1159 2381 1159 1747 
Q 1159 1113 1420 752 
Q 1681 391 2138 391 
Q 2594 391 2855 752 
Q 3116 1113 3116 1747 
z
" transform="scale(0.015625)"/>
       </defs>
       <use xlink:href="#DejaVuSans-4a"/>
       <use xlink:href="#DejaVuSans-61" transform="translate(29.492188 0)"/>
       <use xlink:href="#DejaVuSans-70" transform="translate(90.771484 0)"/>
       <use xlink:href="#DejaVuSans-61" transform="translate(154.248047 0)"/>
       <use xlink:href="#DejaVuSans-6e" transform="translate(215.527344 0)"/>
       <use xlink:href="#DejaVuSans-31" transform="translate(278.90625 0)"/>
      </g>
     </g>
    </g>
    <g id="text_4">
     <!-- Cohort -->
     <g style="fill: #262626" transform="translate(504.849125 465.496069) scale(0.132 -0.132)">
      <defs>
       <path id="DejaVuSans-6f" d="M 1959 3097 
Q 1497 3097 1228 2736 
Q 959 2375 959 1747 
Q 959 1119 1226 758 
Q 1494 397 1959 397 
Q 2419 397 2687 759 
Q 2956 1122 2956 1747 
Q 2956 2369 2687 2733 
Q 2419 3097 1959 3097 
z
M 1959 3584 
Q 2709 3584 3137 3096 
Q 3566 2609 3566 1747 
Q 3566 888 3137 398 
Q 2709 -91 1959 -91 
Q 1206 -91 779 398 
Q 353 888 353 1747 
Q 353 2609 779 3096 
Q 1206 3584 1959 3584 
z
" transform="scale(0.015625)"/>
       <path id="DejaVuSans-72" d="M 2631 2963 
Q 2534 3019 2420 3045 
Q 2306 3072 2169 3072 
Q 1681 3072 1420 2755 
Q 1159 2438 1159 1844 
L 1159 0 
L 581 0 
L 581 3500 
L 1159 3500 
L 1159 2956 
Q 1341 3275 1631 3429 
Q 1922 3584 2338 3584 
Q 2397 3584 2469 3576 
Q 2541 3569 2628 3553 
L 2631 2963 
z
" transform="scale(0.015625)"/>
       <path id="DejaVuSans-74" d="M 1172 4494 
L 1172 3500 
L 2356 3500 
L 2356 3053 
L 1172 3053 
L 1172 1153 
Q 1172 725 1289 603 
Q 1406 481 1766 481 
L 2356 481 
L 2356 0 
L 1766 0 
Q 1100 0 847 248 
Q 594 497 594 1153 
L 594 3053 
L 172 3053 
L 172 3500 
L 594 3500 
L 594 4494 
L 1172 4494 
z
" transform="scale(0.015625)"/>
      </defs>
      <use xlink:href="#DejaVuSans-43"/>
      <use xlink:href="#DejaVuSans-6f" transform="translate(69.824219 0)"/>
      <use xlink:href="#DejaVuSans-68" transform="translate(131.005859 0)"/>
      <use xlink:href="#DejaVuSans-6f" transform="translate(194.384766 0)"/>
      <use xlink:href="#DejaVuSans-72" transform="translate(255.566406 0)"/>
      <use xlink:href="#DejaVuSans-74" transform="translate(296.679688 0)"/>
     </g>
    </g>
   </g>
   <g id="matplotlib.axis_2">
    <g id="ytick_1">
     <g id="line2d_4">
      <defs>
       <path id="m6421bcbfc0" d="M 0 0 
L -6 0 
" style="stroke: #262626; stroke-width: 1.25"/>
      </defs>
      <g>
       <use xlink:href="#m6421bcbfc0" x="52.717906" y="430.2556" style="fill: #262626; stroke: #262626; stroke-width: 1.25"/>
      </g>
     </g>
     <g id="text_5">
      <!-- 0.1 -->
      <g style="fill: #262626" transform="translate(23.975125 434.852655) scale(0.121 -0.121)">
       <defs>
        <path id="DejaVuSans-30" d="M 2034 4250 
Q 1547 4250 1301 3770 
Q 1056 3291 1056 2328 
Q 1056 1369 1301 889 
Q 1547 409 2034 409 
Q 2525 409 2770 889 
Q 3016 1369 3016 2328 
Q 3016 3291 2770 3770 
Q 2525 4250 2034 4250 
z
M 2034 4750 
Q 2819 4750 3233 4129 
Q 3647 3509 3647 2328 
Q 3647 1150 3233 529 
Q 2819 -91 2034 -91 
Q 1250 -91 836 529 
Q 422 1150 422 2328 
Q 422 3509 836 4129 
Q 1250 4750 2034 4750 
z
" transform="scale(0.015625)"/>
        <path id="DejaVuSans-2e" d="M 684 794 
L 1344 794 
L 1344 0 
L 684 0 
L 684 794 
z
" transform="scale(0.015625)"/>
       </defs>
       <use xlink:href="#DejaVuSans-30"/>
       <use xlink:href="#DejaVuSans-2e" transform="translate(63.623047 0)"/>
       <use xlink:href="#DejaVuSans-31" transform="translate(95.410156 0)"/>
      </g>
     </g>
    </g>
    <g id="ytick_2">
     <g id="line2d_5">
      <g>
       <use xlink:href="#m6421bcbfc0" x="52.717906" y="382.7356" style="fill: #262626; stroke: #262626; stroke-width: 1.25"/>
      </g>
     </g>
     <g id="text_6">
      <!-- 0.2 -->
      <g style="fill: #262626" transform="translate(23.975125 387.332655) scale(0.121 -0.121)">
       <defs>
        <path id="DejaVuSans-32" d="M 1228 531 
L 3431 531 
L 3431 0 
L 469 0 
L 469 531 
Q 828 903 1448 1529 
Q 2069 2156 2228 2338 
Q 2531 2678 2651 2914 
Q 2772 3150 2772 3378 
Q 2772 3750 2511 3984 
Q 2250 4219 1831 4219 
Q 1534 4219 1204 4116 
Q 875 4013 500 3803 
L 500 4441 
Q 881 4594 1212 4672 
Q 1544 4750 1819 4750 
Q 2544 4750 2975 4387 
Q 3406 4025 3406 3419 
Q 3406 3131 3298 2873 
Q 3191 2616 2906 2266 
Q 2828 2175 2409 1742 
Q 1991 1309 1228 531 
z
" transform="scale(0.015625)"/>
       </defs>
       <use xlink:href="#DejaVuSans-30"/>
       <use xlink:href="#DejaVuSans-2e" transform="translate(63.623047 0)"/>
       <use xlink:href="#DejaVuSans-32" transform="translate(95.410156 0)"/>
      </g>
     </g>
    </g>
    <g id="ytick_3">
     <g id="line2d_6">
      <g>
       <use xlink:href="#m6421bcbfc0" x="52.717906" y="335.2156" style="fill: #262626; stroke: #262626; stroke-width: 1.25"/>
      </g>
     </g>
     <g id="text_7">
      <!-- 0.3 -->
      <g style="fill: #262626" transform="translate(23.975125 339.812655) scale(0.121 -0.121)">
       <defs>
        <path id="DejaVuSans-33" d="M 2597 2516 
Q 3050 2419 3304 2112 
Q 3559 1806 3559 1356 
Q 3559 666 3084 287 
Q 2609 -91 1734 -91 
Q 1441 -91 1130 -33 
Q 819 25 488 141 
L 488 750 
Q 750 597 1062 519 
Q 1375 441 1716 441 
Q 2309 441 2620 675 
Q 2931 909 2931 1356 
Q 2931 1769 2642 2001 
Q 2353 2234 1838 2234 
L 1294 2234 
L 1294 2753 
L 1863 2753 
Q 2328 2753 2575 2939 
Q 2822 3125 2822 3475 
Q 2822 3834 2567 4026 
Q 2313 4219 1838 4219 
Q 1578 4219 1281 4162 
Q 984 4106 628 3988 
L 628 4550 
Q 988 4650 1302 4700 
Q 1616 4750 1894 4750 
Q 2613 4750 3031 4423 
Q 3450 4097 3450 3541 
Q 3450 3153 3228 2886 
Q 3006 2619 2597 2516 
z
" transform="scale(0.015625)"/>
       </defs>
       <use xlink:href="#DejaVuSans-30"/>
       <use xlink:href="#DejaVuSans-2e" transform="translate(63.623047 0)"/>
       <use xlink:href="#DejaVuSans-33" transform="translate(95.410156 0)"/>
      </g>
     </g>
    </g>
    <g id="ytick_4">
     <g id="line2d_7">
      <g>
       <use xlink:href="#m6421bcbfc0" x="52.717906" y="287.6956" style="fill: #262626; stroke: #262626; stroke-width: 1.25"/>
      </g>
     </g>
     <g id="text_8">
      <!-- 0.4 -->
      <g style="fill: #262626" transform="translate(23.975125 292.292655) scale(0.121 -0.121)">
       <defs>
        <path id="DejaVuSans-34" d="M 2419 4116 
L 825 1625 
L 2419 1625 
L 2419 4116 
z
M 2253 4666 
L 3047 4666 
L 3047 1625 
L 3713 1625 
L 3713 1100 
L 3047 1100 
L 3047 0 
L 2419 0 
L 2419 1100 
L 313 1100 
L 313 1709 
L 2253 4666 
z
" transform="scale(0.015625)"/>
       </defs>
       <use xlink:href="#DejaVuSans-30"/>
       <use xlink:href="#DejaVuSans-2e" transform="translate(63.623047 0)"/>
       <use xlink:href="#DejaVuSans-34" transform="translate(95.410156 0)"/>
      </g>
     </g>
    </g>
    <g id="ytick_5">
     <g id="line2d_8">
      <g>
       <use xlink:href="#m6421bcbfc0" x="52.717906" y="240.1756" style="fill: #262626; stroke: #262626; stroke-width: 1.25"/>
      </g>
     </g>
     <g id="text_9">
      <!-- 0.5 -->
      <g style="fill: #262626" transform="translate(23.975125 244.772655) scale(0.121 -0.121)">
       <use xlink:href="#DejaVuSans-30"/>
       <use xlink:href="#DejaVuSans-2e" transform="translate(63.623047 0)"/>
       <use xlink:href="#DejaVuSans-35" transform="translate(95.410156 0)"/>
      </g>
     </g>
    </g>
    <g id="ytick_6">
     <g id="line2d_9">
      <g>
       <use xlink:href="#m6421bcbfc0" x="52.717906" y="192.6556" style="fill: #262626; stroke: #262626; stroke-width: 1.25"/>
      </g>
     </g>
     <g id="text_10">
      <!-- 0.6 -->
      <g style="fill: #262626" transform="translate(23.975125 197.252655) scale(0.121 -0.121)">
       <defs>
        <path id="DejaVuSans-36" d="M 2113 2584 
Q 1688 2584 1439 2293 
Q 1191 2003 1191 1497 
Q 1191 994 1439 701 
Q 1688 409 2113 409 
Q 2538 409 2786 701 
Q 3034 994 3034 1497 
Q 3034 2003 2786 2293 
Q 2538 2584 2113 2584 
z
M 3366 4563 
L 3366 3988 
Q 3128 4100 2886 4159 
Q 2644 4219 2406 4219 
Q 1781 4219 1451 3797 
Q 1122 3375 1075 2522 
Q 1259 2794 1537 2939 
Q 1816 3084 2150 3084 
Q 2853 3084 3261 2657 
Q 3669 2231 3669 1497 
Q 3669 778 3244 343 
Q 2819 -91 2113 -91 
Q 1303 -91 875 529 
Q 447 1150 447 2328 
Q 447 3434 972 4092 
Q 1497 4750 2381 4750 
Q 2619 4750 2861 4703 
Q 3103 4656 3366 4563 
z
" transform="scale(0.015625)"/>
       </defs>
       <use xlink:href="#DejaVuSans-30"/>
       <use xlink:href="#DejaVuSans-2e" transform="translate(63.623047 0)"/>
       <use xlink:href="#DejaVuSans-36" transform="translate(95.410156 0)"/>
      </g>
     </g>
    </g>
    <g id="ytick_7">
     <g id="line2d_10">
      <g>
       <use xlink:href="#m6421bcbfc0" x="52.717906" y="145.1356" style="fill: #262626; stroke: #262626; stroke-width: 1.25"/>
      </g>
     </g>
     <g id="text_11">
      <!-- 0.7 -->
      <g style="fill: #262626" transform="translate(23.975125 149.732655) scale(0.121 -0.121)">
       <defs>
        <path id="DejaVuSans-37" d="M 525 4666 
L 3525 4666 
L 3525 4397 
L 1831 0 
L 1172 0 
L 2766 4134 
L 525 4134 
L 525 4666 
z
" transform="scale(0.015625)"/>
       </defs>
       <use xlink:href="#DejaVuSans-30"/>
       <use xlink:href="#DejaVuSans-2e" transform="translate(63.623047 0)"/>
       <use xlink:href="#DejaVuSans-37" transform="translate(95.410156 0)"/>
      </g>
     </g>
    </g>
    <g id="ytick_8">
     <g id="line2d_11">
      <g>
       <use xlink:href="#m6421bcbfc0" x="52.717906" y="97.6156" style="fill: #262626; stroke: #262626; stroke-width: 1.25"/>
      </g>
     </g>
     <g id="text_12">
      <!-- 0.8 -->
      <g style="fill: #262626" transform="translate(23.975125 102.212655) scale(0.121 -0.121)">
       <defs>
        <path id="DejaVuSans-38" d="M 2034 2216 
Q 1584 2216 1326 1975 
Q 1069 1734 1069 1313 
Q 1069 891 1326 650 
Q 1584 409 2034 409 
Q 2484 409 2743 651 
Q 3003 894 3003 1313 
Q 3003 1734 2745 1975 
Q 2488 2216 2034 2216 
z
M 1403 2484 
Q 997 2584 770 2862 
Q 544 3141 544 3541 
Q 544 4100 942 4425 
Q 1341 4750 2034 4750 
Q 2731 4750 3128 4425 
Q 3525 4100 3525 3541 
Q 3525 3141 3298 2862 
Q 3072 2584 2669 2484 
Q 3125 2378 3379 2068 
Q 3634 1759 3634 1313 
Q 3634 634 3220 271 
Q 2806 -91 2034 -91 
Q 1263 -91 848 271 
Q 434 634 434 1313 
Q 434 1759 690 2068 
Q 947 2378 1403 2484 
z
M 1172 3481 
Q 1172 3119 1398 2916 
Q 1625 2713 2034 2713 
Q 2441 2713 2670 2916 
Q 2900 3119 2900 3481 
Q 2900 3844 2670 4047 
Q 2441 4250 2034 4250 
Q 1625 4250 1398 4047 
Q 1172 3844 1172 3481 
z
" transform="scale(0.015625)"/>
       </defs>
       <use xlink:href="#DejaVuSans-30"/>
       <use xlink:href="#DejaVuSans-2e" transform="translate(63.623047 0)"/>
       <use xlink:href="#DejaVuSans-38" transform="translate(95.410156 0)"/>
      </g>
     </g>
    </g>
    <g id="text_13">
     <!-- mcc -->
     <g style="fill: #262626" transform="translate(17.229938 277.62235) rotate(-90) scale(0.132 -0.132)">
      <defs>
       <path id="DejaVuSans-6d" d="M 3328 2828 
Q 3544 3216 3844 3400 
Q 4144 3584 4550 3584 
Q 5097 3584 5394 3201 
Q 5691 2819 5691 2113 
L 5691 0 
L 5113 0 
L 5113 2094 
Q 5113 2597 4934 2840 
Q 4756 3084 4391 3084 
Q 3944 3084 3684 2787 
Q 3425 2491 3425 1978 
L 3425 0 
L 2847 0 
L 2847 2094 
Q 2847 2600 2669 2842 
Q 2491 3084 2119 3084 
Q 1678 3084 1418 2786 
Q 1159 2488 1159 1978 
L 1159 0 
L 581 0 
L 581 3500 
L 1159 3500 
L 1159 2956 
Q 1356 3278 1631 3431 
Q 1906 3584 2284 3584 
Q 2666 3584 2933 3390 
Q 3200 3197 3328 2828 
z
" transform="scale(0.015625)"/>
       <path id="DejaVuSans-63" d="M 3122 3366 
L 3122 2828 
Q 2878 2963 2633 3030 
Q 2388 3097 2138 3097 
Q 1578 3097 1268 2742 
Q 959 2388 959 1747 
Q 959 1106 1268 751 
Q 1578 397 2138 397 
Q 2388 397 2633 464 
Q 2878 531 3122 666 
L 3122 134 
Q 2881 22 2623 -34 
Q 2366 -91 2075 -91 
Q 1284 -91 818 406 
Q 353 903 353 1747 
Q 353 2603 823 3093 
Q 1294 3584 2113 3584 
Q 2378 3584 2631 3529 
Q 2884 3475 3122 3366 
z
" transform="scale(0.015625)"/>
      </defs>
      <use xlink:href="#DejaVuSans-6d"/>
      <use xlink:href="#DejaVuSans-63" transform="translate(97.412109 0)"/>
      <use xlink:href="#DejaVuSans-63" transform="translate(152.392578 0)"/>
     </g>
    </g>
   </g>
   <g id="patch_3">
    <path d="M 210.817906 477.7756 
L 210.817906 477.7756 
L 210.817906 477.7756 
L 210.817906 477.7756 
z
" clip-path="url(#p6fed962795)" style="fill: #176d9c; stroke: #303030; stroke-linejoin: miter"/>
   </g>
   <g id="patch_4">
    <path d="M 210.817906 477.7756 
L 210.817906 477.7756 
L 210.817906 477.7756 
L 210.817906 477.7756 
z
" clip-path="url(#p6fed962795)" style="fill: #c38820; stroke: #303030; stroke-linejoin: miter"/>
   </g>
   <g id="patch_5">
    <path d="M 210.817906 477.7756 
L 210.817906 477.7756 
L 210.817906 477.7756 
L 210.817906 477.7756 
z
" clip-path="url(#p6fed962795)" style="fill: #158b6a; stroke: #303030; stroke-linejoin: miter"/>
   </g>
   <g id="patch_6">
    <path d="M 210.817906 477.7756 
L 210.817906 477.7756 
L 210.817906 477.7756 
L 210.817906 477.7756 
z
" clip-path="url(#p6fed962795)" style="fill: #ba611b; stroke: #303030; stroke-linejoin: miter"/>
   </g>
   <g id="patch_7">
    <path d="M 210.817906 477.7756 
L 210.817906 477.7756 
L 210.817906 477.7756 
L 210.817906 477.7756 
z
" clip-path="url(#p6fed962795)" style="fill: #c282b5; stroke: #303030; stroke-linejoin: miter"/>
   </g>
   <g id="patch_8">
    <path d="M 210.817906 477.7756 
L 210.817906 477.7756 
L 210.817906 477.7756 
L 210.817906 477.7756 
z
" clip-path="url(#p6fed962795)" style="fill: #bd926e; stroke: #303030; stroke-linejoin: miter"/>
   </g>
   <g id="patch_9">
    <path d="M 210.817906 477.7756 
L 210.817906 477.7756 
L 210.817906 477.7756 
L 210.817906 477.7756 
z
" clip-path="url(#p6fed962795)" style="fill: #f2b8e0; stroke: #303030; stroke-linejoin: miter"/>
   </g>
   <g id="patch_10">
    <path d="M 210.817906 477.7756 
L 210.817906 477.7756 
L 210.817906 477.7756 
L 210.817906 477.7756 
z
" clip-path="url(#p6fed962795)" style="fill: #949494; stroke: #303030; stroke-linejoin: miter"/>
   </g>
   <g id="patch_11">
    <path d="M 84.337906 212.898695 
L 115.957906 212.898695 
L 115.957906 197.846579 
L 84.337906 197.846579 
L 84.337906 212.898695 
z
" clip-path="url(#p6fed962795)" style="fill: #176d9c; stroke: #303030; stroke-linejoin: miter"/>
   </g>
   <g id="line2d_12">
    <path d="M 100.147906 212.898695 
L 100.147906 218.493618 
" clip-path="url(#p6fed962795)" style="fill: none; stroke: #303030"/>
   </g>
   <g id="line2d_13">
    <path d="M 100.147906 197.846579 
L 100.147906 190.429208 
" clip-path="url(#p6fed962795)" style="fill: none; stroke: #303030"/>
   </g>
   <g id="line2d_14">
    <path d="M 92.242906 218.493618 
L 108.052906 218.493618 
" clip-path="url(#p6fed962795)" style="fill: none; stroke: #303030; stroke-linecap: round"/>
   </g>
   <g id="line2d_15">
    <path d="M 92.242906 190.429208 
L 108.052906 190.429208 
" clip-path="url(#p6fed962795)" style="fill: none; stroke: #303030; stroke-linecap: round"/>
   </g>
   <g id="line2d_16"/>
   <g id="patch_12">
    <path d="M 400.537906 217.056476 
L 432.157906 217.056476 
L 432.157906 202.882749 
L 400.537906 202.882749 
L 400.537906 217.056476 
z
" clip-path="url(#p6fed962795)" style="fill: #176d9c; stroke: #303030; stroke-linejoin: miter"/>
   </g>
   <g id="line2d_17">
    <path d="M 416.347906 217.056476 
L 416.347906 225.17681 
" clip-path="url(#p6fed962795)" style="fill: none; stroke: #303030"/>
   </g>
   <g id="line2d_18">
    <path d="M 416.347906 202.882749 
L 416.347906 196.418811 
" clip-path="url(#p6fed962795)" style="fill: none; stroke: #303030"/>
   </g>
   <g id="line2d_19">
    <path d="M 408.442906 225.17681 
L 424.252906 225.17681 
" clip-path="url(#p6fed962795)" style="fill: none; stroke: #303030; stroke-linecap: round"/>
   </g>
   <g id="line2d_20">
    <path d="M 408.442906 196.418811 
L 424.252906 196.418811 
" clip-path="url(#p6fed962795)" style="fill: none; stroke: #303030; stroke-linecap: round"/>
   </g>
   <g id="line2d_21"/>
   <g id="patch_13">
    <path d="M 716.737906 381.135055 
L 748.357906 381.135055 
L 748.357906 372.744766 
L 716.737906 372.744766 
L 716.737906 381.135055 
z
" clip-path="url(#p6fed962795)" style="fill: #176d9c; stroke: #303030; stroke-linejoin: miter"/>
   </g>
   <g id="line2d_22">
    <path d="M 732.547906 381.135055 
L 732.547906 385.860647 
" clip-path="url(#p6fed962795)" style="fill: none; stroke: #303030"/>
   </g>
   <g id="line2d_23">
    <path d="M 732.547906 372.744766 
L 732.547906 372.119709 
" clip-path="url(#p6fed962795)" style="fill: none; stroke: #303030"/>
   </g>
   <g id="line2d_24">
    <path d="M 724.642906 385.860647 
L 740.452906 385.860647 
" clip-path="url(#p6fed962795)" style="fill: none; stroke: #303030; stroke-linecap: round"/>
   </g>
   <g id="line2d_25">
    <path d="M 724.642906 372.119709 
L 740.452906 372.119709 
" clip-path="url(#p6fed962795)" style="fill: none; stroke: #303030; stroke-linecap: round"/>
   </g>
   <g id="line2d_26"/>
   <g id="patch_14">
    <path d="M 115.957906 257.190198 
L 147.577906 257.190198 
L 147.577906 245.779185 
L 115.957906 245.779185 
L 115.957906 257.190198 
z
" clip-path="url(#p6fed962795)" style="fill: #c38820; stroke: #303030; stroke-linejoin: miter"/>
   </g>
   <g id="line2d_27">
    <path d="M 131.767906 257.190198 
L 131.767906 263.700501 
" clip-path="url(#p6fed962795)" style="fill: none; stroke: #303030"/>
   </g>
   <g id="line2d_28">
    <path d="M 131.767906 245.779185 
L 131.767906 237.75292 
" clip-path="url(#p6fed962795)" style="fill: none; stroke: #303030"/>
   </g>
   <g id="line2d_29">
    <path d="M 123.862906 263.700501 
L 139.672906 263.700501 
" clip-path="url(#p6fed962795)" style="fill: none; stroke: #303030; stroke-linecap: round"/>
   </g>
   <g id="line2d_30">
    <path d="M 123.862906 237.75292 
L 139.672906 237.75292 
" clip-path="url(#p6fed962795)" style="fill: none; stroke: #303030; stroke-linecap: round"/>
   </g>
   <g id="line2d_31"/>
   <g id="patch_15">
    <path d="M 432.157906 187.827788 
L 463.777906 187.827788 
L 463.777906 175.464952 
L 432.157906 175.464952 
L 432.157906 187.827788 
z
" clip-path="url(#p6fed962795)" style="fill: #c38820; stroke: #303030; stroke-linejoin: miter"/>
   </g>
   <g id="line2d_32">
    <path d="M 447.967906 187.827788 
L 447.967906 199.035449 
" clip-path="url(#p6fed962795)" style="fill: none; stroke: #303030"/>
   </g>
   <g id="line2d_33">
    <path d="M 447.967906 175.464952 
L 447.967906 173.237109 
" clip-path="url(#p6fed962795)" style="fill: none; stroke: #303030"/>
   </g>
   <g id="line2d_34">
    <path d="M 440.062906 199.035449 
L 455.872906 199.035449 
" clip-path="url(#p6fed962795)" style="fill: none; stroke: #303030; stroke-linecap: round"/>
   </g>
   <g id="line2d_35">
    <path d="M 440.062906 173.237109 
L 455.872906 173.237109 
" clip-path="url(#p6fed962795)" style="fill: none; stroke: #303030; stroke-linecap: round"/>
   </g>
   <g id="line2d_36"/>
   <g id="patch_16">
    <path d="M 748.357906 390.523144 
L 779.977906 390.523144 
L 779.977906 374.002795 
L 748.357906 374.002795 
L 748.357906 390.523144 
z
" clip-path="url(#p6fed962795)" style="fill: #c38820; stroke: #303030; stroke-linejoin: miter"/>
   </g>
   <g id="line2d_37">
    <path d="M 764.167906 390.523144 
L 764.167906 394.697262 
" clip-path="url(#p6fed962795)" style="fill: none; stroke: #303030"/>
   </g>
   <g id="line2d_38">
    <path d="M 764.167906 374.002795 
L 764.167906 361.446605 
" clip-path="url(#p6fed962795)" style="fill: none; stroke: #303030"/>
   </g>
   <g id="line2d_39">
    <path d="M 756.262906 394.697262 
L 772.072906 394.697262 
" clip-path="url(#p6fed962795)" style="fill: none; stroke: #303030; stroke-linecap: round"/>
   </g>
   <g id="line2d_40">
    <path d="M 756.262906 361.446605 
L 772.072906 361.446605 
" clip-path="url(#p6fed962795)" style="fill: none; stroke: #303030; stroke-linecap: round"/>
   </g>
   <g id="line2d_41"/>
   <g id="patch_17">
    <path d="M 147.577906 179.904397 
L 179.197906 179.904397 
L 179.197906 173.176787 
L 147.577906 173.176787 
L 147.577906 179.904397 
z
" clip-path="url(#p6fed962795)" style="fill: #158b6a; stroke: #303030; stroke-linejoin: miter"/>
   </g>
   <g id="line2d_42">
    <path d="M 163.387906 179.904397 
L 163.387906 184.719951 
" clip-path="url(#p6fed962795)" style="fill: none; stroke: #303030"/>
   </g>
   <g id="line2d_43">
    <path d="M 163.387906 173.176787 
L 163.387906 167.335719 
" clip-path="url(#p6fed962795)" style="fill: none; stroke: #303030"/>
   </g>
   <g id="line2d_44">
    <path d="M 155.482906 184.719951 
L 171.292906 184.719951 
" clip-path="url(#p6fed962795)" style="fill: none; stroke: #303030; stroke-linecap: round"/>
   </g>
   <g id="line2d_45">
    <path d="M 155.482906 167.335719 
L 171.292906 167.335719 
" clip-path="url(#p6fed962795)" style="fill: none; stroke: #303030; stroke-linecap: round"/>
   </g>
   <g id="line2d_46"/>
   <g id="patch_18">
    <path d="M 463.777906 227.493854 
L 495.397906 227.493854 
L 495.397906 214.085904 
L 463.777906 214.085904 
L 463.777906 227.493854 
z
" clip-path="url(#p6fed962795)" style="fill: #158b6a; stroke: #303030; stroke-linejoin: miter"/>
   </g>
   <g id="line2d_47">
    <path d="M 479.587906 227.493854 
L 479.587906 234.380121 
" clip-path="url(#p6fed962795)" style="fill: none; stroke: #303030"/>
   </g>
   <g id="line2d_48">
    <path d="M 479.587906 214.085904 
L 479.587906 214.085904 
" clip-path="url(#p6fed962795)" style="fill: none; stroke: #303030"/>
   </g>
   <g id="line2d_49">
    <path d="M 471.682906 234.380121 
L 487.492906 234.380121 
" clip-path="url(#p6fed962795)" style="fill: none; stroke: #303030; stroke-linecap: round"/>
   </g>
   <g id="line2d_50">
    <path d="M 471.682906 214.085904 
L 487.492906 214.085904 
" clip-path="url(#p6fed962795)" style="fill: none; stroke: #303030; stroke-linecap: round"/>
   </g>
   <g id="line2d_51">
    <defs>
     <path id="mc420904bf3" d="M 0 3 
C 0.795609 3 1.55874 2.683901 2.12132 2.12132 
C 2.683901 1.55874 3 0.795609 3 0 
C 3 -0.795609 2.683901 -1.55874 2.12132 -2.12132 
C 1.55874 -2.683901 0.795609 -3 0 -3 
C -0.795609 -3 -1.55874 -2.683901 -2.12132 -2.12132 
C -2.683901 -1.55874 -3 -0.795609 -3 0 
C -3 0.795609 -2.683901 1.55874 -2.12132 2.12132 
C -1.55874 2.683901 -0.795609 3 0 3 
z
" style="stroke: #303030"/>
    </defs>
    <g clip-path="url(#p6fed962795)">
     <use xlink:href="#mc420904bf3" x="479.587906" y="193.640845" style="fill-opacity: 0; stroke: #303030"/>
    </g>
   </g>
   <g id="patch_19">
    <path d="M 779.977906 377.352908 
L 811.597906 377.352908 
L 811.597906 375.327655 
L 779.977906 375.327655 
L 779.977906 377.352908 
z
" clip-path="url(#p6fed962795)" style="fill: #158b6a; stroke: #303030; stroke-linejoin: miter"/>
   </g>
   <g id="line2d_52">
    <path d="M 795.787906 377.352908 
L 795.787906 377.352908 
" clip-path="url(#p6fed962795)" style="fill: none; stroke: #303030"/>
   </g>
   <g id="line2d_53">
    <path d="M 795.787906 375.327655 
L 795.787906 375.327655 
" clip-path="url(#p6fed962795)" style="fill: none; stroke: #303030"/>
   </g>
   <g id="line2d_54">
    <path d="M 787.882906 377.352908 
L 803.692906 377.352908 
" clip-path="url(#p6fed962795)" style="fill: none; stroke: #303030; stroke-linecap: round"/>
   </g>
   <g id="line2d_55">
    <path d="M 787.882906 375.327655 
L 803.692906 375.327655 
" clip-path="url(#p6fed962795)" style="fill: none; stroke: #303030; stroke-linecap: round"/>
   </g>
   <g id="line2d_56">
    <g clip-path="url(#p6fed962795)">
     <use xlink:href="#mc420904bf3" x="795.787906" y="382.685942" style="fill-opacity: 0; stroke: #303030"/>
     <use xlink:href="#mc420904bf3" x="795.787906" y="370.114352" style="fill-opacity: 0; stroke: #303030"/>
    </g>
   </g>
   <g id="patch_20">
    <path d="M 179.197906 239.650206 
L 210.817906 239.650206 
L 210.817906 234.296321 
L 179.197906 234.296321 
L 179.197906 239.650206 
z
" clip-path="url(#p6fed962795)" style="fill: #ba611b; stroke: #303030; stroke-linejoin: miter"/>
   </g>
   <g id="line2d_57">
    <path d="M 195.007906 239.650206 
L 195.007906 239.650206 
" clip-path="url(#p6fed962795)" style="fill: none; stroke: #303030"/>
   </g>
   <g id="line2d_58">
    <path d="M 195.007906 234.296321 
L 195.007906 234.296321 
" clip-path="url(#p6fed962795)" style="fill: none; stroke: #303030"/>
   </g>
   <g id="line2d_59">
    <path d="M 187.102906 239.650206 
L 202.912906 239.650206 
" clip-path="url(#p6fed962795)" style="fill: none; stroke: #303030; stroke-linecap: round"/>
   </g>
   <g id="line2d_60">
    <path d="M 187.102906 234.296321 
L 202.912906 234.296321 
" clip-path="url(#p6fed962795)" style="fill: none; stroke: #303030; stroke-linecap: round"/>
   </g>
   <g id="line2d_61">
    <g clip-path="url(#p6fed962795)">
     <use xlink:href="#mc420904bf3" x="195.007906" y="211.790707" style="fill-opacity: 0; stroke: #303030"/>
    </g>
   </g>
   <g id="patch_21">
    <path d="M 495.397906 176.119587 
L 527.017906 176.119587 
L 527.017906 169.949521 
L 495.397906 169.949521 
L 495.397906 176.119587 
z
" clip-path="url(#p6fed962795)" style="fill: #ba611b; stroke: #303030; stroke-linejoin: miter"/>
   </g>
   <g id="line2d_62">
    <path d="M 511.207906 176.119587 
L 511.207906 178.631697 
" clip-path="url(#p6fed962795)" style="fill: none; stroke: #303030"/>
   </g>
   <g id="line2d_63">
    <path d="M 511.207906 169.949521 
L 511.207906 169.949521 
" clip-path="url(#p6fed962795)" style="fill: none; stroke: #303030"/>
   </g>
   <g id="line2d_64">
    <path d="M 503.302906 178.631697 
L 519.112906 178.631697 
" clip-path="url(#p6fed962795)" style="fill: none; stroke: #303030; stroke-linecap: round"/>
   </g>
   <g id="line2d_65">
    <path d="M 503.302906 169.949521 
L 519.112906 169.949521 
" clip-path="url(#p6fed962795)" style="fill: none; stroke: #303030; stroke-linecap: round"/>
   </g>
   <g id="line2d_66"/>
   <g id="patch_22">
    <path d="M 811.597906 371.040843 
L 843.217906 371.040843 
L 843.217906 369.191643 
L 811.597906 369.191643 
L 811.597906 371.040843 
z
" clip-path="url(#p6fed962795)" style="fill: #ba611b; stroke: #303030; stroke-linejoin: miter"/>
   </g>
   <g id="line2d_67">
    <path d="M 827.407906 371.040843 
L 827.407906 372.800888 
" clip-path="url(#p6fed962795)" style="fill: none; stroke: #303030"/>
   </g>
   <g id="line2d_68">
    <path d="M 827.407906 369.191643 
L 827.407906 367.413254 
" clip-path="url(#p6fed962795)" style="fill: none; stroke: #303030"/>
   </g>
   <g id="line2d_69">
    <path d="M 819.502906 372.800888 
L 835.312906 372.800888 
" clip-path="url(#p6fed962795)" style="fill: none; stroke: #303030; stroke-linecap: round"/>
   </g>
   <g id="line2d_70">
    <path d="M 819.502906 367.413254 
L 835.312906 367.413254 
" clip-path="url(#p6fed962795)" style="fill: none; stroke: #303030; stroke-linecap: round"/>
   </g>
   <g id="line2d_71"/>
   <g id="patch_23">
    <path d="M 210.817906 178.970331 
L 242.437906 178.970331 
L 242.437906 174.202439 
L 210.817906 174.202439 
L 210.817906 178.970331 
z
" clip-path="url(#p6fed962795)" style="fill: #c282b5; stroke: #303030; stroke-linejoin: miter"/>
   </g>
   <g id="line2d_72">
    <path d="M 226.627906 178.970331 
L 226.627906 183.21929 
" clip-path="url(#p6fed962795)" style="fill: none; stroke: #303030"/>
   </g>
   <g id="line2d_73">
    <path d="M 226.627906 174.202439 
L 226.627906 167.335719 
" clip-path="url(#p6fed962795)" style="fill: none; stroke: #303030"/>
   </g>
   <g id="line2d_74">
    <path d="M 218.722906 183.21929 
L 234.532906 183.21929 
" clip-path="url(#p6fed962795)" style="fill: none; stroke: #303030; stroke-linecap: round"/>
   </g>
   <g id="line2d_75">
    <path d="M 218.722906 167.335719 
L 234.532906 167.335719 
" clip-path="url(#p6fed962795)" style="fill: none; stroke: #303030; stroke-linecap: round"/>
   </g>
   <g id="line2d_76">
    <g clip-path="url(#p6fed962795)">
     <use xlink:href="#mc420904bf3" x="226.627906" y="189.112837" style="fill-opacity: 0; stroke: #303030"/>
     <use xlink:href="#mc420904bf3" x="226.627906" y="161.443476" style="fill-opacity: 0; stroke: #303030"/>
    </g>
   </g>
   <g id="patch_24">
    <path d="M 527.017906 232.941439 
L 558.637906 232.941439 
L 558.637906 221.270726 
L 527.017906 221.270726 
L 527.017906 232.941439 
z
" clip-path="url(#p6fed962795)" style="fill: #c282b5; stroke: #303030; stroke-linejoin: miter"/>
   </g>
   <g id="line2d_77">
    <path d="M 542.827906 232.941439 
L 542.827906 241.28158 
" clip-path="url(#p6fed962795)" style="fill: none; stroke: #303030"/>
   </g>
   <g id="line2d_78">
    <path d="M 542.827906 221.270726 
L 542.827906 213.463741 
" clip-path="url(#p6fed962795)" style="fill: none; stroke: #303030"/>
   </g>
   <g id="line2d_79">
    <path d="M 534.922906 241.28158 
L 550.732906 241.28158 
" clip-path="url(#p6fed962795)" style="fill: none; stroke: #303030; stroke-linecap: round"/>
   </g>
   <g id="line2d_80">
    <path d="M 534.922906 213.463741 
L 550.732906 213.463741 
" clip-path="url(#p6fed962795)" style="fill: none; stroke: #303030; stroke-linecap: round"/>
   </g>
   <g id="line2d_81">
    <g clip-path="url(#p6fed962795)">
     <use xlink:href="#mc420904bf3" x="542.827906" y="187.270002" style="fill-opacity: 0; stroke: #303030"/>
    </g>
   </g>
   <g id="patch_25">
    <path d="M 843.217906 373.196495 
L 874.837906 373.196495 
L 874.837906 365.411275 
L 843.217906 365.411275 
L 843.217906 373.196495 
z
" clip-path="url(#p6fed962795)" style="fill: #c282b5; stroke: #303030; stroke-linejoin: miter"/>
   </g>
   <g id="line2d_82">
    <path d="M 859.027906 373.196495 
L 859.027906 381.164836 
" clip-path="url(#p6fed962795)" style="fill: none; stroke: #303030"/>
   </g>
   <g id="line2d_83">
    <path d="M 859.027906 365.411275 
L 859.027906 358.171254 
" clip-path="url(#p6fed962795)" style="fill: none; stroke: #303030"/>
   </g>
   <g id="line2d_84">
    <path d="M 851.122906 381.164836 
L 866.932906 381.164836 
" clip-path="url(#p6fed962795)" style="fill: none; stroke: #303030; stroke-linecap: round"/>
   </g>
   <g id="line2d_85">
    <path d="M 851.122906 358.171254 
L 866.932906 358.171254 
" clip-path="url(#p6fed962795)" style="fill: none; stroke: #303030; stroke-linecap: round"/>
   </g>
   <g id="line2d_86"/>
   <g id="patch_26">
    <path d="M 242.437906 234.296321 
L 274.057906 234.296321 
L 274.057906 224.911978 
L 242.437906 224.911978 
L 242.437906 234.296321 
z
" clip-path="url(#p6fed962795)" style="fill: #bd926e; stroke: #303030; stroke-linejoin: miter"/>
   </g>
   <g id="line2d_87">
    <path d="M 258.247906 234.296321 
L 258.247906 239.650206 
" clip-path="url(#p6fed962795)" style="fill: none; stroke: #303030"/>
   </g>
   <g id="line2d_88">
    <path d="M 258.247906 224.911978 
L 258.247906 222.205642 
" clip-path="url(#p6fed962795)" style="fill: none; stroke: #303030"/>
   </g>
   <g id="line2d_89">
    <path d="M 250.342906 239.650206 
L 266.152906 239.650206 
" clip-path="url(#p6fed962795)" style="fill: none; stroke: #303030; stroke-linecap: round"/>
   </g>
   <g id="line2d_90">
    <path d="M 250.342906 222.205642 
L 266.152906 222.205642 
" clip-path="url(#p6fed962795)" style="fill: none; stroke: #303030; stroke-linecap: round"/>
   </g>
   <g id="line2d_91"/>
   <g id="patch_27">
    <path d="M 558.637906 194.178805 
L 590.257906 194.178805 
L 590.257906 179.61553 
L 558.637906 179.61553 
L 558.637906 194.178805 
z
" clip-path="url(#p6fed962795)" style="fill: #bd926e; stroke: #303030; stroke-linejoin: miter"/>
   </g>
   <g id="line2d_92">
    <path d="M 574.447906 194.178805 
L 574.447906 208.571503 
" clip-path="url(#p6fed962795)" style="fill: none; stroke: #303030"/>
   </g>
   <g id="line2d_93">
    <path d="M 574.447906 179.61553 
L 574.447906 178.631697 
" clip-path="url(#p6fed962795)" style="fill: none; stroke: #303030"/>
   </g>
   <g id="line2d_94">
    <path d="M 566.542906 208.571503 
L 582.352906 208.571503 
" clip-path="url(#p6fed962795)" style="fill: none; stroke: #303030; stroke-linecap: round"/>
   </g>
   <g id="line2d_95">
    <path d="M 566.542906 178.631697 
L 582.352906 178.631697 
" clip-path="url(#p6fed962795)" style="fill: none; stroke: #303030; stroke-linecap: round"/>
   </g>
   <g id="line2d_96"/>
   <g id="patch_28">
    <path d="M 874.837906 370.354879 
L 906.457906 370.354879 
L 906.457906 358.683246 
L 874.837906 358.683246 
L 874.837906 370.354879 
z
" clip-path="url(#p6fed962795)" style="fill: #bd926e; stroke: #303030; stroke-linejoin: miter"/>
   </g>
   <g id="line2d_97">
    <path d="M 890.647906 370.354879 
L 890.647906 372.784361 
" clip-path="url(#p6fed962795)" style="fill: none; stroke: #303030"/>
   </g>
   <g id="line2d_98">
    <path d="M 890.647906 358.683246 
L 890.647906 352.886472 
" clip-path="url(#p6fed962795)" style="fill: none; stroke: #303030"/>
   </g>
   <g id="line2d_99">
    <path d="M 882.742906 372.784361 
L 898.552906 372.784361 
" clip-path="url(#p6fed962795)" style="fill: none; stroke: #303030; stroke-linecap: round"/>
   </g>
   <g id="line2d_100">
    <path d="M 882.742906 352.886472 
L 898.552906 352.886472 
" clip-path="url(#p6fed962795)" style="fill: none; stroke: #303030; stroke-linecap: round"/>
   </g>
   <g id="line2d_101"/>
   <g id="patch_29">
    <path d="M 274.057906 174.023172 
L 305.677906 174.023172 
L 305.677906 158.674762 
L 274.057906 158.674762 
L 274.057906 174.023172 
z
" clip-path="url(#p6fed962795)" style="fill: #f2b8e0; stroke: #303030; stroke-linejoin: miter"/>
   </g>
   <g id="line2d_102">
    <path d="M 289.867906 174.023172 
L 289.867906 180.999751 
" clip-path="url(#p6fed962795)" style="fill: none; stroke: #303030"/>
   </g>
   <g id="line2d_103">
    <path d="M 289.867906 158.674762 
L 289.867906 139.703376 
" clip-path="url(#p6fed962795)" style="fill: none; stroke: #303030"/>
   </g>
   <g id="line2d_104">
    <path d="M 281.962906 180.999751 
L 297.772906 180.999751 
" clip-path="url(#p6fed962795)" style="fill: none; stroke: #303030; stroke-linecap: round"/>
   </g>
   <g id="line2d_105">
    <path d="M 281.962906 139.703376 
L 297.772906 139.703376 
" clip-path="url(#p6fed962795)" style="fill: none; stroke: #303030; stroke-linecap: round"/>
   </g>
   <g id="line2d_106"/>
   <g id="patch_30">
    <path d="M 590.257906 227.837596 
L 621.877906 227.837596 
L 621.877906 216.116509 
L 590.257906 216.116509 
L 590.257906 227.837596 
z
" clip-path="url(#p6fed962795)" style="fill: #f2b8e0; stroke: #303030; stroke-linejoin: miter"/>
   </g>
   <g id="line2d_107">
    <path d="M 606.067906 227.837596 
L 606.067906 241.188571 
" clip-path="url(#p6fed962795)" style="fill: none; stroke: #303030"/>
   </g>
   <g id="line2d_108">
    <path d="M 606.067906 216.116509 
L 606.067906 207.945798 
" clip-path="url(#p6fed962795)" style="fill: none; stroke: #303030"/>
   </g>
   <g id="line2d_109">
    <path d="M 598.162906 241.188571 
L 613.972906 241.188571 
" clip-path="url(#p6fed962795)" style="fill: none; stroke: #303030; stroke-linecap: round"/>
   </g>
   <g id="line2d_110">
    <path d="M 598.162906 207.945798 
L 613.972906 207.945798 
" clip-path="url(#p6fed962795)" style="fill: none; stroke: #303030; stroke-linecap: round"/>
   </g>
   <g id="line2d_111"/>
   <g id="patch_31">
    <path d="M 906.457906 371.327791 
L 938.077906 371.327791 
L 938.077906 362.114308 
L 906.457906 362.114308 
L 906.457906 371.327791 
z
" clip-path="url(#p6fed962795)" style="fill: #f2b8e0; stroke: #303030; stroke-linejoin: miter"/>
   </g>
   <g id="line2d_112">
    <path d="M 922.267906 371.327791 
L 922.267906 374.176928 
" clip-path="url(#p6fed962795)" style="fill: none; stroke: #303030"/>
   </g>
   <g id="line2d_113">
    <path d="M 922.267906 362.114308 
L 922.267906 358.23129 
" clip-path="url(#p6fed962795)" style="fill: none; stroke: #303030"/>
   </g>
   <g id="line2d_114">
    <path d="M 914.362906 374.176928 
L 930.172906 374.176928 
" clip-path="url(#p6fed962795)" style="fill: none; stroke: #303030; stroke-linecap: round"/>
   </g>
   <g id="line2d_115">
    <path d="M 914.362906 358.23129 
L 930.172906 358.23129 
" clip-path="url(#p6fed962795)" style="fill: none; stroke: #303030; stroke-linecap: round"/>
   </g>
   <g id="line2d_116"/>
   <g id="patch_32">
    <path d="M 305.677906 227.595681 
L 337.297906 227.595681 
L 337.297906 214.144009 
L 305.677906 214.144009 
L 305.677906 227.595681 
z
" clip-path="url(#p6fed962795)" style="fill: #949494; stroke: #303030; stroke-linejoin: miter"/>
   </g>
   <g id="line2d_117">
    <path d="M 321.487906 227.595681 
L 321.487906 234.296321 
" clip-path="url(#p6fed962795)" style="fill: none; stroke: #303030"/>
   </g>
   <g id="line2d_118">
    <path d="M 321.487906 214.144009 
L 321.487906 212.795176 
" clip-path="url(#p6fed962795)" style="fill: none; stroke: #303030"/>
   </g>
   <g id="line2d_119">
    <path d="M 313.582906 234.296321 
L 329.392906 234.296321 
" clip-path="url(#p6fed962795)" style="fill: none; stroke: #303030; stroke-linecap: round"/>
   </g>
   <g id="line2d_120">
    <path d="M 313.582906 212.795176 
L 329.392906 212.795176 
" clip-path="url(#p6fed962795)" style="fill: none; stroke: #303030; stroke-linecap: round"/>
   </g>
   <g id="line2d_121"/>
   <g id="patch_33">
    <path d="M 621.877906 193.997575 
L 653.497906 193.997575 
L 653.497906 179.174423 
L 621.877906 179.174423 
L 621.877906 193.997575 
z
" clip-path="url(#p6fed962795)" style="fill: #949494; stroke: #303030; stroke-linejoin: miter"/>
   </g>
   <g id="line2d_122">
    <path d="M 637.687906 193.997575 
L 637.687906 202.499971 
" clip-path="url(#p6fed962795)" style="fill: none; stroke: #303030"/>
   </g>
   <g id="line2d_123">
    <path d="M 637.687906 179.174423 
L 637.687906 167.596109 
" clip-path="url(#p6fed962795)" style="fill: none; stroke: #303030"/>
   </g>
   <g id="line2d_124">
    <path d="M 629.782906 202.499971 
L 645.592906 202.499971 
" clip-path="url(#p6fed962795)" style="fill: none; stroke: #303030; stroke-linecap: round"/>
   </g>
   <g id="line2d_125">
    <path d="M 629.782906 167.596109 
L 645.592906 167.596109 
" clip-path="url(#p6fed962795)" style="fill: none; stroke: #303030; stroke-linecap: round"/>
   </g>
   <g id="line2d_126"/>
   <g id="patch_34">
    <path d="M 938.077906 370.078259 
L 969.697906 370.078259 
L 969.697906 353.27024 
L 938.077906 353.27024 
L 938.077906 370.078259 
z
" clip-path="url(#p6fed962795)" style="fill: #949494; stroke: #303030; stroke-linejoin: miter"/>
   </g>
   <g id="line2d_127">
    <path d="M 953.887906 370.078259 
L 953.887906 372.844315 
" clip-path="url(#p6fed962795)" style="fill: none; stroke: #303030"/>
   </g>
   <g id="line2d_128">
    <path d="M 953.887906 353.27024 
L 953.887906 341.204231 
" clip-path="url(#p6fed962795)" style="fill: none; stroke: #303030"/>
   </g>
   <g id="line2d_129">
    <path d="M 945.982906 372.844315 
L 961.792906 372.844315 
" clip-path="url(#p6fed962795)" style="fill: none; stroke: #303030; stroke-linecap: round"/>
   </g>
   <g id="line2d_130">
    <path d="M 945.982906 341.204231 
L 961.792906 341.204231 
" clip-path="url(#p6fed962795)" style="fill: none; stroke: #303030; stroke-linecap: round"/>
   </g>
   <g id="line2d_131"/>
   <g id="line2d_132">
    <path d="M 84.337906 209.824491 
L 115.957906 209.824491 
" clip-path="url(#p6fed962795)" style="fill: none; stroke: #303030"/>
   </g>
   <g id="line2d_133">
    <path d="M 400.537906 210.851825 
L 432.157906 210.851825 
" clip-path="url(#p6fed962795)" style="fill: none; stroke: #303030"/>
   </g>
   <g id="line2d_134">
    <path d="M 716.737906 375.542553 
L 748.357906 375.542553 
" clip-path="url(#p6fed962795)" style="fill: none; stroke: #303030"/>
   </g>
   <g id="line2d_135">
    <path d="M 115.957906 250.70035 
L 147.577906 250.70035 
" clip-path="url(#p6fed962795)" style="fill: none; stroke: #303030"/>
   </g>
   <g id="line2d_136">
    <path d="M 432.157906 179.920863 
L 463.777906 179.920863 
" clip-path="url(#p6fed962795)" style="fill: none; stroke: #303030"/>
   </g>
   <g id="line2d_137">
    <path d="M 748.357906 383.717357 
L 779.977906 383.717357 
" clip-path="url(#p6fed962795)" style="fill: none; stroke: #303030"/>
   </g>
   <g id="line2d_138">
    <path d="M 147.577906 173.176787 
L 179.197906 173.176787 
" clip-path="url(#p6fed962795)" style="fill: none; stroke: #303030"/>
   </g>
   <g id="line2d_139">
    <path d="M 463.777906 221.00266 
L 495.397906 221.00266 
" clip-path="url(#p6fed962795)" style="fill: none; stroke: #303030"/>
   </g>
   <g id="line2d_140">
    <path d="M 779.977906 375.823722 
L 811.597906 375.823722 
" clip-path="url(#p6fed962795)" style="fill: none; stroke: #303030"/>
   </g>
   <g id="line2d_141">
    <path d="M 179.197906 234.296321 
L 210.817906 234.296321 
" clip-path="url(#p6fed962795)" style="fill: none; stroke: #303030"/>
   </g>
   <g id="line2d_142">
    <path d="M 495.397906 175.464952 
L 527.017906 175.464952 
" clip-path="url(#p6fed962795)" style="fill: none; stroke: #303030"/>
   </g>
   <g id="line2d_143">
    <path d="M 811.597906 370.644976 
L 843.217906 370.644976 
" clip-path="url(#p6fed962795)" style="fill: none; stroke: #303030"/>
   </g>
   <g id="line2d_144">
    <path d="M 210.817906 178.970331 
L 242.437906 178.970331 
" clip-path="url(#p6fed962795)" style="fill: none; stroke: #303030"/>
   </g>
   <g id="line2d_145">
    <path d="M 527.017906 224.585422 
L 558.637906 224.585422 
" clip-path="url(#p6fed962795)" style="fill: none; stroke: #303030"/>
   </g>
   <g id="line2d_146">
    <path d="M 843.217906 368.593976 
L 874.837906 368.593976 
" clip-path="url(#p6fed962795)" style="fill: none; stroke: #303030"/>
   </g>
   <g id="line2d_147">
    <path d="M 242.437906 231.616927 
L 274.057906 231.616927 
" clip-path="url(#p6fed962795)" style="fill: none; stroke: #303030"/>
   </g>
   <g id="line2d_148">
    <path d="M 558.637906 185.601314 
L 590.257906 185.601314 
" clip-path="url(#p6fed962795)" style="fill: none; stroke: #303030"/>
   </g>
   <g id="line2d_149">
    <path d="M 874.837906 362.779085 
L 906.457906 362.779085 
" clip-path="url(#p6fed962795)" style="fill: none; stroke: #303030"/>
   </g>
   <g id="line2d_150">
    <path d="M 274.057906 168.663895 
L 305.677906 168.663895 
" clip-path="url(#p6fed962795)" style="fill: none; stroke: #303030"/>
   </g>
   <g id="line2d_151">
    <path d="M 590.257906 224.420128 
L 621.877906 224.420128 
" clip-path="url(#p6fed962795)" style="fill: none; stroke: #303030"/>
   </g>
   <g id="line2d_152">
    <path d="M 906.457906 366.197048 
L 938.077906 366.197048 
" clip-path="url(#p6fed962795)" style="fill: none; stroke: #303030"/>
   </g>
   <g id="line2d_153">
    <path d="M 305.677906 220.880318 
L 337.297906 220.880318 
" clip-path="url(#p6fed962795)" style="fill: none; stroke: #303030"/>
   </g>
   <g id="line2d_154">
    <path d="M 621.877906 185.601314 
L 653.497906 185.601314 
" clip-path="url(#p6fed962795)" style="fill: none; stroke: #303030"/>
   </g>
   <g id="line2d_155">
    <path d="M 938.077906 359.252224 
L 969.697906 359.252224 
" clip-path="url(#p6fed962795)" style="fill: none; stroke: #303030"/>
   </g>
   <g id="patch_35">
    <path d="M 52.717906 430.2556 
L 52.717906 97.6156 
" style="fill: none; stroke: #262626; stroke-width: 1.25; stroke-linejoin: miter; stroke-linecap: square"/>
   </g>
   <g id="patch_36">
    <path d="M 1001.317906 430.2556 
L 1001.317906 97.6156 
" style="fill: none; stroke: #262626; stroke-width: 1.25; stroke-linejoin: miter; stroke-linecap: square"/>
   </g>
   <g id="patch_37">
    <path d="M 52.717906 430.2556 
L 1001.317906 430.2556 
" style="fill: none; stroke: #262626; stroke-width: 1.25; stroke-linejoin: miter; stroke-linecap: square"/>
   </g>
   <g id="patch_38">
    <path d="M 52.717906 97.6156 
L 1001.317906 97.6156 
" style="fill: none; stroke: #262626; stroke-width: 1.25; stroke-linejoin: miter; stroke-linecap: square"/>
   </g>
   <g id="text_14">
    <!-- Overview: Impact of feature subset size per split; 500 estimators with tree depth 5 -->
    <g style="fill: #262626" transform="translate(253.581969 91.6156) scale(0.132 -0.132)">
     <defs>
      <path id="DejaVuSans-4f" d="M 2522 4238 
Q 1834 4238 1429 3725 
Q 1025 3213 1025 2328 
Q 1025 1447 1429 934 
Q 1834 422 2522 422 
Q 3209 422 3611 934 
Q 4013 1447 4013 2328 
Q 4013 3213 3611 3725 
Q 3209 4238 2522 4238 
z
M 2522 4750 
Q 3503 4750 4090 4092 
Q 4678 3434 4678 2328 
Q 4678 1225 4090 567 
Q 3503 -91 2522 -91 
Q 1538 -91 948 565 
Q 359 1222 359 2328 
Q 359 3434 948 4092 
Q 1538 4750 2522 4750 
z
" transform="scale(0.015625)"/>
      <path id="DejaVuSans-76" d="M 191 3500 
L 800 3500 
L 1894 563 
L 2988 3500 
L 3597 3500 
L 2284 0 
L 1503 0 
L 191 3500 
z
" transform="scale(0.015625)"/>
      <path id="DejaVuSans-65" d="M 3597 1894 
L 3597 1613 
L 953 1613 
Q 991 1019 1311 708 
Q 1631 397 2203 397 
Q 2534 397 2845 478 
Q 3156 559 3463 722 
L 3463 178 
Q 3153 47 2828 -22 
Q 2503 -91 2169 -91 
Q 1331 -91 842 396 
Q 353 884 353 1716 
Q 353 2575 817 3079 
Q 1281 3584 2069 3584 
Q 2775 3584 3186 3129 
Q 3597 2675 3597 1894 
z
M 3022 2063 
Q 3016 2534 2758 2815 
Q 2500 3097 2075 3097 
Q 1594 3097 1305 2825 
Q 1016 2553 972 2059 
L 3022 2063 
z
" transform="scale(0.015625)"/>
      <path id="DejaVuSans-77" d="M 269 3500 
L 844 3500 
L 1563 769 
L 2278 3500 
L 2956 3500 
L 3675 769 
L 4391 3500 
L 4966 3500 
L 4050 0 
L 3372 0 
L 2619 2869 
L 1863 0 
L 1184 0 
L 269 3500 
z
" transform="scale(0.015625)"/>
      <path id="DejaVuSans-3a" d="M 750 794 
L 1409 794 
L 1409 0 
L 750 0 
L 750 794 
z
M 750 3309 
L 1409 3309 
L 1409 2516 
L 750 2516 
L 750 3309 
z
" transform="scale(0.015625)"/>
      <path id="DejaVuSans-20" transform="scale(0.015625)"/>
      <path id="DejaVuSans-49" d="M 628 4666 
L 1259 4666 
L 1259 0 
L 628 0 
L 628 4666 
z
" transform="scale(0.015625)"/>
      <path id="DejaVuSans-66" d="M 2375 4863 
L 2375 4384 
L 1825 4384 
Q 1516 4384 1395 4259 
Q 1275 4134 1275 3809 
L 1275 3500 
L 2222 3500 
L 2222 3053 
L 1275 3053 
L 1275 0 
L 697 0 
L 697 3053 
L 147 3053 
L 147 3500 
L 697 3500 
L 697 3744 
Q 697 4328 969 4595 
Q 1241 4863 1831 4863 
L 2375 4863 
z
" transform="scale(0.015625)"/>
      <path id="DejaVuSans-75" d="M 544 1381 
L 544 3500 
L 1119 3500 
L 1119 1403 
Q 1119 906 1312 657 
Q 1506 409 1894 409 
Q 2359 409 2629 706 
Q 2900 1003 2900 1516 
L 2900 3500 
L 3475 3500 
L 3475 0 
L 2900 0 
L 2900 538 
Q 2691 219 2414 64 
Q 2138 -91 1772 -91 
Q 1169 -91 856 284 
Q 544 659 544 1381 
z
M 1991 3584 
L 1991 3584 
z
" transform="scale(0.015625)"/>
      <path id="DejaVuSans-73" d="M 2834 3397 
L 2834 2853 
Q 2591 2978 2328 3040 
Q 2066 3103 1784 3103 
Q 1356 3103 1142 2972 
Q 928 2841 928 2578 
Q 928 2378 1081 2264 
Q 1234 2150 1697 2047 
L 1894 2003 
Q 2506 1872 2764 1633 
Q 3022 1394 3022 966 
Q 3022 478 2636 193 
Q 2250 -91 1575 -91 
Q 1294 -91 989 -36 
Q 684 19 347 128 
L 347 722 
Q 666 556 975 473 
Q 1284 391 1588 391 
Q 1994 391 2212 530 
Q 2431 669 2431 922 
Q 2431 1156 2273 1281 
Q 2116 1406 1581 1522 
L 1381 1569 
Q 847 1681 609 1914 
Q 372 2147 372 2553 
Q 372 3047 722 3315 
Q 1072 3584 1716 3584 
Q 2034 3584 2315 3537 
Q 2597 3491 2834 3397 
z
" transform="scale(0.015625)"/>
      <path id="DejaVuSans-62" d="M 3116 1747 
Q 3116 2381 2855 2742 
Q 2594 3103 2138 3103 
Q 1681 3103 1420 2742 
Q 1159 2381 1159 1747 
Q 1159 1113 1420 752 
Q 1681 391 2138 391 
Q 2594 391 2855 752 
Q 3116 1113 3116 1747 
z
M 1159 2969 
Q 1341 3281 1617 3432 
Q 1894 3584 2278 3584 
Q 2916 3584 3314 3078 
Q 3713 2572 3713 1747 
Q 3713 922 3314 415 
Q 2916 -91 2278 -91 
Q 1894 -91 1617 61 
Q 1341 213 1159 525 
L 1159 0 
L 581 0 
L 581 4863 
L 1159 4863 
L 1159 2969 
z
" transform="scale(0.015625)"/>
      <path id="DejaVuSans-7a" d="M 353 3500 
L 3084 3500 
L 3084 2975 
L 922 459 
L 3084 459 
L 3084 0 
L 275 0 
L 275 525 
L 2438 3041 
L 353 3041 
L 353 3500 
z
" transform="scale(0.015625)"/>
      <path id="DejaVuSans-6c" d="M 603 4863 
L 1178 4863 
L 1178 0 
L 603 0 
L 603 4863 
z
" transform="scale(0.015625)"/>
      <path id="DejaVuSans-3b" d="M 750 3309 
L 1409 3309 
L 1409 2516 
L 750 2516 
L 750 3309 
z
M 750 794 
L 1409 794 
L 1409 256 
L 897 -744 
L 494 -744 
L 750 256 
L 750 794 
z
" transform="scale(0.015625)"/>
      <path id="DejaVuSans-64" d="M 2906 2969 
L 2906 4863 
L 3481 4863 
L 3481 0 
L 2906 0 
L 2906 525 
Q 2725 213 2448 61 
Q 2172 -91 1784 -91 
Q 1150 -91 751 415 
Q 353 922 353 1747 
Q 353 2572 751 3078 
Q 1150 3584 1784 3584 
Q 2172 3584 2448 3432 
Q 2725 3281 2906 2969 
z
M 947 1747 
Q 947 1113 1208 752 
Q 1469 391 1925 391 
Q 2381 391 2643 752 
Q 2906 1113 2906 1747 
Q 2906 2381 2643 2742 
Q 2381 3103 1925 3103 
Q 1469 3103 1208 2742 
Q 947 2381 947 1747 
z
" transform="scale(0.015625)"/>
     </defs>
     <use xlink:href="#DejaVuSans-4f"/>
     <use xlink:href="#DejaVuSans-76" transform="translate(78.710938 0)"/>
     <use xlink:href="#DejaVuSans-65" transform="translate(137.890625 0)"/>
     <use xlink:href="#DejaVuSans-72" transform="translate(199.414062 0)"/>
     <use xlink:href="#DejaVuSans-76" transform="translate(240.527344 0)"/>
     <use xlink:href="#DejaVuSans-69" transform="translate(299.707031 0)"/>
     <use xlink:href="#DejaVuSans-65" transform="translate(327.490234 0)"/>
     <use xlink:href="#DejaVuSans-77" transform="translate(389.013672 0)"/>
     <use xlink:href="#DejaVuSans-3a" transform="translate(465.300781 0)"/>
     <use xlink:href="#DejaVuSans-20" transform="translate(498.992188 0)"/>
     <use xlink:href="#DejaVuSans-49" transform="translate(530.779297 0)"/>
     <use xlink:href="#DejaVuSans-6d" transform="translate(560.271484 0)"/>
     <use xlink:href="#DejaVuSans-70" transform="translate(657.683594 0)"/>
     <use xlink:href="#DejaVuSans-61" transform="translate(721.160156 0)"/>
     <use xlink:href="#DejaVuSans-63" transform="translate(782.439453 0)"/>
     <use xlink:href="#DejaVuSans-74" transform="translate(837.419922 0)"/>
     <use xlink:href="#DejaVuSans-20" transform="translate(876.628906 0)"/>
     <use xlink:href="#DejaVuSans-6f" transform="translate(908.416016 0)"/>
     <use xlink:href="#DejaVuSans-66" transform="translate(969.597656 0)"/>
     <use xlink:href="#DejaVuSans-20" transform="translate(1004.802734 0)"/>
     <use xlink:href="#DejaVuSans-66" transform="translate(1036.589844 0)"/>
     <use xlink:href="#DejaVuSans-65" transform="translate(1071.794922 0)"/>
     <use xlink:href="#DejaVuSans-61" transform="translate(1133.318359 0)"/>
     <use xlink:href="#DejaVuSans-74" transform="translate(1194.597656 0)"/>
     <use xlink:href="#DejaVuSans-75" transform="translate(1233.806641 0)"/>
     <use xlink:href="#DejaVuSans-72" transform="translate(1297.185547 0)"/>
     <use xlink:href="#DejaVuSans-65" transform="translate(1336.048828 0)"/>
     <use xlink:href="#DejaVuSans-20" transform="translate(1397.572266 0)"/>
     <use xlink:href="#DejaVuSans-73" transform="translate(1429.359375 0)"/>
     <use xlink:href="#DejaVuSans-75" transform="translate(1481.458984 0)"/>
     <use xlink:href="#DejaVuSans-62" transform="translate(1544.837891 0)"/>
     <use xlink:href="#DejaVuSans-73" transform="translate(1608.314453 0)"/>
     <use xlink:href="#DejaVuSans-65" transform="translate(1660.414062 0)"/>
     <use xlink:href="#DejaVuSans-74" transform="translate(1721.9375 0)"/>
     <use xlink:href="#DejaVuSans-20" transform="translate(1761.146484 0)"/>
     <use xlink:href="#DejaVuSans-73" transform="translate(1792.933594 0)"/>
     <use xlink:href="#DejaVuSans-69" transform="translate(1845.033203 0)"/>
     <use xlink:href="#DejaVuSans-7a" transform="translate(1872.816406 0)"/>
     <use xlink:href="#DejaVuSans-65" transform="translate(1925.306641 0)"/>
     <use xlink:href="#DejaVuSans-20" transform="translate(1986.830078 0)"/>
     <use xlink:href="#DejaVuSans-70" transform="translate(2018.617188 0)"/>
     <use xlink:href="#DejaVuSans-65" transform="translate(2082.09375 0)"/>
     <use xlink:href="#DejaVuSans-72" transform="translate(2143.617188 0)"/>
     <use xlink:href="#DejaVuSans-20" transform="translate(2184.730469 0)"/>
     <use xlink:href="#DejaVuSans-73" transform="translate(2216.517578 0)"/>
     <use xlink:href="#DejaVuSans-70" transform="translate(2268.617188 0)"/>
     <use xlink:href="#DejaVuSans-6c" transform="translate(2332.09375 0)"/>
     <use xlink:href="#DejaVuSans-69" transform="translate(2359.876953 0)"/>
     <use xlink:href="#DejaVuSans-74" transform="translate(2387.660156 0)"/>
     <use xlink:href="#DejaVuSans-3b" transform="translate(2426.869141 0)"/>
     <use xlink:href="#DejaVuSans-20" transform="translate(2460.560547 0)"/>
     <use xlink:href="#DejaVuSans-35" transform="translate(2492.347656 0)"/>
     <use xlink:href="#DejaVuSans-30" transform="translate(2555.970703 0)"/>
     <use xlink:href="#DejaVuSans-30" transform="translate(2619.59375 0)"/>
     <use xlink:href="#DejaVuSans-20" transform="translate(2683.216797 0)"/>
     <use xlink:href="#DejaVuSans-65" transform="translate(2715.003906 0)"/>
     <use xlink:href="#DejaVuSans-73" transform="translate(2776.527344 0)"/>
     <use xlink:href="#DejaVuSans-74" transform="translate(2828.626953 0)"/>
     <use xlink:href="#DejaVuSans-69" transform="translate(2867.835938 0)"/>
     <use xlink:href="#DejaVuSans-6d" transform="translate(2895.619141 0)"/>
     <use xlink:href="#DejaVuSans-61" transform="translate(2993.03125 0)"/>
     <use xlink:href="#DejaVuSans-74" transform="translate(3054.310547 0)"/>
     <use xlink:href="#DejaVuSans-6f" transform="translate(3093.519531 0)"/>
     <use xlink:href="#DejaVuSans-72" transform="translate(3154.701172 0)"/>
     <use xlink:href="#DejaVuSans-73" transform="translate(3195.814453 0)"/>
     <use xlink:href="#DejaVuSans-20" transform="translate(3247.914062 0)"/>
     <use xlink:href="#DejaVuSans-77" transform="translate(3279.701172 0)"/>
     <use xlink:href="#DejaVuSans-69" transform="translate(3361.488281 0)"/>
     <use xlink:href="#DejaVuSans-74" transform="translate(3389.271484 0)"/>
     <use xlink:href="#DejaVuSans-68" transform="translate(3428.480469 0)"/>
     <use xlink:href="#DejaVuSans-20" transform="translate(3491.859375 0)"/>
     <use xlink:href="#DejaVuSans-74" transform="translate(3523.646484 0)"/>
     <use xlink:href="#DejaVuSans-72" transform="translate(3562.855469 0)"/>
     <use xlink:href="#DejaVuSans-65" transform="translate(3601.71875 0)"/>
     <use xlink:href="#DejaVuSans-65" transform="translate(3663.242188 0)"/>
     <use xlink:href="#DejaVuSans-20" transform="translate(3724.765625 0)"/>
     <use xlink:href="#DejaVuSans-64" transform="translate(3756.552734 0)"/>
     <use xlink:href="#DejaVuSans-65" transform="translate(3820.029297 0)"/>
     <use xlink:href="#DejaVuSans-70" transform="translate(3881.552734 0)"/>
     <use xlink:href="#DejaVuSans-74" transform="translate(3945.029297 0)"/>
     <use xlink:href="#DejaVuSans-68" transform="translate(3984.238281 0)"/>
     <use xlink:href="#DejaVuSans-20" transform="translate(4047.617188 0)"/>
     <use xlink:href="#DejaVuSans-35" transform="translate(4079.404297 0)"/>
    </g>
   </g>
   <g id="legend_1">
    <g id="patch_39">
     <path d="M 93.784969 65.84925 
L 960.250844 65.84925 
Q 962.670844 65.84925 962.670844 63.42925 
L 962.670844 9.62 
Q 962.670844 7.2 960.250844 7.2 
L 93.784969 7.2 
Q 91.364969 7.2 91.364969 9.62 
L 91.364969 63.42925 
Q 91.364969 65.84925 93.784969 65.84925 
z
" style="fill: #ffffff; opacity: 0.8; stroke: #cccccc; stroke-linejoin: miter"/>
    </g>
    <g id="text_15">
     <!-- Method and feature subset size -->
     <g style="fill: #262626" transform="translate(422.936938 22.069938) scale(0.132 -0.132)">
      <defs>
       <path id="DejaVuSans-4d" d="M 628 4666 
L 1569 4666 
L 2759 1491 
L 3956 4666 
L 4897 4666 
L 4897 0 
L 4281 0 
L 4281 4097 
L 3078 897 
L 2444 897 
L 1241 4097 
L 1241 0 
L 628 0 
L 628 4666 
z
" transform="scale(0.015625)"/>
      </defs>
      <use xlink:href="#DejaVuSans-4d"/>
      <use xlink:href="#DejaVuSans-65" transform="translate(86.279297 0)"/>
      <use xlink:href="#DejaVuSans-74" transform="translate(147.802734 0)"/>
      <use xlink:href="#DejaVuSans-68" transform="translate(187.011719 0)"/>
      <use xlink:href="#DejaVuSans-6f" transform="translate(250.390625 0)"/>
      <use xlink:href="#DejaVuSans-64" transform="translate(311.572266 0)"/>
      <use xlink:href="#DejaVuSans-20" transform="translate(375.048828 0)"/>
      <use xlink:href="#DejaVuSans-61" transform="translate(406.835938 0)"/>
      <use xlink:href="#DejaVuSans-6e" transform="translate(468.115234 0)"/>
      <use xlink:href="#DejaVuSans-64" transform="translate(531.494141 0)"/>
      <use xlink:href="#DejaVuSans-20" transform="translate(594.970703 0)"/>
      <use xlink:href="#DejaVuSans-66" transform="translate(626.757812 0)"/>
      <use xlink:href="#DejaVuSans-65" transform="translate(661.962891 0)"/>
      <use xlink:href="#DejaVuSans-61" transform="translate(723.486328 0)"/>
      <use xlink:href="#DejaVuSans-74" transform="translate(784.765625 0)"/>
      <use xlink:href="#DejaVuSans-75" transform="translate(823.974609 0)"/>
      <use xlink:href="#DejaVuSans-72" transform="translate(887.353516 0)"/>
      <use xlink:href="#DejaVuSans-65" transform="translate(926.216797 0)"/>
      <use xlink:href="#DejaVuSans-20" transform="translate(987.740234 0)"/>
      <use xlink:href="#DejaVuSans-73" transform="translate(1019.527344 0)"/>
      <use xlink:href="#DejaVuSans-75" transform="translate(1071.626953 0)"/>
      <use xlink:href="#DejaVuSans-62" transform="translate(1135.005859 0)"/>
      <use xlink:href="#DejaVuSans-73" transform="translate(1198.482422 0)"/>
      <use xlink:href="#DejaVuSans-65" transform="translate(1250.582031 0)"/>
      <use xlink:href="#DejaVuSans-74" transform="translate(1312.105469 0)"/>
      <use xlink:href="#DejaVuSans-20" transform="translate(1351.314453 0)"/>
      <use xlink:href="#DejaVuSans-73" transform="translate(1383.101562 0)"/>
      <use xlink:href="#DejaVuSans-69" transform="translate(1435.201172 0)"/>
      <use xlink:href="#DejaVuSans-7a" transform="translate(1462.984375 0)"/>
      <use xlink:href="#DejaVuSans-65" transform="translate(1515.474609 0)"/>
     </g>
    </g>
    <g id="patch_40">
     <path d="M 96.204969 40.059234 
L 120.404969 40.059234 
L 120.404969 31.589234 
L 96.204969 31.589234 
z
" style="fill: #176d9c; stroke: #303030; stroke-linejoin: miter"/>
    </g>
    <g id="text_16">
     <!-- sklearn_random_forest_63 -->
     <g style="fill: #262626" transform="translate(130.084969 40.059234) scale(0.121 -0.121)">
      <defs>
       <path id="DejaVuSans-6b" d="M 581 4863 
L 1159 4863 
L 1159 1991 
L 2875 3500 
L 3609 3500 
L 1753 1863 
L 3688 0 
L 2938 0 
L 1159 1709 
L 1159 0 
L 581 0 
L 581 4863 
z
" transform="scale(0.015625)"/>
       <path id="DejaVuSans-5f" d="M 3263 -1063 
L 3263 -1509 
L -63 -1509 
L -63 -1063 
L 3263 -1063 
z
" transform="scale(0.015625)"/>
      </defs>
      <use xlink:href="#DejaVuSans-73"/>
      <use xlink:href="#DejaVuSans-6b" transform="translate(52.099609 0)"/>
      <use xlink:href="#DejaVuSans-6c" transform="translate(110.009766 0)"/>
      <use xlink:href="#DejaVuSans-65" transform="translate(137.792969 0)"/>
      <use xlink:href="#DejaVuSans-61" transform="translate(199.316406 0)"/>
      <use xlink:href="#DejaVuSans-72" transform="translate(260.595703 0)"/>
      <use xlink:href="#DejaVuSans-6e" transform="translate(299.958984 0)"/>
      <use xlink:href="#DejaVuSans-5f" transform="translate(363.337891 0)"/>
      <use xlink:href="#DejaVuSans-72" transform="translate(413.337891 0)"/>
      <use xlink:href="#DejaVuSans-61" transform="translate(454.451172 0)"/>
      <use xlink:href="#DejaVuSans-6e" transform="translate(515.730469 0)"/>
      <use xlink:href="#DejaVuSans-64" transform="translate(579.109375 0)"/>
      <use xlink:href="#DejaVuSans-6f" transform="translate(642.585938 0)"/>
      <use xlink:href="#DejaVuSans-6d" transform="translate(703.767578 0)"/>
      <use xlink:href="#DejaVuSans-5f" transform="translate(801.179688 0)"/>
      <use xlink:href="#DejaVuSans-66" transform="translate(851.179688 0)"/>
      <use xlink:href="#DejaVuSans-6f" transform="translate(886.384766 0)"/>
      <use xlink:href="#DejaVuSans-72" transform="translate(947.566406 0)"/>
      <use xlink:href="#DejaVuSans-65" transform="translate(986.429688 0)"/>
      <use xlink:href="#DejaVuSans-73" transform="translate(1047.953125 0)"/>
      <use xlink:href="#DejaVuSans-74" transform="translate(1100.052734 0)"/>
      <use xlink:href="#DejaVuSans-5f" transform="translate(1139.261719 0)"/>
      <use xlink:href="#DejaVuSans-36" transform="translate(1189.261719 0)"/>
      <use xlink:href="#DejaVuSans-33" transform="translate(1252.884766 0)"/>
     </g>
    </g>
    <g id="patch_41">
     <path d="M 96.204969 58.156297 
L 120.404969 58.156297 
L 120.404969 49.686297 
L 96.204969 49.686297 
z
" style="fill: #c38820; stroke: #303030; stroke-linejoin: miter"/>
    </g>
    <g id="text_17">
     <!-- rollOCT_random_forest_63 -->
     <g style="fill: #262626" transform="translate(130.084969 58.156297) scale(0.121 -0.121)">
      <defs>
       <path id="DejaVuSans-54" d="M -19 4666 
L 3928 4666 
L 3928 4134 
L 2272 4134 
L 2272 0 
L 1638 0 
L 1638 4134 
L -19 4134 
L -19 4666 
z
" transform="scale(0.015625)"/>
      </defs>
      <use xlink:href="#DejaVuSans-72"/>
      <use xlink:href="#DejaVuSans-6f" transform="translate(38.863281 0)"/>
      <use xlink:href="#DejaVuSans-6c" transform="translate(100.044922 0)"/>
      <use xlink:href="#DejaVuSans-6c" transform="translate(127.828125 0)"/>
      <use xlink:href="#DejaVuSans-4f" transform="translate(155.611328 0)"/>
      <use xlink:href="#DejaVuSans-43" transform="translate(234.322266 0)"/>
      <use xlink:href="#DejaVuSans-54" transform="translate(304.146484 0)"/>
      <use xlink:href="#DejaVuSans-5f" transform="translate(365.230469 0)"/>
      <use xlink:href="#DejaVuSans-72" transform="translate(415.230469 0)"/>
      <use xlink:href="#DejaVuSans-61" transform="translate(456.34375 0)"/>
      <use xlink:href="#DejaVuSans-6e" transform="translate(517.623047 0)"/>
      <use xlink:href="#DejaVuSans-64" transform="translate(581.001953 0)"/>
      <use xlink:href="#DejaVuSans-6f" transform="translate(644.478516 0)"/>
      <use xlink:href="#DejaVuSans-6d" transform="translate(705.660156 0)"/>
      <use xlink:href="#DejaVuSans-5f" transform="translate(803.072266 0)"/>
      <use xlink:href="#DejaVuSans-66" transform="translate(853.072266 0)"/>
      <use xlink:href="#DejaVuSans-6f" transform="translate(888.277344 0)"/>
      <use xlink:href="#DejaVuSans-72" transform="translate(949.458984 0)"/>
      <use xlink:href="#DejaVuSans-65" transform="translate(988.322266 0)"/>
      <use xlink:href="#DejaVuSans-73" transform="translate(1049.845703 0)"/>
      <use xlink:href="#DejaVuSans-74" transform="translate(1101.945312 0)"/>
      <use xlink:href="#DejaVuSans-5f" transform="translate(1141.154297 0)"/>
      <use xlink:href="#DejaVuSans-36" transform="translate(1191.154297 0)"/>
      <use xlink:href="#DejaVuSans-33" transform="translate(1254.777344 0)"/>
     </g>
    </g>
    <g id="patch_42">
     <path d="M 313.812125 40.059234 
L 338.012125 40.059234 
L 338.012125 31.589234 
L 313.812125 31.589234 
z
" style="fill: #158b6a; stroke: #303030; stroke-linejoin: miter"/>
    </g>
    <g id="text_18">
     <!-- sklearn_random_forest_98 -->
     <g style="fill: #262626" transform="translate(347.692125 40.059234) scale(0.121 -0.121)">
      <defs>
       <path id="DejaVuSans-39" d="M 703 97 
L 703 672 
Q 941 559 1184 500 
Q 1428 441 1663 441 
Q 2288 441 2617 861 
Q 2947 1281 2994 2138 
Q 2813 1869 2534 1725 
Q 2256 1581 1919 1581 
Q 1219 1581 811 2004 
Q 403 2428 403 3163 
Q 403 3881 828 4315 
Q 1253 4750 1959 4750 
Q 2769 4750 3195 4129 
Q 3622 3509 3622 2328 
Q 3622 1225 3098 567 
Q 2575 -91 1691 -91 
Q 1453 -91 1209 -44 
Q 966 3 703 97 
z
M 1959 2075 
Q 2384 2075 2632 2365 
Q 2881 2656 2881 3163 
Q 2881 3666 2632 3958 
Q 2384 4250 1959 4250 
Q 1534 4250 1286 3958 
Q 1038 3666 1038 3163 
Q 1038 2656 1286 2365 
Q 1534 2075 1959 2075 
z
" transform="scale(0.015625)"/>
      </defs>
      <use xlink:href="#DejaVuSans-73"/>
      <use xlink:href="#DejaVuSans-6b" transform="translate(52.099609 0)"/>
      <use xlink:href="#DejaVuSans-6c" transform="translate(110.009766 0)"/>
      <use xlink:href="#DejaVuSans-65" transform="translate(137.792969 0)"/>
      <use xlink:href="#DejaVuSans-61" transform="translate(199.316406 0)"/>
      <use xlink:href="#DejaVuSans-72" transform="translate(260.595703 0)"/>
      <use xlink:href="#DejaVuSans-6e" transform="translate(299.958984 0)"/>
      <use xlink:href="#DejaVuSans-5f" transform="translate(363.337891 0)"/>
      <use xlink:href="#DejaVuSans-72" transform="translate(413.337891 0)"/>
      <use xlink:href="#DejaVuSans-61" transform="translate(454.451172 0)"/>
      <use xlink:href="#DejaVuSans-6e" transform="translate(515.730469 0)"/>
      <use xlink:href="#DejaVuSans-64" transform="translate(579.109375 0)"/>
      <use xlink:href="#DejaVuSans-6f" transform="translate(642.585938 0)"/>
      <use xlink:href="#DejaVuSans-6d" transform="translate(703.767578 0)"/>
      <use xlink:href="#DejaVuSans-5f" transform="translate(801.179688 0)"/>
      <use xlink:href="#DejaVuSans-66" transform="translate(851.179688 0)"/>
      <use xlink:href="#DejaVuSans-6f" transform="translate(886.384766 0)"/>
      <use xlink:href="#DejaVuSans-72" transform="translate(947.566406 0)"/>
      <use xlink:href="#DejaVuSans-65" transform="translate(986.429688 0)"/>
      <use xlink:href="#DejaVuSans-73" transform="translate(1047.953125 0)"/>
      <use xlink:href="#DejaVuSans-74" transform="translate(1100.052734 0)"/>
      <use xlink:href="#DejaVuSans-5f" transform="translate(1139.261719 0)"/>
      <use xlink:href="#DejaVuSans-39" transform="translate(1189.261719 0)"/>
      <use xlink:href="#DejaVuSans-38" transform="translate(1252.884766 0)"/>
     </g>
    </g>
    <g id="patch_43">
     <path d="M 313.812125 58.156297 
L 338.012125 58.156297 
L 338.012125 49.686297 
L 313.812125 49.686297 
z
" style="fill: #ba611b; stroke: #303030; stroke-linejoin: miter"/>
    </g>
    <g id="text_19">
     <!-- rollOCT_random_forest_98 -->
     <g style="fill: #262626" transform="translate(347.692125 58.156297) scale(0.121 -0.121)">
      <use xlink:href="#DejaVuSans-72"/>
      <use xlink:href="#DejaVuSans-6f" transform="translate(38.863281 0)"/>
      <use xlink:href="#DejaVuSans-6c" transform="translate(100.044922 0)"/>
      <use xlink:href="#DejaVuSans-6c" transform="translate(127.828125 0)"/>
      <use xlink:href="#DejaVuSans-4f" transform="translate(155.611328 0)"/>
      <use xlink:href="#DejaVuSans-43" transform="translate(234.322266 0)"/>
      <use xlink:href="#DejaVuSans-54" transform="translate(304.146484 0)"/>
      <use xlink:href="#DejaVuSans-5f" transform="translate(365.230469 0)"/>
      <use xlink:href="#DejaVuSans-72" transform="translate(415.230469 0)"/>
      <use xlink:href="#DejaVuSans-61" transform="translate(456.34375 0)"/>
      <use xlink:href="#DejaVuSans-6e" transform="translate(517.623047 0)"/>
      <use xlink:href="#DejaVuSans-64" transform="translate(581.001953 0)"/>
      <use xlink:href="#DejaVuSans-6f" transform="translate(644.478516 0)"/>
      <use xlink:href="#DejaVuSans-6d" transform="translate(705.660156 0)"/>
      <use xlink:href="#DejaVuSans-5f" transform="translate(803.072266 0)"/>
      <use xlink:href="#DejaVuSans-66" transform="translate(853.072266 0)"/>
      <use xlink:href="#DejaVuSans-6f" transform="translate(888.277344 0)"/>
      <use xlink:href="#DejaVuSans-72" transform="translate(949.458984 0)"/>
      <use xlink:href="#DejaVuSans-65" transform="translate(988.322266 0)"/>
      <use xlink:href="#DejaVuSans-73" transform="translate(1049.845703 0)"/>
      <use xlink:href="#DejaVuSans-74" transform="translate(1101.945312 0)"/>
      <use xlink:href="#DejaVuSans-5f" transform="translate(1141.154297 0)"/>
      <use xlink:href="#DejaVuSans-39" transform="translate(1191.154297 0)"/>
      <use xlink:href="#DejaVuSans-38" transform="translate(1254.777344 0)"/>
     </g>
    </g>
    <g id="patch_44">
     <path d="M 531.419281 40.059234 
L 555.619281 40.059234 
L 555.619281 31.589234 
L 531.419281 31.589234 
z
" style="fill: #c282b5; stroke: #303030; stroke-linejoin: miter"/>
    </g>
    <g id="text_20">
     <!-- sklearn_random_forest_117 -->
     <g style="fill: #262626" transform="translate(565.299281 40.059234) scale(0.121 -0.121)">
      <use xlink:href="#DejaVuSans-73"/>
      <use xlink:href="#DejaVuSans-6b" transform="translate(52.099609 0)"/>
      <use xlink:href="#DejaVuSans-6c" transform="translate(110.009766 0)"/>
      <use xlink:href="#DejaVuSans-65" transform="translate(137.792969 0)"/>
      <use xlink:href="#DejaVuSans-61" transform="translate(199.316406 0)"/>
      <use xlink:href="#DejaVuSans-72" transform="translate(260.595703 0)"/>
      <use xlink:href="#DejaVuSans-6e" transform="translate(299.958984 0)"/>
      <use xlink:href="#DejaVuSans-5f" transform="translate(363.337891 0)"/>
      <use xlink:href="#DejaVuSans-72" transform="translate(413.337891 0)"/>
      <use xlink:href="#DejaVuSans-61" transform="translate(454.451172 0)"/>
      <use xlink:href="#DejaVuSans-6e" transform="translate(515.730469 0)"/>
      <use xlink:href="#DejaVuSans-64" transform="translate(579.109375 0)"/>
      <use xlink:href="#DejaVuSans-6f" transform="translate(642.585938 0)"/>
      <use xlink:href="#DejaVuSans-6d" transform="translate(703.767578 0)"/>
      <use xlink:href="#DejaVuSans-5f" transform="translate(801.179688 0)"/>
      <use xlink:href="#DejaVuSans-66" transform="translate(851.179688 0)"/>
      <use xlink:href="#DejaVuSans-6f" transform="translate(886.384766 0)"/>
      <use xlink:href="#DejaVuSans-72" transform="translate(947.566406 0)"/>
      <use xlink:href="#DejaVuSans-65" transform="translate(986.429688 0)"/>
      <use xlink:href="#DejaVuSans-73" transform="translate(1047.953125 0)"/>
      <use xlink:href="#DejaVuSans-74" transform="translate(1100.052734 0)"/>
      <use xlink:href="#DejaVuSans-5f" transform="translate(1139.261719 0)"/>
      <use xlink:href="#DejaVuSans-31" transform="translate(1189.261719 0)"/>
      <use xlink:href="#DejaVuSans-31" transform="translate(1252.884766 0)"/>
      <use xlink:href="#DejaVuSans-37" transform="translate(1316.507812 0)"/>
     </g>
    </g>
    <g id="patch_45">
     <path d="M 531.419281 58.156297 
L 555.619281 58.156297 
L 555.619281 49.686297 
L 531.419281 49.686297 
z
" style="fill: #bd926e; stroke: #303030; stroke-linejoin: miter"/>
    </g>
    <g id="text_21">
     <!-- rollOCT_random_forest_117 -->
     <g style="fill: #262626" transform="translate(565.299281 58.156297) scale(0.121 -0.121)">
      <use xlink:href="#DejaVuSans-72"/>
      <use xlink:href="#DejaVuSans-6f" transform="translate(38.863281 0)"/>
      <use xlink:href="#DejaVuSans-6c" transform="translate(100.044922 0)"/>
      <use xlink:href="#DejaVuSans-6c" transform="translate(127.828125 0)"/>
      <use xlink:href="#DejaVuSans-4f" transform="translate(155.611328 0)"/>
      <use xlink:href="#DejaVuSans-43" transform="translate(234.322266 0)"/>
      <use xlink:href="#DejaVuSans-54" transform="translate(304.146484 0)"/>
      <use xlink:href="#DejaVuSans-5f" transform="translate(365.230469 0)"/>
      <use xlink:href="#DejaVuSans-72" transform="translate(415.230469 0)"/>
      <use xlink:href="#DejaVuSans-61" transform="translate(456.34375 0)"/>
      <use xlink:href="#DejaVuSans-6e" transform="translate(517.623047 0)"/>
      <use xlink:href="#DejaVuSans-64" transform="translate(581.001953 0)"/>
      <use xlink:href="#DejaVuSans-6f" transform="translate(644.478516 0)"/>
      <use xlink:href="#DejaVuSans-6d" transform="translate(705.660156 0)"/>
      <use xlink:href="#DejaVuSans-5f" transform="translate(803.072266 0)"/>
      <use xlink:href="#DejaVuSans-66" transform="translate(853.072266 0)"/>
      <use xlink:href="#DejaVuSans-6f" transform="translate(888.277344 0)"/>
      <use xlink:href="#DejaVuSans-72" transform="translate(949.458984 0)"/>
      <use xlink:href="#DejaVuSans-65" transform="translate(988.322266 0)"/>
      <use xlink:href="#DejaVuSans-73" transform="translate(1049.845703 0)"/>
      <use xlink:href="#DejaVuSans-74" transform="translate(1101.945312 0)"/>
      <use xlink:href="#DejaVuSans-5f" transform="translate(1141.154297 0)"/>
      <use xlink:href="#DejaVuSans-31" transform="translate(1191.154297 0)"/>
      <use xlink:href="#DejaVuSans-31" transform="translate(1254.777344 0)"/>
      <use xlink:href="#DejaVuSans-37" transform="translate(1318.400391 0)"/>
     </g>
    </g>
    <g id="patch_46">
     <path d="M 756.725063 40.059234 
L 780.925063 40.059234 
L 780.925063 31.589234 
L 756.725063 31.589234 
z
" style="fill: #f2b8e0; stroke: #303030; stroke-linejoin: miter"/>
    </g>
    <g id="text_22">
     <!-- sklearn_random_forest_137 -->
     <g style="fill: #262626" transform="translate(790.605063 40.059234) scale(0.121 -0.121)">
      <use xlink:href="#DejaVuSans-73"/>
      <use xlink:href="#DejaVuSans-6b" transform="translate(52.099609 0)"/>
      <use xlink:href="#DejaVuSans-6c" transform="translate(110.009766 0)"/>
      <use xlink:href="#DejaVuSans-65" transform="translate(137.792969 0)"/>
      <use xlink:href="#DejaVuSans-61" transform="translate(199.316406 0)"/>
      <use xlink:href="#DejaVuSans-72" transform="translate(260.595703 0)"/>
      <use xlink:href="#DejaVuSans-6e" transform="translate(299.958984 0)"/>
      <use xlink:href="#DejaVuSans-5f" transform="translate(363.337891 0)"/>
      <use xlink:href="#DejaVuSans-72" transform="translate(413.337891 0)"/>
      <use xlink:href="#DejaVuSans-61" transform="translate(454.451172 0)"/>
      <use xlink:href="#DejaVuSans-6e" transform="translate(515.730469 0)"/>
      <use xlink:href="#DejaVuSans-64" transform="translate(579.109375 0)"/>
      <use xlink:href="#DejaVuSans-6f" transform="translate(642.585938 0)"/>
      <use xlink:href="#DejaVuSans-6d" transform="translate(703.767578 0)"/>
      <use xlink:href="#DejaVuSans-5f" transform="translate(801.179688 0)"/>
      <use xlink:href="#DejaVuSans-66" transform="translate(851.179688 0)"/>
      <use xlink:href="#DejaVuSans-6f" transform="translate(886.384766 0)"/>
      <use xlink:href="#DejaVuSans-72" transform="translate(947.566406 0)"/>
      <use xlink:href="#DejaVuSans-65" transform="translate(986.429688 0)"/>
      <use xlink:href="#DejaVuSans-73" transform="translate(1047.953125 0)"/>
      <use xlink:href="#DejaVuSans-74" transform="translate(1100.052734 0)"/>
      <use xlink:href="#DejaVuSans-5f" transform="translate(1139.261719 0)"/>
      <use xlink:href="#DejaVuSans-31" transform="translate(1189.261719 0)"/>
      <use xlink:href="#DejaVuSans-33" transform="translate(1252.884766 0)"/>
      <use xlink:href="#DejaVuSans-37" transform="translate(1316.507812 0)"/>
     </g>
    </g>
    <g id="patch_47">
     <path d="M 756.725063 58.156297 
L 780.925063 58.156297 
L 780.925063 49.686297 
L 756.725063 49.686297 
z
" style="fill: #949494; stroke: #303030; stroke-linejoin: miter"/>
    </g>
    <g id="text_23">
     <!-- rollOCT_random_forest_137 -->
     <g style="fill: #262626" transform="translate(790.605063 58.156297) scale(0.121 -0.121)">
      <use xlink:href="#DejaVuSans-72"/>
      <use xlink:href="#DejaVuSans-6f" transform="translate(38.863281 0)"/>
      <use xlink:href="#DejaVuSans-6c" transform="translate(100.044922 0)"/>
      <use xlink:href="#DejaVuSans-6c" transform="translate(127.828125 0)"/>
      <use xlink:href="#DejaVuSans-4f" transform="translate(155.611328 0)"/>
      <use xlink:href="#DejaVuSans-43" transform="translate(234.322266 0)"/>
      <use xlink:href="#DejaVuSans-54" transform="translate(304.146484 0)"/>
      <use xlink:href="#DejaVuSans-5f" transform="translate(365.230469 0)"/>
      <use xlink:href="#DejaVuSans-72" transform="translate(415.230469 0)"/>
      <use xlink:href="#DejaVuSans-61" transform="translate(456.34375 0)"/>
      <use xlink:href="#DejaVuSans-6e" transform="translate(517.623047 0)"/>
      <use xlink:href="#DejaVuSans-64" transform="translate(581.001953 0)"/>
      <use xlink:href="#DejaVuSans-6f" transform="translate(644.478516 0)"/>
      <use xlink:href="#DejaVuSans-6d" transform="translate(705.660156 0)"/>
      <use xlink:href="#DejaVuSans-5f" transform="translate(803.072266 0)"/>
      <use xlink:href="#DejaVuSans-66" transform="translate(853.072266 0)"/>
      <use xlink:href="#DejaVuSans-6f" transform="translate(888.277344 0)"/>
      <use xlink:href="#DejaVuSans-72" transform="translate(949.458984 0)"/>
      <use xlink:href="#DejaVuSans-65" transform="translate(988.322266 0)"/>
      <use xlink:href="#DejaVuSans-73" transform="translate(1049.845703 0)"/>
      <use xlink:href="#DejaVuSans-74" transform="translate(1101.945312 0)"/>
      <use xlink:href="#DejaVuSans-5f" transform="translate(1141.154297 0)"/>
      <use xlink:href="#DejaVuSans-31" transform="translate(1191.154297 0)"/>
      <use xlink:href="#DejaVuSans-33" transform="translate(1254.777344 0)"/>
      <use xlink:href="#DejaVuSans-37" transform="translate(1318.400391 0)"/>
     </g>
    </g>
   </g>
  </g>
 </g>
 <defs>
  <clipPath id="p6fed962795">
   <rect x="52.717906" y="97.6156" width="948.6" height="332.64"/>
  </clipPath>
 </defs>
</svg>
